<svg id="Instagram" xmlns="http://www.w3.org/2000/svg" width="30" height="30" viewBox="0 0 30 30">
  <path id="Tracé_3" data-name="Tracé 3" d="M15,2.667a45.993,45.993,0,0,1,6,.167,7.73,7.73,0,0,1,2.833.5,5.853,5.853,0,0,1,2.833,2.833A7.73,7.73,0,0,1,27.167,9c0,1.5.167,2,.167,6a45.993,45.993,0,0,1-.167,6,7.73,7.73,0,0,1-.5,2.833,5.853,5.853,0,0,1-2.833,2.833,7.73,7.73,0,0,1-2.833.5c-1.5,0-2,.167-6,.167a45.993,45.993,0,0,1-6-.167,7.73,7.73,0,0,1-2.833-.5,5.853,5.853,0,0,1-2.833-2.833A7.73,7.73,0,0,1,2.833,21c0-1.5-.167-2-.167-6a45.993,45.993,0,0,1,.167-6,7.73,7.73,0,0,1,.5-2.833A5.986,5.986,0,0,1,4.5,4.5,2.818,2.818,0,0,1,6.167,3.333,7.73,7.73,0,0,1,9,2.833a45.993,45.993,0,0,1,6-.167M15,0A49.245,49.245,0,0,0,8.833.167,10.289,10.289,0,0,0,5.167.833,6.525,6.525,0,0,0,2.5,2.5,6.525,6.525,0,0,0,.833,5.167,7.594,7.594,0,0,0,.167,8.833,49.245,49.245,0,0,0,0,15a49.245,49.245,0,0,0,.167,6.167,10.289,10.289,0,0,0,.667,3.667A6.525,6.525,0,0,0,2.5,27.5a6.525,6.525,0,0,0,2.667,1.667,10.289,10.289,0,0,0,3.667.667A49.246,49.246,0,0,0,15,30a49.246,49.246,0,0,0,6.167-.167,10.289,10.289,0,0,0,3.667-.667,6.993,6.993,0,0,0,4.333-4.333,10.289,10.289,0,0,0,.667-3.667C29.833,19.5,30,19,30,15a49.246,49.246,0,0,0-.167-6.167,10.289,10.289,0,0,0-.667-3.667A6.525,6.525,0,0,0,27.5,2.5,6.525,6.525,0,0,0,24.833.833,10.289,10.289,0,0,0,21.167.167,49.245,49.245,0,0,0,15,0m0,7.333A7.543,7.543,0,0,0,7.333,15,7.667,7.667,0,1,0,15,7.333M15,20a4.911,4.911,0,0,1-5-5,4.911,4.911,0,0,1,5-5,4.911,4.911,0,0,1,5,5,4.911,4.911,0,0,1-5,5M23,5.167A1.833,1.833,0,1,0,24.833,7,1.85,1.85,0,0,0,23,5.167" fill="#fff" fill-rule="evenodd"/>
</svg>
