<svg id="Twitter" xmlns="http://www.w3.org/2000/svg" width="30" height="30" viewBox="0 0 30 30">
  <rect id="Rectangle_1457" data-name="Rectangle 1457" width="30" height="30" transform="translate(0 0)" fill="none"/>
  <path id="Tracé_2" data-name="Tracé 2" d="M46.763,24.444C57.216,24.444,62.9,15.836,62.9,8.3V7.534a12.5,12.5,0,0,0,2.767-2.921,12.761,12.761,0,0,1-3.228.922A5.981,5.981,0,0,0,64.9,2.461a14.1,14.1,0,0,1-3.536,1.384A5.49,5.49,0,0,0,57.216,2a5.776,5.776,0,0,0-5.688,5.688,3,3,0,0,0,.154,1.23A15.894,15.894,0,0,1,40,2.922a5.887,5.887,0,0,0-.769,2.921,6.108,6.108,0,0,0,2.46,4.766,5.182,5.182,0,0,1-2.613-.769h0a5.618,5.618,0,0,0,4.612,5.534,4.739,4.739,0,0,1-1.537.154,2.616,2.616,0,0,1-1.076-.154,5.824,5.824,0,0,0,5.381,4,11.607,11.607,0,0,1-7.072,2.46A4.256,4.256,0,0,1,38,21.677a14.51,14.51,0,0,0,8.763,2.767" transform="translate(-38 3)" fill="#fff" fill-rule="evenodd"/>
</svg>
