<svg xmlns="http://www.w3.org/2000/svg" width="277.442" height="764.2" viewBox="0 0 277.442 764.2">
  <g id="Groupe_273" data-name="Groupe 273" transform="matrix(0.996, -0.087, 0.087, 0.996, -27.327, 13.634)">
    <g id="Groupe_257" data-name="Groupe 257" transform="translate(17.27 116.146)">
      <path id="Tracé_389" data-name="Tracé 389" d="M-1487.241,1460.106c-1.006.443-1.557-.473-1.212-2.047,13.156-61.021,44.588-126.372,70.22-188.6,26.244-62.3,45.759-121.378,50.226-171.706.13-1.3,1.068-1.748,2.095-1.007a4.316,4.316,0,0,1,1.578,3.662c-5.3,49.836-25,108.245-51.039,169.8-25.45,61.488-56.344,126.014-69.437,186.292A5.551,5.551,0,0,1-1487.241,1460.106Z" transform="translate(1488.556 -1096.385)" fill="#fa214d"/>
    </g>
    <g id="Groupe_258" data-name="Groupe 258" transform="translate(80.268 90.061)">
      <path id="Tracé_390" data-name="Tracé 390" d="M-1526.634,1311.7c-.809-.014-.819-1.548-.016-3.431,20.01-46.8,40.66-93.033,55-135.8,14.671-42.807,22.906-82.125,26.171-116.081.136-1.365,1.123-1.8,2.2-.987a4.7,4.7,0,0,1,1.64,3.916c-3.924,33.639-12.586,72.548-27.378,114.868-14.474,42.282-34.954,87.961-54.722,134.179C-1524.531,1310.225-1525.825,1311.716-1526.634,1311.7Z" transform="translate(1527.247 -1054.997)" fill="#fa214d"/>
    </g>
    <g id="Groupe_259" data-name="Groupe 259" transform="translate(28.949 357.044)">
      <path id="Tracé_391" data-name="Tracé 391" d="M-1383.37,1623.328c-1.412.767-2.371-.244-2.107-2.271,5.687-44.123,22.96-91.347,42.615-138.475.9-2.166,2.625-3.938,3.844-3.964s1.487,1.668.606,3.786c-19.287,46.27-36.183,92.617-41.942,135.947A7.3,7.3,0,0,1-1383.37,1623.328Z" transform="translate(1385.521 -1478.618)" fill="#fa214d"/>
    </g>
    <g id="Groupe_260" data-name="Groupe 260" transform="translate(74.716 34.138)">
      <path id="Tracé_392" data-name="Tracé 392" d="M-1476.533,1238.915c-.567-.1-.628-1.124-.141-2.283,22.457-52.9,41.5-103.968,49.909-149.758a338.463,338.463,0,0,0,1.785-120.007c-.115-.736.7-.807,1.8-.167a4.5,4.5,0,0,1,2.168,2.486,349.362,349.362,0,0,1-3.5,119.243c-8.746,45.462-27.8,96.131-50.12,148.592C-1475.114,1238.169-1475.968,1239.015-1476.533,1238.915Z" transform="translate(1477.002 -966.263)" fill="#fa214d"/>
    </g>
    <g id="Groupe_261" data-name="Groupe 261" transform="translate(0 458.959)">
      <path id="Tracé_393" data-name="Tracé 393" d="M-1284.427,1733.2c-.623.433-1.266-1.227-1.371-3.717-1.136-26.733,3.052-54.894,10.713-83.832.711-2.7,1.85-5.078,2.5-5.307s.574,1.756-.134,4.426c-7.621,28.71-11.82,56.659-10.795,83.193C-1283.42,1730.431-1283.8,1732.771-1284.427,1733.2Z" transform="translate(1285.982 -1640.326)" fill="#fa214d"/>
    </g>
    <g id="Groupe_262" data-name="Groupe 262" transform="translate(73.858 136.944)">
      <path id="Tracé_394" data-name="Tracé 394" d="M-1496.718,1331.508c-1.185-.056-1.375-1.913-.422-4.142,30.549-70.065,58.54-138.167,68.083-195.981.325-1.846,1.643-2.534,2.951-1.551a5.481,5.481,0,0,1,1.717,5.053c-10.578,56.967-38.462,123.928-68.492,192.765C-1493.817,1329.839-1495.532,1331.563-1496.718,1331.508Z" transform="translate(1497.747 -1129.386)" fill="#fa214d"/>
    </g>
    <g id="Groupe_263" data-name="Groupe 263" transform="translate(43.481 357.243)">
      <path id="Tracé_395" data-name="Tracé 395" d="M-1371,1535.759c-1.337.315-1.778-1.232-.969-3.457,5.947-16.353,12.551-32.818,19.405-49.27.929-2.236,2.682-4.073,3.9-4.1s1.461,1.729.55,3.92c-6.73,16.16-13.21,32.334-19.047,48.4C-1367.957,1533.426-1369.667,1535.445-1371,1535.759Z" transform="translate(1372.379 -1478.933)" fill="#ff9929"/>
    </g>
    <g id="Groupe_264" data-name="Groupe 264" transform="translate(28.215 532.751)">
      <path id="Tracé_396" data-name="Tracé 396" d="M-1320.792,1833.052c-.5.64-1.251.486-1.673-.347-11.3-22.337-16.977-46.7-17.638-72.528a3.3,3.3,0,0,1,1.2-2.577c.686-.458,1.253-.057,1.274.9.556,25.6,6.018,49.752,17,71.907A2.732,2.732,0,0,1-1320.792,1833.052Z" transform="translate(1340.104 -1757.411)" fill="#fa214d"/>
    </g>
    <g id="Groupe_265" data-name="Groupe 265" transform="translate(145.046)">
      <path id="Tracé_397" data-name="Tracé 397" d="M-1510.182,1039.986a5.983,5.983,0,0,1-2.011-5.082c7.247-49.81,1.214-91.182,1.978-122.13.036-1.112,2.246-.823,4.864.632s4.606,3.517,4.5,4.615c-2.318,30.637,1.884,71.525-6.374,120.619C-1507.5,1040.395-1508.831,1041-1510.182,1039.986Z" transform="translate(1512.232 -912.097)" fill="#fa214d"/>
    </g>
    <g id="Groupe_266" data-name="Groupe 266" transform="translate(118.185 88.28)">
      <path id="Tracé_398" data-name="Tracé 398" d="M-1457.489,1091.878c-.893-.6-1.471-2.8-1.315-4.886a297.35,297.35,0,0,0,.723-32.341c-.066-1.951.734-2.956,1.811-2.262s1.982,2.8,2,4.739a307.62,307.62,0,0,1-1.244,32.077C-1455.7,1091.275-1456.594,1092.48-1457.489,1091.878Z" transform="translate(1458.829 -1052.171)" fill="#fa214d"/>
    </g>
    <g id="Groupe_267" data-name="Groupe 267" transform="translate(10.372 522.853)">
      <path id="Tracé_399" data-name="Tracé 399" d="M-1416.017,1971.19c1.67,1.721.832,2.483-1.925,1.688-68.627-19.747-130.734-49.488-170.448-87.93-40.429-38.354-58.32-85.427-56.161-137.667.069-2.1,1.289-4.475,2.678-5.291s2.42.2,2.338,2.254c-2.431,51.368,14.391,97.706,52.866,135.529,37.8,37.907,97.106,67.317,162.914,86.889A21.039,21.039,0,0,1-1416.017,1971.19Z" transform="translate(1644.725 -1741.706)" fill="#fa214d"/>
    </g>
    <g id="Groupe_268" data-name="Groupe 268" transform="translate(2.733 557.461)">
      <path id="Tracé_400" data-name="Tracé 400" d="M-1341.158,1955.865c.315,1.188-1.809.884-4.705-.705-70.843-38.443-112.337-90.922-119.219-152.457-.32-2.536.289-5.188,1.29-5.9s2,.749,2.288,3.247c6.348,60.8,46.261,112.725,114.715,150.84C-1344.008,1952.462-1341.469,1954.68-1341.158,1955.865Z" transform="translate(1465.168 -1796.618)" fill="#ff9929"/>
    </g>
    <g id="Groupe_269" data-name="Groupe 269" transform="translate(18.345 439.103)">
      <path id="Tracé_401" data-name="Tracé 401" d="M-1332.818,1840.8c-.178.854-1.1.891-2.056.074-34.235-29.055-55.222-63.878-62.37-102.814-7.422-38.9-1.113-81.9,12.566-126.478a4.335,4.335,0,0,1,2.12-2.712c.785-.247,1.112.557.733,1.793-13.552,44.127-19.873,86.7-12.791,125.228,6.819,38.564,27.151,73.081,60.436,101.9A3.714,3.714,0,0,1-1332.818,1840.8Z" transform="translate(1400.392 -1608.821)" fill="#ff9929"/>
    </g>
    <g id="Groupe_270" data-name="Groupe 270" transform="translate(106.26 684.181)">
      <path id="Tracé_402" data-name="Tracé 402" d="M-1493.754,2048.871c.625.863.128,1.219-1.116.792-37.484-12.84-72.191-29.175-100.7-48.733a3.653,3.653,0,0,1-1.659-2.584c.03-.778.8-.886,1.724-.239,27.83,19.426,61.75,35.665,98.43,48.437A7.954,7.954,0,0,1-1493.754,2048.871Z" transform="translate(1597.226 -1997.685)" fill="#fa214d"/>
    </g>
  </g>
</svg>
