<svg xmlns="http://www.w3.org/2000/svg" width="548.802" height="383.384" viewBox="0 0 548.802 383.384">
  <g id="Groupe_241" data-name="Groupe 241" transform="matrix(1, 0.017, -0.017, 1, 1806.011, 1959.93)">
    <g id="Groupe_227" data-name="Groupe 227" transform="translate(-1692.688 -1711.789)">
      <path id="Tracé_361" data-name="Tracé 361" d="M-1330.553-1619.01c1.286-.243,1.536.32.547,1.263-38.254,36.643-87.531,67.635-140.07,90.005-52.505,22.693-108.273,36.764-158.733,47.009a8.365,8.365,0,0,1-4.792-.8c-1.345-.711-1.382-1.5-.08-1.749,50.44-9.708,106.151-23.208,158.667-45.318,52.548-21.79,101.9-52.189,140.344-88.3A9.778,9.778,0,0,1-1330.553-1619.01Z" transform="translate(1634.634 1619.067)" fill="#fa214d"/>
    </g>
    <g id="Groupe_228" data-name="Groupe 228" transform="translate(-1760.158 -1645.6)">
      <path id="Tracé_362" data-name="Tracé 362" d="M-1478.848-1525.529c1.257.149,1,.888-.6,1.65-79.307,38.7-171.017,53.2-244.836,62.988a7.844,7.844,0,0,1-4.887-1.144c-1.216-.849-1-1.7.481-1.9,73.8-9.025,165.338-22.673,244.688-60.519A11.6,11.6,0,0,1-1478.848-1525.529Z" transform="translate(1729.956 1525.556)" fill="#ff9929"/>
    </g>
    <g id="Groupe_229" data-name="Groupe 229" transform="translate(-1500.166 -1726.479)">
      <path id="Tracé_363" data-name="Tracé 363" d="M-1253.891-1639.737c1.752-.347,2.152.409.869,1.7-27.959,28.119-62.881,53.39-101.576,73.674a13.84,13.84,0,0,1-6.6,1.367c-1.866-.18-1.924-1.058-.149-1.958,38.742-19.657,73.785-44.309,101.957-71.877A12.838,12.838,0,0,1-1253.891-1639.737Z" transform="translate(1362.638 1639.821)" fill="#fa214d"/>
    </g>
    <g id="Groupe_230" data-name="Groupe 230" transform="translate(-1759.795 -1626.349)">
      <path id="Tracé_364" data-name="Tracé 364" d="M-1474.474-1498.332c.96.11.987.568.05,1.02-85.475,42.324-181.652,57.418-251.047,74.716a4.621,4.621,0,0,1-3.124-.8c-.964-.648-1.134-1.333-.372-1.525,69.483-16.722,165.544-31.161,251.061-72.806A7.455,7.455,0,0,1-1474.474-1498.332Z" transform="translate(1729.443 1498.357)" fill="#ff9929"/>
    </g>
    <g id="Groupe_231" data-name="Groupe 231" transform="translate(-1390.196 -1758.199)">
      <path id="Tracé_365" data-name="Tracé 365" d="M-1154.416-1684.591c.8-.29.467.863-.771,2.574a367.846,367.846,0,0,1-47.106,53.007c-1.672,1.563-3.746,2.942-4.606,3.09s-.176-.978,1.5-2.524A366.969,366.969,0,0,0-1158.089-1681,12.427,12.427,0,0,1-1154.416-1684.591Z" transform="translate(1207.273 1684.636)" fill="#ff9929"/>
    </g>
    <g id="Groupe_232" data-name="Groupe 232" transform="translate(-1688.293 -1640.995)">
      <path id="Tracé_366" data-name="Tracé 366" d="M-1440.967-1519.012c1.886.192,1.947,1.084.122,1.993-57.37,28.75-121.155,46.125-179.461,57.285a11.99,11.99,0,0,1-6.726-1.089c-1.856-.97-1.858-2.031,0-2.364,58.245-10.3,121.935-26.758,179.357-54.589A14.841,14.841,0,0,1-1440.967-1519.012Z" transform="translate(1628.424 1519.05)" fill="#fa214d"/>
    </g>
    <g id="Groupe_233" data-name="Groupe 233" transform="translate(-1487.517 -1675.427)">
      <path id="Tracé_367" data-name="Tracé 367" d="M-1299.48-1567.69c1.849-.078,2.046.771.415,1.9-12.012,8.287-24.6,16.089-37.617,23.351a14.026,14.026,0,0,1-6.62,1.554c-1.881-.13-1.958-1.013-.188-1.967,13.039-7.048,25.654-14.637,37.706-22.716A14.489,14.489,0,0,1-1299.48-1567.69Z" transform="translate(1344.767 1567.695)" fill="#ff9929"/>
    </g>
    <g id="Groupe_234" data-name="Groupe 234" transform="translate(-1373.28 -1804.508)">
      <path id="Tracé_368" data-name="Tracé 368" d="M-1145.25-1749.912c.774-.345,1.136-.074.807.612a274.517,274.517,0,0,1-35.55,54.935,5.743,5.743,0,0,1-2.545,1.622c-.852.225-1.09-.131-.539-.794a273.9,273.9,0,0,0,35.828-54.523A4.639,4.639,0,0,1-1145.25-1749.912Z" transform="translate(1183.373 1750.062)" fill="#fa214d"/>
    </g>
    <g id="Groupe_235" data-name="Groupe 235" transform="translate(-1833.321 -1582.349)">
      <path id="Tracé_369" data-name="Tracé 369" d="M-1696.6-1434.842c1.857,1.005,1.884,2.088.064,2.427-50.784,9.493-96.628,15.481-129.215,29.615-1.166.511-3.666-.37-5.6-1.995s-2.549-3.359-1.371-3.841c32.867-13.467,78.724-18.735,129.467-27.476A12.154,12.154,0,0,1-1696.6-1434.842Z" transform="translate(1833.321 1436.194)" fill="#fa214d"/>
    </g>
    <g id="Groupe_236" data-name="Groupe 236" transform="translate(-1682.29 -1568.573)">
      <path id="Tracé_370" data-name="Tracé 370" d="M-1581.365-1416.333c1.258.523.675,1.378-1.29,1.908-10.506,2.823-20.832,5.476-30.907,8.03a9.69,9.69,0,0,1-5.689-.265c-1.259-.627-.753-1.507,1.134-1.966,10.077-2.456,20.4-5.009,30.909-7.732A11.14,11.14,0,0,1-1581.365-1416.333Z" transform="translate(1619.944 1416.731)" fill="#fa214d"/>
    </g>
    <g id="Groupe_237" data-name="Groupe 237" transform="translate(-1365.001 -1936.403)">
      <path id="Tracé_371" data-name="Tracé 371" d="M-1120.894-1935.663c1.022-.949,2.276-.995,2.789-.079,26.152,44.733,11.689,123.127-46.647,193.259a12.124,12.124,0,0,1-5.255,3.41c-1.74.476-2.189-.259-1.025-1.631,58.928-68.9,74.443-146.573,49.189-191.593A3.07,3.07,0,0,1-1120.894-1935.663Z" transform="translate(1171.677 1936.403)" fill="#fa214d"/>
    </g>
    <g id="Groupe_238" data-name="Groupe 238" transform="translate(-1337.344 -1893.458)">
      <path id="Tracé_372" data-name="Tracé 372" d="M-1087.673-1875.4c.939-.759,1.778-.167,1.84,1.351,1.585,36.728-12.188,81.876-41.274,125.419a12.008,12.008,0,0,1-4.508,4.109c-1.283.471-1.314-.587-.108-2.358,29.4-43.034,43.6-87.818,42.446-124.43A5.619,5.619,0,0,1-1087.673-1875.4Z" transform="translate(1132.603 1875.731)" fill="#fa214d"/>
    </g>
    <g id="Groupe_239" data-name="Groupe 239" transform="translate(-1424.669 -1856.455)">
      <path id="Tracé_373" data-name="Tracé 373" d="M-1141.133-1823.177c.785-.5,1.319-.3,1.188.45-8.9,53.576-49.024,116.928-111.666,165.673a7.749,7.749,0,0,1-3.48,1.415c-1.047.093-1.185-.379-.311-1.056,62.8-48.1,103.276-110.9,112.6-164.233A4.03,4.03,0,0,1-1141.133-1823.177Z" transform="translate(1255.976 1823.452)" fill="#fa214d"/>
    </g>
    <g id="Groupe_240" data-name="Groupe 240" transform="translate(-1317.678 -1922.817)">
      <path id="Tracé_374" data-name="Tracé 374" d="M-1104.139-1916.874c.541-.46,1.145-.445,1.346.045,6.1,14.7,8.7,31.839,7.42,50.7a3.034,3.034,0,0,1-1.273,1.944c-.66.446-1.153.3-1.106-.326,1.415-18.805-1.038-35.926-7-50.65A1.7,1.7,0,0,1-1104.139-1916.874Z" transform="translate(1104.818 1917.208)" fill="#fa214d"/>
    </g>
  </g>
</svg>
