<svg xmlns="http://www.w3.org/2000/svg" width="239.938" height="754.34" viewBox="0 0 239.938 754.34">
  <g id="Groupe_271" data-name="Groupe 271" transform="translate(1644.725 -912.097)">
    <g id="Groupe_257" data-name="Groupe 257" transform="translate(-1546.301 1028.243)">
      <path id="Tracé_389" data-name="Tracé 389" d="M-1365.627,1460.106c1.006.443,1.557-.473,1.212-2.047-13.156-61.021-44.588-126.372-70.22-188.6-26.244-62.3-45.759-121.378-50.226-171.706-.13-1.3-1.068-1.748-2.095-1.007a4.316,4.316,0,0,0-1.578,3.662c5.3,49.836,25,108.245,51.039,169.8,25.45,61.488,56.344,126.014,69.437,186.292A5.551,5.551,0,0,0-1365.627,1460.106Z" transform="translate(1488.556 -1096.386)" fill="#ffc900"/>
    </g>
    <g id="Groupe_258" data-name="Groupe 258" transform="translate(-1570.686 1002.159)">
      <path id="Tracé_390" data-name="Tracé 390" d="M-1442.229,1311.7c.809-.014.819-1.548.016-3.431-20.01-46.8-40.66-93.033-55-135.8-14.671-42.807-22.906-82.125-26.171-116.081-.136-1.365-1.123-1.8-2.2-.987a4.7,4.7,0,0,0-1.64,3.916c3.924,33.639,12.586,72.548,27.378,114.868,14.474,42.282,34.954,87.961,54.723,134.179C-1444.332,1310.225-1443.039,1311.717-1442.229,1311.7Z" transform="translate(1527.247 -1054.997)" fill="#ff9929"/>
    </g>
    <g id="Groupe_259" data-name="Groupe 259" transform="translate(-1481.364 1269.141)">
      <path id="Tracé_391" data-name="Tracé 391" d="M-1340.043,1623.328c1.412.767,2.371-.244,2.107-2.271-5.687-44.123-22.96-91.347-42.615-138.475-.9-2.166-2.625-3.938-3.844-3.964s-1.487,1.668-.606,3.786c19.287,46.27,36.183,92.617,41.942,135.947A7.3,7.3,0,0,0-1340.043,1623.328Z" transform="translate(1385.521 -1478.618)" fill="#ffc900"/>
    </g>
    <g id="Groupe_260" data-name="Groupe 260" transform="translate(-1539.019 946.235)">
      <path id="Tracé_392" data-name="Tracé 392" d="M-1417.956,1238.915c.567-.1.628-1.124.141-2.283-22.457-52.9-41.5-103.968-49.909-149.758a338.463,338.463,0,0,1-1.785-120.007c.115-.736-.7-.807-1.8-.167a4.5,4.5,0,0,0-2.168,2.486,349.36,349.36,0,0,0,3.5,119.243c8.746,45.462,27.8,96.131,50.12,148.592C-1419.375,1238.17-1418.521,1239.015-1417.956,1238.915Z" transform="translate(1477.002 -966.263)" fill="#ff9929"/>
    </g>
    <g id="Groupe_261" data-name="Groupe 261" transform="translate(-1418.631 1371.056)">
      <path id="Tracé_393" data-name="Tracé 393" d="M-1273.694,1733.2c.623.433,1.266-1.227,1.371-3.717,1.136-26.733-3.052-54.894-10.713-83.832-.711-2.7-1.85-5.078-2.5-5.307s-.574,1.756.134,4.426c7.621,28.71,11.82,56.659,10.795,83.193C-1274.7,1730.431-1274.319,1732.771-1273.694,1733.2Z" transform="translate(1285.982 -1640.326)" fill="#ffc900"/>
    </g>
    <g id="Groupe_262" data-name="Groupe 262" transform="translate(-1552.094 1049.042)">
      <path id="Tracé_394" data-name="Tracé 394" d="M-1425.328,1331.508c1.185-.056,1.375-1.913.422-4.142-30.549-70.065-58.54-138.167-68.083-195.981-.325-1.846-1.643-2.534-2.951-1.551a5.481,5.481,0,0,0-1.717,5.053c10.578,56.967,38.462,123.928,68.492,192.765C-1428.229,1329.839-1426.513,1331.563-1425.328,1331.508Z" transform="translate(1497.747 -1129.386)" fill="#ffc900"/>
    </g>
    <g id="Groupe_263" data-name="Groupe 263" transform="translate(-1473.082 1269.34)">
      <path id="Tracé_395" data-name="Tracé 395" d="M-1348.941,1535.759c1.337.315,1.778-1.232.969-3.457-5.947-16.353-12.551-32.818-19.405-49.27-.929-2.236-2.682-4.073-3.9-4.1s-1.461,1.729-.55,3.92c6.73,16.16,13.21,32.334,19.047,48.4C-1351.989,1533.426-1350.278,1535.445-1348.941,1535.759Z" transform="translate(1372.379 -1478.933)" fill="#ff9929"/>
    </g>
    <g id="Groupe_264" data-name="Groupe 264" transform="translate(-1452.74 1444.848)">
      <path id="Tracé_396" data-name="Tracé 396" d="M-1339.677,1833.052c.5.64,1.251.486,1.673-.347,11.3-22.337,16.977-46.7,17.638-72.528a3.3,3.3,0,0,0-1.2-2.577c-.686-.458-1.253-.057-1.274.9-.556,25.6-6.018,49.752-17,71.907A2.732,2.732,0,0,0-1339.677,1833.052Z" transform="translate(1340.104 -1757.411)" fill="#ffc900"/>
    </g>
    <g id="Groupe_265" data-name="Groupe 265" transform="translate(-1561.223 912.097)">
      <path id="Tracé_397" data-name="Tracé 397" d="M-1502.892,1039.986a5.983,5.983,0,0,0,2.011-5.082c-7.247-49.81-1.214-91.182-1.978-122.13-.036-1.112-2.246-.823-4.864.632s-4.606,3.517-4.5,4.615c2.318,30.637-1.884,71.525,6.374,120.619C-1505.571,1040.4-1504.244,1041-1502.892,1039.986Z" transform="translate(1512.232 -912.097)" fill="#ffc900"/>
    </g>
    <g id="Groupe_266" data-name="Groupe 266" transform="translate(-1527.566 1000.377)">
      <path id="Tracé_398" data-name="Tracé 398" d="M-1455.575,1091.878c.893-.6,1.471-2.8,1.315-4.886a297.35,297.35,0,0,1-.723-32.341c.066-1.951-.734-2.956-1.811-2.262s-1.982,2.8-2,4.739a307.62,307.62,0,0,0,1.244,32.077C-1457.365,1091.275-1456.47,1092.48-1455.575,1091.878Z" transform="translate(1458.829 -1052.171)" fill="#ffc900"/>
    </g>
    <g id="Groupe_267" data-name="Groupe 267" transform="translate(-1644.725 1434.95)">
      <path id="Tracé_399" data-name="Tracé 399" d="M-1643.868,1971.19c-1.67,1.721-.832,2.483,1.925,1.688,68.627-19.747,130.734-49.488,170.448-87.93,40.429-38.354,58.32-85.427,56.161-137.667-.069-2.1-1.289-4.475-2.678-5.291s-2.42.2-2.338,2.254c2.431,51.368-14.391,97.706-52.866,135.529-37.8,37.907-97.106,67.317-162.915,86.889A21.039,21.039,0,0,0-1643.868,1971.19Z" transform="translate(1644.725 -1741.706)" fill="#ffc900"/>
    </g>
    <g id="Groupe_268" data-name="Groupe 268" transform="translate(-1531.561 1469.558)">
      <path id="Tracé_400" data-name="Tracé 400" d="M-1465.137,1955.865c-.315,1.188,1.809.884,4.705-.705,70.843-38.443,112.337-90.922,119.219-152.457.32-2.536-.289-5.188-1.29-5.9s-2,.749-2.288,3.247c-6.348,60.8-46.261,112.725-114.715,150.84C-1462.287,1952.462-1464.826,1954.68-1465.137,1955.865Z" transform="translate(1465.168 -1796.618)" fill="#ff9929"/>
    </g>
    <g id="Groupe_269" data-name="Groupe 269" transform="translate(-1490.736 1351.2)">
      <path id="Tracé_401" data-name="Tracé 401" d="M-1400.362,1840.8c.178.854,1.1.891,2.056.074,34.235-29.055,55.222-63.878,62.37-102.814,7.422-38.9,1.113-81.9-12.566-126.479a4.335,4.335,0,0,0-2.12-2.712c-.785-.247-1.112.557-.733,1.793,13.552,44.127,19.873,86.7,12.791,125.228-6.819,38.564-27.151,73.081-60.436,101.9A3.714,3.714,0,0,0-1400.362,1840.8Z" transform="translate(1400.392 -1608.821)" fill="#ff9929"/>
    </g>
    <g id="Groupe_270" data-name="Groupe 270" transform="translate(-1614.789 1596.279)">
      <path id="Tracé_402" data-name="Tracé 402" d="M-1596.956,2048.872c-.625.863-.128,1.219,1.116.792,37.484-12.84,72.191-29.175,100.7-48.733a3.653,3.653,0,0,0,1.659-2.584c-.03-.778-.8-.886-1.724-.239-27.83,19.426-61.75,35.665-98.43,48.437A7.954,7.954,0,0,0-1596.956,2048.872Z" transform="translate(1597.226 -1997.685)" fill="#ff9929"/>
    </g>
  </g>
</svg>
