<svg xmlns="http://www.w3.org/2000/svg" width="731.753" height="626.836" viewBox="0 0 731.753 626.836">
  <g id="Groupe_256" data-name="Groupe 256" transform="translate(1549.157 1130.045) rotate(-7)">
    <g id="Groupe_242" data-name="Groupe 242" transform="translate(-1117.196 -1183.679)">
      <path id="Tracé_375" data-name="Tracé 375" d="M-1013.555-870.107c-.659-.748-.476-2.523.412-3.972,67.768-113.27,134.014-237.711,242.179-297.211,1.38-.776,2.629-1.015,2.781-.548s-.843,1.471-2.217,2.254c-107.636,59.941-173.348,184.6-240.376,298.2C-1011.65-869.93-1012.9-869.36-1013.555-870.107Z" transform="translate(1013.95 1172.076)" fill="#ffc900"/>
    </g>
    <g id="Groupe_243" data-name="Groupe 243" transform="translate(-1035.011 -1198.231)">
      <path id="Tracé_376" data-name="Tracé 376" d="M-906.679-984.308c-.433-.62.094-2.579,1.184-4.372,53.831-89.574,119.187-167.174,210.611-201.635,1.828-.7,3.393-.931,3.479-.539s-1.33,1.265-3.149,1.972c-91.052,34.809-156.011,112.658-209.392,202.439C-905.023-984.647-906.246-983.687-906.679-984.308Z" transform="translate(906.831 1191.043)" fill="#ffc900"/>
    </g>
    <g id="Groupe_244" data-name="Groupe 244" transform="translate(-1123.252 -982.799)">
      <path id="Tracé_377" data-name="Tracé 377" d="M-1021.2-766.61c-1-1.079-.826-3.566.38-5.565,26.243-43.633,50.806-90.651,77.469-135.662,1.223-2.065,2.754-2.978,3.415-2.051s.214,3.357-.989,5.428c-26.32,45.167-50.513,92.338-76.323,136.171C-1018.425-766.279-1020.2-765.532-1021.2-766.61Z" transform="translate(1021.845 910.249)" fill="#ffc900"/>
    </g>
    <g id="Groupe_245" data-name="Groupe 245" transform="translate(-1024.192 -1221.135)">
      <path id="Tracé_378" data-name="Tracé 378" d="M-892.626-1042.213c-.284-.444.04-1.584.73-2.552,62.5-88.707,140.634-158.175,247.69-176.007,1.167-.2,2.138-.154,2.162.1s-.9.616-2.063.82c-106.776,18.126-184.6,87.812-246.763,176.688C-891.556-1042.2-892.341-1041.77-892.626-1042.213Z" transform="translate(892.729 1220.897)" fill="#ff9929"/>
    </g>
    <g id="Groupe_246" data-name="Groupe 246" transform="translate(-1164.75 -913.245)">
      <path id="Tracé_379" data-name="Tracé 379" d="M-1075.786-737.642c-.517-.529.377-2.693,1.981-4.851,17.22-23.192,33.348-48.1,49.265-73.577,1.484-2.373,3.011-3.914,3.416-3.435s-.457,2.8-1.928,5.173c-15.809,25.521-31.818,50.487-48.909,73.742C-1073.551-738.424-1075.27-737.112-1075.786-737.642Z" transform="translate(1075.933 819.592)" fill="#ffc900"/>
    </g>
    <g id="Groupe_247" data-name="Groupe 247" transform="translate(-1035.726 -1170.435)">
      <path id="Tracé_380" data-name="Tracé 380" d="M-907.5-989.837c-.628-.914-.1-3.291,1.19-5.3,40.361-63.3,86.416-120.27,144.467-158.4,1.845-1.215,3.551-1.629,3.795-.949s-1.051,2.206-2.882,3.435c-57.634,38.458-103.254,95.676-143.135,159.207C-905.335-989.826-906.871-988.924-907.5-989.837Z" transform="translate(907.762 1154.814)" fill="#ff9929"/>
    </g>
    <g id="Groupe_248" data-name="Groupe 248" transform="translate(-1077.585 -989.089)">
      <path id="Tracé_381" data-name="Tracé 381" d="M-961.905-864.741c-.78-.982-.433-3.467.778-5.549,8.9-15.344,17.892-30.664,27.1-45.766,1.252-2.05,2.807-2.955,3.469-2.025s.192,3.345-1.042,5.4c-9.095,15.153-17.964,30.528-26.743,45.926C-959.531-864.66-961.124-863.762-961.905-864.741Z" transform="translate(962.322 918.447)" fill="#ffc900"/>
    </g>
    <g id="Groupe_249" data-name="Groupe 249" transform="translate(-1200.428 -808.416)">
      <path id="Tracé_382" data-name="Tracé 382" d="M-1121.96-610.681a1.711,1.711,0,0,1,.143-2.5c20.526-20.009,38.641-43.441,55.6-68.8.632-.944,1.584-1.26,2.128-.7a2.365,2.365,0,0,1-.147,2.734c-16.811,25.433-34.767,48.95-55.1,69.065A1.925,1.925,0,0,1-1121.96-610.681Z" transform="translate(1122.436 682.957)" fill="#ff9929"/>
    </g>
    <g id="Groupe_250" data-name="Groupe 250" transform="translate(-876.15 -1221.922)">
      <path id="Tracé_383" data-name="Tracé 383" d="M-699.746-1176.265c-.229-.666,1.128-2.123,3.043-3.225,53.352-30.9,116.352-46.163,189.305-41.653,2.612.158,4.688.613,4.619.981s-2.243.523-4.84.38c-72.646-4.132-135.3,11.487-188.289,42.684C-697.809-1175.984-699.518-1175.6-699.746-1176.265Z" transform="translate(699.771 1221.922)" fill="#ffc900"/>
    </g>
    <g id="Groupe_251" data-name="Groupe 251" transform="translate(-898.77 -1199.834)">
      <path id="Tracé_384" data-name="Tracé 384" d="M-729.241-1170.854c-.166-.447,1.317-1.837,3.329-3.074a328.86,328.86,0,0,1,33.334-18c2.153-1,4.008-1.465,4.125-1.06s-1.541,1.531-3.682,2.543a328.33,328.33,0,0,0-33.192,18.116C-727.329-1171.08-729.074-1170.408-729.241-1170.854Z" transform="translate(729.254 1193.133)" fill="#ffc900"/>
    </g>
    <g id="Groupe_252" data-name="Groupe 252" transform="translate(-1457.488 -841.339)">
      <path id="Tracé_385" data-name="Tracé 385" d="M-1455.95-588.911c-2.566-2.124-1.837-3.163,1.573-2.376,84.524,19.2,144.47,9.16,192.288-16.828,47.684-26.108,83.238-68.159,115.865-115.737,1.305-1.914,3.193-2.586,4.227-1.492s.838,3.556-.441,5.481c-32.093,47.833-67.029,90.208-113.874,116.851-46.977,26.527-105.864,37.322-188.9,19.313A30.058,30.058,0,0,1-1455.95-588.911Z" transform="translate(1457.488 725.869)" fill="#ff9929"/>
    </g>
    <g id="Groupe_253" data-name="Groupe 253" transform="translate(-1337.681 -823.617)">
      <path id="Tracé_386" data-name="Tracé 386" d="M-1300.721-588.5c-1.464-1.245-.2-2.623,2.77-3.151,71.783-12.99,120.138-55.473,161.965-108.413,1.722-2.186,3.788-3.278,4.637-2.417s.172,3.366-1.523,5.563c-41.309,53.205-89.02,96.046-159.86,109.707C-1295.657-586.646-1299.255-587.255-1300.721-588.5Z" transform="translate(1301.332 702.771)" fill="#ffc900"/>
    </g>
    <g id="Groupe_254" data-name="Groupe 254" transform="translate(-1271.354 -912.038)">
      <path id="Tracé_387" data-name="Tracé 387" d="M-1214.243-609.881a1.363,1.363,0,0,1,.321-2.458c80.6-37.753,128.024-119.955,177.292-204.331.686-1.185,1.628-1.684,2.1-1.109s.31,2-.369,3.193c-48.849,84.565-95.786,166.97-175.561,205.268A3.793,3.793,0,0,1-1214.243-609.881Z" transform="translate(1214.881 818.019)" fill="#ffc900"/>
    </g>
    <g id="Groupe_255" data-name="Groupe 255" transform="translate(-1415.543 -693.979)">
      <path id="Tracé_388" data-name="Tracé 388" d="M-1402.071-526.414c-1.21-1-.914-1.607.642-1.369,46.879,7.117,85.267,4.121,118.149-5.892a4.247,4.247,0,0,1,3.6.789c.9.772.759,1.68-.319,2.02-32.588,10.217-70.628,13.464-117.088,6.68A11.888,11.888,0,0,1-1402.071-526.414Z" transform="translate(1402.817 533.8)" fill="#ffc900"/>
    </g>
  </g>
</svg>
