<svg xmlns="http://www.w3.org/2000/svg" width="277.442" height="764.2" viewBox="0 0 277.442 764.2">
  <g id="Groupe_274" data-name="Groupe 274" transform="matrix(-0.996, -0.087, 0.087, -0.996, 239.024, 765.104)">
    <g id="Groupe_257" data-name="Groupe 257" transform="translate(17.27 274.362)">
      <path id="Tracé_389" data-name="Tracé 389" d="M1.315.112C.309-.332-.242.585.1,2.159c13.156,61.02,44.588,126.372,70.22,188.6,26.244,62.3,45.759,121.378,50.226,171.706.13,1.3,1.068,1.748,2.095,1.007a4.316,4.316,0,0,0,1.578-3.662c-5.3-49.836-25-108.245-51.039-169.8C47.733,128.521,16.838,63.995,3.746,3.717A5.551,5.551,0,0,0,1.315.112Z" fill="#ffc900"/>
    </g>
    <g id="Groupe_258" data-name="Groupe 258" transform="translate(80.268 407.571)">
      <path id="Tracé_390" data-name="Tracé 390" d="M.613,0C-.2.014-.207,1.548.6,3.431c20.01,46.8,40.66,93.033,55,135.8C70.267,182.035,78.5,221.353,81.768,255.31c.136,1.365,1.123,1.8,2.2.987a4.7,4.7,0,0,0,1.64-3.916c-3.924-33.639-12.586-72.548-27.378-114.868C43.754,95.23,23.274,49.551,3.505,3.333,2.716,1.479,1.422-.012.613,0Z" fill="#ff9929"/>
    </g>
    <g id="Groupe_259" data-name="Groupe 259" transform="translate(28.949 252.329)">
      <path id="Tracé_391" data-name="Tracé 391" d="M2.151.256C.739-.511-.22.5.044,2.528,5.73,46.65,23,93.874,42.659,141c.9,2.166,2.625,3.938,3.844,3.964s1.487-1.668.606-3.786C27.822,94.91,10.927,48.563,5.168,5.233A7.3,7.3,0,0,0,2.151.256Z" transform="translate(0 0)" fill="#ffc900"/>
    </g>
    <g id="Groupe_260" data-name="Groupe 260" transform="translate(74.716 447.542)">
      <path id="Tracé_392" data-name="Tracé 392" d="M.469.008C-.1.109-.159,1.132.328,2.291c22.457,52.9,41.5,103.968,49.909,149.758a338.463,338.463,0,0,1,1.785,120.007c-.115.736.7.807,1.8.167a4.5,4.5,0,0,0,2.168-2.486,349.362,349.362,0,0,0-3.5-119.243C43.746,105.032,24.689,54.363,2.371,1.9,1.889.754,1.034-.092.469.008Z" fill="#ff9929"/>
    </g>
    <g id="Groupe_261" data-name="Groupe 261" transform="translate(0 202.438)">
      <path id="Tracé_393" data-name="Tracé 393" d="M1.555.068C.932-.364.289,1.3.184,3.785-.952,30.518,3.236,58.679,10.9,87.617c.711,2.7,1.85,5.078,2.5,5.307s.574-1.756-.134-4.426C5.643,59.787,1.443,31.839,2.469,5.305,2.563,2.837,2.18.5,1.555.068Z" fill="#ffc900"/>
    </g>
    <g id="Groupe_262" data-name="Groupe 262" transform="translate(73.858 415.273)">
      <path id="Tracé_394" data-name="Tracé 394" d="M1.029,0C-.156.057-.346,1.914.608,4.143,31.156,74.208,59.147,142.31,68.69,200.124c.325,1.846,1.643,2.534,2.951,1.551a5.481,5.481,0,0,0,1.717-5.053C62.781,139.654,34.9,72.693,4.867,3.856,3.93,1.67,2.215-.054,1.029,0Z" fill="#ffc900"/>
    </g>
    <g id="Groupe_263" data-name="Groupe 263" transform="translate(43.481 340.231)">
      <path id="Tracé_395" data-name="Tracé 395" d="M1.375.041C.038-.274-.4,1.273.406,3.5,6.353,19.85,12.957,36.316,19.811,52.767c.929,2.236,2.682,4.073,3.9,4.1s1.461-1.729.55-3.92c-6.73-16.16-13.21-32.334-19.047-48.4C4.423,2.374,2.712.355,1.375.041Z" fill="#ff9929"/>
    </g>
    <g id="Groupe_264" data-name="Groupe 264" transform="translate(28.215 145.553)">
      <path id="Tracé_396" data-name="Tracé 396" d="M19.311.395c-.5-.64-1.251-.486-1.673.347C6.336,23.078.662,47.442,0,73.269a3.3,3.3,0,0,0,1.2,2.577c.686.458,1.253.057,1.274-.9.556-25.6,6.018-49.752,17-71.907A2.732,2.732,0,0,0,19.311.395Z" fill="#ffc900"/>
    </g>
    <g id="Groupe_265" data-name="Groupe 265" transform="translate(145.046 625.959)">
      <path id="Tracé_397" data-name="Tracé 397" d="M2.049.492A5.983,5.983,0,0,0,.038,5.574C7.286,55.384,1.252,96.756,2.016,127.7c.036,1.112,2.246.823,4.864-.632s4.606-3.517,4.5-4.615C9.067,91.82,13.269,50.932,5.012,1.837,4.728.083,3.4-.523,2.049.492Z" fill="#ffc900"/>
    </g>
    <g id="Groupe_266" data-name="Groupe 266" transform="translate(118.185 626.197)">
      <path id="Tracé_398" data-name="Tracé 398" d="M1.34.155C.447.755-.131,2.951.026,5.04A297.35,297.35,0,0,1,.748,37.381c-.066,1.951.734,2.956,1.811,2.262s1.982-2.8,2-4.739A307.62,307.62,0,0,0,3.319,2.827C3.13.758,2.234-.447,1.34.155Z" transform="translate(0 0)" fill="#ffc900"/>
    </g>
    <g id="Groupe_267" data-name="Groupe 267" transform="translate(10.372 0)">
      <path id="Tracé_399" data-name="Tracé 399" d="M228.708,2c1.67-1.721.832-2.483-1.925-1.688C158.155,20.062,96.048,49.8,56.335,88.245,15.906,126.6-1.985,173.672.174,225.912c.069,2.1,1.289,4.475,2.678,5.291s2.42-.2,2.338-2.254C2.759,177.581,19.581,131.244,58.055,93.42,95.852,55.513,155.161,26.1,220.97,6.531A21.039,21.039,0,0,0,228.708,2Z" fill="#ffc900"/>
    </g>
    <g id="Groupe_268" data-name="Groupe 268" transform="translate(2.733 36.909)">
      <path id="Tracé_400" data-name="Tracé 400" d="M124.01.723c.315-1.188-1.809-.884-4.705.705C48.462,39.872,6.968,92.35.086,153.886c-.32,2.536.289,5.188,1.29,5.9s2-.749,2.288-3.247C10.012,95.741,49.925,43.817,118.379,5.7,121.16,4.127,123.7,1.909,124.01.723Z" fill="#ff9929"/>
    </g>
    <g id="Groupe_269" data-name="Groupe 269" transform="translate(18.345 82.598)">
      <path id="Tracé_401" data-name="Tracé 401" d="M67.573.664C67.4-.19,66.476-.227,65.518.59,31.282,29.645,10.3,64.468,3.148,103.4c-7.422,38.9-1.113,81.9,12.566,126.478a4.335,4.335,0,0,0,2.12,2.712c.785.247,1.112-.557.733-1.793C5.014,186.674-1.307,144.1,5.775,105.573,12.594,67.01,32.927,32.493,66.212,3.669A3.714,3.714,0,0,0,67.573.664Z" fill="#ff9929"/>
    </g>
    <g id="Groupe_270" data-name="Groupe 270" transform="translate(106.26 18)">
      <path id="Tracé_402" data-name="Tracé 402" d="M103.472.973C104.1.11,103.6-.246,102.356.18,64.872,13.02,30.165,29.355,1.66,48.913A3.653,3.653,0,0,0,0,51.5c.03.778.8.886,1.724.239C29.555,32.31,63.475,16.071,100.154,3.3A7.954,7.954,0,0,0,103.472.973Z" transform="translate(0 0)" fill="#ff9929"/>
    </g>
  </g>
</svg>
