<svg xmlns="http://www.w3.org/2000/svg" width="715.363" height="630.565" viewBox="0 0 715.363 630.565">
  <g id="Groupe_192" data-name="Groupe 192" transform="translate(1561.041 1114.189) rotate(-8)">
    <g id="Groupe_178" data-name="Groupe 178" transform="translate(-1121.343 -1184.145)">
      <path id="Tracé_332" data-name="Tracé 332" d="M-1013.56-873.788c-.651-.739-.47-2.493.407-3.923C-946.211-989.6-880.772-1112.525-773.925-1171.3c1.363-.767,2.6-1,2.747-.541s-.833,1.453-2.189,2.226C-879.692-1110.4-944.6-987.26-1010.814-875.049-1011.678-873.613-1012.909-873.049-1013.56-873.788Z" transform="translate(1013.95 1172.076)" fill="#ffc900"/>
    </g>
    <g id="Groupe_179" data-name="Groupe 179" transform="translate(-1040.161 -1198.519)">
      <path id="Tracé_333" data-name="Tracé 333" d="M-906.681-986.828c-.428-.612.093-2.548,1.17-4.318,53.175-88.482,117.734-165.136,208.044-199.177,1.806-.69,3.352-.92,3.437-.532s-1.314,1.25-3.111,1.948c-89.942,34.385-154.109,111.285-206.84,199.971C-905.045-987.163-906.253-986.214-906.681-986.828Z" transform="translate(906.831 1191.043)" fill="#0a5961"/>
    </g>
    <g id="Groupe_180" data-name="Groupe 180" transform="translate(-1127.327 -985.714)">
      <path id="Tracé_334" data-name="Tracé 334" d="M-1021.2-768.36c-.986-1.066-.816-3.522.375-5.5,25.923-43.1,50.187-89.546,76.525-134.008,1.208-2.04,2.72-2.942,3.373-2.026s.211,3.316-.977,5.362c-26,44.617-49.9,91.213-75.392,134.511C-1018.466-768.034-1020.217-767.3-1021.2-768.36Z" transform="translate(1021.845 910.249)" fill="#3992a0"/>
    </g>
    <g id="Groupe_181" data-name="Groupe 181" transform="translate(-1029.473 -1221.145)">
      <path id="Tracé_335" data-name="Tracé 335" d="M-892.627-1044.391c-.28-.439.039-1.565.722-2.521,61.739-87.626,138.92-156.247,244.67-173.862,1.153-.2,2.112-.153,2.136.1s-.889.609-2.038.81c-105.474,17.9-182.353,86.741-243.755,174.534C-891.57-1044.375-892.345-1043.954-892.627-1044.391Z" transform="translate(892.729 1220.897)" fill="#001c3a"/>
    </g>
    <g id="Groupe_182" data-name="Groupe 182" transform="translate(-1168.318 -917.007)">
      <path id="Tracé_336" data-name="Tracé 336" d="M-1075.788-738.641c-.511-.523.373-2.66,1.957-4.792,17.01-22.91,32.942-47.518,48.664-72.68,1.466-2.344,2.974-3.866,3.374-3.393s-.452,2.763-1.9,5.11c-15.617,25.21-31.43,49.872-48.313,72.843C-1073.58-739.413-1075.278-738.118-1075.788-738.641Z" transform="translate(1075.933 819.592)" fill="#001c3a"/>
    </g>
    <g id="Groupe_183" data-name="Groupe 183" transform="translate(-1040.867 -1171.063)">
      <path id="Tracé_337" data-name="Tracé 337" d="M-907.5-991.848c-.62-.9-.1-3.25,1.175-5.236,39.869-62.532,85.363-118.8,142.706-156.47,1.823-1.2,3.508-1.609,3.749-.937s-1.038,2.179-2.848,3.393c-56.931,37.99-102,94.51-141.391,157.267C-905.365-991.837-906.881-990.946-907.5-991.848Z" transform="translate(907.762 1154.814)" fill="#ff9929"/>
    </g>
    <g id="Groupe_184" data-name="Groupe 184" transform="translate(-1082.216 -991.927)">
      <path id="Tracé_338" data-name="Tracé 338" d="M-961.911-865.4c-.771-.97-.427-3.425.769-5.482,8.793-15.157,17.674-30.291,26.772-45.208,1.237-2.025,2.773-2.919,3.427-2s.189,3.3-1.029,5.339c-8.984,14.969-17.745,30.156-26.417,45.366C-959.565-865.316-961.139-864.428-961.911-865.4Z" transform="translate(962.322 918.447)" fill="#fa214d"/>
    </g>
    <g id="Groupe_185" data-name="Groupe 185" transform="translate(-1203.562 -813.456)">
      <path id="Tracé_339" data-name="Tracé 339" d="M-1121.966-611.562a1.69,1.69,0,0,1,.142-2.466c20.275-19.765,38.17-42.911,54.922-67.964.624-.933,1.564-1.244,2.1-.69a2.336,2.336,0,0,1-.146,2.7c-16.606,25.124-34.343,48.354-54.432,68.224A1.9,1.9,0,0,1-1121.966-611.562Z" transform="translate(1122.436 682.957)" fill="#ff9929"/>
    </g>
    <g id="Groupe_186" data-name="Groupe 186" transform="translate(-883.236 -1221.922)">
      <path id="Tracé_340" data-name="Tracé 340" d="M-699.746-1176.822c-.226-.658,1.114-2.1,3.006-3.186,52.7-30.522,114.934-45.6,187-41.145,2.58.156,4.631.605,4.562.968s-2.215.517-4.781.376c-71.76-4.082-133.651,11.347-185.994,42.164C-697.833-1176.544-699.521-1176.162-699.746-1176.822Z" transform="translate(699.771 1221.922)" fill="#3992a0"/>
    </g>
    <g id="Groupe_187" data-name="Groupe 187" transform="translate(-905.58 -1200.103)">
      <path id="Tracé_341" data-name="Tracé 341" d="M-729.241-1171.125c-.164-.441,1.3-1.814,3.288-3.037a324.919,324.919,0,0,1,32.928-17.779c2.127-.992,3.959-1.448,4.074-1.047s-1.522,1.512-3.637,2.512a324.3,324.3,0,0,0-32.787,17.9C-727.352-1171.349-729.076-1170.685-729.241-1171.125Z" transform="translate(729.254 1193.133)" fill="#fa214d"/>
    </g>
    <g id="Groupe_188" data-name="Groupe 188" transform="translate(-1457.488 -845.978)">
      <path id="Tracé_342" data-name="Tracé 342" d="M-1455.969-590.58c-2.535-2.1-1.815-3.125,1.554-2.347,83.494,18.969,142.708,9.048,189.944-16.623,47.1-25.789,82.224-67.328,114.453-114.326,1.289-1.891,3.154-2.555,4.175-1.474s.828,3.513-.436,5.414c-31.7,47.249-66.212,89.108-112.486,115.427-46.4,26.2-104.573,36.867-186.6,19.078A29.691,29.691,0,0,1-1455.969-590.58Z" transform="translate(1457.488 725.869)" fill="#001c3a"/>
    </g>
    <g id="Groupe_189" data-name="Groupe 189" transform="translate(-1339.141 -828.472)">
      <path id="Tracé_343" data-name="Tracé 343" d="M-1300.729-589.889c-1.446-1.23-.2-2.591,2.736-3.113,70.908-12.831,118.673-54.8,159.99-107.091,1.7-2.159,3.743-3.238,4.581-2.387s.17,3.325-1.5,5.5c-40.806,52.557-87.936,94.875-157.912,108.37C-1295.726-588.061-1299.281-588.663-1300.729-589.889Z" transform="translate(1301.332 702.771)" fill="#fa214d"/>
    </g>
    <g id="Groupe_190" data-name="Groupe 190" transform="translate(-1273.623 -915.815)">
      <path id="Tracé_344" data-name="Tracé 344" d="M-1214.251-612.418a1.346,1.346,0,0,1,.317-2.428c79.615-37.293,126.464-118.492,175.131-201.841.677-1.171,1.608-1.664,2.077-1.1s.306,1.979-.365,3.154c-48.254,83.534-94.619,164.935-173.421,202.765A3.747,3.747,0,0,1-1214.251-612.418Z" transform="translate(1214.881 818.019)" fill="#0a5961"/>
    </g>
    <g id="Groupe_191" data-name="Groupe 191" transform="translate(-1416.054 -700.414)">
      <path id="Tracé_345" data-name="Tracé 345" d="M-1402.081-526.5c-1.195-.987-.9-1.588.634-1.352,46.307,7.03,84.228,4.071,116.709-5.82a4.2,4.2,0,0,1,3.553.779c.887.762.749,1.66-.315,2-32.191,10.092-69.767,13.3-115.661,6.6A11.746,11.746,0,0,1-1402.081-526.5Z" transform="translate(1402.817 533.8)" fill="#ffc900"/>
    </g>
  </g>
</svg>
