<svg xmlns="http://www.w3.org/2000/svg" width="247.163" height="763.28" viewBox="0 0 247.163 763.28">
  <g id="Groupe_147" data-name="Groupe 147" transform="matrix(1, 0.017, -0.017, 1, 1673.671, -884.724)">
    <g id="Groupe_133" data-name="Groupe 133" transform="translate(-1545.455 1029.242)">
      <path id="Tracé_290" data-name="Tracé 290" d="M-1364.571,1463.232c1.014.447,1.57-.477,1.222-2.065-13.269-61.545-44.972-127.458-70.824-190.224-26.469-62.839-46.152-122.421-50.658-173.182-.131-1.311-1.078-1.763-2.113-1.016a4.354,4.354,0,0,0-1.591,3.693c5.343,50.264,25.214,109.175,51.478,171.264,25.668,62.016,56.828,127.1,70.034,187.893A5.6,5.6,0,0,0-1364.571,1463.232Z" transform="translate(1488.556 -1096.386)" fill="#ffc900"/>
    </g>
    <g id="Groupe_134" data-name="Groupe 134" transform="translate(-1570.049 1002.933)">
      <path id="Tracé_291" data-name="Tracé 291" d="M-1441.5,1313.911c.816-.014.826-1.562.017-3.46-20.182-47.2-41.01-93.833-55.473-136.965-14.8-43.175-23.1-82.831-26.4-117.079-.137-1.377-1.132-1.819-2.217-1a4.736,4.736,0,0,0-1.654,3.95c3.958,33.928,12.694,73.172,27.614,115.855,14.6,42.646,35.255,88.717,55.193,135.333C-1443.62,1312.419-1442.315,1313.924-1441.5,1313.911Z" transform="translate(1527.247 -1054.997)" fill="#0a5961"/>
    </g>
    <g id="Groupe_135" data-name="Groupe 135" transform="translate(-1479.96 1272.21)">
      <path id="Tracé_292" data-name="Tracé 292" d="M-1339.653,1624.572c1.424.774,2.391-.246,2.125-2.291-5.735-44.5-23.157-92.132-42.981-139.665-.909-2.184-2.648-3.972-3.877-4s-1.5,1.682-.612,3.819c19.453,46.667,36.494,93.413,42.3,137.115A7.363,7.363,0,0,0-1339.653,1624.572Z" transform="translate(1385.521 -1478.618)" fill="#3992a0"/>
    </g>
    <g id="Groupe_136" data-name="Groupe 136" transform="translate(-1538.111 946.528)">
      <path id="Tracé_293" data-name="Tracé 293" d="M-1417.449,1241.259c.572-.1.634-1.133.143-2.3-22.651-53.352-41.855-104.861-50.339-151.046a341.364,341.364,0,0,1-1.8-121.039c.116-.742-.7-.814-1.819-.168a4.54,4.54,0,0,0-2.187,2.508,352.364,352.364,0,0,0,3.532,120.268c8.821,45.853,28.042,96.958,50.552,149.87C-1418.88,1240.507-1418.018,1241.36-1417.449,1241.259Z" transform="translate(1477.002 -966.263)" fill="#001c3a"/>
    </g>
    <g id="Groupe_137" data-name="Groupe 137" transform="translate(-1416.687 1375.001)">
      <path id="Tracé_294" data-name="Tracé 294" d="M-1273.588,1734c.629.437,1.276-1.238,1.383-3.748,1.145-26.963-3.078-55.366-10.805-84.553-.717-2.719-1.866-5.121-2.522-5.353s-.579,1.771.135,4.464c7.686,28.957,11.922,57.146,10.887,83.908C-1274.6,1731.206-1274.219,1733.566-1273.588,1734Z" transform="translate(1285.982 -1640.326)" fill="#001c3a"/>
    </g>
    <g id="Groupe_138" data-name="Groupe 138" transform="translate(-1551.297 1050.219)">
      <path id="Tracé_295" data-name="Tracé 295" d="M-1424.705,1333.245c1.2-.056,1.387-1.929.425-4.177-30.812-70.667-59.043-139.355-68.668-197.666-.328-1.862-1.657-2.556-2.977-1.564a5.528,5.528,0,0,0-1.731,5.1c10.668,57.457,38.793,124.994,69.081,194.422C-1427.631,1331.562-1425.9,1333.3-1424.705,1333.245Z" transform="translate(1497.747 -1129.386)" fill="#ff9929"/>
    </g>
    <g id="Groupe_139" data-name="Groupe 139" transform="translate(-1471.606 1272.411)">
      <path id="Tracé_296" data-name="Tracé 296" d="M-1348.74,1536.247c1.349.318,1.794-1.243.978-3.487-6-16.493-12.659-33.1-19.572-49.693-.937-2.255-2.705-4.108-3.934-4.134s-1.474,1.744-.555,3.954c6.788,16.3,13.323,32.612,19.211,48.813C-1351.814,1533.894-1350.089,1535.931-1348.74,1536.247Z" transform="translate(1372.379 -1478.934)" fill="#fa214d"/>
    </g>
    <g id="Groupe_140" data-name="Groupe 140" transform="translate(-1451.09 1449.428)">
      <path id="Tracé_297" data-name="Tracé 297" d="M-1339.674,1833.7c.5.646,1.262.49,1.687-.35,11.4-22.529,17.123-47.1,17.79-73.151a3.324,3.324,0,0,0-1.212-2.6c-.692-.461-1.264-.058-1.285.9-.561,25.821-6.07,50.179-17.143,72.525A2.755,2.755,0,0,0-1339.674,1833.7Z" transform="translate(1340.104 -1757.412)" fill="#ff9929"/>
    </g>
    <g id="Groupe_141" data-name="Groupe 141" transform="translate(-1560.505 912.097)">
      <path id="Tracé_298" data-name="Tracé 298" d="M-1502.812,1041.085a6.034,6.034,0,0,0,2.028-5.125c-7.309-50.238-1.224-91.966-2-123.18-.036-1.121-2.266-.83-4.906.638s-4.646,3.548-4.543,4.655c2.338,30.9-1.9,72.139,6.428,121.656C-1505.514,1041.5-1504.175,1042.109-1502.812,1041.085Z" transform="translate(1512.232 -912.097)" fill="#3992a0"/>
    </g>
    <g id="Groupe_142" data-name="Groupe 142" transform="translate(-1526.559 1001.136)">
      <path id="Tracé_299" data-name="Tracé 299" d="M-1455.548,1092.22c.9-.606,1.484-2.82,1.326-4.928a299.9,299.9,0,0,1-.729-32.619c.067-1.967-.74-2.981-1.827-2.281s-2,2.829-2.021,4.78a310.257,310.257,0,0,0,1.255,32.353C-1457.353,1091.612-1456.45,1092.826-1455.548,1092.22Z" transform="translate(1458.829 -1052.171)" fill="#fa214d"/>
    </g>
    <g id="Groupe_143" data-name="Groupe 143" transform="translate(-1644.725 1439.444)">
      <path id="Tracé_300" data-name="Tracé 300" d="M-1643.861,1973.163c-1.684,1.736-.839,2.5,1.942,1.7,69.218-19.917,131.858-49.914,171.913-88.686,40.776-38.684,58.821-86.161,56.644-138.851-.07-2.115-1.3-4.513-2.7-5.336s-2.44.2-2.358,2.273c2.452,51.81-14.515,98.545-53.32,136.694-38.122,38.233-97.941,67.9-164.315,87.636A21.223,21.223,0,0,0-1643.861,1973.163Z" transform="translate(1644.725 -1741.706)" fill="#001c3a"/>
    </g>
    <g id="Groupe_144" data-name="Groupe 144" transform="translate(-1530.588 1474.35)">
      <path id="Tracé_301" data-name="Tracé 301" d="M-1465.137,1957.234c-.318,1.2,1.825.892,4.746-.711,71.452-38.773,113.3-91.7,120.244-153.768.323-2.558-.292-5.233-1.3-5.954s-2.015.755-2.307,3.275c-6.4,61.324-46.659,113.694-115.7,152.137C-1462.263,1953.8-1464.824,1956.039-1465.137,1957.234Z" transform="translate(1465.168 -1796.618)" fill="#fa214d"/>
    </g>
    <g id="Groupe_145" data-name="Groupe 145" transform="translate(-1489.413 1354.975)">
      <path id="Tracé_302" data-name="Tracé 302" d="M-1400.362,1842.789c.179.861,1.107.9,2.073.075,34.53-29.3,55.7-64.427,62.906-103.7,7.486-39.235,1.122-82.6-12.674-127.566a4.373,4.373,0,0,0-2.138-2.736c-.792-.249-1.122.562-.739,1.808,13.668,44.506,20.044,87.442,12.9,126.3-6.878,38.9-27.385,73.709-60.956,102.78A3.746,3.746,0,0,0-1400.362,1842.789Z" transform="translate(1400.392 -1608.821)" fill="#0a5961"/>
    </g>
    <g id="Groupe_146" data-name="Groupe 146" transform="translate(-1614.532 1602.16)">
      <path id="Tracé_303" data-name="Tracé 303" d="M-1596.954,2049.312c-.63.871-.13,1.229,1.125.8,37.806-12.95,72.812-29.426,101.562-49.152a3.683,3.683,0,0,0,1.674-2.606c-.03-.784-.808-.893-1.739-.241-28.069,19.593-62.281,35.972-99.276,48.854A8.019,8.019,0,0,0-1596.954,2049.312Z" transform="translate(1597.226 -1997.686)" fill="#ffc900"/>
    </g>
  </g>
</svg>
