<svg xmlns="http://www.w3.org/2000/svg" width="491.715" height="570.787" viewBox="0 0 491.715 570.787">
  <g id="Groupe_177" data-name="Groupe 177" transform="matrix(-0.921, 0.391, -0.391, -0.921, 491.715, 526.91)">
    <g id="Groupe_163" data-name="Groupe 163" transform="translate(119.169 247.312)">
      <path id="Tracé_318" data-name="Tracé 318" d="M.882.681C1.6-.377,2.411-.181,2.7,1.12,24.824,102.07,40.236,211,74.808,292.595a3.779,3.779,0,0,1-.717,3.623c-.845.952-1.89.879-2.332-.172C37.4,214.5,22.09,105.755.1,4.943A6.3,6.3,0,0,1,.882.681Z" transform="translate(0 0)" fill="#ffc900"/>
    </g>
    <g id="Groupe_164" data-name="Groupe 164" transform="translate(127.332 375.682)">
      <path id="Tracé_319" data-name="Tracé 319" d="M.843.478C1.554-.48,2.388.047,2.7,1.651c15.744,79.9,32.943,156.907,64.111,214.319a3.415,3.415,0,0,1-.347,3.7,1.533,1.533,0,0,1-2.62-.457C32.857,161.81,15.766,84.9.12,5.112A6.754,6.754,0,0,1,.843.478Z" transform="translate(0 0)" fill="#0a5961"/>
    </g>
    <g id="Groupe_165" data-name="Groupe 165" transform="translate(100.55 239.309)">
      <path id="Tracé_320" data-name="Tracé 320" d="M1.2.985C2.188-.507,3.327-.28,3.736,1.5,12.685,40.318,20.309,80.81,28.117,120.855a8.548,8.548,0,0,1-1.257,5.9c-1.053,1.424-2.195,1.094-2.549-.738C16.574,86.055,9.018,45.646.146,6.9A8.726,8.726,0,0,1,1.2.985Z" transform="translate(0 0)" fill="#3992a0"/>
    </g>
    <g id="Groupe_166" data-name="Groupe 166" transform="translate(153.829 380.391)">
      <path id="Tracé_321" data-name="Tracé 321" d="M.682.431c.535-.7,1.13-.53,1.324.383C19.859,84.12,41.1,161.824,80.665,214.152a1.841,1.841,0,0,1-.354,2.24c-.631.667-1.494.746-1.925.172C38.98,164.214,17.834,86.574.062,3.35A4.054,4.054,0,0,1,.682.431Z" transform="translate(0 0)" fill="#001c3a"/>
    </g>
    <g id="Groupe_167" data-name="Groupe 167" transform="translate(114.672 181.192)">
      <path id="Tracé_322" data-name="Tracé 322" d="M.3.216c.455-.705,1.27.372,1.809,2.418C7.913,24.6,13.145,47.322,18.1,70.372c.461,2.146.448,4.447-.028,5.135s-1.23-.5-1.689-2.641C11.449,49.837,6.238,27.137.455,5.187-.083,3.145-.156.92.3.216Z" transform="translate(0 0)" fill="#001c3a"/>
    </g>
    <g id="Groupe_168" data-name="Groupe 168" transform="translate(136.16 370.649)">
      <path id="Tracé_323" data-name="Tracé 323" d="M1.37.874C2.429-.541,3.588-.2,3.958,1.631c11.62,57.588,24.205,113.428,42.456,161.2a5.618,5.618,0,0,1-1.058,5.163c-1.169,1.336-2.588,1.2-3.164-.319C24.1,119.957,11.628,64.22.112,6.749A8.4,8.4,0,0,1,1.37.874Z" transform="translate(0 0)" fill="#ff9929"/>
    </g>
    <g id="Groupe_169" data-name="Groupe 169" transform="translate(123.894 308.112)">
      <path id="Tracé_324" data-name="Tracé 324" d="M1.319.909C2.348-.541,3.482-.223,3.848,1.624q4.045,20.385,8.037,40.781a8.551,8.551,0,0,1-1.246,5.915c-1.053,1.423-2.2,1.087-2.56-.751C5.421,34.026,2.786,20.432.113,6.87A8.823,8.823,0,0,1,1.319.909Z" transform="translate(0 0)" fill="#fa214d"/>
    </g>
    <g id="Groupe_170" data-name="Groupe 170" transform="translate(73.164 142.451)">
      <path id="Tracé_325" data-name="Tracé 325" d="M.468.569C.931-.2,1.539-.188,1.827.592,9.522,21.541,16.215,43.855,22.245,67.035a4.211,4.211,0,0,1-.476,2.929c-.487.753-1.062.662-1.286-.2C14.478,46.6,7.812,24.305.148,3.367A3.679,3.679,0,0,1,.468.569Z" transform="translate(0 0)" fill="#ff9929"/>
    </g>
    <g id="Groupe_171" data-name="Groupe 171" transform="translate(183.365 545.601)">
      <path id="Tracé_326" data-name="Tracé 326" d="M1.3.93C2.474-.406,3.919-.286,4.535,1.184,21.745,42.211,43.777,76.41,74.1,99.335c1.088.822.891,2.568-.45,3.922s-3.315,1.8-4.391.974C39.18,81.216,17.333,47,.269,6.015A5.379,5.379,0,0,1,1.3.93Z" transform="translate(0 0)" fill="#3992a0"/>
    </g>
    <g id="Groupe_172" data-name="Groupe 172" transform="translate(199.826 506.95)">
      <path id="Tracé_327" data-name="Tracé 327" d="M.635.391C1.387-.475,2.5.148,3.142,1.766q5.1,12.957,10.8,25.071c.713,1.511.676,3.421-.1,4.281s-1.98.344-2.688-1.167Q5.477,17.86.416,4.893C-.217,3.276-.115,1.254.635.391Z" transform="translate(0 0)" fill="#fa214d"/>
    </g>
    <g id="Groupe_173" data-name="Groupe 173" transform="translate(0 0)">
      <path id="Tracé_328" data-name="Tracé 328" d="M.414,1.648C1.166.134,2.7-.444,3.829.368c56.1,40.571,86.354,117.855,108.294,205.78a8.531,8.531,0,0,1-.987,5.914c-.983,1.5-2.132,1.277-2.57-.484C86.808,123.807,56.787,46.6,1.082,5.854A3.449,3.449,0,0,1,.414,1.648Z" fill="#001c3a"/>
    </g>
    <g id="Groupe_174" data-name="Groupe 174" transform="translate(51.633 36.799)">
      <path id="Tracé_329" data-name="Tracé 329" d="M.327.736c.638-1.167,2.011-.923,3.046.57,25.1,36.187,42.906,82.6,57.167,133.685.589,2.107.462,4.751-.272,5.894s-1.8.356-2.382-1.747C43.71,88.115,26.01,41.737,1.045,5.533.015,4.041-.311,1.9.327.736Z" transform="translate(0)" fill="#fa214d"/>
    </g>
    <g id="Groupe_175" data-name="Groupe 175" transform="translate(57.089 81.251)">
      <path id="Tracé_330" data-name="Tracé 330" d="M.426.722c.5-.881,1.25-.968,1.667-.191,29.763,55.476,47.41,127.7,62.714,202.5a5.048,5.048,0,0,1-.667,3.412c-.583.834-1.228.664-1.441-.383C47.472,131.344,29.907,59.193.272,3.722A3.472,3.472,0,0,1,.426.722Z" transform="translate(0 0)" fill="#0a5961"/>
    </g>
    <g id="Groupe_176" data-name="Groupe 176" transform="translate(4.203 16.827)">
      <path id="Tracé_331" data-name="Tracé 331" d="M.227.794C.615.034,1.361-.228,1.893.218,17.93,13.618,31.71,30.228,43.7,49.335a2.775,2.775,0,0,1-.061,2.546c-.43.772-1.1.881-1.494.246C30.2,33.016,16.47,16.4.49,2.974A1.867,1.867,0,0,1,.227.794Z" transform="translate(0)" fill="#ffc900"/>
    </g>
  </g>
</svg>
