<svg xmlns="http://www.w3.org/2000/svg" width="575.121" height="410.62" viewBox="0 0 575.121 410.62">
  <g id="Groupe_207" data-name="Groupe 207" transform="translate(1833.321 1936.403)">
    <g id="Groupe_193" data-name="Groupe 193" transform="translate(-1684.333 -1698.444)">
      <path id="Tracé_346" data-name="Tracé 346" d="M-1312.488-1619.007c1.363-.258,1.627.339.579,1.338-40.526,38.82-92.731,71.653-148.391,95.353-55.625,24.041-114.706,38.949-168.164,49.8a8.861,8.861,0,0,1-5.077-.844c-1.425-.754-1.464-1.584-.085-1.853,53.437-10.284,112.457-24.587,168.094-48.01,55.67-23.084,107.957-55.29,148.681-93.548A10.362,10.362,0,0,1-1312.488-1619.007Z" transform="translate(1634.634 1619.067)" fill="#ffc900"/>
    </g>
    <g id="Groupe_194" data-name="Groupe 194" transform="translate(-1755.811 -1628.324)">
      <path id="Tracé_347" data-name="Tracé 347" d="M-1463.93-1525.527c1.332.157,1.055.941-.632,1.748-84.019,41-181.177,56.359-259.381,66.73a8.31,8.31,0,0,1-5.178-1.212c-1.288-.9-1.059-1.8.51-2.013,78.189-9.562,175.161-24.02,259.225-64.114A12.3,12.3,0,0,1-1463.93-1525.527Z" transform="translate(1729.956 1525.556)" fill="#0a5961"/>
    </g>
    <g id="Groupe_195" data-name="Groupe 195" transform="translate(-1480.373 -1714.007)">
      <path id="Tracé_348" data-name="Tracé 348" d="M-1247.43-1639.732c1.856-.367,2.281.433.92,1.8-29.62,29.79-66.616,56.561-107.611,78.051a14.662,14.662,0,0,1-6.991,1.448c-1.977-.191-2.039-1.121-.158-2.075,41.044-20.825,78.169-46.942,108.014-76.147A13.6,13.6,0,0,1-1247.43-1639.732Z" transform="translate(1362.638 1639.821)" fill="#3992a0"/>
    </g>
    <g id="Groupe_196" data-name="Groupe 196" transform="translate(-1755.427 -1607.929)">
      <path id="Tracé_349" data-name="Tracé 349" d="M-1459.326-1498.331c1.017.117,1.045.6.053,1.081-90.553,44.839-192.443,60.829-265.961,79.155a4.9,4.9,0,0,1-3.31-.852c-1.022-.686-1.2-1.412-.394-1.615,73.611-17.716,175.379-33.013,265.976-77.132A7.9,7.9,0,0,1-1459.326-1498.331Z" transform="translate(1729.443 1498.358)" fill="#001c3a"/>
    </g>
    <g id="Groupe_197" data-name="Groupe 197" transform="translate(-1363.87 -1747.612)">
      <path id="Tracé_350" data-name="Tracé 350" d="M-1151.276-1684.589c.844-.307.494.915-.817,2.726a389.7,389.7,0,0,1-49.9,56.156c-1.771,1.656-3.968,3.117-4.88,3.274s-.187-1.036,1.592-2.674a388.747,388.747,0,0,0,50.119-55.677C-1153.848-1682.577-1152.119-1684.283-1151.276-1684.589Z" transform="translate(1207.273 1684.636)" fill="#001c3a"/>
    </g>
    <g id="Groupe_198" data-name="Groupe 198" transform="translate(-1679.677 -1623.445)">
      <path id="Tracé_351" data-name="Tracé 351" d="M-1429.83-1519.01c2,.2,2.063,1.148.13,2.112-60.778,30.458-128.353,48.865-190.123,60.688a12.7,12.7,0,0,1-7.125-1.154c-1.966-1.028-1.968-2.152,0-2.5,61.7-10.915,129.179-28.348,190.012-57.832A15.724,15.724,0,0,1-1429.83-1519.01Z" transform="translate(1628.424 1519.05)" fill="#ff9929"/>
    </g>
    <g id="Groupe_199" data-name="Groupe 199" transform="translate(-1466.972 -1659.922)">
      <path id="Tracé_352" data-name="Tracé 352" d="M-1296.789-1567.69c1.959-.082,2.168.817.439,2.011-12.726,8.78-26.059,17.045-39.851,24.738a14.863,14.863,0,0,1-7.014,1.647c-1.993-.138-2.075-1.073-.2-2.084,13.814-7.466,27.178-15.506,39.946-24.065A15.354,15.354,0,0,1-1296.789-1567.69Z" transform="translate(1344.767 1567.695)" fill="#fa214d"/>
    </g>
    <g id="Groupe_200" data-name="Groupe 200" transform="translate(-1345.949 -1796.672)">
      <path id="Tracé_353" data-name="Tracé 353" d="M-1142.985-1749.9c.82-.366,1.2-.078.855.648a290.822,290.822,0,0,1-37.662,58.2,6.085,6.085,0,0,1-2.7,1.719c-.9.239-1.155-.139-.571-.841a290.171,290.171,0,0,0,37.956-57.763A4.914,4.914,0,0,1-1142.985-1749.9Z" transform="translate(1183.373 1750.062)" fill="#ff9929"/>
    </g>
    <g id="Groupe_201" data-name="Groupe 201" transform="translate(-1833.321 -1561.315)">
      <path id="Tracé_354" data-name="Tracé 354" d="M-1688.483-1434.762c1.967,1.065,2,2.212.068,2.572-53.8,10.057-102.368,16.4-136.892,31.374-1.235.542-3.884-.392-5.928-2.113s-2.7-3.558-1.452-4.069c34.819-14.267,83.4-19.848,137.159-29.108A12.88,12.88,0,0,1-1688.483-1434.762Z" transform="translate(1833.321 1436.194)" fill="#3992a0"/>
    </g>
    <g id="Groupe_202" data-name="Groupe 202" transform="translate(-1673.317 -1546.72)">
      <path id="Tracé_355" data-name="Tracé 355" d="M-1579.073-1416.31c1.333.554.715,1.46-1.367,2.022-11.13,2.99-22.07,5.8-32.743,8.507a10.271,10.271,0,0,1-6.027-.28c-1.334-.665-.8-1.6,1.2-2.083,10.676-2.6,21.616-5.306,32.745-8.191A11.8,11.8,0,0,1-1579.073-1416.31Z" transform="translate(1619.944 1416.731)" fill="#fa214d"/>
    </g>
    <g id="Groupe_203" data-name="Groupe 203" transform="translate(-1337.178 -1936.403)">
      <path id="Tracé_356" data-name="Tracé 356" d="M-1117.877-1935.619c1.083-1.006,2.411-1.053,2.955-.083,27.705,47.391,12.383,130.442-49.418,204.74a12.847,12.847,0,0,1-5.567,3.613c-1.843.5-2.319-.274-1.086-1.728,62.429-72.993,78.865-155.281,52.111-202.975A3.253,3.253,0,0,1-1117.877-1935.619Z" transform="translate(1171.677 1936.403)" fill="#001c3a"/>
    </g>
    <g id="Groupe_204" data-name="Groupe 204" transform="translate(-1307.878 -1890.907)">
      <path id="Tracé_357" data-name="Tracé 357" d="M-1085-1875.381c1-.8,1.884-.177,1.95,1.431,1.68,38.909-12.913,86.74-43.726,132.87a12.719,12.719,0,0,1-4.776,4.354c-1.36.5-1.392-.622-.115-2.5,31.151-45.59,46.194-93.035,44.968-131.822A5.953,5.953,0,0,1-1085-1875.381Z" transform="translate(1132.603 1875.731)" fill="#fa214d"/>
    </g>
    <g id="Groupe_205" data-name="Groupe 205" transform="translate(-1400.391 -1851.705)">
      <path id="Tracé_358" data-name="Tracé 358" d="M-1134.31-1823.161c.832-.528,1.4-.319,1.259.476-9.431,56.758-51.937,123.874-118.3,175.515a8.209,8.209,0,0,1-3.687,1.5c-1.109.1-1.255-.4-.329-1.119,66.53-50.959,109.411-117.483,119.293-173.99A4.269,4.269,0,0,1-1134.31-1823.161Z" transform="translate(1255.976 1823.452)" fill="#0a5961"/>
    </g>
    <g id="Groupe_206" data-name="Groupe 206" transform="translate(-1287.043 -1922.01)">
      <path id="Tracé_359" data-name="Tracé 359" d="M-1104.1-1916.854c.573-.487,1.213-.471,1.426.047,6.462,15.575,9.213,33.73,7.861,53.713a3.215,3.215,0,0,1-1.349,2.06c-.7.472-1.222.316-1.171-.345,1.5-19.922-1.1-38.06-7.418-53.659A1.8,1.8,0,0,1-1104.1-1916.854Z" transform="translate(1104.818 1917.208)" fill="#ffc900"/>
    </g>
  </g>
</svg>
