<svg xmlns="http://www.w3.org/2000/svg" viewBox="0 0 404.52 339.19"><defs><style>.cls-1{fill:#001c3a;}.cls-2{fill:#3992a0;}.cls-3{fill:#0a5961;}.cls-4{fill:#ffc900;}.cls-5{fill:#fa214d;}.cls-6{fill:#ff9929;}.cls-7{fill:#fff;}</style></defs><title>Fichier 6</title><g id="Calque_2" data-name="Calque 2"><g id="Calque_1-2" data-name="Calque 1"><circle class="cls-1" cx="197.3" cy="171.31" r="88.51"/><path class="cls-1" d="M301.58,184.86q14.76-16.5,28.69-34.44c3.26-4.19,3.31-11.92,0-16.85-3.1-4.63-8-4.73-11-.71q-5.54,7.45-11.23,14.66c-2.26,2.85-6.8.89-9-2.71-2.94-4.83-8.06-5.26-11.21-1.32q-8.07,10.06-16.43,19.65c-5.77,6.57-11.21,4.18-13.62.35h0c-2.8-4.47-1.78-10.39,2.06-14.94a604.08,604.08,0,0,0,40.18-53.48h0c2-4.27,1.37-10.55-1.72-14.62-2.6-3.46-5.27-8.21-3.52-11,1.13-1.82,2.26-3.65,3.37-5.49,2.64-4.36,1.84-11.58-1.79-15.95s-8.59-4.22-11.1.17q-14.15,24.69-30.06,47.22c-4.44,6.2-9.22,4.85-12.38,1.26-2.5-4-3.17-9,.36-14.48q4.63-6.81,9.11-13.83c2.66-4.13,1.9-10.87-1.68-14.89s-8.53-3.76-11.06.4q-4.08,6.69-8.3,13.19c-2.1,2.89-5.79.59-8.84-2.74h0c-3.5-3.82-8.45-3.56-11,.43a516.6,516.6,0,0,1-99.05,112.08A8.26,8.26,0,0,0,111.16,188a7.58,7.58,0,0,0,10.89,1.44h0q2.4-1.59,4.78-3.21h0c1.92-1.57,7.66-4.49,11.6,1,3.64,5.09,1.78,33.91,4.17,37.3,2.18,3.31-.21,9.27-3.59,11.61Q119.65,249.5,99.64,260.7a8,8,0,0,0-3.17,10.67,7.66,7.66,0,0,0,10.47,3.33q5.2-2.83,10.38-5.8c3.9-2.51,7.61.11,9.41,3.79A7.36,7.36,0,0,0,137.2,276q4.65-2.75,9.26-5.6c4.36-3.1,7.06.48,8.75,4.14h0c2,4.24,6.63,5.83,10.48,3.4q11.77-7.47,23.34-15.68A7.11,7.11,0,0,1,199.21,265c1.5,3.28,7.71,11.84,14.37,7.4,18-12,31-25,48-38,14-10,26-20,33-35a15.61,15.61,0,0,1,4.47-4.62A12.14,12.14,0,0,1,301.58,184.86Z"/><path class="cls-2" d="M171.45,300.92c-1.15-3.37-.49-7,1.51-8.24,72.6-43.47,140.49-108.8,192.56-194.3C367,96,370,96.71,372.36,100s3,7.89,1.53,10.26C320.35,196,251.09,261.47,177.21,304.89,175.17,306.1,172.6,304.29,171.45,300.92Z"/><path class="cls-3" d="M77.73,326.1c-.54-2,0-4,1.25-4.47,37-14.07,55-27.83,58.15-29.93,1.19-.79,2.85.18,3.7,2.2s.52,4.33-.69,5.12c-3.47,2.25-21.85,16-59.16,29.9C79.72,329.39,78.27,328.12,77.73,326.1Z"/><path class="cls-4" d="M194.32,207.22c-.88-1.52-.89-3.35,0-4.08q10.29-8.64,20.29-18c.86-.8,2.32-.24,3.26,1.28s1,3.4.14,4.2q-10.09,9.38-20.49,18C196.62,209.39,195.19,208.74,194.32,207.22Z"/><path class="cls-5" d="M281.18,259.54c-.75-1.76-.58-3.88.39-4.76a606.56,606.56,0,0,0,46.86-47.38c.9-1,2.36-.42,3.25,1.33s.88,4,0,5a610.69,610.69,0,0,1-47.37,47.41C283.31,262,281.92,261.3,281.18,259.54Z"/><path class="cls-4" d="M149.42,336c-.58-2.41.11-5,1.56-5.76q7.59-4.1,15.15-8.41c1.44-.82,3.14.45,3.77,2.86s0,5.05-1.5,5.87q-7.62,4.31-15.28,8.39C151.66,339.74,150,338.41,149.42,336Z"/><path class="cls-5" d="M113.55,283.33c-1.08-3.26-.38-6.64,1.6-7.61q15.94-7.74,31.67-16.87c2-1.13,4.59.55,5.86,3.81s.66,6.88-1.34,8q-16,9.13-32.2,16.86C117.11,288.49,114.63,286.59,113.55,283.33Z"/><path class="cls-6" d="M128.79,253c-.72-1.54-.55-3.22.39-3.76a474.21,474.21,0,0,0,53.52-36.65c.89-.7,2.31-.05,3.17,1.48s.81,3.34-.09,4.05a478.31,478.31,0,0,1-54,36.68C130.84,255.35,129.5,254.54,128.79,253Z"/><path class="cls-5" d="M301.45,122.62c-1.59-2.19-2-5.15-1-6.64a589,589,0,0,0,51-85.95c.85-1.75,3.08-1.49,5,.62s2.72,5.29,1.85,7.05a597.37,597.37,0,0,1-52,86.21C305.2,125.4,303,124.81,301.45,122.62Z"/><path class="cls-6" d="M302.1,155.42c-2.06-3.2-2.46-7.38-.87-9.41A609.08,609.08,0,0,0,384.06,3.93c1.09-2.62,4.22-2.35,7,.68s4.09,7.68,2.95,10.33a619.11,619.11,0,0,1-85.23,142.64C307.13,159.62,304.16,158.62,302.1,155.42Z"/><path class="cls-1" d="M66.57,271.12c-.68-1.51-.49-3.09.44-3.55q10.83-5.38,21.55-11.48c.92-.53,2.27.25,3,1.75s.59,3.16-.34,3.68Q80.43,267.63,69.51,273C68.57,273.48,67.26,272.62,66.57,271.12Z"/><path class="cls-3" d="M285.5,80.47c-1.23-1.41-1.68-3.4-1-4.46A565.36,565.36,0,0,0,324,.86c.53-1.22,2.1-1.13,3.5.22s2.11,3.45,1.57,4.67A570.29,570.29,0,0,1,289,81.1C288.27,82.16,286.73,81.87,285.5,80.47Z"/><path class="cls-1" d="M267.74,100.38C266.57,99,266.2,97,266.91,96q4.14-5.82,8.18-11.82c.69-1,2.23-.73,3.43.68s1.61,3.41.91,4.44q-4.08,6-8.28,11.85C270.43,102.16,268.9,101.8,267.74,100.38Z"/><path class="cls-2" d="M.14,256A3.9,3.9,0,0,1,3,251.36c83.16-25.14,127.1-55.64,188.19-115.74a3.68,3.68,0,1,1,5.15,5.23C134.37,201.78,89.4,232.89,5.1,258.39A3.88,3.88,0,0,1,.14,256Z"/><path class="cls-4" d="M97.09,194.24a2.65,2.65,0,0,1,.9-3.62q10.14-6.54,20-13.55a2.57,2.57,0,1,1,3,4.18q-9.91,7.08-20.17,13.68A2.64,2.64,0,0,1,97.09,194.24Z"/><path class="cls-6" d="M46.18,222.47A2.65,2.65,0,0,1,47.6,219c18.37-8.42,21.74-10.74,38.93-21.2a2.57,2.57,0,1,1,2.67,4.39c-17.37,10.57-20.9,13-39.46,21.48A2.66,2.66,0,0,1,46.18,222.47Z"/><polygon class="cls-4" points="247.72 109.31 271.65 109.3 203.09 248.11 191.12 223.92 247.72 109.31"/><polygon class="cls-7" points="158.44 109.31 134.52 109.3 203.06 248.09 215.03 223.9 158.44 109.31"/><rect class="cls-7" x="253.4" y="109.3" width="21.45" height="138.79"/><polygon class="cls-7" points="206.28 109.32 182.36 109.31 250.9 248.1 274.83 248.11 206.28 109.32"/><path class="cls-3" d="M66.66,249c-1.27-2.53,0-5.74,2.8-7.2a547.41,547.41,0,0,0,121.76-86c2.31-2.15,5.75-2.26,7.71-.22s1.66,5.52-.7,7.73a557.91,557.91,0,0,1-124,87.59C71.31,252.41,67.93,251.54,66.66,249Z"/><path class="cls-5" d="M201.22,130.73a3.87,3.87,0,0,1,.15-5.43,532.94,532.94,0,0,0,51.35-62.13,3.68,3.68,0,1,1,6,4.23,539.23,539.23,0,0,1-52,63A3.84,3.84,0,0,1,201.22,130.73Z"/><path class="cls-4" d="M247.9,269.39c-.81-2-.57-4.3.54-5.21,57.73-47.06,110-108.77,150.7-183.76.78-1.44,2.55-1.09,3.93.82s1.86,4.65,1.07,6.09c-41.39,75.15-94.37,136.94-152.74,184C250.27,272.25,248.71,271.37,247.9,269.39Z"/><path class="cls-1" d="M177.29,320.78c-1.49-2.81-.14-6.45,3-8.17q17.4-9.51,34.08-20.09c3-1.9,6.83-1.31,8.57,1.36s.67,6.44-2.4,8.38q-17,10.77-34.71,20.47C182.61,324.48,178.78,323.59,177.29,320.78Z"/><polygon class="cls-4" points="155.97 152.73 134.52 109.3 134.52 248.09 155.97 248.09 155.97 152.73"/></g></g></svg>