<svg xmlns="http://www.w3.org/2000/svg" width="319.882" height="319.882" viewBox="0 0 319.882 319.882">
  <g id="Groupe_71" data-name="Groupe 71" transform="translate(191.024) rotate(45)">
    <g id="Groupe_68" data-name="Groupe 68">
      <path id="Tracé_264" data-name="Tracé 264" d="M-4433.75,2537.43a99.049,99.049,0,0,0-50.57-53.062c-24.5-11.334-56.177-13.125-80.963-2.212s-40.519,35.182-34.522,57.541c7.291,27.186,41.332,44.363,54.235,70.14,7.9,15.78,7.2,33.421,5.869,50.418s-3.113,34.428,2.867,50.754,21.767,31.552,42.583,33.727c17.707,1.849,35.337-6.207,46.4-17.576s16.571-25.618,20.5-39.749a230.2,230.2,0,0,0,6.906-88.932C-4422.892,2577.875-4425.972,2557.146-4433.75,2537.43Z" transform="translate(4601.083 -2474.853)" fill="#f0f8fe"/>
    </g>
    <g id="Groupe_70" data-name="Groupe 70">
      <g id="Groupe_69" data-name="Groupe 69" opacity="0.71" style="mix-blend-mode: luminosity;isolation: isolate">
        <path id="Tracé_265" data-name="Tracé 265" d="M-4433.75,2537.43a99.049,99.049,0,0,0-50.57-53.062c-24.5-11.334-56.177-13.125-80.963-2.212s-40.519,35.182-34.522,57.541c7.291,27.186,41.332,44.363,54.235,70.14,7.9,15.78,7.2,33.421,5.869,50.418s-3.113,34.428,2.867,50.754,21.767,31.552,42.583,33.727c17.707,1.849,35.337-6.207,46.4-17.576s16.571-25.618,20.5-39.749a230.2,230.2,0,0,0,6.906-88.932C-4422.892,2577.875-4425.972,2557.146-4433.75,2537.43Z" transform="translate(4601.083 -2474.853)" fill="#f0f8fe"/>
      </g>
    </g>
  </g>
</svg>
