<svg xmlns="http://www.w3.org/2000/svg" width="345.523" height="244.863" viewBox="0 0 345.523 244.863">
  <g id="Groupe_75" data-name="Groupe 75" transform="translate(26 12)">
    <g id="Groupe_72" data-name="Groupe 72" transform="translate(-26 -12)">
      <path id="Tracé_266" data-name="Tracé 266" d="M-5621.817,2855.048a256.106,256.106,0,0,0,7.325,110.049c3.8,13.039,9.476,26.816,21.67,33.832,10.462,6.018,23.492,5.759,35.718,5.313l191.8-6.99c17.945-.654,36.337-1.4,52.9-7.971s31.189-20.312,33.007-37.258c2.08-19.383-12.643-36.9-29.164-48.479-56.484-39.584-141.792-38.525-184.571-91.354-8.724-10.773-15.021-23.2-24.075-33.724s-22.038-19.355-36.35-18.862c-15.245.526-28.247,11.73-34.75,24.819s-7.757,27.889-8.911,42.316C-5613.029,2836.929-5606,2844.858-5621.817,2855.048Z" transform="translate(5624.718 -2759.583)" fill="#f0f8fe"/>
    </g>
  </g>
</svg>
