<svg xmlns="http://www.w3.org/2000/svg" width="282.518" height="255.395" viewBox="0 0 282.518 255.395">
  <g id="Groupe_93" data-name="Groupe 93" transform="matrix(-1, -0.017, 0.017, -1, 276.145, 279.395)">
    <g id="Groupe_76" data-name="Groupe 76" transform="translate(-1.581 24.031)">
      <path id="Tracé_268" data-name="Tracé 268" d="M197.512,203.885c-9.119-18.637-39.419-23.214-41.8-43.824-1.087-9.389,4.888-18.453,12.661-23.832s17.14-7.82,26.254-10.326c20.91-5.75,42.161-12.634,58.92-26.4S281.78,63.56,277.157,42.372c-6-27.486-36.994-43.508-65.1-42.309s-53.843,15.249-78.412,28.954L70.5,64.243C60.617,69.754,50.69,75.3,41.807,82.3c-36.72,28.958-58.813,97.2-25.279,136.984C40.9,248.2,101.292,246.669,135.412,250.25,159,252.725,215.955,241.581,197.512,203.885Z" transform="translate(0)" fill="#f0f8fe"/>
    </g>
  </g>
</svg>
