<svg xmlns="http://www.w3.org/2000/svg" width="335.3" height="306.184" viewBox="0 0 335.3 306.184">
  <g id="Groupe_79" data-name="Groupe 79" transform="matrix(0.998, -0.07, 0.07, 0.998, -112.803, -154.471)">
    <g id="Groupe_76" data-name="Groupe 76" transform="translate(100.215 183.967)">
      <path id="Tracé_268" data-name="Tracé 268" d="M224.5,53.074C214.138,74.258,179.7,79.46,176.987,102.887c-1.235,10.672,5.556,20.975,14.391,27.089s19.482,8.889,29.842,11.737c23.768,6.536,47.922,14.361,66.972,30.005s32.1,40.857,26.841,64.94c-6.817,31.243-42.049,49.454-74,48.091s-61.2-17.333-89.127-32.911L80.13,211.8c-11.229-6.264-22.513-12.564-32.609-20.526C5.782,158.358-19.329,80.787,18.787,35.569c27.7-32.862,96.347-31.126,135.13-35.2C180.728-2.441,245.466,10.226,224.5,53.074Z" transform="translate(0 0)" fill="#f0f8fe"/>
    </g>
  </g>
</svg>
