<svg id="Groupe_67" data-name="Groupe 67" xmlns="http://www.w3.org/2000/svg" width="301.376" height="262" viewBox="0 0 301.376 262">
  <g id="Groupe_64" data-name="Groupe 64">
    <path id="Tracé_262" data-name="Tracé 262" d="M-4867.135,1049.1a157.819,157.819,0,0,1,92.15,77.584c8.252,16.074,13.889,33.858,25.745,47.493s32.951,21.818,48.215,12.15c15.066-9.543,16.928-30.4,17.191-48.232l3.091-209.551-154.415,6.4c-34.689,1.439-95.664-8.25-125.6,11.676-20.036,13.336-28.185,43.963-14.786,64.6C-4954.361,1043.859-4899.4,1037-4867.135,1049.1Z" transform="translate(4982.118 -928.543)" fill="#f0f8fe"/>
  </g>
  <g id="Groupe_66" data-name="Groupe 66">
    <g id="Groupe_65" data-name="Groupe 65" opacity="0.71" style="mix-blend-mode: luminosity;isolation: isolate">
      <path id="Tracé_263" data-name="Tracé 263" d="M-4867.135,1049.1a157.819,157.819,0,0,1,92.15,77.584c8.252,16.074,13.889,33.858,25.745,47.493s32.951,21.818,48.215,12.15c15.066-9.543,16.928-30.4,17.191-48.232l3.091-209.551-154.415,6.4c-34.689,1.439-95.664-8.25-125.6,11.676-20.036,13.336-28.185,43.963-14.786,64.6C-4954.361,1043.859-4899.4,1037-4867.135,1049.1Z" transform="translate(4982.118 -928.543)" fill="#f0f8fe"/>
    </g>
  </g>
</svg>
