<svg xmlns="http://www.w3.org/2000/svg" width="234.417" height="302.134" viewBox="0 0 234.417 302.134">
  <g id="Groupe_92" data-name="Groupe 92" transform="matrix(-0.978, 0.208, -0.208, -0.978, 234.417, 264.245)">
    <g id="Groupe_68" data-name="Groupe 68" transform="translate(0 0)">
      <path id="Tracé_264" data-name="Tracé 264" d="M167.331,62.578a99.049,99.049,0,0,0-50.57-53.062C92.264-1.818,60.585-3.609,35.8,7.3S-4.72,42.486,1.277,64.846c7.291,27.186,41.332,44.363,54.235,70.14,7.9,15.78,7.2,33.421,5.869,50.418s-3.113,34.428,2.867,50.754,21.767,31.552,42.583,33.727c17.707,1.849,35.337-6.207,46.4-17.576s16.571-25.618,20.5-39.749a230.2,230.2,0,0,0,6.906-88.932C178.19,103.022,175.11,82.293,167.331,62.578Z" fill="#f0f8fe"/>
    </g>
    <g id="Groupe_70" data-name="Groupe 70" transform="translate(0 0)">
      <g id="Groupe_69" data-name="Groupe 69" opacity="0.71" style="mix-blend-mode: luminosity;isolation: isolate">
        <path id="Tracé_265" data-name="Tracé 265" d="M167.331,62.578a99.049,99.049,0,0,0-50.57-53.062C92.264-1.818,60.585-3.609,35.8,7.3S-4.72,42.486,1.277,64.846c7.291,27.186,41.332,44.363,54.235,70.14,7.9,15.78,7.2,33.421,5.869,50.418s-3.113,34.428,2.867,50.754,21.767,31.552,42.583,33.727c17.707,1.849,35.337-6.207,46.4-17.576s16.571-25.618,20.5-39.749a230.2,230.2,0,0,0,6.906-88.932C178.19,103.022,175.11,82.293,167.331,62.578Z" fill="#f0f8fe"/>
      </g>
    </g>
  </g>
</svg>
