<svg xmlns="http://www.w3.org/2000/svg" width="27.885" height="20.449" viewBox="0 0 27.885 20.449">
  <path id="Tracé_287" data-name="Tracé 287" d="M-3184.286,2498.724q-5.785,0-11.57,0a2.093,2.093,0,0,1-2.336-2.322q-.007-6.729-.006-13.458a2.105,2.105,0,0,1,1.938-2.248,17.342,17.342,0,0,1,2.674-.056.806.806,0,0,0,.9-.607,2.365,2.365,0,0,1,2.531-1.756q5.785.006,11.57,0a2.362,2.362,0,0,1,2.441,1.711.828.828,0,0,0,.927.65,18.091,18.091,0,0,1,3.1.078,2.1,2.1,0,0,1,1.8,2.075q.024,6.911,0,13.824a2.1,2.1,0,0,1-2.208,2.105Q-3178.409,2498.73-3184.286,2498.724Zm6.214-9.007a6.329,6.329,0,0,0-6.335-6.356,6.276,6.276,0,0,0-6.349,6.348,6.269,6.269,0,0,0,6.34,6.357A6.326,6.326,0,0,0-3178.072,2489.717Z" transform="translate(3198.199 -2478.275)" fill="#001c3a"/>
</svg>
