<svg xmlns="http://www.w3.org/2000/svg" width="31.129" height="36.909" viewBox="0 0 31.129 36.909">
  <g id="Groupe_98" data-name="Groupe 98" transform="translate(0)">
    <path id="Tracé_274" data-name="Tracé 274" d="M-2845.789,2841.22a15.51,15.51,0,0,0-6.1-10.93c.4-.118.662-.678,1.19-1.811a2.462,2.462,0,0,0,.128-.312,1,1,0,0,0-.125-.968,8.086,8.086,0,0,0-2.987-1.863,1.414,1.414,0,0,0-1.26.67c-.337.551-.638,1.125-.983,1.671a.839.839,0,0,0-.142.358,15.6,15.6,0,0,0-2.92-.734.7.7,0,0,0,.176-.661.649.649,0,0,1,.236-.595,3.662,3.662,0,0,0,.239-4.8h-5.928a5.039,5.039,0,0,0-.506,4.139,1.191,1.191,0,0,0,.453.482.856.856,0,0,1,.54.94.538.538,0,0,0,.141.5,15.7,15.7,0,0,0-2.678.657c.14-.388-.167-.873-.815-1.895a3.169,3.169,0,0,0-.294-.41,1.331,1.331,0,0,0-.892-.424,7.6,7.6,0,0,0-3.2,1.887,1.159,1.159,0,0,0-.011,1.133c.333.618.7,1.218,1.038,1.833l.009.016a15.6,15.6,0,0,0-.325,24.881,17.24,17.24,0,0,0,7.392,3.172h4.235c.218-.052.435-.112.655-.154A15.665,15.665,0,0,0-2845.789,2841.22Zm-3.425,1.516a12.048,12.048,0,0,1-12.128,12.032,12.075,12.075,0,0,1-12.049-12.189,12.013,12.013,0,0,1,12.4-11.957A12.041,12.041,0,0,1-2849.214,2842.736Z" transform="translate(2876.843 -2821.249)" fill="#001c3a"/>
    <path id="Tracé_275" data-name="Tracé 275" d="M-2768.16,2908.881c.255,1.128.5,2.212.745,3.3q.769,3.464,1.531,6.928a2.194,2.194,0,0,1-1.023,2.4,2.3,2.3,0,0,1-2.7.012,2.233,2.233,0,0,1-1.027-2.4q1.044-4.83,2.125-9.651A.743.743,0,0,1-2768.16,2908.881Z" transform="translate(2783.799 -2898.055)" fill="#001c3a"/>
  </g>
</svg>
