<svg xmlns="http://www.w3.org/2000/svg" width="33.106" height="36.05" viewBox="0 0 33.106 36.05">
  <g id="Groupe_99" data-name="Groupe 99" transform="translate(0)">
    <path id="Tracé_276" data-name="Tracé 276" d="M-3870.513,3399.916a.8.8,0,0,0,.451-.144l.523-.325v9.188a.7.7,0,0,0,.416.641,2.05,2.05,0,0,0,.993.225,2.051,2.051,0,0,0,.992-.225.7.7,0,0,0,.416-.641v-11.479a.741.741,0,0,0-.388-.632,1.538,1.538,0,0,0-.857-.252.966.966,0,0,0-.524.126l-2.383,1.444a1.03,1.03,0,0,0-.524.957,1.275,1.275,0,0,0,.253.776A.758.758,0,0,0-3870.513,3399.916Z" transform="translate(3880.695 -3380.272)" fill="#001c3a"/>
    <path id="Tracé_277" data-name="Tracé 277" d="M-3821.633,3409.506a1.533,1.533,0,0,0,.822.254h6.426a.719.719,0,0,0,.6-.379,1.527,1.527,0,0,0,.252-.866,1.433,1.433,0,0,0-.255-.848.728.728,0,0,0-.6-.361h-4.76v-.164a1.4,1.4,0,0,1,.585-.958,12.682,12.682,0,0,1,1.41-1.067q.825-.547,1.641-1.2a6.058,6.058,0,0,0,1.4-1.624,3.941,3.941,0,0,0,.58-2.062,3.209,3.209,0,0,0-1.269-2.669,4.668,4.668,0,0,0-2.955-.99,4.491,4.491,0,0,0-2.848.948,3.035,3.035,0,0,0-1.212,2.518q0,1.462,1.247,1.462a1.653,1.653,0,0,0,1.06-.318.937.937,0,0,0,.4-.75,1.35,1.35,0,0,1,.384-1.067,1.441,1.441,0,0,1,.988-.337,1.321,1.321,0,0,1,1.042.392,1.323,1.323,0,0,1,.347.9,2.024,2.024,0,0,1-.595,1.314,8.732,8.732,0,0,1-1.454,1.3l-1.657,1.241a6.905,6.905,0,0,0-1.4,1.4,2.613,2.613,0,0,0-.579,1.562v1.762A.729.729,0,0,0-3821.633,3409.506Z" transform="translate(3837.347 -3380.532)" fill="#001c3a"/>
    <path id="Tracé_278" data-name="Tracé 278" d="M-3916.437,3267.841h-5.173v-.617a2.327,2.327,0,0,0-2.326-2.326,2.326,2.326,0,0,0-2.326,2.326v.617h-9.86v-.617a2.326,2.326,0,0,0-2.326-2.326,2.326,2.326,0,0,0-2.326,2.326v.617h-5.174a1.8,1.8,0,0,0-1.8,1.8v29.511a1.8,1.8,0,0,0,1.8,1.8h29.511a1.8,1.8,0,0,0,1.8-1.8v-29.511A1.8,1.8,0,0,0-3916.437,3267.841Zm-1.8,29.511h-25.916v-19.688h25.916Z" transform="translate(3947.746 -3264.898)" fill="#001c3a"/>
  </g>
</svg>
