<svg xmlns="http://www.w3.org/2000/svg" width="16.478" height="16.478" viewBox="0 0 16.478 16.478">
  <path id="Tracé_3" data-name="Tracé 3" d="M8.239,1.465a25.263,25.263,0,0,1,3.3.092,4.246,4.246,0,0,1,1.556.275,3.215,3.215,0,0,1,1.556,1.556,4.246,4.246,0,0,1,.275,1.556c0,.824.092,1.1.092,3.3a25.263,25.263,0,0,1-.092,3.3,4.246,4.246,0,0,1-.275,1.556,3.215,3.215,0,0,1-1.556,1.556,4.246,4.246,0,0,1-1.556.275c-.824,0-1.1.092-3.3.092a25.263,25.263,0,0,1-3.3-.092,4.246,4.246,0,0,1-1.556-.275,3.215,3.215,0,0,1-1.556-1.556,4.246,4.246,0,0,1-.275-1.556c0-.824-.092-1.1-.092-3.3a25.263,25.263,0,0,1,.092-3.3,4.246,4.246,0,0,1,.275-1.556,3.288,3.288,0,0,1,.641-.915,1.548,1.548,0,0,1,.915-.641,4.246,4.246,0,0,1,1.556-.275,25.263,25.263,0,0,1,3.3-.092M8.239,0A27.049,27.049,0,0,0,4.852.092,5.652,5.652,0,0,0,2.838.458a3.584,3.584,0,0,0-1.465.915A3.584,3.584,0,0,0,.458,2.838,4.171,4.171,0,0,0,.092,4.852,27.049,27.049,0,0,0,0,8.239a27.049,27.049,0,0,0,.092,3.387A5.652,5.652,0,0,0,.458,13.64a3.584,3.584,0,0,0,.915,1.465,3.584,3.584,0,0,0,1.465.915,5.652,5.652,0,0,0,2.014.366,27.049,27.049,0,0,0,3.387.092,27.049,27.049,0,0,0,3.387-.092,5.652,5.652,0,0,0,2.014-.366,3.841,3.841,0,0,0,2.38-2.38,5.652,5.652,0,0,0,.366-2.014c0-.915.092-1.19.092-3.387a27.049,27.049,0,0,0-.092-3.387,5.652,5.652,0,0,0-.366-2.014,3.584,3.584,0,0,0-.915-1.465A3.584,3.584,0,0,0,13.64.458,5.652,5.652,0,0,0,11.626.092,27.049,27.049,0,0,0,8.239,0m0,4.028A4.143,4.143,0,0,0,4.028,8.239,4.211,4.211,0,1,0,8.239,4.028m0,6.957A2.7,2.7,0,0,1,5.493,8.239,2.7,2.7,0,0,1,8.239,5.493a2.7,2.7,0,0,1,2.746,2.746,2.7,2.7,0,0,1-2.746,2.746m4.394-8.148A1.007,1.007,0,1,0,13.64,3.845a1.016,1.016,0,0,0-1.007-1.007" fill="#001c3a" fill-rule="evenodd"/>
</svg>
