<svg xmlns="http://www.w3.org/2000/svg" width="29.28" height="23.624" viewBox="0 0 29.28 23.624">
  <path id="Tracé_273" data-name="Tracé 273" d="M-3962.165,2841.656q5.892,0,11.784,0c2.21,0,2.923.784,2.91,2.99-.026,4.527,0,9.053-.013,13.58,0,2.373-.632,3-3,3-2.17.006-4.34.01-6.509,0-.65,0-1.184.018-1.2.905-.019.865.519.852,1.107.861a2.335,2.335,0,0,1,2.221,1.437c.24.51.163.851-.536.848-4.378-.018-8.754-.013-13.132-.022-.33,0-.727.035-.888-.334a1,1,0,0,1,.278-1.027,2.33,2.33,0,0,1,1.971-.888c.688,0,1.041-.259,1.013-1-.029-.774-.547-.779-1.093-.78-2.282,0-4.564.008-6.846-.006-2.017-.012-2.645-.638-2.646-2.6q0-7.126,0-14.253c0-2.039.66-2.7,2.683-2.705Q-3968.114,2841.646-3962.165,2841.656Zm-.046,2.277c-3.738,0-7.475.017-11.212-.012-.852-.007-1.194.255-1.186,1.155q.051,6.335,0,12.669c-.01.942.333,1.226,1.24,1.223q11.156-.034,22.312.006c1.071.006,1.328-.416,1.319-1.395-.037-4.111-.044-8.222,0-12.333.012-1.051-.37-1.344-1.374-1.333C-3954.811,2843.957-3958.511,2843.93-3962.211,2843.932Z" transform="translate(3976.75 -2841.653)" fill="#001c3a"/>
</svg>
