<svg xmlns="http://www.w3.org/2000/svg" width="130.077" height="125.67" viewBox="0 0 130.077 125.67">
  <g id="Groupe_108" data-name="Groupe 108" transform="translate(0)">
    <path id="Tracé_286" data-name="Tracé 286" d="M-1973.159,3715.061v-57.03c2.191-4.627,5.806-5.9,10.166-5.873,15.008.077,30.018.034,45.026.017,4.137,0,4.339-.3,4.406-5.058.067-4.8.07-9.6.31-14.386,1.374-27.361,27.632-45.236,49.593-33.629,11.307,5.976,18.081,16.22,20.576,30.087v31.464c-2.128,4.16-5.667,4.033-9.178,3.778-4.242-.308-6.037-2.511-6.063-7.327-.038-7.1.1-14.206-.052-21.3-.26-11.856-7.983-21.5-17.582-22.216-11.317-.838-20.042,6.679-21.6,18.992a94.962,94.962,0,0,0-.24,12.1c.023,7.608-.84,7.429,6.183,7.61,5.976.155,8.8,3.622,8.821,10.325q.061,24.089,0,48.179c-.015,6.855-3.038,10.333-9.077,10.344-24.184.042-48.368,0-72.552.035C-1968.5,3721.179-1971.467,3719.342-1973.159,3715.061Z" transform="translate(1973.159 -3595.503)" fill="#001c3a"/>
  </g>
</svg>
