<svg xmlns="http://www.w3.org/2000/svg" width="30.092" height="36.177" viewBox="0 0 30.092 36.177">
  <g id="Groupe_100" data-name="Groupe 100" transform="translate(0)">
    <path id="Tracé_279" data-name="Tracé 279" d="M-3959.891,2605.972a21.26,21.26,0,0,1-13.835-4.75c-1.409-1.118-1.47-1.27-.839-2.967a14.523,14.523,0,0,1,11.5-9.686,15.37,15.37,0,0,1,16.013,6.04,12.788,12.788,0,0,1,2.108,4.386,1.469,1.469,0,0,1-.578,1.77A21.815,21.815,0,0,1-3959.891,2605.972Z" transform="translate(3974.949 -2569.799)" fill="#001c3a"/>
    <path id="Tracé_280" data-name="Tracé 280" d="M-3910.114,2456.874a8.072,8.072,0,0,1-7.948-7.927,8.06,8.06,0,0,1,7.953-7.916,8.064,8.064,0,0,1,7.951,7.919A8.078,8.078,0,0,1-3910.114,2456.874Z" transform="translate(3925.179 -2441.031)" fill="#001c3a"/>
  </g>
</svg>
