<svg xmlns="http://www.w3.org/2000/svg" width="15.199" height="12.328" viewBox="0 0 15.199 12.328">
  <path id="Tracé_2" data-name="Tracé 2" d="M42.813,14.328a8.787,8.787,0,0,0,8.866-8.866V5.04a6.864,6.864,0,0,0,1.52-1.6,7.01,7.01,0,0,1-1.773.507,3.285,3.285,0,0,0,1.351-1.689,7.745,7.745,0,0,1-1.942.76A3.016,3.016,0,0,0,48.555,2a3.172,3.172,0,0,0-3.124,3.124,1.646,1.646,0,0,0,.084.676A8.73,8.73,0,0,1,39.1,2.507a3.234,3.234,0,0,0-.422,1.6,3.355,3.355,0,0,0,1.351,2.618,2.847,2.847,0,0,1-1.435-.422h0a3.086,3.086,0,0,0,2.533,3.04,2.6,2.6,0,0,1-.844.084,1.437,1.437,0,0,1-.591-.084,3.2,3.2,0,0,0,2.955,2.2,6.375,6.375,0,0,1-3.884,1.351,2.338,2.338,0,0,1-.76-.084,7.97,7.97,0,0,0,4.813,1.52" transform="translate(-38 -2)" fill="#001c3a" fill-rule="evenodd"/>
</svg>
