<svg xmlns="http://www.w3.org/2000/svg" width="14.269" height="26.376" viewBox="0 0 14.269 26.376">
  <path id="Tracé_284" data-name="Tracé 284" d="M-3471.091,2848.592q0-5.164,0-10.329a2.743,2.743,0,0,1,2.832-2.841q4.306,0,8.613,0a2.752,2.752,0,0,1,2.822,2.832q0,10.355,0,20.71a2.769,2.769,0,0,1-2.825,2.832h-8.613a2.656,2.656,0,0,1-1.841-.641,2.773,2.773,0,0,1-.987-2.133Q-3471.094,2853.807-3471.091,2848.592Zm1.775-.807q0,3.907,0,7.815c0,.372,0,.374.375.374h9.919c.39,0,.389,0,.391-.405.016-3.984-.015-7.967.015-11.95.01-1.225-.008-2.45-.01-3.675,0-.245-.078-.318-.32-.318q-5.019.01-10.041,0c-.329,0-.33,0-.33.34Q-3469.317,2843.878-3469.316,2847.784Zm6.623,10.964a1.274,1.274,0,0,0-1.24-1.344,1.3,1.3,0,0,0-1.313,1.312,1.361,1.361,0,0,0,1.27,1.35A1.318,1.318,0,0,0-3462.693,2858.748Zm-1.255-20.854c.639,0,1.279,0,1.918,0,.283,0,.447-.145.441-.37s-.168-.371-.449-.371q-1.919,0-3.838,0c-.288,0-.449.137-.453.364s.159.377.461.379C-3465.228,2837.9-3464.588,2837.895-3463.948,2837.895Z" transform="translate(3471.092 -2835.419)" fill="#001c3a"/>
</svg>
