<svg xmlns="http://www.w3.org/2000/svg" width="37.431" height="15.007" viewBox="0 0 37.431 15.007">
  <g id="Groupe_345" data-name="Groupe 345" transform="translate(-1486.595 -1250.468)">
    <path id="Tracé_404" data-name="Tracé 404" d="M1516.38,1262.91a26.54,26.54,0,0,0-2.753.906,7.409,7.409,0,0,1-6.654-.136,4.975,4.975,0,0,0-2.067-.534c-3.734-.052-7.47-.024-11.029-.024-.2.823-.214,2.048-.586,2.169a5.12,5.12,0,0,1-2.9-.059c-.289-.086-.25-1.268-.372-2.018-2.792-.49-3.411-1.222-3.413-4.26,0-1.26-.015-2.521,0-3.781.033-2.282,1.186-3.451,3.464-3.458,5-.017,10,.015,14.994-.031a5.841,5.841,0,0,0,2.213-.519,7.525,7.525,0,0,1,6.188-.063,8.142,8.142,0,0,0,2.594.58c1.515.091,3.041,0,4.562.028a3.1,3.1,0,0,1,3.4,3.4c.015,1.477.008,2.955,0,4.433-.011,2.4-1.056,3.469-3.477,3.578-.169.007-.338.032-.332.031-.139.791-.128,2.035-.413,2.108a6.316,6.316,0,0,1-3.031-.037C1516.5,1265.16,1516.537,1263.953,1516.38,1262.91Zm-.415-5.332a5.659,5.659,0,1,0-5.757,5.633A5.623,5.623,0,0,0,1515.966,1257.578Z" transform="translate(0)" fill="#001c3a"/>
    <path id="Tracé_405" data-name="Tracé 405" d="M1567.107,1261.595a5.659,5.659,0,1,1-5.7-5.692A5.626,5.626,0,0,1,1567.107,1261.595Zm-5.652,4.423a4.468,4.468,0,1,0-4.408-4.537A4.5,4.5,0,0,0,1561.455,1266.018Z" transform="translate(-51.141 -4.017)" fill="#fff"/>
    <path id="Tracé_406" data-name="Tracé 406" d="M1565.02,1269.36a4.468,4.468,0,0,1,.014-8.935,4.468,4.468,0,1,1-.014,8.935Z" transform="translate(-54.706 -7.36)" fill="#001c3a"/>
    <circle id="Ellipse_67" data-name="Ellipse 67" cx="0.495" cy="0.495" r="0.495" transform="translate(1498.495 1257.053)" fill="#fff"/>
    <circle id="Ellipse_68" data-name="Ellipse 68" cx="0.495" cy="0.495" r="0.495" transform="translate(1496.147 1257.053)" fill="#fff"/>
    <circle id="Ellipse_69" data-name="Ellipse 69" cx="0.495" cy="0.495" r="0.495" transform="translate(1493.766 1257.053)" fill="#fff"/>
  </g>
</svg>
