<svg xmlns="http://www.w3.org/2000/svg" width="32.417" height="24.375" viewBox="0 0 32.417 24.375">
  <g id="Groupe_346" data-name="Groupe 346" transform="translate(-113 -1651.229)">
    <path id="Tracé_281" data-name="Tracé 281" d="M-3685.961,2443.651a19.263,19.263,0,0,1,7.113,1.247,20.369,20.369,0,0,1,6.26,3.686c.681.583,1.311,1.215,1.932,1.856a2.22,2.22,0,0,1,.038,3.051,2.209,2.209,0,0,1-3,.183c-.461-.385-.871-.832-1.308-1.247a16.054,16.054,0,0,0-4.553-3.02,16.143,16.143,0,0,0-4.817-1.3,15.4,15.4,0,0,0-4.123.1,16.6,16.6,0,0,0-3.461.914,16.717,16.717,0,0,0-3.462,1.862,21.9,21.9,0,0,0-3.2,2.858,2.213,2.213,0,0,1-3.689-.442,2.264,2.264,0,0,1,.38-2.494,22.731,22.731,0,0,1,7.609-5.58,20.842,20.842,0,0,1,5.654-1.542A18.153,18.153,0,0,1-3685.961,2443.651Z" transform="translate(3815.446 -792.417)" fill="#001c3a"/>
    <path id="Tracé_282" data-name="Tracé 282" d="M-3622.731,2536.528a12.115,12.115,0,0,1,6.867,2.126,14.513,14.513,0,0,1,2.939,2.653,2.356,2.356,0,0,1-.7,3.531,2.387,2.387,0,0,1-2.98-.474,11.519,11.519,0,0,0-2.344-1.969,7.476,7.476,0,0,0-5.324-.888,7.7,7.7,0,0,0-4.079,2.282c-.344.357-.691.711-1.053,1.051a2.352,2.352,0,0,1-2.627.541,2.328,2.328,0,0,1-1.518-2.18,2.364,2.364,0,0,1,.742-1.805,20.551,20.551,0,0,1,3.053-2.729,12.593,12.593,0,0,1,3.644-1.693A12.383,12.383,0,0,1-3622.731,2536.528Z" transform="translate(3752.557 -877.468)" fill="#001c3a"/>
    <path id="Tracé_283" data-name="Tracé 283" d="M-3550.732,2650.188a3.761,3.761,0,0,1-3.8-3.792,3.781,3.781,0,0,1,3.83-3.812,3.814,3.814,0,0,1,3.8,3.839A3.788,3.788,0,0,1-3550.732,2650.188Z" transform="translate(3679.533 -974.584)" fill="#001c3a"/>
  </g>
</svg>
