<svg xmlns="http://www.w3.org/2000/svg" xmlns:xlink="http://www.w3.org/1999/xlink" width="414" height="5013" viewBox="0 0 414 5013">
  <defs>
    <clipPath id="clip-path">
      <rect id="Rectangle_1562" data-name="Rectangle 1562" width="414" height="5013" fill="#fff" stroke="#707070" stroke-width="1"/>
    </clipPath>
  </defs>
  <g id="Groupe_de_masques_14" data-name="Groupe de masques 14" clip-path="url(#clip-path)">
    <g id="Groupe_348" data-name="Groupe 348">
      <g id="Groupe_80" data-name="Groupe 80" transform="translate(5456.3 -852.543)">
        <g id="Groupe_92" data-name="Groupe 92" transform="matrix(-0.978, 0.208, -0.208, -0.978, -5249.053, 2916.889)">
          <g id="Groupe_68" data-name="Groupe 68" transform="translate(0 0)">
            <path id="Tracé_264" data-name="Tracé 264" d="M167.331,62.578a99.049,99.049,0,0,0-50.57-53.062C92.264-1.818,60.585-3.609,35.8,7.3S-4.72,42.486,1.277,64.846c7.291,27.186,41.332,44.363,54.235,70.14,7.9,15.78,7.2,33.421,5.869,50.418s-3.113,34.428,2.867,50.754,21.767,31.552,42.583,33.727c17.707,1.849,35.337-6.207,46.4-17.576s16.571-25.618,20.5-39.749a230.2,230.2,0,0,0,6.906-88.932C178.19,103.022,175.11,82.293,167.331,62.578Z" fill="#f0f8fe"/>
          </g>
          <g id="Groupe_70" data-name="Groupe 70" transform="translate(0 0)">
            <g id="Groupe_69" data-name="Groupe 69" opacity="0.71" style="mix-blend-mode: luminosity;isolation: isolate">
              <path id="Tracé_265" data-name="Tracé 265" d="M167.331,62.578a99.049,99.049,0,0,0-50.57-53.062C92.264-1.818,60.585-3.609,35.8,7.3S-4.72,42.486,1.277,64.846c7.291,27.186,41.332,44.363,54.235,70.14,7.9,15.78,7.2,33.421,5.869,50.418s-3.113,34.428,2.867,50.754,21.767,31.552,42.583,33.727c17.707,1.849,35.337-6.207,46.4-17.576s16.571-25.618,20.5-39.749a230.2,230.2,0,0,0,6.906-88.932C178.19,103.022,175.11,82.293,167.331,62.578Z" fill="#f0f8fe"/>
            </g>
          </g>
        </g>
        <g id="Groupe_67" data-name="Groupe 67" transform="translate(-5290.967 838.543)">
          <g id="Groupe_64" data-name="Groupe 64">
            <path id="Tracé_262" data-name="Tracé 262" d="M-4867.135,1049.1a157.819,157.819,0,0,1,92.15,77.584c8.252,16.074,13.889,33.858,25.745,47.493s32.951,21.818,48.215,12.15c15.066-9.543,16.928-30.4,17.191-48.232l3.091-209.551-154.415,6.4c-34.689,1.439-95.664-8.25-125.6,11.676-20.036,13.336-28.185,43.963-14.786,64.6C-4954.361,1043.859-4899.4,1037-4867.135,1049.1Z" transform="translate(4982.118 -928.543)" fill="#f0f8fe"/>
          </g>
          <g id="Groupe_66" data-name="Groupe 66">
            <g id="Groupe_65" data-name="Groupe 65" opacity="0.71" style="mix-blend-mode: luminosity;isolation: isolate">
              <path id="Tracé_263" data-name="Tracé 263" d="M-4867.135,1049.1a157.819,157.819,0,0,1,92.15,77.584c8.252,16.074,13.889,33.858,25.745,47.493s32.951,21.818,48.215,12.15c15.066-9.543,16.928-30.4,17.191-48.232l3.091-209.551-154.415,6.4c-34.689,1.439-95.664-8.25-125.6,11.676-20.036,13.336-28.185,43.963-14.786,64.6C-4954.361,1043.859-4899.4,1037-4867.135,1049.1Z" transform="translate(4982.118 -928.543)" fill="#f0f8fe"/>
            </g>
          </g>
        </g>
        <g id="Groupe_71" data-name="Groupe 71" transform="translate(-5058.178 1947.769) rotate(45)">
          <g id="Groupe_68-2" data-name="Groupe 68">
            <path id="Tracé_264-2" data-name="Tracé 264" d="M-4433.75,2537.43a99.049,99.049,0,0,0-50.57-53.062c-24.5-11.334-56.177-13.125-80.963-2.212s-40.519,35.182-34.522,57.541c7.291,27.186,41.332,44.363,54.235,70.14,7.9,15.78,7.2,33.421,5.869,50.418s-3.113,34.428,2.867,50.754,21.767,31.552,42.583,33.727c17.707,1.849,35.337-6.207,46.4-17.576s16.571-25.618,20.5-39.749a230.2,230.2,0,0,0,6.906-88.932C-4422.892,2577.875-4425.972,2557.146-4433.75,2537.43Z" transform="translate(4601.083 -2474.853)" fill="#f0f8fe"/>
          </g>
          <g id="Groupe_70-2" data-name="Groupe 70">
            <g id="Groupe_69-2" data-name="Groupe 69" opacity="0.71" style="mix-blend-mode: luminosity;isolation: isolate">
              <path id="Tracé_265-2" data-name="Tracé 265" d="M-4433.75,2537.43a99.049,99.049,0,0,0-50.57-53.062c-24.5-11.334-56.177-13.125-80.963-2.212s-40.519,35.182-34.522,57.541c7.291,27.186,41.332,44.363,54.235,70.14,7.9,15.78,7.2,33.421,5.869,50.418s-3.113,34.428,2.867,50.754,21.767,31.552,42.583,33.727c17.707,1.849,35.337-6.207,46.4-17.576s16.571-25.618,20.5-39.749a230.2,230.2,0,0,0,6.906-88.932C-4422.892,2577.875-4425.972,2557.146-4433.75,2537.43Z" transform="translate(4601.083 -2474.853)" fill="#f0f8fe"/>
            </g>
          </g>
        </g>
        <g id="Groupe_75" data-name="Groupe 75" transform="translate(-5462.719 5043.18)">
          <g id="Groupe_72" data-name="Groupe 72" transform="translate(-26 -12)">
            <path id="Tracé_266" data-name="Tracé 266" d="M-5621.817,2855.048a256.106,256.106,0,0,0,7.325,110.049c3.8,13.039,9.476,26.816,21.67,33.832,10.462,6.018,23.492,5.759,35.718,5.313l191.8-6.99c17.945-.654,36.337-1.4,52.9-7.971s31.189-20.312,33.007-37.258c2.08-19.383-12.643-36.9-29.164-48.479-56.484-39.584-141.792-38.525-184.571-91.354-8.724-10.773-15.021-23.2-24.075-33.724s-22.038-19.355-36.35-18.862c-15.245.526-28.247,11.73-34.75,24.819s-7.757,27.889-8.911,42.316C-5613.029,2836.929-5606,2844.858-5621.817,2855.048Z" transform="translate(5624.718 -2759.583)" fill="#f0f8fe"/>
          </g>
        </g>
        <g id="Groupe_79" data-name="Groupe 79" transform="matrix(0.998, -0.07, 0.07, 0.998, -5635.31, 1236.171)">
          <g id="Groupe_76" data-name="Groupe 76" transform="translate(100.215 183.967)">
            <path id="Tracé_268" data-name="Tracé 268" d="M224.5,53.074C214.138,74.258,179.7,79.46,176.987,102.887c-1.235,10.672,5.556,20.975,14.391,27.089s19.482,8.889,29.842,11.737c23.768,6.536,47.922,14.361,66.972,30.005s32.1,40.857,26.841,64.94c-6.817,31.243-42.049,49.454-74,48.091s-61.2-17.333-89.127-32.911L80.13,211.8c-11.229-6.264-22.513-12.564-32.609-20.526C5.782,158.358-19.329,80.787,18.787,35.569c27.7-32.862,96.347-31.126,135.13-35.2C180.728-2.441,245.466,10.226,224.5,53.074Z" transform="translate(0 0)" fill="#f0f8fe"/>
          </g>
        </g>
        <g id="Groupe_93" data-name="Groupe 93" transform="matrix(-1, -0.017, 0.017, -1, -4997.155, 3770.254)">
          <g id="Groupe_76-2" data-name="Groupe 76" transform="translate(-1.581 24.031)">
            <path id="Tracé_268-2" data-name="Tracé 268" d="M197.512,203.885c-9.119-18.637-39.419-23.214-41.8-43.824-1.087-9.389,4.888-18.453,12.661-23.832s17.14-7.82,26.254-10.326c20.91-5.75,42.161-12.634,58.92-26.4S281.78,63.56,277.157,42.372c-6-27.486-36.994-43.508-65.1-42.309s-53.843,15.249-78.412,28.954L70.5,64.243C60.617,69.754,50.69,75.3,41.807,82.3c-36.72,28.958-58.813,97.2-25.279,136.984C40.9,248.2,101.292,246.669,135.412,250.25,159,252.725,215.955,241.581,197.512,203.885Z" transform="translate(0)" fill="#f0f8fe"/>
          </g>
        </g>
      </g>
      <g id="Groupe_272" data-name="Groupe 272">
        <g id="Groupe_241" data-name="Groupe 241" transform="matrix(1, 0.017, -0.017, 1, 1573.67, 1739.396)">
          <g id="Groupe_227" data-name="Groupe 227" transform="translate(-1692.688 -1711.789)">
            <path id="Tracé_361" data-name="Tracé 361" d="M-1330.553-1619.01c1.286-.243,1.536.32.547,1.263-38.254,36.643-87.531,67.635-140.07,90.005-52.505,22.693-108.273,36.764-158.733,47.009a8.365,8.365,0,0,1-4.792-.8c-1.345-.711-1.382-1.5-.08-1.749,50.44-9.708,106.151-23.208,158.667-45.318,52.548-21.79,101.9-52.189,140.344-88.3A9.778,9.778,0,0,1-1330.553-1619.01Z" transform="translate(1634.634 1619.067)" fill="#ffc900"/>
          </g>
          <g id="Groupe_228" data-name="Groupe 228" transform="translate(-1760.158 -1645.6)">
            <path id="Tracé_362" data-name="Tracé 362" d="M-1478.848-1525.529c1.257.149,1,.888-.6,1.65-79.307,38.7-171.017,53.2-244.836,62.988a7.844,7.844,0,0,1-4.887-1.144c-1.216-.849-1-1.7.481-1.9,73.8-9.025,165.338-22.673,244.688-60.519A11.6,11.6,0,0,1-1478.848-1525.529Z" transform="translate(1729.956 1525.556)" fill="#ff9929"/>
          </g>
          <g id="Groupe_229" data-name="Groupe 229" transform="translate(-1500.166 -1726.479)">
            <path id="Tracé_363" data-name="Tracé 363" d="M-1253.891-1639.737c1.752-.347,2.152.409.869,1.7-27.959,28.119-62.881,53.39-101.576,73.674a13.84,13.84,0,0,1-6.6,1.367c-1.866-.18-1.924-1.058-.149-1.958,38.742-19.657,73.785-44.309,101.957-71.877A12.838,12.838,0,0,1-1253.891-1639.737Z" transform="translate(1362.638 1639.821)" fill="#ffc900"/>
          </g>
          <g id="Groupe_230" data-name="Groupe 230" transform="translate(-1759.795 -1626.349)">
            <path id="Tracé_364" data-name="Tracé 364" d="M-1474.474-1498.332c.96.11.987.568.05,1.02-85.475,42.324-181.652,57.418-251.047,74.716a4.621,4.621,0,0,1-3.124-.8c-.964-.648-1.134-1.333-.372-1.525,69.483-16.722,165.544-31.161,251.061-72.806A7.455,7.455,0,0,1-1474.474-1498.332Z" transform="translate(1729.443 1498.357)" fill="#ff9929"/>
          </g>
          <g id="Groupe_231" data-name="Groupe 231" transform="translate(-1390.196 -1758.199)">
            <path id="Tracé_365" data-name="Tracé 365" d="M-1154.416-1684.591c.8-.29.467.863-.771,2.574a367.846,367.846,0,0,1-47.106,53.007c-1.672,1.563-3.746,2.942-4.606,3.09s-.176-.978,1.5-2.524A366.969,366.969,0,0,0-1158.089-1681,12.427,12.427,0,0,1-1154.416-1684.591Z" transform="translate(1207.273 1684.636)" fill="#ff9929"/>
          </g>
          <g id="Groupe_232" data-name="Groupe 232" transform="translate(-1688.293 -1640.995)">
            <path id="Tracé_366" data-name="Tracé 366" d="M-1440.967-1519.012c1.886.192,1.947,1.084.122,1.993-57.37,28.75-121.155,46.125-179.461,57.285a11.99,11.99,0,0,1-6.726-1.089c-1.856-.97-1.858-2.031,0-2.364,58.245-10.3,121.935-26.758,179.357-54.589A14.841,14.841,0,0,1-1440.967-1519.012Z" transform="translate(1628.424 1519.05)" fill="#ffc900"/>
          </g>
          <g id="Groupe_233" data-name="Groupe 233" transform="translate(-1487.517 -1675.427)">
            <path id="Tracé_367" data-name="Tracé 367" d="M-1299.48-1567.69c1.849-.078,2.046.771.415,1.9-12.012,8.287-24.6,16.089-37.617,23.351a14.026,14.026,0,0,1-6.62,1.554c-1.881-.13-1.958-1.013-.188-1.967,13.039-7.048,25.654-14.637,37.706-22.716A14.489,14.489,0,0,1-1299.48-1567.69Z" transform="translate(1344.767 1567.695)" fill="#ff9929"/>
          </g>
          <g id="Groupe_234" data-name="Groupe 234" transform="translate(-1373.28 -1804.508)">
            <path id="Tracé_368" data-name="Tracé 368" d="M-1145.25-1749.912c.774-.345,1.136-.074.807.612a274.517,274.517,0,0,1-35.55,54.935,5.743,5.743,0,0,1-2.545,1.622c-.852.225-1.09-.131-.539-.794a273.9,273.9,0,0,0,35.828-54.523A4.639,4.639,0,0,1-1145.25-1749.912Z" transform="translate(1183.373 1750.062)" fill="#ffc900"/>
          </g>
          <g id="Groupe_235" data-name="Groupe 235" transform="translate(-1833.321 -1582.349)">
            <path id="Tracé_369" data-name="Tracé 369" d="M-1696.6-1434.842c1.857,1.005,1.884,2.088.064,2.427-50.784,9.493-96.628,15.481-129.215,29.615-1.166.511-3.666-.37-5.6-1.995s-2.549-3.359-1.371-3.841c32.867-13.467,78.724-18.735,129.467-27.476A12.154,12.154,0,0,1-1696.6-1434.842Z" transform="translate(1833.321 1436.194)" fill="#ffc900"/>
          </g>
          <g id="Groupe_236" data-name="Groupe 236" transform="translate(-1682.29 -1568.573)">
            <path id="Tracé_370" data-name="Tracé 370" d="M-1581.365-1416.333c1.258.523.675,1.378-1.29,1.908-10.506,2.823-20.832,5.476-30.907,8.03a9.69,9.69,0,0,1-5.689-.265c-1.259-.627-.753-1.507,1.134-1.966,10.077-2.456,20.4-5.009,30.909-7.732A11.14,11.14,0,0,1-1581.365-1416.333Z" transform="translate(1619.944 1416.731)" fill="#ffc900"/>
          </g>
          <g id="Groupe_237" data-name="Groupe 237" transform="translate(-1365.001 -1936.403)">
            <path id="Tracé_371" data-name="Tracé 371" d="M-1120.894-1935.663c1.022-.949,2.276-.995,2.789-.079,26.152,44.733,11.689,123.127-46.647,193.259a12.124,12.124,0,0,1-5.255,3.41c-1.74.476-2.189-.259-1.025-1.631,58.928-68.9,74.443-146.573,49.189-191.593A3.07,3.07,0,0,1-1120.894-1935.663Z" transform="translate(1171.677 1936.403)" fill="#ff9929"/>
          </g>
          <g id="Groupe_238" data-name="Groupe 238" transform="translate(-1337.344 -1893.458)">
            <path id="Tracé_372" data-name="Tracé 372" d="M-1087.673-1875.4c.939-.759,1.778-.167,1.84,1.351,1.585,36.728-12.188,81.876-41.274,125.419a12.008,12.008,0,0,1-4.508,4.109c-1.283.471-1.314-.587-.108-2.358,29.4-43.034,43.6-87.818,42.446-124.43A5.619,5.619,0,0,1-1087.673-1875.4Z" transform="translate(1132.603 1875.731)" fill="#ffc900"/>
          </g>
          <g id="Groupe_239" data-name="Groupe 239" transform="translate(-1424.669 -1856.455)">
            <path id="Tracé_373" data-name="Tracé 373" d="M-1141.133-1823.177c.785-.5,1.319-.3,1.188.45-8.9,53.576-49.024,116.928-111.666,165.673a7.749,7.749,0,0,1-3.48,1.415c-1.047.093-1.185-.379-.311-1.056,62.8-48.1,103.276-110.9,112.6-164.233A4.03,4.03,0,0,1-1141.133-1823.177Z" transform="translate(1255.976 1823.452)" fill="#ffc900"/>
          </g>
          <g id="Groupe_240" data-name="Groupe 240" transform="translate(-1317.678 -1922.817)">
            <path id="Tracé_374" data-name="Tracé 374" d="M-1104.139-1916.874c.541-.46,1.145-.445,1.346.045,6.1,14.7,8.7,31.839,7.42,50.7a3.034,3.034,0,0,1-1.273,1.944c-.66.446-1.153.3-1.106-.326,1.415-18.805-1.038-35.926-7-50.65A1.7,1.7,0,0,1-1104.139-1916.874Z" transform="translate(1104.818 1917.208)" fill="#ffc900"/>
          </g>
        </g>
        <g id="Groupe_256" data-name="Groupe 256" transform="translate(1490.35 1303.591) rotate(-7)">
          <g id="Groupe_242" data-name="Groupe 242" transform="translate(-1117.196 -1183.679)">
            <path id="Tracé_375" data-name="Tracé 375" d="M-1013.555-870.107c-.659-.748-.476-2.523.412-3.972,67.768-113.27,134.014-237.711,242.179-297.211,1.38-.776,2.629-1.015,2.781-.548s-.843,1.471-2.217,2.254c-107.636,59.941-173.348,184.6-240.376,298.2C-1011.65-869.93-1012.9-869.36-1013.555-870.107Z" transform="translate(1013.95 1172.076)" fill="#ffc900"/>
          </g>
          <g id="Groupe_243" data-name="Groupe 243" transform="translate(-1035.011 -1198.231)">
            <path id="Tracé_376" data-name="Tracé 376" d="M-906.679-984.308c-.433-.62.094-2.579,1.184-4.372,53.831-89.574,119.187-167.174,210.611-201.635,1.828-.7,3.393-.931,3.479-.539s-1.33,1.265-3.149,1.972c-91.052,34.809-156.011,112.658-209.392,202.439C-905.023-984.647-906.246-983.687-906.679-984.308Z" transform="translate(906.831 1191.043)" fill="#ffc900"/>
          </g>
          <g id="Groupe_244" data-name="Groupe 244" transform="translate(-1123.252 -982.799)">
            <path id="Tracé_377" data-name="Tracé 377" d="M-1021.2-766.61c-1-1.079-.826-3.566.38-5.565,26.243-43.633,50.806-90.651,77.469-135.662,1.223-2.065,2.754-2.978,3.415-2.051s.214,3.357-.989,5.428c-26.32,45.167-50.513,92.338-76.323,136.171C-1018.425-766.279-1020.2-765.532-1021.2-766.61Z" transform="translate(1021.845 910.249)" fill="#ffc900"/>
          </g>
          <g id="Groupe_245" data-name="Groupe 245" transform="translate(-1024.192 -1221.135)">
            <path id="Tracé_378" data-name="Tracé 378" d="M-892.626-1042.213c-.284-.444.04-1.584.73-2.552,62.5-88.707,140.634-158.175,247.69-176.007,1.167-.2,2.138-.154,2.162.1s-.9.616-2.063.82c-106.776,18.126-184.6,87.812-246.763,176.688C-891.556-1042.2-892.341-1041.77-892.626-1042.213Z" transform="translate(892.729 1220.897)" fill="#ff9929"/>
          </g>
          <g id="Groupe_246" data-name="Groupe 246" transform="translate(-1164.75 -913.245)">
            <path id="Tracé_379" data-name="Tracé 379" d="M-1075.786-737.642c-.517-.529.377-2.693,1.981-4.851,17.22-23.192,33.348-48.1,49.265-73.577,1.484-2.373,3.011-3.914,3.416-3.435s-.457,2.8-1.928,5.173c-15.809,25.521-31.818,50.487-48.909,73.742C-1073.551-738.424-1075.27-737.112-1075.786-737.642Z" transform="translate(1075.933 819.592)" fill="#ffc900"/>
          </g>
          <g id="Groupe_247" data-name="Groupe 247" transform="translate(-1035.726 -1170.435)">
            <path id="Tracé_380" data-name="Tracé 380" d="M-907.5-989.837c-.628-.914-.1-3.291,1.19-5.3,40.361-63.3,86.416-120.27,144.467-158.4,1.845-1.215,3.551-1.629,3.795-.949s-1.051,2.206-2.882,3.435c-57.634,38.458-103.254,95.676-143.135,159.207C-905.335-989.826-906.871-988.924-907.5-989.837Z" transform="translate(907.762 1154.814)" fill="#ff9929"/>
          </g>
          <g id="Groupe_248" data-name="Groupe 248" transform="translate(-1077.585 -989.089)">
            <path id="Tracé_381" data-name="Tracé 381" d="M-961.905-864.741c-.78-.982-.433-3.467.778-5.549,8.9-15.344,17.892-30.664,27.1-45.766,1.252-2.05,2.807-2.955,3.469-2.025s.192,3.345-1.042,5.4c-9.095,15.153-17.964,30.528-26.743,45.926C-959.531-864.66-961.124-863.762-961.905-864.741Z" transform="translate(962.322 918.447)" fill="#ffc900"/>
          </g>
          <g id="Groupe_249" data-name="Groupe 249" transform="translate(-1200.428 -808.416)">
            <path id="Tracé_382" data-name="Tracé 382" d="M-1121.96-610.681a1.711,1.711,0,0,1,.143-2.5c20.526-20.009,38.641-43.441,55.6-68.8.632-.944,1.584-1.26,2.128-.7a2.365,2.365,0,0,1-.147,2.734c-16.811,25.433-34.767,48.95-55.1,69.065A1.925,1.925,0,0,1-1121.96-610.681Z" transform="translate(1122.436 682.957)" fill="#ff9929"/>
          </g>
          <g id="Groupe_250" data-name="Groupe 250" transform="translate(-876.15 -1221.922)">
            <path id="Tracé_383" data-name="Tracé 383" d="M-699.746-1176.265c-.229-.666,1.128-2.123,3.043-3.225,53.352-30.9,116.352-46.163,189.305-41.653,2.612.158,4.688.613,4.619.981s-2.243.523-4.84.38c-72.646-4.132-135.3,11.487-188.289,42.684C-697.809-1175.984-699.518-1175.6-699.746-1176.265Z" transform="translate(699.771 1221.922)" fill="#ffc900"/>
          </g>
          <g id="Groupe_251" data-name="Groupe 251" transform="translate(-898.77 -1199.834)">
            <path id="Tracé_384" data-name="Tracé 384" d="M-729.241-1170.854c-.166-.447,1.317-1.837,3.329-3.074a328.86,328.86,0,0,1,33.334-18c2.153-1,4.008-1.465,4.125-1.06s-1.541,1.531-3.682,2.543a328.33,328.33,0,0,0-33.192,18.116C-727.329-1171.08-729.074-1170.408-729.241-1170.854Z" transform="translate(729.254 1193.133)" fill="#ffc900"/>
          </g>
          <g id="Groupe_252" data-name="Groupe 252" transform="translate(-1457.488 -841.339)">
            <path id="Tracé_385" data-name="Tracé 385" d="M-1455.95-588.911c-2.566-2.124-1.837-3.163,1.573-2.376,84.524,19.2,144.47,9.16,192.288-16.828,47.684-26.108,83.238-68.159,115.865-115.737,1.305-1.914,3.193-2.586,4.227-1.492s.838,3.556-.441,5.481c-32.093,47.833-67.029,90.208-113.874,116.851-46.977,26.527-105.864,37.322-188.9,19.313A30.058,30.058,0,0,1-1455.95-588.911Z" transform="translate(1457.488 725.869)" fill="#ff9929"/>
          </g>
          <g id="Groupe_253" data-name="Groupe 253" transform="translate(-1337.681 -823.617)">
            <path id="Tracé_386" data-name="Tracé 386" d="M-1300.721-588.5c-1.464-1.245-.2-2.623,2.77-3.151,71.783-12.99,120.138-55.473,161.965-108.413,1.722-2.186,3.788-3.278,4.637-2.417s.172,3.366-1.523,5.563c-41.309,53.205-89.02,96.046-159.86,109.707C-1295.657-586.646-1299.255-587.255-1300.721-588.5Z" transform="translate(1301.332 702.771)" fill="#ffc900"/>
          </g>
          <g id="Groupe_254" data-name="Groupe 254" transform="translate(-1271.354 -912.038)">
            <path id="Tracé_387" data-name="Tracé 387" d="M-1214.243-609.881a1.363,1.363,0,0,1,.321-2.458c80.6-37.753,128.024-119.955,177.292-204.331.686-1.185,1.628-1.684,2.1-1.109s.31,2-.369,3.193c-48.849,84.565-95.786,166.97-175.561,205.268A3.793,3.793,0,0,1-1214.243-609.881Z" transform="translate(1214.881 818.019)" fill="#ffc900"/>
          </g>
          <g id="Groupe_255" data-name="Groupe 255" transform="translate(-1415.543 -693.979)">
            <path id="Tracé_388" data-name="Tracé 388" d="M-1402.071-526.414c-1.21-1-.914-1.607.642-1.369,46.879,7.117,85.267,4.121,118.149-5.892a4.247,4.247,0,0,1,3.6.789c.9.772.759,1.68-.319,2.02-32.588,10.217-70.628,13.464-117.088,6.68A11.888,11.888,0,0,1-1402.071-526.414Z" transform="translate(1402.817 533.8)" fill="#ffc900"/>
          </g>
        </g>
        <g id="Groupe_271" data-name="Groupe 271" transform="translate(1518.725 345.229)">
          <g id="Groupe_257" data-name="Groupe 257" transform="translate(-1546.301 1028.243)">
            <path id="Tracé_389" data-name="Tracé 389" d="M-1365.627,1460.106c1.006.443,1.557-.473,1.212-2.047-13.156-61.021-44.588-126.372-70.22-188.6-26.244-62.3-45.759-121.378-50.226-171.706-.13-1.3-1.068-1.748-2.095-1.007a4.316,4.316,0,0,0-1.578,3.662c5.3,49.836,25,108.245,51.039,169.8,25.45,61.488,56.344,126.014,69.437,186.292A5.551,5.551,0,0,0-1365.627,1460.106Z" transform="translate(1488.556 -1096.386)" fill="#ffc900"/>
          </g>
          <g id="Groupe_258" data-name="Groupe 258" transform="translate(-1570.686 1002.159)">
            <path id="Tracé_390" data-name="Tracé 390" d="M-1442.229,1311.7c.809-.014.819-1.548.016-3.431-20.01-46.8-40.66-93.033-55-135.8-14.671-42.807-22.906-82.125-26.171-116.081-.136-1.365-1.123-1.8-2.2-.987a4.7,4.7,0,0,0-1.64,3.916c3.924,33.639,12.586,72.548,27.378,114.868,14.474,42.282,34.954,87.961,54.723,134.179C-1444.332,1310.225-1443.039,1311.717-1442.229,1311.7Z" transform="translate(1527.247 -1054.997)" fill="#ff9929"/>
          </g>
          <g id="Groupe_259" data-name="Groupe 259" transform="translate(-1481.364 1269.141)">
            <path id="Tracé_391" data-name="Tracé 391" d="M-1340.043,1623.328c1.412.767,2.371-.244,2.107-2.271-5.687-44.123-22.96-91.347-42.615-138.475-.9-2.166-2.625-3.938-3.844-3.964s-1.487,1.668-.606,3.786c19.287,46.27,36.183,92.617,41.942,135.947A7.3,7.3,0,0,0-1340.043,1623.328Z" transform="translate(1385.521 -1478.618)" fill="#ffc900"/>
          </g>
          <g id="Groupe_260" data-name="Groupe 260" transform="translate(-1539.019 946.235)">
            <path id="Tracé_392" data-name="Tracé 392" d="M-1417.956,1238.915c.567-.1.628-1.124.141-2.283-22.457-52.9-41.5-103.968-49.909-149.758a338.463,338.463,0,0,1-1.785-120.007c.115-.736-.7-.807-1.8-.167a4.5,4.5,0,0,0-2.168,2.486,349.36,349.36,0,0,0,3.5,119.243c8.746,45.462,27.8,96.131,50.12,148.592C-1419.375,1238.17-1418.521,1239.015-1417.956,1238.915Z" transform="translate(1477.002 -966.263)" fill="#ff9929"/>
          </g>
          <g id="Groupe_261" data-name="Groupe 261" transform="translate(-1418.631 1371.056)">
            <path id="Tracé_393" data-name="Tracé 393" d="M-1273.694,1733.2c.623.433,1.266-1.227,1.371-3.717,1.136-26.733-3.052-54.894-10.713-83.832-.711-2.7-1.85-5.078-2.5-5.307s-.574,1.756.134,4.426c7.621,28.71,11.82,56.659,10.795,83.193C-1274.7,1730.431-1274.319,1732.771-1273.694,1733.2Z" transform="translate(1285.982 -1640.326)" fill="#ffc900"/>
          </g>
          <g id="Groupe_262" data-name="Groupe 262" transform="translate(-1552.094 1049.042)">
            <path id="Tracé_394" data-name="Tracé 394" d="M-1425.328,1331.508c1.185-.056,1.375-1.913.422-4.142-30.549-70.065-58.54-138.167-68.083-195.981-.325-1.846-1.643-2.534-2.951-1.551a5.481,5.481,0,0,0-1.717,5.053c10.578,56.967,38.462,123.928,68.492,192.765C-1428.229,1329.839-1426.513,1331.563-1425.328,1331.508Z" transform="translate(1497.747 -1129.386)" fill="#ffc900"/>
          </g>
          <g id="Groupe_263" data-name="Groupe 263" transform="translate(-1473.082 1269.34)">
            <path id="Tracé_395" data-name="Tracé 395" d="M-1348.941,1535.759c1.337.315,1.778-1.232.969-3.457-5.947-16.353-12.551-32.818-19.405-49.27-.929-2.236-2.682-4.073-3.9-4.1s-1.461,1.729-.55,3.92c6.73,16.16,13.21,32.334,19.047,48.4C-1351.989,1533.426-1350.278,1535.445-1348.941,1535.759Z" transform="translate(1372.379 -1478.933)" fill="#ff9929"/>
          </g>
          <g id="Groupe_264" data-name="Groupe 264" transform="translate(-1452.74 1444.848)">
            <path id="Tracé_396" data-name="Tracé 396" d="M-1339.677,1833.052c.5.64,1.251.486,1.673-.347,11.3-22.337,16.977-46.7,17.638-72.528a3.3,3.3,0,0,0-1.2-2.577c-.686-.458-1.253-.057-1.274.9-.556,25.6-6.018,49.752-17,71.907A2.732,2.732,0,0,0-1339.677,1833.052Z" transform="translate(1340.104 -1757.411)" fill="#ffc900"/>
          </g>
          <g id="Groupe_265" data-name="Groupe 265" transform="translate(-1561.223 912.097)">
            <path id="Tracé_397" data-name="Tracé 397" d="M-1502.892,1039.986a5.983,5.983,0,0,0,2.011-5.082c-7.247-49.81-1.214-91.182-1.978-122.13-.036-1.112-2.246-.823-4.864.632s-4.606,3.517-4.5,4.615c2.318,30.637-1.884,71.525,6.374,120.619C-1505.571,1040.4-1504.244,1041-1502.892,1039.986Z" transform="translate(1512.232 -912.097)" fill="#ffc900"/>
          </g>
          <g id="Groupe_266" data-name="Groupe 266" transform="translate(-1527.566 1000.377)">
            <path id="Tracé_398" data-name="Tracé 398" d="M-1455.575,1091.878c.893-.6,1.471-2.8,1.315-4.886a297.35,297.35,0,0,1-.723-32.341c.066-1.951-.734-2.956-1.811-2.262s-1.982,2.8-2,4.739a307.62,307.62,0,0,0,1.244,32.077C-1457.365,1091.275-1456.47,1092.48-1455.575,1091.878Z" transform="translate(1458.829 -1052.171)" fill="#ffc900"/>
          </g>
          <g id="Groupe_267" data-name="Groupe 267" transform="translate(-1644.725 1434.95)">
            <path id="Tracé_399" data-name="Tracé 399" d="M-1643.868,1971.19c-1.67,1.721-.832,2.483,1.925,1.688,68.627-19.747,130.734-49.488,170.448-87.93,40.429-38.354,58.32-85.427,56.161-137.667-.069-2.1-1.289-4.475-2.678-5.291s-2.42.2-2.338,2.254c2.431,51.368-14.391,97.706-52.866,135.529-37.8,37.907-97.106,67.317-162.915,86.889A21.039,21.039,0,0,0-1643.868,1971.19Z" transform="translate(1644.725 -1741.706)" fill="#ffc900"/>
          </g>
          <g id="Groupe_268" data-name="Groupe 268" transform="translate(-1531.561 1469.558)">
            <path id="Tracé_400" data-name="Tracé 400" d="M-1465.137,1955.865c-.315,1.188,1.809.884,4.705-.705,70.843-38.443,112.337-90.922,119.219-152.457.32-2.536-.289-5.188-1.29-5.9s-2,.749-2.288,3.247c-6.348,60.8-46.261,112.725-114.715,150.84C-1462.287,1952.462-1464.826,1954.68-1465.137,1955.865Z" transform="translate(1465.168 -1796.618)" fill="#ff9929"/>
          </g>
          <g id="Groupe_269" data-name="Groupe 269" transform="translate(-1490.736 1351.2)">
            <path id="Tracé_401" data-name="Tracé 401" d="M-1400.362,1840.8c.178.854,1.1.891,2.056.074,34.235-29.055,55.222-63.878,62.37-102.814,7.422-38.9,1.113-81.9-12.566-126.479a4.335,4.335,0,0,0-2.12-2.712c-.785-.247-1.112.557-.733,1.793,13.552,44.127,19.873,86.7,12.791,125.228-6.819,38.564-27.151,73.081-60.436,101.9A3.714,3.714,0,0,0-1400.362,1840.8Z" transform="translate(1400.392 -1608.821)" fill="#ff9929"/>
          </g>
          <g id="Groupe_270" data-name="Groupe 270" transform="translate(-1614.789 1596.279)">
            <path id="Tracé_402" data-name="Tracé 402" d="M-1596.956,2048.872c-.625.863-.128,1.219,1.116.792,37.484-12.84,72.191-29.175,100.7-48.733a3.653,3.653,0,0,0,1.659-2.584c-.03-.778-.8-.886-1.724-.239-27.83,19.426-61.75,35.665-98.43,48.437A7.954,7.954,0,0,0-1596.956,2048.872Z" transform="translate(1597.226 -1997.685)" fill="#ff9929"/>
          </g>
        </g>
        <g id="Groupe_273" data-name="Groupe 273" transform="matrix(0.996, -0.087, 0.087, 0.996, 285.584, 2897.218)">
          <g id="Groupe_257-2" data-name="Groupe 257" transform="translate(17.27 116.146)">
            <path id="Tracé_389-2" data-name="Tracé 389" d="M-1487.241,1460.106c-1.006.443-1.557-.473-1.212-2.047,13.156-61.021,44.588-126.372,70.22-188.6,26.244-62.3,45.759-121.378,50.226-171.706.13-1.3,1.068-1.748,2.095-1.007a4.316,4.316,0,0,1,1.578,3.662c-5.3,49.836-25,108.245-51.039,169.8-25.45,61.488-56.344,126.014-69.437,186.292A5.551,5.551,0,0,1-1487.241,1460.106Z" transform="translate(1488.556 -1096.385)" fill="#ffc900"/>
          </g>
          <g id="Groupe_258-2" data-name="Groupe 258" transform="translate(80.268 90.061)">
            <path id="Tracé_390-2" data-name="Tracé 390" d="M-1526.634,1311.7c-.809-.014-.819-1.548-.016-3.431,20.01-46.8,40.66-93.033,55-135.8,14.671-42.807,22.906-82.125,26.171-116.081.136-1.365,1.123-1.8,2.2-.987a4.7,4.7,0,0,1,1.64,3.916c-3.924,33.639-12.586,72.548-27.378,114.868-14.474,42.282-34.954,87.961-54.722,134.179C-1524.531,1310.225-1525.825,1311.716-1526.634,1311.7Z" transform="translate(1527.247 -1054.997)" fill="#ff9929"/>
          </g>
          <g id="Groupe_259-2" data-name="Groupe 259" transform="translate(28.949 357.044)">
            <path id="Tracé_391-2" data-name="Tracé 391" d="M-1383.37,1623.328c-1.412.767-2.371-.244-2.107-2.271,5.687-44.123,22.96-91.347,42.615-138.475.9-2.166,2.625-3.938,3.844-3.964s1.487,1.668.606,3.786c-19.287,46.27-36.183,92.617-41.942,135.947A7.3,7.3,0,0,1-1383.37,1623.328Z" transform="translate(1385.521 -1478.618)" fill="#ffc900"/>
          </g>
          <g id="Groupe_260-2" data-name="Groupe 260" transform="translate(74.716 34.138)">
            <path id="Tracé_392-2" data-name="Tracé 392" d="M-1476.533,1238.915c-.567-.1-.628-1.124-.141-2.283,22.457-52.9,41.5-103.968,49.909-149.758a338.463,338.463,0,0,0,1.785-120.007c-.115-.736.7-.807,1.8-.167a4.5,4.5,0,0,1,2.168,2.486,349.362,349.362,0,0,1-3.5,119.243c-8.746,45.462-27.8,96.131-50.12,148.592C-1475.114,1238.169-1475.968,1239.015-1476.533,1238.915Z" transform="translate(1477.002 -966.263)" fill="#ff9929"/>
          </g>
          <g id="Groupe_261-2" data-name="Groupe 261" transform="translate(0 458.959)">
            <path id="Tracé_393-2" data-name="Tracé 393" d="M-1284.427,1733.2c-.623.433-1.266-1.227-1.371-3.717-1.136-26.733,3.052-54.894,10.713-83.832.711-2.7,1.85-5.078,2.5-5.307s.574,1.756-.134,4.426c-7.621,28.71-11.82,56.659-10.795,83.193C-1283.42,1730.431-1283.8,1732.771-1284.427,1733.2Z" transform="translate(1285.982 -1640.326)" fill="#ffc900"/>
          </g>
          <g id="Groupe_262-2" data-name="Groupe 262" transform="translate(73.858 136.944)">
            <path id="Tracé_394-2" data-name="Tracé 394" d="M-1496.718,1331.508c-1.185-.056-1.375-1.913-.422-4.142,30.549-70.065,58.54-138.167,68.083-195.981.325-1.846,1.643-2.534,2.951-1.551a5.481,5.481,0,0,1,1.717,5.053c-10.578,56.967-38.462,123.928-68.492,192.765C-1493.817,1329.839-1495.532,1331.563-1496.718,1331.508Z" transform="translate(1497.747 -1129.386)" fill="#ffc900"/>
          </g>
          <g id="Groupe_263-2" data-name="Groupe 263" transform="translate(43.481 357.243)">
            <path id="Tracé_395-2" data-name="Tracé 395" d="M-1371,1535.759c-1.337.315-1.778-1.232-.969-3.457,5.947-16.353,12.551-32.818,19.405-49.27.929-2.236,2.682-4.073,3.9-4.1s1.461,1.729.55,3.92c-6.73,16.16-13.21,32.334-19.047,48.4C-1367.957,1533.426-1369.667,1535.445-1371,1535.759Z" transform="translate(1372.379 -1478.933)" fill="#ff9929"/>
          </g>
          <g id="Groupe_264-2" data-name="Groupe 264" transform="translate(28.215 532.751)">
            <path id="Tracé_396-2" data-name="Tracé 396" d="M-1320.792,1833.052c-.5.64-1.251.486-1.673-.347-11.3-22.337-16.977-46.7-17.638-72.528a3.3,3.3,0,0,1,1.2-2.577c.686-.458,1.253-.057,1.274.9.556,25.6,6.018,49.752,17,71.907A2.732,2.732,0,0,1-1320.792,1833.052Z" transform="translate(1340.104 -1757.411)" fill="#ffc900"/>
          </g>
          <g id="Groupe_265-2" data-name="Groupe 265" transform="translate(145.046)">
            <path id="Tracé_397-2" data-name="Tracé 397" d="M-1510.182,1039.986a5.983,5.983,0,0,1-2.011-5.082c7.247-49.81,1.214-91.182,1.978-122.13.036-1.112,2.246-.823,4.864.632s4.606,3.517,4.5,4.615c-2.318,30.637,1.884,71.525-6.374,120.619C-1507.5,1040.395-1508.831,1041-1510.182,1039.986Z" transform="translate(1512.232 -912.097)" fill="#ffc900"/>
          </g>
          <g id="Groupe_266-2" data-name="Groupe 266" transform="translate(118.185 88.28)">
            <path id="Tracé_398-2" data-name="Tracé 398" d="M-1457.489,1091.878c-.893-.6-1.471-2.8-1.315-4.886a297.35,297.35,0,0,0,.723-32.341c-.066-1.951.734-2.956,1.811-2.262s1.982,2.8,2,4.739a307.62,307.62,0,0,1-1.244,32.077C-1455.7,1091.275-1456.594,1092.48-1457.489,1091.878Z" transform="translate(1458.829 -1052.171)" fill="#ffc900"/>
          </g>
          <g id="Groupe_267-2" data-name="Groupe 267" transform="translate(10.372 522.853)">
            <path id="Tracé_399-2" data-name="Tracé 399" d="M-1416.017,1971.19c1.67,1.721.832,2.483-1.925,1.688-68.627-19.747-130.734-49.488-170.448-87.93-40.429-38.354-58.32-85.427-56.161-137.667.069-2.1,1.289-4.475,2.678-5.291s2.42.2,2.338,2.254c-2.431,51.368,14.391,97.706,52.866,135.529,37.8,37.907,97.106,67.317,162.914,86.889A21.039,21.039,0,0,1-1416.017,1971.19Z" transform="translate(1644.725 -1741.706)" fill="#ffc900"/>
          </g>
          <g id="Groupe_268-2" data-name="Groupe 268" transform="translate(2.733 557.461)">
            <path id="Tracé_400-2" data-name="Tracé 400" d="M-1341.158,1955.865c.315,1.188-1.809.884-4.705-.705-70.843-38.443-112.337-90.922-119.219-152.457-.32-2.536.289-5.188,1.29-5.9s2,.749,2.288,3.247c6.348,60.8,46.261,112.725,114.715,150.84C-1344.008,1952.462-1341.469,1954.68-1341.158,1955.865Z" transform="translate(1465.168 -1796.618)" fill="#ff9929"/>
          </g>
          <g id="Groupe_269-2" data-name="Groupe 269" transform="translate(18.345 439.103)">
            <path id="Tracé_401-2" data-name="Tracé 401" d="M-1332.818,1840.8c-.178.854-1.1.891-2.056.074-34.235-29.055-55.222-63.878-62.37-102.814-7.422-38.9-1.113-81.9,12.566-126.478a4.335,4.335,0,0,1,2.12-2.712c.785-.247,1.112.557.733,1.793-13.552,44.127-19.873,86.7-12.791,125.228,6.819,38.564,27.151,73.081,60.436,101.9A3.714,3.714,0,0,1-1332.818,1840.8Z" transform="translate(1400.392 -1608.821)" fill="#ff9929"/>
          </g>
          <g id="Groupe_270-2" data-name="Groupe 270" transform="translate(106.26 684.181)">
            <path id="Tracé_402-2" data-name="Tracé 402" d="M-1493.754,2048.871c.625.863.128,1.219-1.116.792-37.484-12.84-72.191-29.175-100.7-48.733a3.653,3.653,0,0,1-1.659-2.584c.03-.778.8-.886,1.724-.239,27.83,19.426,61.75,35.665,98.43,48.437A7.954,7.954,0,0,1-1493.754,2048.871Z" transform="translate(1597.226 -1997.685)" fill="#ff9929"/>
          </g>
        </g>
        <g id="Groupe_274" data-name="Groupe 274" transform="matrix(-0.996, -0.087, 0.087, -0.996, 48.255, 4520.687)">
          <g id="Groupe_257-3" data-name="Groupe 257" transform="translate(17.27 274.362)">
            <path id="Tracé_389-3" data-name="Tracé 389" d="M1.315.112C.309-.332-.242.585.1,2.159c13.156,61.02,44.588,126.372,70.22,188.6,26.244,62.3,45.759,121.378,50.226,171.706.13,1.3,1.068,1.748,2.095,1.007a4.316,4.316,0,0,0,1.578-3.662c-5.3-49.836-25-108.245-51.039-169.8C47.733,128.521,16.838,63.995,3.746,3.717A5.551,5.551,0,0,0,1.315.112Z" fill="#ffc900"/>
          </g>
          <g id="Groupe_258-3" data-name="Groupe 258" transform="translate(80.268 407.571)">
            <path id="Tracé_390-3" data-name="Tracé 390" d="M.613,0C-.2.014-.207,1.548.6,3.431c20.01,46.8,40.66,93.033,55,135.8C70.267,182.035,78.5,221.353,81.768,255.31c.136,1.365,1.123,1.8,2.2.987a4.7,4.7,0,0,0,1.64-3.916c-3.924-33.639-12.586-72.548-27.378-114.868C43.754,95.23,23.274,49.551,3.505,3.333,2.716,1.479,1.422-.012.613,0Z" fill="#ff9929"/>
          </g>
          <g id="Groupe_259-3" data-name="Groupe 259" transform="translate(28.949 252.329)">
            <path id="Tracé_391-3" data-name="Tracé 391" d="M2.151.256C.739-.511-.22.5.044,2.528,5.73,46.65,23,93.874,42.659,141c.9,2.166,2.625,3.938,3.844,3.964s1.487-1.668.606-3.786C27.822,94.91,10.927,48.563,5.168,5.233A7.3,7.3,0,0,0,2.151.256Z" transform="translate(0 0)" fill="#ffc900"/>
          </g>
          <g id="Groupe_260-3" data-name="Groupe 260" transform="translate(74.716 447.542)">
            <path id="Tracé_392-3" data-name="Tracé 392" d="M.469.008C-.1.109-.159,1.132.328,2.291c22.457,52.9,41.5,103.968,49.909,149.758a338.463,338.463,0,0,1,1.785,120.007c-.115.736.7.807,1.8.167a4.5,4.5,0,0,0,2.168-2.486,349.362,349.362,0,0,0-3.5-119.243C43.746,105.032,24.689,54.363,2.371,1.9,1.889.754,1.034-.092.469.008Z" fill="#ff9929"/>
          </g>
          <g id="Groupe_261-3" data-name="Groupe 261" transform="translate(0 202.438)">
            <path id="Tracé_393-3" data-name="Tracé 393" d="M1.555.068C.932-.364.289,1.3.184,3.785-.952,30.518,3.236,58.679,10.9,87.617c.711,2.7,1.85,5.078,2.5,5.307s.574-1.756-.134-4.426C5.643,59.787,1.443,31.839,2.469,5.305,2.563,2.837,2.18.5,1.555.068Z" fill="#ffc900"/>
          </g>
          <g id="Groupe_262-3" data-name="Groupe 262" transform="translate(73.858 415.273)">
            <path id="Tracé_394-3" data-name="Tracé 394" d="M1.029,0C-.156.057-.346,1.914.608,4.143,31.156,74.208,59.147,142.31,68.69,200.124c.325,1.846,1.643,2.534,2.951,1.551a5.481,5.481,0,0,0,1.717-5.053C62.781,139.654,34.9,72.693,4.867,3.856,3.93,1.67,2.215-.054,1.029,0Z" fill="#ffc900"/>
          </g>
          <g id="Groupe_263-3" data-name="Groupe 263" transform="translate(43.481 340.231)">
            <path id="Tracé_395-3" data-name="Tracé 395" d="M1.375.041C.038-.274-.4,1.273.406,3.5,6.353,19.85,12.957,36.316,19.811,52.767c.929,2.236,2.682,4.073,3.9,4.1s1.461-1.729.55-3.92c-6.73-16.16-13.21-32.334-19.047-48.4C4.423,2.374,2.712.355,1.375.041Z" fill="#ff9929"/>
          </g>
          <g id="Groupe_264-3" data-name="Groupe 264" transform="translate(28.215 145.553)">
            <path id="Tracé_396-3" data-name="Tracé 396" d="M19.311.395c-.5-.64-1.251-.486-1.673.347C6.336,23.078.662,47.442,0,73.269a3.3,3.3,0,0,0,1.2,2.577c.686.458,1.253.057,1.274-.9.556-25.6,6.018-49.752,17-71.907A2.732,2.732,0,0,0,19.311.395Z" fill="#ffc900"/>
          </g>
          <g id="Groupe_265-3" data-name="Groupe 265" transform="translate(145.046 625.959)">
            <path id="Tracé_397-3" data-name="Tracé 397" d="M2.049.492A5.983,5.983,0,0,0,.038,5.574C7.286,55.384,1.252,96.756,2.016,127.7c.036,1.112,2.246.823,4.864-.632s4.606-3.517,4.5-4.615C9.067,91.82,13.269,50.932,5.012,1.837,4.728.083,3.4-.523,2.049.492Z" fill="#ffc900"/>
          </g>
          <g id="Groupe_266-3" data-name="Groupe 266" transform="translate(118.185 626.197)">
            <path id="Tracé_398-3" data-name="Tracé 398" d="M1.34.155C.447.755-.131,2.951.026,5.04A297.35,297.35,0,0,1,.748,37.381c-.066,1.951.734,2.956,1.811,2.262s1.982-2.8,2-4.739A307.62,307.62,0,0,0,3.319,2.827C3.13.758,2.234-.447,1.34.155Z" transform="translate(0 0)" fill="#ffc900"/>
          </g>
          <g id="Groupe_267-3" data-name="Groupe 267" transform="translate(10.372 0)">
            <path id="Tracé_399-3" data-name="Tracé 399" d="M228.708,2c1.67-1.721.832-2.483-1.925-1.688C158.155,20.062,96.048,49.8,56.335,88.245,15.906,126.6-1.985,173.672.174,225.912c.069,2.1,1.289,4.475,2.678,5.291s2.42-.2,2.338-2.254C2.759,177.581,19.581,131.244,58.055,93.42,95.852,55.513,155.161,26.1,220.97,6.531A21.039,21.039,0,0,0,228.708,2Z" fill="#ffc900"/>
          </g>
          <g id="Groupe_268-3" data-name="Groupe 268" transform="translate(2.733 36.909)">
            <path id="Tracé_400-3" data-name="Tracé 400" d="M124.01.723c.315-1.188-1.809-.884-4.705.705C48.462,39.872,6.968,92.35.086,153.886c-.32,2.536.289,5.188,1.29,5.9s2-.749,2.288-3.247C10.012,95.741,49.925,43.817,118.379,5.7,121.16,4.127,123.7,1.909,124.01.723Z" fill="#ff9929"/>
          </g>
          <g id="Groupe_269-3" data-name="Groupe 269" transform="translate(18.345 82.598)">
            <path id="Tracé_401-3" data-name="Tracé 401" d="M67.573.664C67.4-.19,66.476-.227,65.518.59,31.282,29.645,10.3,64.468,3.148,103.4c-7.422,38.9-1.113,81.9,12.566,126.478a4.335,4.335,0,0,0,2.12,2.712c.785.247,1.112-.557.733-1.793C5.014,186.674-1.307,144.1,5.775,105.573,12.594,67.01,32.927,32.493,66.212,3.669A3.714,3.714,0,0,0,67.573.664Z" fill="#ff9929"/>
          </g>
          <g id="Groupe_270-3" data-name="Groupe 270" transform="translate(106.26 18)">
            <path id="Tracé_402-3" data-name="Tracé 402" d="M103.472.973C104.1.11,103.6-.246,102.356.18,64.872,13.02,30.165,29.355,1.66,48.913A3.653,3.653,0,0,0,0,51.5c.03.778.8.886,1.724.239C29.555,32.31,63.475,16.071,100.154,3.3A7.954,7.954,0,0,0,103.472.973Z" transform="translate(0 0)" fill="#ff9929"/>
          </g>
        </g>
      </g>
    </g>
  </g>
</svg>
