<svg xmlns="http://www.w3.org/2000/svg" xmlns:xlink="http://www.w3.org/1999/xlink" width="414" height="3251" viewBox="0 0 414 3251">
  <defs>
    <clipPath id="clip-path">
      <rect id="Rectangle_1560" data-name="Rectangle 1560" width="414" height="3251" fill="#fff" stroke="#707070" stroke-width="1"/>
    </clipPath>
  </defs>
  <g id="Groupe_de_masques_12" data-name="Groupe de masques 12" clip-path="url(#clip-path)">
    <g id="Groupe_346" data-name="Groupe 346">
      <g id="Groupe_80" data-name="Groupe 80" transform="translate(5456.3 -852.543)">
        <g id="Groupe_92" data-name="Groupe 92" transform="matrix(-0.978, 0.208, -0.208, -0.978, -5262.053, 2830.889)">
          <g id="Groupe_68" data-name="Groupe 68" transform="translate(0 0)">
            <path id="Tracé_264" data-name="Tracé 264" d="M167.331,62.578a99.049,99.049,0,0,0-50.57-53.062C92.264-1.818,60.585-3.609,35.8,7.3S-4.72,42.486,1.277,64.846c7.291,27.186,41.332,44.363,54.235,70.14,7.9,15.78,7.2,33.421,5.869,50.418s-3.113,34.428,2.867,50.754,21.767,31.552,42.583,33.727c17.707,1.849,35.337-6.207,46.4-17.576s16.571-25.618,20.5-39.749a230.2,230.2,0,0,0,6.906-88.932C178.19,103.022,175.11,82.293,167.331,62.578Z" fill="#f0f8fe"/>
          </g>
          <g id="Groupe_70" data-name="Groupe 70" transform="translate(0 0)">
            <g id="Groupe_69" data-name="Groupe 69" opacity="0.71" style="mix-blend-mode: luminosity;isolation: isolate">
              <path id="Tracé_265" data-name="Tracé 265" d="M167.331,62.578a99.049,99.049,0,0,0-50.57-53.062C92.264-1.818,60.585-3.609,35.8,7.3S-4.72,42.486,1.277,64.846c7.291,27.186,41.332,44.363,54.235,70.14,7.9,15.78,7.2,33.421,5.869,50.418s-3.113,34.428,2.867,50.754,21.767,31.552,42.583,33.727c17.707,1.849,35.337-6.207,46.4-17.576s16.571-25.618,20.5-39.749a230.2,230.2,0,0,0,6.906-88.932C178.19,103.022,175.11,82.293,167.331,62.578Z" fill="#f0f8fe"/>
            </g>
          </g>
        </g>
        <g id="Groupe_67" data-name="Groupe 67" transform="translate(-5290.967 838.543)">
          <g id="Groupe_64" data-name="Groupe 64">
            <path id="Tracé_262" data-name="Tracé 262" d="M-4867.135,1049.1a157.819,157.819,0,0,1,92.15,77.584c8.252,16.074,13.889,33.858,25.745,47.493s32.951,21.818,48.215,12.15c15.066-9.543,16.928-30.4,17.191-48.232l3.091-209.551-154.415,6.4c-34.689,1.439-95.664-8.25-125.6,11.676-20.036,13.336-28.185,43.963-14.786,64.6C-4954.361,1043.859-4899.4,1037-4867.135,1049.1Z" transform="translate(4982.118 -928.543)" fill="#f0f8fe"/>
          </g>
          <g id="Groupe_66" data-name="Groupe 66">
            <g id="Groupe_65" data-name="Groupe 65" opacity="0.71" style="mix-blend-mode: luminosity;isolation: isolate">
              <path id="Tracé_263" data-name="Tracé 263" d="M-4867.135,1049.1a157.819,157.819,0,0,1,92.15,77.584c8.252,16.074,13.889,33.858,25.745,47.493s32.951,21.818,48.215,12.15c15.066-9.543,16.928-30.4,17.191-48.232l3.091-209.551-154.415,6.4c-34.689,1.439-95.664-8.25-125.6,11.676-20.036,13.336-28.185,43.963-14.786,64.6C-4954.361,1043.859-4899.4,1037-4867.135,1049.1Z" transform="translate(4982.118 -928.543)" fill="#f0f8fe"/>
            </g>
          </g>
        </g>
        <g id="Groupe_71" data-name="Groupe 71" transform="translate(-5058.178 1947.769) rotate(45)">
          <g id="Groupe_68-2" data-name="Groupe 68">
            <path id="Tracé_264-2" data-name="Tracé 264" d="M-4433.75,2537.43a99.049,99.049,0,0,0-50.57-53.062c-24.5-11.334-56.177-13.125-80.963-2.212s-40.519,35.182-34.522,57.541c7.291,27.186,41.332,44.363,54.235,70.14,7.9,15.78,7.2,33.421,5.869,50.418s-3.113,34.428,2.867,50.754,21.767,31.552,42.583,33.727c17.707,1.849,35.337-6.207,46.4-17.576s16.571-25.618,20.5-39.749a230.2,230.2,0,0,0,6.906-88.932C-4422.892,2577.875-4425.972,2557.146-4433.75,2537.43Z" transform="translate(4601.083 -2474.853)" fill="#f0f8fe"/>
          </g>
          <g id="Groupe_70-2" data-name="Groupe 70">
            <g id="Groupe_69-2" data-name="Groupe 69" opacity="0.71" style="mix-blend-mode: luminosity;isolation: isolate">
              <path id="Tracé_265-2" data-name="Tracé 265" d="M-4433.75,2537.43a99.049,99.049,0,0,0-50.57-53.062c-24.5-11.334-56.177-13.125-80.963-2.212s-40.519,35.182-34.522,57.541c7.291,27.186,41.332,44.363,54.235,70.14,7.9,15.78,7.2,33.421,5.869,50.418s-3.113,34.428,2.867,50.754,21.767,31.552,42.583,33.727c17.707,1.849,35.337-6.207,46.4-17.576s16.571-25.618,20.5-39.749a230.2,230.2,0,0,0,6.906-88.932C-4422.892,2577.875-4425.972,2557.146-4433.75,2537.43Z" transform="translate(4601.083 -2474.853)" fill="#f0f8fe"/>
            </g>
          </g>
        </g>
        <g id="Groupe_75" data-name="Groupe 75" transform="translate(-5471.719 3333.18)">
          <g id="Groupe_72" data-name="Groupe 72" transform="translate(-26 -12)">
            <path id="Tracé_266" data-name="Tracé 266" d="M-5621.817,2855.048a256.106,256.106,0,0,0,7.325,110.049c3.8,13.039,9.476,26.816,21.67,33.832,10.462,6.018,23.492,5.759,35.718,5.313l191.8-6.99c17.945-.654,36.337-1.4,52.9-7.971s31.189-20.312,33.007-37.258c2.08-19.383-12.643-36.9-29.164-48.479-56.484-39.584-141.792-38.525-184.571-91.354-8.724-10.773-15.021-23.2-24.075-33.724s-22.038-19.355-36.35-18.862c-15.245.526-28.247,11.73-34.75,24.819s-7.757,27.889-8.911,42.316C-5613.029,2836.929-5606,2844.858-5621.817,2855.048Z" transform="translate(5624.718 -2759.583)" fill="#f0f8fe"/>
          </g>
        </g>
        <g id="Groupe_79" data-name="Groupe 79" transform="matrix(0.998, -0.07, 0.07, 0.998, -5647.31, 1214.171)">
          <g id="Groupe_76" data-name="Groupe 76" transform="translate(100.215 183.967)">
            <path id="Tracé_268" data-name="Tracé 268" d="M224.5,53.074C214.138,74.258,179.7,79.46,176.987,102.887c-1.235,10.672,5.556,20.975,14.391,27.089s19.482,8.889,29.842,11.737c23.768,6.536,47.922,14.361,66.972,30.005s32.1,40.857,26.841,64.94c-6.817,31.243-42.049,49.454-74,48.091s-61.2-17.333-89.127-32.911L80.13,211.8c-11.229-6.264-22.513-12.564-32.609-20.526C5.782,158.358-19.329,80.787,18.787,35.569c27.7-32.862,96.347-31.126,135.13-35.2C180.728-2.441,245.466,10.226,224.5,53.074Z" transform="translate(0 0)" fill="#f0f8fe"/>
          </g>
        </g>
        <g id="Groupe_93" data-name="Groupe 93" transform="matrix(-1, -0.017, 0.017, -1, -4933.155, 3212.254)">
          <g id="Groupe_76-2" data-name="Groupe 76" transform="translate(-1.581 24.031)">
            <path id="Tracé_268-2" data-name="Tracé 268" d="M197.512,203.885c-9.119-18.637-39.419-23.214-41.8-43.824-1.087-9.389,4.888-18.453,12.661-23.832s17.14-7.82,26.254-10.326c20.91-5.75,42.161-12.634,58.92-26.4S281.78,63.56,277.157,42.372c-6-27.486-36.994-43.508-65.1-42.309s-53.843,15.249-78.412,28.954L70.5,64.243C60.617,69.754,50.69,75.3,41.807,82.3c-36.72,28.958-58.813,97.2-25.279,136.984C40.9,248.2,101.292,246.669,135.412,250.25,159,252.725,215.955,241.581,197.512,203.885Z" transform="translate(0)" fill="#f0f8fe"/>
          </g>
        </g>
      </g>
      <g id="Groupe_208" data-name="Groupe 208">
        <g id="Groupe_192" data-name="Groupe 192" transform="translate(1502.85 1286.867) rotate(-8)">
          <g id="Groupe_178" data-name="Groupe 178" transform="translate(-1121.343 -1184.145)">
            <path id="Tracé_332" data-name="Tracé 332" d="M-1013.56-873.788c-.651-.739-.47-2.493.407-3.923C-946.211-989.6-880.772-1112.525-773.925-1171.3c1.363-.767,2.6-1,2.747-.541s-.833,1.453-2.189,2.226C-879.692-1110.4-944.6-987.26-1010.814-875.049-1011.678-873.613-1012.909-873.049-1013.56-873.788Z" transform="translate(1013.95 1172.076)" fill="#ffc900"/>
          </g>
          <g id="Groupe_179" data-name="Groupe 179" transform="translate(-1040.161 -1198.519)">
            <path id="Tracé_333" data-name="Tracé 333" d="M-906.681-986.828c-.428-.612.093-2.548,1.17-4.318,53.175-88.482,117.734-165.136,208.044-199.177,1.806-.69,3.352-.92,3.437-.532s-1.314,1.25-3.111,1.948c-89.942,34.385-154.109,111.285-206.84,199.971C-905.045-987.163-906.253-986.214-906.681-986.828Z" transform="translate(906.831 1191.043)" fill="#0a5961"/>
          </g>
          <g id="Groupe_180" data-name="Groupe 180" transform="translate(-1127.327 -985.714)">
            <path id="Tracé_334" data-name="Tracé 334" d="M-1021.2-768.36c-.986-1.066-.816-3.522.375-5.5,25.923-43.1,50.187-89.546,76.525-134.008,1.208-2.04,2.72-2.942,3.373-2.026s.211,3.316-.977,5.362c-26,44.617-49.9,91.213-75.392,134.511C-1018.466-768.034-1020.217-767.3-1021.2-768.36Z" transform="translate(1021.845 910.249)" fill="#3992a0"/>
          </g>
          <g id="Groupe_181" data-name="Groupe 181" transform="translate(-1029.473 -1221.145)">
            <path id="Tracé_335" data-name="Tracé 335" d="M-892.627-1044.391c-.28-.439.039-1.565.722-2.521,61.739-87.626,138.92-156.247,244.67-173.862,1.153-.2,2.112-.153,2.136.1s-.889.609-2.038.81c-105.474,17.9-182.353,86.741-243.755,174.534C-891.57-1044.375-892.345-1043.954-892.627-1044.391Z" transform="translate(892.729 1220.897)" fill="#001c3a"/>
          </g>
          <g id="Groupe_182" data-name="Groupe 182" transform="translate(-1168.318 -917.007)">
            <path id="Tracé_336" data-name="Tracé 336" d="M-1075.788-738.641c-.511-.523.373-2.66,1.957-4.792,17.01-22.91,32.942-47.518,48.664-72.68,1.466-2.344,2.974-3.866,3.374-3.393s-.452,2.763-1.9,5.11c-15.617,25.21-31.43,49.872-48.313,72.843C-1073.58-739.413-1075.278-738.118-1075.788-738.641Z" transform="translate(1075.933 819.592)" fill="#001c3a"/>
          </g>
          <g id="Groupe_183" data-name="Groupe 183" transform="translate(-1040.867 -1171.063)">
            <path id="Tracé_337" data-name="Tracé 337" d="M-907.5-991.848c-.62-.9-.1-3.25,1.175-5.236,39.869-62.532,85.363-118.8,142.706-156.47,1.823-1.2,3.508-1.609,3.749-.937s-1.038,2.179-2.848,3.393c-56.931,37.99-102,94.51-141.391,157.267C-905.365-991.837-906.881-990.946-907.5-991.848Z" transform="translate(907.762 1154.814)" fill="#ff9929"/>
          </g>
          <g id="Groupe_184" data-name="Groupe 184" transform="translate(-1082.216 -991.927)">
            <path id="Tracé_338" data-name="Tracé 338" d="M-961.911-865.4c-.771-.97-.427-3.425.769-5.482,8.793-15.157,17.674-30.291,26.772-45.208,1.237-2.025,2.773-2.919,3.427-2s.189,3.3-1.029,5.339c-8.984,14.969-17.745,30.156-26.417,45.366C-959.565-865.316-961.139-864.428-961.911-865.4Z" transform="translate(962.322 918.447)" fill="#fa214d"/>
          </g>
          <g id="Groupe_185" data-name="Groupe 185" transform="translate(-1203.562 -813.456)">
            <path id="Tracé_339" data-name="Tracé 339" d="M-1121.966-611.562a1.69,1.69,0,0,1,.142-2.466c20.275-19.765,38.17-42.911,54.922-67.964.624-.933,1.564-1.244,2.1-.69a2.336,2.336,0,0,1-.146,2.7c-16.606,25.124-34.343,48.354-54.432,68.224A1.9,1.9,0,0,1-1121.966-611.562Z" transform="translate(1122.436 682.957)" fill="#ff9929"/>
          </g>
          <g id="Groupe_186" data-name="Groupe 186" transform="translate(-883.236 -1221.922)">
            <path id="Tracé_340" data-name="Tracé 340" d="M-699.746-1176.822c-.226-.658,1.114-2.1,3.006-3.186,52.7-30.522,114.934-45.6,187-41.145,2.58.156,4.631.605,4.562.968s-2.215.517-4.781.376c-71.76-4.082-133.651,11.347-185.994,42.164C-697.833-1176.544-699.521-1176.162-699.746-1176.822Z" transform="translate(699.771 1221.922)" fill="#3992a0"/>
          </g>
          <g id="Groupe_187" data-name="Groupe 187" transform="translate(-905.58 -1200.103)">
            <path id="Tracé_341" data-name="Tracé 341" d="M-729.241-1171.125c-.164-.441,1.3-1.814,3.288-3.037a324.919,324.919,0,0,1,32.928-17.779c2.127-.992,3.959-1.448,4.074-1.047s-1.522,1.512-3.637,2.512a324.3,324.3,0,0,0-32.787,17.9C-727.352-1171.349-729.076-1170.685-729.241-1171.125Z" transform="translate(729.254 1193.133)" fill="#fa214d"/>
          </g>
          <g id="Groupe_188" data-name="Groupe 188" transform="translate(-1457.488 -845.978)">
            <path id="Tracé_342" data-name="Tracé 342" d="M-1455.969-590.58c-2.535-2.1-1.815-3.125,1.554-2.347,83.494,18.969,142.708,9.048,189.944-16.623,47.1-25.789,82.224-67.328,114.453-114.326,1.289-1.891,3.154-2.555,4.175-1.474s.828,3.513-.436,5.414c-31.7,47.249-66.212,89.108-112.486,115.427-46.4,26.2-104.573,36.867-186.6,19.078A29.691,29.691,0,0,1-1455.969-590.58Z" transform="translate(1457.488 725.869)" fill="#001c3a"/>
          </g>
          <g id="Groupe_189" data-name="Groupe 189" transform="translate(-1339.141 -828.472)">
            <path id="Tracé_343" data-name="Tracé 343" d="M-1300.729-589.889c-1.446-1.23-.2-2.591,2.736-3.113,70.908-12.831,118.673-54.8,159.99-107.091,1.7-2.159,3.743-3.238,4.581-2.387s.17,3.325-1.5,5.5c-40.806,52.557-87.936,94.875-157.912,108.37C-1295.726-588.061-1299.281-588.663-1300.729-589.889Z" transform="translate(1301.332 702.771)" fill="#fa214d"/>
          </g>
          <g id="Groupe_190" data-name="Groupe 190" transform="translate(-1273.623 -915.815)">
            <path id="Tracé_344" data-name="Tracé 344" d="M-1214.251-612.418a1.346,1.346,0,0,1,.317-2.428c79.615-37.293,126.464-118.492,175.131-201.841.677-1.171,1.608-1.664,2.077-1.1s.306,1.979-.365,3.154c-48.254,83.534-94.619,164.935-173.421,202.765A3.747,3.747,0,0,1-1214.251-612.418Z" transform="translate(1214.881 818.019)" fill="#0a5961"/>
          </g>
          <g id="Groupe_191" data-name="Groupe 191" transform="translate(-1416.054 -700.414)">
            <path id="Tracé_345" data-name="Tracé 345" d="M-1402.081-526.5c-1.195-.987-.9-1.588.634-1.352,46.307,7.03,84.228,4.071,116.709-5.82a4.2,4.2,0,0,1,3.553.779c.887.762.749,1.66-.315,2-32.191,10.092-69.767,13.3-115.661,6.6A11.746,11.746,0,0,1-1402.081-526.5Z" transform="translate(1402.817 533.8)" fill="#ffc900"/>
          </g>
        </g>
        <g id="Groupe_147" data-name="Groupe 147" transform="matrix(1, 0.017, -0.017, 1, 1546.05, 495.272)">
          <g id="Groupe_133" data-name="Groupe 133" transform="translate(-1545.455 1029.242)">
            <path id="Tracé_290" data-name="Tracé 290" d="M-1364.571,1463.232c1.014.447,1.57-.477,1.222-2.065-13.269-61.545-44.972-127.458-70.824-190.224-26.469-62.839-46.152-122.421-50.658-173.182-.131-1.311-1.078-1.763-2.113-1.016a4.354,4.354,0,0,0-1.591,3.693c5.343,50.264,25.214,109.175,51.478,171.264,25.668,62.016,56.828,127.1,70.034,187.893A5.6,5.6,0,0,0-1364.571,1463.232Z" transform="translate(1488.556 -1096.386)" fill="#ffc900"/>
          </g>
          <g id="Groupe_134" data-name="Groupe 134" transform="translate(-1570.049 1002.933)">
            <path id="Tracé_291" data-name="Tracé 291" d="M-1441.5,1313.911c.816-.014.826-1.562.017-3.46-20.182-47.2-41.01-93.833-55.473-136.965-14.8-43.175-23.1-82.831-26.4-117.079-.137-1.377-1.132-1.819-2.217-1a4.736,4.736,0,0,0-1.654,3.95c3.958,33.928,12.694,73.172,27.614,115.855,14.6,42.646,35.255,88.717,55.193,135.333C-1443.62,1312.419-1442.315,1313.924-1441.5,1313.911Z" transform="translate(1527.247 -1054.997)" fill="#0a5961"/>
          </g>
          <g id="Groupe_135" data-name="Groupe 135" transform="translate(-1479.96 1272.21)">
            <path id="Tracé_292" data-name="Tracé 292" d="M-1339.653,1624.572c1.424.774,2.391-.246,2.125-2.291-5.735-44.5-23.157-92.132-42.981-139.665-.909-2.184-2.648-3.972-3.877-4s-1.5,1.682-.612,3.819c19.453,46.667,36.494,93.413,42.3,137.115A7.363,7.363,0,0,0-1339.653,1624.572Z" transform="translate(1385.521 -1478.618)" fill="#3992a0"/>
          </g>
          <g id="Groupe_136" data-name="Groupe 136" transform="translate(-1538.111 946.528)">
            <path id="Tracé_293" data-name="Tracé 293" d="M-1417.449,1241.259c.572-.1.634-1.133.143-2.3-22.651-53.352-41.855-104.861-50.339-151.046a341.364,341.364,0,0,1-1.8-121.039c.116-.742-.7-.814-1.819-.168a4.54,4.54,0,0,0-2.187,2.508,352.364,352.364,0,0,0,3.532,120.268c8.821,45.853,28.042,96.958,50.552,149.87C-1418.88,1240.507-1418.018,1241.36-1417.449,1241.259Z" transform="translate(1477.002 -966.263)" fill="#001c3a"/>
          </g>
          <g id="Groupe_137" data-name="Groupe 137" transform="translate(-1416.687 1375.001)">
            <path id="Tracé_294" data-name="Tracé 294" d="M-1273.588,1734c.629.437,1.276-1.238,1.383-3.748,1.145-26.963-3.078-55.366-10.805-84.553-.717-2.719-1.866-5.121-2.522-5.353s-.579,1.771.135,4.464c7.686,28.957,11.922,57.146,10.887,83.908C-1274.6,1731.206-1274.219,1733.566-1273.588,1734Z" transform="translate(1285.982 -1640.326)" fill="#001c3a"/>
          </g>
          <g id="Groupe_138" data-name="Groupe 138" transform="translate(-1551.297 1050.219)">
            <path id="Tracé_295" data-name="Tracé 295" d="M-1424.705,1333.245c1.2-.056,1.387-1.929.425-4.177-30.812-70.667-59.043-139.355-68.668-197.666-.328-1.862-1.657-2.556-2.977-1.564a5.528,5.528,0,0,0-1.731,5.1c10.668,57.457,38.793,124.994,69.081,194.422C-1427.631,1331.562-1425.9,1333.3-1424.705,1333.245Z" transform="translate(1497.747 -1129.386)" fill="#ff9929"/>
          </g>
          <g id="Groupe_139" data-name="Groupe 139" transform="translate(-1471.606 1272.411)">
            <path id="Tracé_296" data-name="Tracé 296" d="M-1348.74,1536.247c1.349.318,1.794-1.243.978-3.487-6-16.493-12.659-33.1-19.572-49.693-.937-2.255-2.705-4.108-3.934-4.134s-1.474,1.744-.555,3.954c6.788,16.3,13.323,32.612,19.211,48.813C-1351.814,1533.894-1350.089,1535.931-1348.74,1536.247Z" transform="translate(1372.379 -1478.934)" fill="#fa214d"/>
          </g>
          <g id="Groupe_140" data-name="Groupe 140" transform="translate(-1451.09 1449.428)">
            <path id="Tracé_297" data-name="Tracé 297" d="M-1339.674,1833.7c.5.646,1.262.49,1.687-.35,11.4-22.529,17.123-47.1,17.79-73.151a3.324,3.324,0,0,0-1.212-2.6c-.692-.461-1.264-.058-1.285.9-.561,25.821-6.07,50.179-17.143,72.525A2.755,2.755,0,0,0-1339.674,1833.7Z" transform="translate(1340.104 -1757.412)" fill="#ff9929"/>
          </g>
          <g id="Groupe_141" data-name="Groupe 141" transform="translate(-1560.505 912.097)">
            <path id="Tracé_298" data-name="Tracé 298" d="M-1502.812,1041.085a6.034,6.034,0,0,0,2.028-5.125c-7.309-50.238-1.224-91.966-2-123.18-.036-1.121-2.266-.83-4.906.638s-4.646,3.548-4.543,4.655c2.338,30.9-1.9,72.139,6.428,121.656C-1505.514,1041.5-1504.175,1042.109-1502.812,1041.085Z" transform="translate(1512.232 -912.097)" fill="#3992a0"/>
          </g>
          <g id="Groupe_142" data-name="Groupe 142" transform="translate(-1526.559 1001.136)">
            <path id="Tracé_299" data-name="Tracé 299" d="M-1455.548,1092.22c.9-.606,1.484-2.82,1.326-4.928a299.9,299.9,0,0,1-.729-32.619c.067-1.967-.74-2.981-1.827-2.281s-2,2.829-2.021,4.78a310.257,310.257,0,0,0,1.255,32.353C-1457.353,1091.612-1456.45,1092.826-1455.548,1092.22Z" transform="translate(1458.829 -1052.171)" fill="#fa214d"/>
          </g>
          <g id="Groupe_143" data-name="Groupe 143" transform="translate(-1644.725 1439.444)">
            <path id="Tracé_300" data-name="Tracé 300" d="M-1643.861,1973.163c-1.684,1.736-.839,2.5,1.942,1.7,69.218-19.917,131.858-49.914,171.913-88.686,40.776-38.684,58.821-86.161,56.644-138.851-.07-2.115-1.3-4.513-2.7-5.336s-2.44.2-2.358,2.273c2.452,51.81-14.515,98.545-53.32,136.694-38.122,38.233-97.941,67.9-164.315,87.636A21.223,21.223,0,0,0-1643.861,1973.163Z" transform="translate(1644.725 -1741.706)" fill="#001c3a"/>
          </g>
          <g id="Groupe_144" data-name="Groupe 144" transform="translate(-1530.588 1474.35)">
            <path id="Tracé_301" data-name="Tracé 301" d="M-1465.137,1957.234c-.318,1.2,1.825.892,4.746-.711,71.452-38.773,113.3-91.7,120.244-153.768.323-2.558-.292-5.233-1.3-5.954s-2.015.755-2.307,3.275c-6.4,61.324-46.659,113.694-115.7,152.137C-1462.263,1953.8-1464.824,1956.039-1465.137,1957.234Z" transform="translate(1465.168 -1796.618)" fill="#fa214d"/>
          </g>
          <g id="Groupe_145" data-name="Groupe 145" transform="translate(-1489.413 1354.975)">
            <path id="Tracé_302" data-name="Tracé 302" d="M-1400.362,1842.789c.179.861,1.107.9,2.073.075,34.53-29.3,55.7-64.427,62.906-103.7,7.486-39.235,1.122-82.6-12.674-127.566a4.373,4.373,0,0,0-2.138-2.736c-.792-.249-1.122.562-.739,1.808,13.668,44.506,20.044,87.442,12.9,126.3-6.878,38.9-27.385,73.709-60.956,102.78A3.746,3.746,0,0,0-1400.362,1842.789Z" transform="translate(1400.392 -1608.821)" fill="#0a5961"/>
          </g>
          <g id="Groupe_146" data-name="Groupe 146" transform="translate(-1614.532 1602.16)">
            <path id="Tracé_303" data-name="Tracé 303" d="M-1596.954,2049.312c-.63.871-.13,1.229,1.125.8,37.806-12.95,72.812-29.426,101.562-49.152a3.683,3.683,0,0,0,1.674-2.606c-.03-.784-.808-.893-1.739-.241-28.069,19.593-62.281,35.972-99.276,48.854A8.019,8.019,0,0,0-1596.954,2049.312Z" transform="translate(1597.226 -1997.686)" fill="#ffc900"/>
          </g>
        </g>
        <g id="Groupe_177" data-name="Groupe 177" transform="matrix(-0.921, 0.391, -0.391, -0.921, 444.929, 1426.998)">
          <g id="Groupe_163" data-name="Groupe 163" transform="translate(119.169 247.312)">
            <path id="Tracé_318" data-name="Tracé 318" d="M.882.681C1.6-.377,2.411-.181,2.7,1.12,24.824,102.07,40.236,211,74.808,292.595a3.779,3.779,0,0,1-.717,3.623c-.845.952-1.89.879-2.332-.172C37.4,214.5,22.09,105.755.1,4.943A6.3,6.3,0,0,1,.882.681Z" transform="translate(0 0)" fill="#ffc900"/>
          </g>
          <g id="Groupe_164" data-name="Groupe 164" transform="translate(127.332 375.682)">
            <path id="Tracé_319" data-name="Tracé 319" d="M.843.478C1.554-.48,2.388.047,2.7,1.651c15.744,79.9,32.943,156.907,64.111,214.319a3.415,3.415,0,0,1-.347,3.7,1.533,1.533,0,0,1-2.62-.457C32.857,161.81,15.766,84.9.12,5.112A6.754,6.754,0,0,1,.843.478Z" transform="translate(0 0)" fill="#0a5961"/>
          </g>
          <g id="Groupe_165" data-name="Groupe 165" transform="translate(100.55 239.309)">
            <path id="Tracé_320" data-name="Tracé 320" d="M1.2.985C2.188-.507,3.327-.28,3.736,1.5,12.685,40.318,20.309,80.81,28.117,120.855a8.548,8.548,0,0,1-1.257,5.9c-1.053,1.424-2.195,1.094-2.549-.738C16.574,86.055,9.018,45.646.146,6.9A8.726,8.726,0,0,1,1.2.985Z" transform="translate(0 0)" fill="#3992a0"/>
          </g>
          <g id="Groupe_166" data-name="Groupe 166" transform="translate(153.829 380.391)">
            <path id="Tracé_321" data-name="Tracé 321" d="M.682.431c.535-.7,1.13-.53,1.324.383C19.859,84.12,41.1,161.824,80.665,214.152a1.841,1.841,0,0,1-.354,2.24c-.631.667-1.494.746-1.925.172C38.98,164.214,17.834,86.574.062,3.35A4.054,4.054,0,0,1,.682.431Z" transform="translate(0 0)" fill="#001c3a"/>
          </g>
          <g id="Groupe_167" data-name="Groupe 167" transform="translate(114.672 181.192)">
            <path id="Tracé_322" data-name="Tracé 322" d="M.3.216c.455-.705,1.27.372,1.809,2.418C7.913,24.6,13.145,47.322,18.1,70.372c.461,2.146.448,4.447-.028,5.135s-1.23-.5-1.689-2.641C11.449,49.837,6.238,27.137.455,5.187-.083,3.145-.156.92.3.216Z" transform="translate(0 0)" fill="#001c3a"/>
          </g>
          <g id="Groupe_168" data-name="Groupe 168" transform="translate(136.16 370.649)">
            <path id="Tracé_323" data-name="Tracé 323" d="M1.37.874C2.429-.541,3.588-.2,3.958,1.631c11.62,57.588,24.205,113.428,42.456,161.2a5.618,5.618,0,0,1-1.058,5.163c-1.169,1.336-2.588,1.2-3.164-.319C24.1,119.957,11.628,64.22.112,6.749A8.4,8.4,0,0,1,1.37.874Z" transform="translate(0 0)" fill="#ff9929"/>
          </g>
          <g id="Groupe_169" data-name="Groupe 169" transform="translate(123.894 308.112)">
            <path id="Tracé_324" data-name="Tracé 324" d="M1.319.909C2.348-.541,3.482-.223,3.848,1.624q4.045,20.385,8.037,40.781a8.551,8.551,0,0,1-1.246,5.915c-1.053,1.423-2.2,1.087-2.56-.751C5.421,34.026,2.786,20.432.113,6.87A8.823,8.823,0,0,1,1.319.909Z" transform="translate(0 0)" fill="#fa214d"/>
          </g>
          <g id="Groupe_170" data-name="Groupe 170" transform="translate(73.164 142.451)">
            <path id="Tracé_325" data-name="Tracé 325" d="M.468.569C.931-.2,1.539-.188,1.827.592,9.522,21.541,16.215,43.855,22.245,67.035a4.211,4.211,0,0,1-.476,2.929c-.487.753-1.062.662-1.286-.2C14.478,46.6,7.812,24.305.148,3.367A3.679,3.679,0,0,1,.468.569Z" transform="translate(0 0)" fill="#ff9929"/>
          </g>
          <g id="Groupe_171" data-name="Groupe 171" transform="translate(183.365 545.601)">
            <path id="Tracé_326" data-name="Tracé 326" d="M1.3.93C2.474-.406,3.919-.286,4.535,1.184,21.745,42.211,43.777,76.41,74.1,99.335c1.088.822.891,2.568-.45,3.922s-3.315,1.8-4.391.974C39.18,81.216,17.333,47,.269,6.015A5.379,5.379,0,0,1,1.3.93Z" transform="translate(0 0)" fill="#3992a0"/>
          </g>
          <g id="Groupe_172" data-name="Groupe 172" transform="translate(199.826 506.95)">
            <path id="Tracé_327" data-name="Tracé 327" d="M.635.391C1.387-.475,2.5.148,3.142,1.766q5.1,12.957,10.8,25.071c.713,1.511.676,3.421-.1,4.281s-1.98.344-2.688-1.167Q5.477,17.86.416,4.893C-.217,3.276-.115,1.254.635.391Z" transform="translate(0 0)" fill="#fa214d"/>
          </g>
          <g id="Groupe_173" data-name="Groupe 173" transform="translate(0 0)">
            <path id="Tracé_328" data-name="Tracé 328" d="M.414,1.648C1.166.134,2.7-.444,3.829.368c56.1,40.571,86.354,117.855,108.294,205.78a8.531,8.531,0,0,1-.987,5.914c-.983,1.5-2.132,1.277-2.57-.484C86.808,123.807,56.787,46.6,1.082,5.854A3.449,3.449,0,0,1,.414,1.648Z" fill="#001c3a"/>
          </g>
          <g id="Groupe_174" data-name="Groupe 174" transform="translate(51.633 36.799)">
            <path id="Tracé_329" data-name="Tracé 329" d="M.327.736c.638-1.167,2.011-.923,3.046.57,25.1,36.187,42.906,82.6,57.167,133.685.589,2.107.462,4.751-.272,5.894s-1.8.356-2.382-1.747C43.71,88.115,26.01,41.737,1.045,5.533.015,4.041-.311,1.9.327.736Z" transform="translate(0)" fill="#fa214d"/>
          </g>
          <g id="Groupe_175" data-name="Groupe 175" transform="translate(57.089 81.251)">
            <path id="Tracé_330" data-name="Tracé 330" d="M.426.722c.5-.881,1.25-.968,1.667-.191,29.763,55.476,47.41,127.7,62.714,202.5a5.048,5.048,0,0,1-.667,3.412c-.583.834-1.228.664-1.441-.383C47.472,131.344,29.907,59.193.272,3.722A3.472,3.472,0,0,1,.426.722Z" transform="translate(0 0)" fill="#0a5961"/>
          </g>
          <g id="Groupe_176" data-name="Groupe 176" transform="translate(4.203 16.827)">
            <path id="Tracé_331" data-name="Tracé 331" d="M.227.794C.615.034,1.361-.228,1.893.218,17.93,13.618,31.71,30.228,43.7,49.335a2.775,2.775,0,0,1-.061,2.546c-.43.772-1.1.881-1.494.246C30.2,33.016,16.47,16.4.49,2.974A1.867,1.867,0,0,1,.227.794Z" transform="translate(0)" fill="#ffc900"/>
          </g>
        </g>
        <g id="Groupe_207" data-name="Groupe 207" transform="translate(1578.321 1699.584)">
          <g id="Groupe_193" data-name="Groupe 193" transform="translate(-1684.333 -1698.444)">
            <path id="Tracé_346" data-name="Tracé 346" d="M-1312.488-1619.007c1.363-.258,1.627.339.579,1.338-40.526,38.82-92.731,71.653-148.391,95.353-55.625,24.041-114.706,38.949-168.164,49.8a8.861,8.861,0,0,1-5.077-.844c-1.425-.754-1.464-1.584-.085-1.853,53.437-10.284,112.457-24.587,168.094-48.01,55.67-23.084,107.957-55.29,148.681-93.548A10.362,10.362,0,0,1-1312.488-1619.007Z" transform="translate(1634.634 1619.067)" fill="#ffc900"/>
          </g>
          <g id="Groupe_194" data-name="Groupe 194" transform="translate(-1755.811 -1628.324)">
            <path id="Tracé_347" data-name="Tracé 347" d="M-1463.93-1525.527c1.332.157,1.055.941-.632,1.748-84.019,41-181.177,56.359-259.381,66.73a8.31,8.31,0,0,1-5.178-1.212c-1.288-.9-1.059-1.8.51-2.013,78.189-9.562,175.161-24.02,259.225-64.114A12.3,12.3,0,0,1-1463.93-1525.527Z" transform="translate(1729.956 1525.556)" fill="#0a5961"/>
          </g>
          <g id="Groupe_195" data-name="Groupe 195" transform="translate(-1480.373 -1714.007)">
            <path id="Tracé_348" data-name="Tracé 348" d="M-1247.43-1639.732c1.856-.367,2.281.433.92,1.8-29.62,29.79-66.616,56.561-107.611,78.051a14.662,14.662,0,0,1-6.991,1.448c-1.977-.191-2.039-1.121-.158-2.075,41.044-20.825,78.169-46.942,108.014-76.147A13.6,13.6,0,0,1-1247.43-1639.732Z" transform="translate(1362.638 1639.821)" fill="#3992a0"/>
          </g>
          <g id="Groupe_196" data-name="Groupe 196" transform="translate(-1755.427 -1607.929)">
            <path id="Tracé_349" data-name="Tracé 349" d="M-1459.326-1498.331c1.017.117,1.045.6.053,1.081-90.553,44.839-192.443,60.829-265.961,79.155a4.9,4.9,0,0,1-3.31-.852c-1.022-.686-1.2-1.412-.394-1.615,73.611-17.716,175.379-33.013,265.976-77.132A7.9,7.9,0,0,1-1459.326-1498.331Z" transform="translate(1729.443 1498.358)" fill="#001c3a"/>
          </g>
          <g id="Groupe_197" data-name="Groupe 197" transform="translate(-1363.87 -1747.612)">
            <path id="Tracé_350" data-name="Tracé 350" d="M-1151.276-1684.589c.844-.307.494.915-.817,2.726a389.7,389.7,0,0,1-49.9,56.156c-1.771,1.656-3.968,3.117-4.88,3.274s-.187-1.036,1.592-2.674a388.747,388.747,0,0,0,50.119-55.677C-1153.848-1682.577-1152.119-1684.283-1151.276-1684.589Z" transform="translate(1207.273 1684.636)" fill="#001c3a"/>
          </g>
          <g id="Groupe_198" data-name="Groupe 198" transform="translate(-1679.677 -1623.445)">
            <path id="Tracé_351" data-name="Tracé 351" d="M-1429.83-1519.01c2,.2,2.063,1.148.13,2.112-60.778,30.458-128.353,48.865-190.123,60.688a12.7,12.7,0,0,1-7.125-1.154c-1.966-1.028-1.968-2.152,0-2.5,61.7-10.915,129.179-28.348,190.012-57.832A15.724,15.724,0,0,1-1429.83-1519.01Z" transform="translate(1628.424 1519.05)" fill="#ff9929"/>
          </g>
          <g id="Groupe_199" data-name="Groupe 199" transform="translate(-1466.972 -1659.922)">
            <path id="Tracé_352" data-name="Tracé 352" d="M-1296.789-1567.69c1.959-.082,2.168.817.439,2.011-12.726,8.78-26.059,17.045-39.851,24.738a14.863,14.863,0,0,1-7.014,1.647c-1.993-.138-2.075-1.073-.2-2.084,13.814-7.466,27.178-15.506,39.946-24.065A15.354,15.354,0,0,1-1296.789-1567.69Z" transform="translate(1344.767 1567.695)" fill="#fa214d"/>
          </g>
          <g id="Groupe_200" data-name="Groupe 200" transform="translate(-1345.949 -1796.672)">
            <path id="Tracé_353" data-name="Tracé 353" d="M-1142.985-1749.9c.82-.366,1.2-.078.855.648a290.822,290.822,0,0,1-37.662,58.2,6.085,6.085,0,0,1-2.7,1.719c-.9.239-1.155-.139-.571-.841a290.171,290.171,0,0,0,37.956-57.763A4.914,4.914,0,0,1-1142.985-1749.9Z" transform="translate(1183.373 1750.062)" fill="#ff9929"/>
          </g>
          <g id="Groupe_201" data-name="Groupe 201" transform="translate(-1833.321 -1561.315)">
            <path id="Tracé_354" data-name="Tracé 354" d="M-1688.483-1434.762c1.967,1.065,2,2.212.068,2.572-53.8,10.057-102.368,16.4-136.892,31.374-1.235.542-3.884-.392-5.928-2.113s-2.7-3.558-1.452-4.069c34.819-14.267,83.4-19.848,137.159-29.108A12.88,12.88,0,0,1-1688.483-1434.762Z" transform="translate(1833.321 1436.194)" fill="#3992a0"/>
          </g>
          <g id="Groupe_202" data-name="Groupe 202" transform="translate(-1673.317 -1546.72)">
            <path id="Tracé_355" data-name="Tracé 355" d="M-1579.073-1416.31c1.333.554.715,1.46-1.367,2.022-11.13,2.99-22.07,5.8-32.743,8.507a10.271,10.271,0,0,1-6.027-.28c-1.334-.665-.8-1.6,1.2-2.083,10.676-2.6,21.616-5.306,32.745-8.191A11.8,11.8,0,0,1-1579.073-1416.31Z" transform="translate(1619.944 1416.731)" fill="#fa214d"/>
          </g>
          <g id="Groupe_203" data-name="Groupe 203" transform="translate(-1337.178 -1936.403)">
            <path id="Tracé_356" data-name="Tracé 356" d="M-1117.877-1935.619c1.083-1.006,2.411-1.053,2.955-.083,27.705,47.391,12.383,130.442-49.418,204.74a12.847,12.847,0,0,1-5.567,3.613c-1.843.5-2.319-.274-1.086-1.728,62.429-72.993,78.865-155.281,52.111-202.975A3.253,3.253,0,0,1-1117.877-1935.619Z" transform="translate(1171.677 1936.403)" fill="#001c3a"/>
          </g>
          <g id="Groupe_204" data-name="Groupe 204" transform="translate(-1307.878 -1890.907)">
            <path id="Tracé_357" data-name="Tracé 357" d="M-1085-1875.381c1-.8,1.884-.177,1.95,1.431,1.68,38.909-12.913,86.74-43.726,132.87a12.719,12.719,0,0,1-4.776,4.354c-1.36.5-1.392-.622-.115-2.5,31.151-45.59,46.194-93.035,44.968-131.822A5.953,5.953,0,0,1-1085-1875.381Z" transform="translate(1132.603 1875.731)" fill="#fa214d"/>
          </g>
          <g id="Groupe_205" data-name="Groupe 205" transform="translate(-1400.391 -1851.705)">
            <path id="Tracé_358" data-name="Tracé 358" d="M-1134.31-1823.161c.832-.528,1.4-.319,1.259.476-9.431,56.758-51.937,123.874-118.3,175.515a8.209,8.209,0,0,1-3.687,1.5c-1.109.1-1.255-.4-.329-1.119,66.53-50.959,109.411-117.483,119.293-173.99A4.269,4.269,0,0,1-1134.31-1823.161Z" transform="translate(1255.976 1823.452)" fill="#0a5961"/>
          </g>
          <g id="Groupe_206" data-name="Groupe 206" transform="translate(-1287.043 -1922.01)">
            <path id="Tracé_359" data-name="Tracé 359" d="M-1104.1-1916.854c.573-.487,1.213-.471,1.426.047,6.462,15.575,9.213,33.73,7.861,53.713a3.215,3.215,0,0,1-1.349,2.06c-.7.472-1.222.316-1.171-.345,1.5-19.922-1.1-38.06-7.418-53.659A1.8,1.8,0,0,1-1104.1-1916.854Z" transform="translate(1104.818 1917.208)" fill="#ffc900"/>
          </g>
        </g>
      </g>
    </g>
  </g>
</svg>
