<svg xmlns="http://www.w3.org/2000/svg" xmlns:xlink="http://www.w3.org/1999/xlink" width="2010" height="5604" viewBox="0 0 2010 5604">
  <defs>
    <clipPath id="clip-path">
      <rect id="Rectangle_1562" data-name="Rectangle 1562" width="2010" height="5604" transform="translate(-90)" fill="#fff" stroke="#707070" stroke-width="1"/>
    </clipPath>
  </defs>
  <g id="Groupe_de_masques_39" data-name="Groupe de masques 39" transform="translate(90)" clip-path="url(#clip-path)">
    <g id="Groupe_453" data-name="Groupe 453">
      <g id="Groupe_80" data-name="Groupe 80" transform="translate(5342.3 -925.543)">
        <g id="Groupe_71" data-name="Groupe 71" transform="translate(-3972.786 3319.36)">
          <g id="Groupe_68" data-name="Groupe 68">
            <path id="Tracé_264" data-name="Tracé 264" d="M-4075.119,2717.253c-27.025-84.418-81.953-161.634-158.954-205.539s-176.575-50.841-254.484-8.567-127.361,136.281-108.513,222.892c22.917,105.309,129.916,171.843,170.473,271.693,24.825,61.123,22.627,129.461,18.447,195.3s-9.784,133.361,9.011,196.6,68.417,122.22,133.848,130.643c55.656,7.164,111.075-24.042,145.854-68.082s52.087-99.232,64.439-153.971a1092.016,1092.016,0,0,0,21.706-344.488C-4040.987,2873.917-4050.67,2793.623-4075.119,2717.253Z" transform="translate(4601.082 -2474.853)" fill="#f0f8fe"/>
          </g>
          <g id="Groupe_70" data-name="Groupe 70">
            <g id="Groupe_69" data-name="Groupe 69" opacity="0.71" style="mix-blend-mode: luminosity;isolation: isolate">
              <path id="Tracé_265" data-name="Tracé 265" d="M-4075.119,2717.253c-27.025-84.418-81.953-161.634-158.954-205.539s-176.575-50.841-254.484-8.567-127.361,136.281-108.513,222.892c22.917,105.309,129.916,171.843,170.473,271.693,24.825,61.123,22.627,129.461,18.447,195.3s-9.784,133.361,9.011,196.6,68.417,122.22,133.848,130.643c55.656,7.164,111.075-24.042,145.854-68.082s52.087-99.232,64.439-153.971a1092.016,1092.016,0,0,0,21.706-344.488C-4040.987,2873.917-4050.67,2793.623-4075.119,2717.253Z" transform="translate(4601.082 -2474.853)" fill="#f0f8fe"/>
            </g>
          </g>
        </g>
        <g id="Groupe_75" data-name="Groupe 75" transform="translate(-5521.719 5459.543)">
          <g id="Groupe_72" data-name="Groupe 72">
            <path id="Tracé_266" data-name="Tracé 266" d="M-5613.482,3129.376a992.059,992.059,0,0,0,28.376,426.286c14.728,50.507,36.7,103.876,83.943,131.05,40.525,23.312,91,22.306,138.356,20.58l742.957-27.078c69.509-2.534,140.755-5.417,204.931-30.877s120.813-78.681,127.857-144.324c8.055-75.081-48.975-142.943-112.969-187.789-218.8-153.333-549.245-149.231-714.954-353.869-33.792-41.729-58.187-89.861-93.257-130.632s-85.364-74.974-140.8-73.062c-59.051,2.037-109.418,45.439-134.608,96.14s-30.045,108.03-34.515,163.917C-5579.437,3059.188-5552.211,3089.9-5613.482,3129.376Z" transform="translate(5624.718 -2759.583)" fill="#f0f8fe"/>
          </g>
          <g id="Groupe_74" data-name="Groupe 74">
            <g id="Groupe_73" data-name="Groupe 73" opacity="0.71" style="mix-blend-mode: luminosity;isolation: isolate">
              <path id="Tracé_267" data-name="Tracé 267" d="M-5613.482,3129.376a992.059,992.059,0,0,0,28.376,426.286c14.728,50.507,36.7,103.876,83.943,131.05,40.525,23.312,91,22.306,138.356,20.58l742.957-27.078c69.509-2.534,140.755-5.417,204.931-30.877s120.813-78.681,127.857-144.324c8.055-75.081-48.975-142.943-112.969-187.789-218.8-153.333-549.245-149.231-714.954-353.869-33.792-41.729-58.187-89.861-93.257-130.632s-85.364-74.974-140.8-73.062c-59.051,2.037-109.418,45.439-134.608,96.14s-30.045,108.03-34.515,163.917C-5579.437,3059.188-5552.211,3089.9-5613.482,3129.376Z" transform="translate(5624.718 -2759.583)" fill="#f0f8fe"/>
            </g>
          </g>
        </g>
        <g id="Groupe_79" data-name="Groupe 79" transform="translate(-5381.683 1807.091) rotate(-1)">
          <g id="Groupe_76" data-name="Groupe 76">
            <path id="Tracé_268" data-name="Tracé 268" d="M-4963.24,1912.043c-29.207,59.694-126.256,74.352-133.9,140.367-3.48,30.073,15.657,59.1,40.552,76.332s54.9,25.048,84.09,33.074c66.975,18.417,135.039,40.467,188.717,84.551s90.442,115.129,75.633,182.992c-19.21,88.037-118.49,139.354-208.517,135.514s-172.456-48.841-251.149-92.738l-202.258-112.827c-31.643-17.652-63.438-35.4-91.888-57.84-117.613-92.75-188.373-311.334-80.968-438.751,78.059-92.6,271.495-87.709,380.778-99.178C-5086.593,1755.61-4904.168,1791.3-4963.24,1912.043Z" transform="translate(5595.86 -1762.488)" fill="#f0f8fe"/>
          </g>
          <g id="Groupe_78" data-name="Groupe 78">
            <g id="Groupe_77" data-name="Groupe 77" opacity="0.71" style="mix-blend-mode: luminosity;isolation: isolate">
              <path id="Tracé_269" data-name="Tracé 269" d="M-4963.24,1912.043c-29.207,59.694-126.256,74.352-133.9,140.367-3.48,30.073,15.657,59.1,40.552,76.332s54.9,25.048,84.09,33.074c66.975,18.417,135.039,40.467,188.717,84.551s90.442,115.129,75.633,182.992c-19.21,88.037-118.49,139.354-208.517,135.514s-172.456-48.841-251.149-92.738l-202.258-112.827c-31.643-17.652-63.438-35.4-91.888-57.84-117.613-92.75-188.373-311.334-80.968-438.751,78.059-92.6,271.495-87.709,380.778-99.178C-5086.593,1755.61-4904.168,1791.3-4963.24,1912.043Z" transform="translate(5595.86 -1762.488)" fill="#f0f8fe"/>
            </g>
          </g>
        </g>
        <g id="Groupe_67" data-name="Groupe 67" transform="translate(-4425.833 822.543)">
          <g id="Groupe_64" data-name="Groupe 64">
            <path id="Tracé_262" data-name="Tracé 262" d="M-4563.712,1367.229c143.177,44.781,266.8,148.863,335.321,282.317,30.03,58.49,50.541,123.2,93.684,172.819s119.9,79.394,175.448,44.211c54.825-34.728,61.6-110.617,62.557-175.508l11.246-762.526-561.891,23.306c-126.229,5.235-348.1-30.019-457.042,42.488-72.907,48.527-102.562,159.973-53.8,235.08C-4881.113,1348.162-4681.1,1323.209-4563.712,1367.229Z" transform="translate(4982.118 -928.543)" fill="#f0f8fe"/>
          </g>
          <g id="Groupe_66" data-name="Groupe 66">
            <g id="Groupe_65" data-name="Groupe 65" opacity="0.71" style="mix-blend-mode: luminosity;isolation: isolate">
              <path id="Tracé_263" data-name="Tracé 263" d="M-4563.712,1367.229c143.177,44.781,266.8,148.863,335.321,282.317,30.03,58.49,50.541,123.2,93.684,172.819s119.9,79.394,175.448,44.211c54.825-34.728,61.6-110.617,62.557-175.508l11.246-762.526-561.891,23.306c-126.229,5.235-348.1-30.019-457.042,42.488-72.907,48.527-102.562,159.973-53.8,235.08C-4881.113,1348.162-4681.1,1323.209-4563.712,1367.229Z" transform="translate(4982.118 -928.543)" fill="#f0f8fe"/>
            </g>
          </g>
        </g>
      </g>
      <g id="Groupe_171" data-name="Groupe 171" transform="matrix(0.966, 0.259, -0.259, 0.966, 1904.858, 5730.396)">
        <g id="Groupe_157" data-name="Groupe 157" transform="translate(-3080.625 -4899.776)">
          <path id="Tracé_304" data-name="Tracé 304" d="M-2576.29-4325.986a20.67,20.67,0,0,1-13.964-5.374c-255.567-250.759-557.23-511.967-506.68-769.978.578-3.314,2.855-5.768,5.011-5.486s3.409,3.194,2.878,6.5c-47.542,257.606,256.334,518.15,515.006,768C-2570.774-4329.094-2571.781-4326.261-2576.29-4325.986Z" transform="translate(3102.532 5106.846)" fill="#ffc900"/>
        </g>
        <g id="Groupe_158" data-name="Groupe 158" transform="translate(-3036.349 -5007.121)">
          <path id="Tracé_305" data-name="Tracé 305" d="M-2806.863-4538.477c-3.449.027-9.52-3.189-13.51-7.187-201.487-198.718-328.376-403.452-225.81-602.971,2.016-4,5.124-6.994,6.824-6.687s1.392,3.8-.569,7.794c-100.293,199.278,28.53,403.613,231.959,601.792C-2803.928-4541.752-2803.41-4538.5-2806.863-4538.477Z" transform="translate(3082.529 5155.343)" fill="#ffc900"/>
        </g>
        <g id="Groupe_159" data-name="Groupe 159" transform="translate(-2747.138 -4368.358)">
          <path id="Tracé_306" data-name="Tracé 306" d="M-2613.052-4557.322c-6.624.474-15.58-2.742-20.064-7.186-98.1-96.833-213.265-194.711-315.5-293.9-4.681-4.549-4.247-8.288.945-8.349s13.234,3.562,18,8.088c103.7,98.772,220.391,196.185,320.342,292.5C-2604.742-4561.754-2606.429-4557.794-2613.052-4557.322Z" transform="translate(2951.865 4866.752)" fill="#ff9929"/>
        </g>
        <g id="Groupe_160" data-name="Groupe 160" transform="translate(-3096.242 -5114.135)">
          <path id="Tracé_307" data-name="Tracé 307" d="M-2939.208-4558.3c-2.4-.023-5.892-1.933-7.784-4.264-176.14-212.79-239.739-430.227-34.521-637.452,2.208-2.267,4.863-3.9,5.879-3.647s.038,2.289-2.151,4.553c-203.415,207.081-138.191,424.242,39.447,636.637C-2936.421-4560.15-2936.809-4558.283-2939.208-4558.3Z" transform="translate(3109.589 5203.692)" fill="#ff9929"/>
        </g>
        <g id="Groupe_161" data-name="Groupe 161" transform="translate(-2657.089 -4167.729)">
          <path id="Tracé_308" data-name="Tracé 308" d="M-2739.649-4584.988c-3.32.28-9.209-3.813-13.289-9.137-43.812-57.164-96.9-114.443-152.651-172.011-5.186-5.36-7.121-9.827-4.285-9.971s9.407,4.076,14.644,9.421c56.207,57.436,109.8,114.573,154.185,171.584C-2736.908-4589.793-2736.339-4585.267-2739.649-4584.988Z" transform="translate(2911.181 4776.11)" fill="#ff9929"/>
        </g>
        <g id="Groupe_162" data-name="Groupe 162" transform="translate(-3062.939 -4858.769)">
          <path id="Tracé_309" data-name="Tracé 309" d="M-2846.6-4635.128c-5.052.022-12.687-3.685-17.007-8.287-136.5-144.47-234.537-291.419-230.835-437.159.1-4.636,2.891-8.089,6.078-7.716s5.658,4.42,5.643,9.043c-1.4,145.4,98.692,291.889,237.273,435.791C-2841.052-4638.879-2841.541-4635.151-2846.6-4635.128Z" transform="translate(3094.542 5088.318)" fill="#ff9929"/>
        </g>
        <g id="Groupe_163" data-name="Groupe 163" transform="translate(-2782.39 -4367.931)">
          <path id="Tracé_310" data-name="Tracé 310" d="M-2841.736-4749.455c-5.688.206-14.208-3.313-18.993-7.862-35.321-33.482-70.339-67.094-103.966-100.83-4.561-4.584-4.013-8.352,1.176-8.412s13.137,3.589,17.775,8.15c34.122,33.6,69.64,67.062,105.491,100.393C-2835.382-4753.492-2836.03-4749.662-2841.736-4749.455Z" transform="translate(2967.792 4866.56)" fill="#ffc900"/>
        </g>
        <g id="Groupe_164" data-name="Groupe 164" transform="translate(-2344.379 -3988.685)">
          <path id="Tracé_311" data-name="Tracé 311" d="M-2641.422-4510.044c-4.163.451-8.2-.971-9.068-3.179-23.367-59.178-65.8-118.184-118.479-177.439-1.961-2.206-.726-4.233,2.777-4.521s7.965,1.263,9.958,3.459c53.325,59.083,96.482,117.9,120.728,176.885C-2634.6-4512.641-2637.261-4510.5-2641.422-4510.044Z" transform="translate(2769.9 4695.218)" fill="#fa214d"/>
        </g>
        <g id="Groupe_165" data-name="Groupe 165" transform="translate(-3059.438 -5277.499)">
          <path id="Tracé_312" data-name="Tracé 312" d="M-3088.376-4883.167c-3.1-.386-5.156-4.452-4.443-9.075,19.062-129.086,121.81-256.629,324.635-378.306,7.251-4.359,14.254-7.437,15.469-6.889s-3.727,4.516-10.892,8.87c-200.615,121.588-301.136,248.944-318.146,377.746C-3082.38-4886.208-3085.276-4882.779-3088.376-4883.167Z" transform="translate(3092.96 5277.5)" fill="#ffc900"/>
        </g>
        <g id="Groupe_166" data-name="Groupe 166" transform="translate(-3120.587 -4942.241)">
          <path id="Tracé_313" data-name="Tracé 313" d="M-3117.365-5029.079c-2.107-.233-3.59-4.443-3.143-9.4a335.461,335.461,0,0,1,16.857-79.121c1.685-4.921,4.666-8.691,6.494-8.419s1.862,4.475.239,9.392a333.823,333.823,0,0,0-16.047,79.006C-3113.351-5032.671-3115.252-5028.847-3117.365-5029.079Z" transform="translate(3120.587 5126.03)" fill="#ffc900"/>
        </g>
        <g id="Groupe_167" data-name="Groupe 167" transform="translate(-2760.274 -4027.163)">
          <path id="Tracé_314" data-name="Tracé 314" d="M-2945.3-4006.177c-14.573,1.977-16.634-.509-4.978-5.525,287.829-124.585,402.524-240.688,426.068-354.383,22.747-113.6-45.658-224.787-142.407-337.357-3.912-4.516-1.649-8.594,5.123-9.107s15.572,2.709,19.593,7.193c99.072,111.945,170.276,222.43,151.69,335.2-19.36,112.861-128.513,228.006-408.045,351.405C-2909.513-4013.788-2930.738-4008.151-2945.3-4006.177Z" transform="translate(2957.799 4712.602)" fill="#ff9929"/>
        </g>
        <g id="Groupe_168" data-name="Groupe 168" transform="translate(-2471.782 -3961.906)">
          <path id="Tracé_315" data-name="Tracé 315" d="M-2819.473-4254.667c-8.432,1.091-10.416-2.729-4.856-8.515,133.7-140.166,96.26-274.128,2.671-409-3.886-5.559-2.751-10.441,2.674-10.9s13.149,3.644,17.151,9.173c95.916,134.271,136.334,267.55,7.577,406.854C-2799.579-4261.311-2811.048-4255.758-2819.473-4254.667Z" transform="translate(2827.459 4683.12)" fill="#ffc900"/>
        </g>
        <g id="Groupe_169" data-name="Groupe 169" transform="translate(-2605.334 -4199.108)">
          <path id="Tracé_316" data-name="Tracé 316" d="M-2556.711-4233.731c-5.619.692-9.389-.851-8.477-3.443,62.542-184.541-127.38-363.46-320.853-548.143-2.74-2.585-2.218-4.805,1.162-4.961s8.367,1.813,11.131,4.388c195.234,184.172,387.2,362.486,328.8,546.228C-2545.794-4237.085-2551.089-4234.424-2556.711-4233.731Z" transform="translate(2887.798 4790.286)" fill="#ffc900"/>
        </g>
        <g id="Groupe_170" data-name="Groupe 170" transform="translate(-2582.109 -3592.267)">
          <path id="Tracé_317" data-name="Tracé 317" d="M-2870.935-4295.353c-6.864.928-8.4-.293-3.539-2.725,146.278-73.246,232.713-143.565,278.6-212.531,1.521-2.29,6.939-4.678,12.143-5.337s8.28.649,6.82,2.924c-44.366,68.7-128.964,138.712-272.925,211.613C-2854.589-4299-2864.094-4296.28-2870.935-4295.353Z" transform="translate(2877.305 4516.118)" fill="#ffc900"/>
        </g>
      </g>
      <g id="Groupe_225" data-name="Groupe 225" transform="translate(-408.588 4527.188) rotate(-65)">
        <g id="Groupe_214" data-name="Groupe 214" transform="translate(73.869 370.033)">
          <path id="Tracé_357" data-name="Tracé 357" d="M-1423.047,517.988c2.4-1.073,3.375-5.154,2.257-10.068-23.155-100.734-16.683-214.04,8.167-321.845,24.714-108.265,67.806-211.027,114.785-301.308,60.644-117.545,131.186-219.265,180.069-312.034,2.061-3.929,1.739-8.976-.689-11.328s-6.025-1.056-8.069,2.909c-48.182,93.009-118.354,194.745-179.175,312.247-47.453,90.986-91.353,194.6-116.859,304.187-25.638,109.108-32.879,224.183-10.068,327.123,1.261,5.768,5.031,10.406,8.318,10.383A3.071,3.071,0,0,0-1423.047,517.988Z" transform="translate(1446.336 439.767)" fill="#ff9929"/>
        </g>
        <g id="Groupe_215" data-name="Groupe 215" transform="translate(34.615 226.328)">
          <path id="Tracé_358" data-name="Tracé 358" d="M-1425.366,117.741c2.714-.648,5.246-4.672,6.3-10.487,21.955-121.694,68.034-240.615,118.552-342.753,42.6-86.808,90.19-166.148,131.792-239.57,41.657-73.761,77.325-141.6,97.372-213.243,1.542-5.461-.03-12.282-3.424-15.241s-7.309-.852-8.821,4.7c-19.45,71.813-54.489,139.811-95.686,213.579-41.142,73.438-88.441,152.644-131.15,239.248-51.052,102.83-98.1,222.581-121.2,345.957-1.444,7.615.3,15.443,3.8,17.436A3.308,3.308,0,0,0-1425.366,117.741Z" transform="translate(1432.135 704.894)" fill="#ffc900"/>
        </g>
        <g id="Groupe_216" data-name="Groupe 216" transform="translate(22.281 1064.083)">
          <path id="Tracé_359" data-name="Tracé 359" d="M-841.816,1315.406c3.151-1.9,2.13-7.862-2.133-13.54-76.608-102.227-108.015-257.8-82.268-443.366,1.055-7.595-.561-15.326-3.7-17.32s-6.668,2.55-7.791,10.21c-27.644,190.178,3.417,351.124,82.035,457.044,4.307,5.813,10.56,8.858,13.79,7.015C-841.863,1315.432-841.84,1315.424-841.816,1315.406Z" transform="translate(947.625 -840.715)" fill="#ffc900"/>
        </g>
        <g id="Groupe_217" data-name="Groupe 217" transform="translate(290.841 120.69)">
          <path id="Tracé_360" data-name="Tracé 360" d="M-1609.98-412.12c1.447.092,3.228-1.156,4.555-3.387,46.495-78.95,102.371-160.46,141.493-237.655,41.127-81.286,58.891-153.138,55.214-237.041-.148-3.478-1.935-7.538-3.954-9.032s-3.507.158-3.357,3.671c4.535,94.181-19.758,168.439-57.869,243.828-37.969,74.643-89.758,150.419-136.917,230.446-1.826,3.075-2.1,6.882-.609,8.473A2.094,2.094,0,0,0-1609.98-412.12Z" transform="translate(1612.386 899.79)" fill="#ffc900"/>
        </g>
        <g id="Groupe_218" data-name="Groupe 218" transform="translate(220.378 663.771)">
          <path id="Tracé_361" data-name="Tracé 361" d="M-1182.379,175.546c1.442-.048,3.156-1.538,4.389-4.017q10.077-20.232,20.531-39.84,5.4-10.154,10.881-20.136c1.783-3.254,2.018-7.155.518-8.73s-4.172-.235-5.963,3.024q-5.493,10-10.919,20.171-10.479,19.656-20.633,39.93c-1.712,3.427-1.836,7.47-.289,9A1.95,1.95,0,0,0-1182.379,175.546Z" transform="translate(1184.946 -102.163)" fill="#ffc900"/>
        </g>
        <g id="Groupe_219" data-name="Groupe 219" transform="translate(72.626 409.832)">
          <path id="Tracé_362" data-name="Tracé 362" d="M-1348.274,234.459c1.5-.336,2.972-2.474,3.656-5.608,24.048-110.944,67.9-218.587,115.253-311.643,51.061-101.174,109.605-192.28,155.62-274.592,1.593-2.864,1.55-6.5-.081-8.149s-4.229-.684-5.814,2.19c-45.66,82.419-104.068,173.548-155.252,274.737-47.623,93.394-91.96,201.433-116.6,313.18-.92,4.139-.1,8.459,1.81,9.633A1.853,1.853,0,0,0-1348.274,234.459Z" transform="translate(1351.868 366.34)" fill="#ffc900"/>
        </g>
        <g id="Groupe_220" data-name="Groupe 220" transform="translate(51.169 1082.578)">
          <path id="Tracé_363" data-name="Tracé 363" d="M-820.971,1052.718c1.627-.632,2.582-3.371,2.245-6.863-4.8-50.279-4.049-103.65,2.938-161.463.509-4.215-.69-8.4-2.709-9.36s-4.114,1.684-4.646,5.924c-7.309,58.5-8.311,112.582-3.691,163.6.382,4.216,2.551,7.922,4.8,8.268A2.126,2.126,0,0,0-820.971,1052.718Z" transform="translate(829.635 -874.837)" fill="#ffc900"/>
        </g>
        <g id="Groupe_221" data-name="Groupe 221" transform="translate(414.474 183.142)">
          <path id="Tracé_364" data-name="Tracé 364" d="M-1556.182-626.635c2.244.7,4.777-.791,6.2-3.944,21.815-48.438,35.394-93.262,41.546-140.741.582-4.482-1.3-9.987-4.132-12.271s-5.545-.432-6.113,4.112c-5.937,47.373-19.135,92.162-40.465,140.488-1.757,3.989-1.172,9.1,1.349,11.4A4.313,4.313,0,0,0-1556.182-626.635Z" transform="translate(1560.159 784.569)" fill="#ff9929"/>
        </g>
        <g id="Groupe_222" data-name="Groupe 222" transform="translate(365.865)">
          <path id="Tracé_365" data-name="Tracé 365" d="M-1515.841-743c2.2.582,4.792-.96,6.406-4.117,64.016-123.95,81.313-223.435,58.3-360.63-1-6-4.147-12.414-6.943-14.228a.469.469,0,0,0-.07-.045c-2.752-1.715-4.122,1.793-3.14,7.788,22.332,135.68,5.744,235.289-56.917,358.615-2.047,4.07-1.776,9.292.637,11.615A3.89,3.89,0,0,0-1515.841-743Z" transform="translate(1519.574 1122.456)" fill="#ffc900"/>
        </g>
        <g id="Groupe_223" data-name="Groupe 223" transform="translate(0 663.67)">
          <path id="Tracé_366" data-name="Tracé 366" d="M-958.98,817.369c1.959-.886,2.605-4.44,1.466-8.591-29.75-107.525-26.931-230.167-3.709-347.415,23.064-117.77,66.53-230.15,114.448-329.191q4.529-9.395,9.119-18.663c2.012-4.073,2.236-8.874.494-10.768s-4.8-.153-6.822,3.924q-4.606,9.291-9.158,18.7C-901.465,225.05-945.618,338.2-969.319,457.153c-23.856,118.415-27.26,242.624,2.331,352.053,1.278,4.775,4.5,8.515,7.124,8.375A2.4,2.4,0,0,0-958.98,817.369Z" transform="translate(988.198 -101.975)" fill="#ff9929"/>
        </g>
        <g id="Groupe_224" data-name="Groupe 224" transform="translate(202.391 99.773)">
          <path id="Tracé_367" data-name="Tracé 367" d="M-1415.953-472.465c1.683.159,3.767-1.394,5.3-4.165,42.528-77.47,86.1-149.865,119.2-221.686,33.194-72.211,55.915-143.847,58.986-228.766.154-4.122-1.615-8.912-3.906-10.663s-4.236.216-4.385,4.382c-2.939,84.74-25.28,156.42-58.054,228.568-32.68,71.773-75.793,144.015-118.1,221.2-2.072,3.762-2.35,8.392-.618,10.312A2.421,2.421,0,0,0-1415.953-472.465Z" transform="translate(1418.675 938.382)" fill="#ff9929"/>
        </g>
      </g>
      <g id="Groupe_186" data-name="Groupe 186" transform="matrix(0.999, -0.035, 0.035, 0.999, 4966.836, 7305.393)">
        <g id="Groupe_172" data-name="Groupe 172" transform="translate(-3506.402 -5495.952)">
          <path id="Tracé_318" data-name="Tracé 318" d="M-3541.744-4796.005c-3.931.738-5.55-1.548-3.556-5.113,76.555-138.226,222.76-281.292,346.063-418.758,125.6-137.466,224.812-269.336,264.313-385.172,1.071-2.985,4.751-3.759,8.219-1.742s5.336,6.027,4.17,8.973c-42.344,114.449-141.941,244.724-266.455,380.512-122.29,135.788-266.132,277.093-342.108,413.605A17.586,17.586,0,0,1-3541.744-4796.005Z" transform="translate(3546.155 5607.913)" fill="#ffc900"/>
        </g>
        <g id="Groupe_173" data-name="Groupe 173" transform="translate(-3212.463 -5549.706)">
          <path id="Tracé_319" data-name="Tracé 319" d="M-3373.29-5065.389c-2.988-.265-2.327-3.844,1.505-7.992,95.446-103.162,193-204.836,265.615-300.241,73.852-95.405,122.27-184.537,149.863-262.623,1.136-3.141,4.983-3.875,8.592-1.667s5.526,6.488,4.287,9.583c-29.876,77.154-79.693,165.213-153.778,259.454-72.887,94.244-169.559,194.67-263.85,296.555C-3364.831-5068.232-3370.3-5065.128-3373.29-5065.389Z" transform="translate(3375.159 5639.183)" fill="#ff9929"/>
        </g>
        <g id="Groupe_174" data-name="Groupe 174" transform="translate(-3471.005 -4954.994)">
          <path id="Tracé_320" data-name="Tracé 320" d="M-3518.191-4966.368c-5.555,1.453-8.688-1.139-6.84-5.8,39.939-101.543,124.146-207.523,217.145-312.713,4.26-4.83,11.414-8.554,15.942-8.319s4.8,4.253.631,8.979c-91.266,103.271-173.7,207.3-213.568,306.98C-3506.721-4972.685-3512.626-4967.82-3518.191-4966.368Z" transform="translate(3525.563 5293.215)" fill="#ffc900"/>
        </g>
        <g id="Groupe_175" data-name="Groupe 175" transform="translate(-3214.845 -5690.138)">
          <path id="Tracé_321" data-name="Tracé 321" d="M-3375.147-5101.32c-2.053-.4-1.813-2.8.519-5.351,107.29-116.659,201.1-230.045,253.131-334.19,54.129-104.144,66.133-199.051,61.346-278.747-.095-1.744,2.943-1.685,6.754.129s6.875,4.676,6.9,6.405c2.051,79.057-12.194,173.189-67.358,276.477-53.116,103.289-146.808,215.732-253.379,331.416C-3369.551-5102.651-3373.1-5100.922-3375.147-5101.32Z" transform="translate(3376.545 5720.879)" fill="#ff9929"/>
        </g>
        <g id="Groupe_176" data-name="Groupe 176" transform="translate(-3601.447 -4734.16)">
          <path id="Tracé_322" data-name="Tracé 322" d="M-3597.88-4952.044c-2.5.824-4.134-3.217-3.383-9.042,7.983-62.533,36.332-126.869,77.907-192.008,3.865-6.07,9.171-11.284,11.681-11.634s1.325,4.249-2.515,10.26c-41.312,64.63-69.615,128.46-77.917,190.5C-3592.89-4958.2-3595.368-4952.867-3597.88-4952.044Z" transform="translate(3601.447 5164.747)" fill="#ffc900"/>
        </g>
        <g id="Groupe_177" data-name="Groupe 177" transform="translate(-3232.453 -5446.027)">
          <path id="Tracé_323" data-name="Tracé 323" d="M-3383.61-5128.4c-4.362-.47-4.215-4.841.328-9.758,145.087-154.289,279.8-304.743,341.513-436.542,2.04-4.2,7.243-5.425,11.634-2.762s6.214,8.136,4.053,12.251c-65.148,129.534-198.956,277.364-341.559,428.94C-3372.1-5131.455-3379.247-5127.928-3383.61-5128.4Z" transform="translate(3386.788 5578.869)" fill="#ffc900"/>
        </g>
        <g id="Groupe_178" data-name="Groupe 178" transform="translate(-3379.201 -4955.478)">
          <path id="Tracé_324" data-name="Tracé 324" d="M-3467.651-5167.648c-5.092.346-6.019-3.379-2.012-8.323,29.479-36.347,61.45-72.773,94.333-109.091,4.471-4.94,11.787-8.708,16.311-8.417s4.626,4.442.251,9.279c-32.294,35.678-63.667,71.462-92.608,107.162C-3455.3-5172.2-3462.558-5168-3467.651-5167.648Z" transform="translate(3472.158 5293.496)" fill="#ff9929"/>
        </g>
        <g id="Groupe_179" data-name="Groupe 179" transform="translate(-3495.068 -4557.735)">
          <path id="Tracé_325" data-name="Tracé 325" d="M-3497.927-4881.046a4.261,4.261,0,0,1-6.038-1.288c-31.675-55.221-41.567-113.536-32.237-173.829.344-2.248,2.878-4.781,5.626-5.652s4.662.227,4.308,2.45c-9.618,59.73-.4,117.5,30.149,172.2A4.7,4.7,0,0,1-3497.927-4881.046Z" transform="translate(3539.563 5062.114)" fill="#ffc900"/>
        </g>
        <g id="Groupe_180" data-name="Groupe 180" transform="translate(-2871.244 -5763.634)">
          <path id="Tracé_326" data-name="Tracé 326" d="M-3170.968-5466.277c-4.535-2.752-6.83-8.315-5.13-12.4,49.56-113.83,46.083-211.836,63.033-283.633.636-2.578,8.684-1.271,17.723,2.864s15.447,9.5,14.575,12.029c-22.558,70.629-25.653,166.981-78.617,278.859C-3161.23-5464.555-3166.427-5463.523-3170.968-5466.277Z" transform="translate(3176.658 5763.634)" fill="#ffc900"/>
        </g>
        <g id="Groupe_181" data-name="Groupe 181" transform="translate(-2971.015 -5566.198)">
          <path id="Tracé_327" data-name="Tracé 327" d="M-3231.384-5556.527c-3.031-1.653-4.167-6.929-2.638-11.747a459.375,459.375,0,0,0,17.427-75.052c.64-4.555,4.07-6.663,7.74-4.741s6.051,7.1,5.259,11.6a479.748,479.748,0,0,1-19.241,74.289C-3224.484-5557.42-3228.354-5554.875-3231.384-5556.527Z" transform="translate(3234.699 5648.778)" fill="#ffc900"/>
        </g>
        <g id="Groupe_182" data-name="Groupe 182" transform="translate(-3563.725 -4585.312)">
          <path id="Tracé_328" data-name="Tracé 328" d="M-2825.5-4479.646c5.4,4.481,1.959,6.015-7.9,3.375-245.135-65.622-461.563-152.628-591.1-253.466-132.217-100.837-177.006-215.506-145.185-336.45,1.214-4.867,6.805-10.042,12.33-11.546s8.881,1.149,7.627,5.914c-32.432,118.836,8.733,231.488,133.963,330.534,122.68,99.044,328.9,184.479,563.674,248.884C-2842.73-4489.821-2830.913-4484.131-2825.5-4479.646Z" transform="translate(3579.503 5078.155)" fill="#ffc900"/>
        </g>
        <g id="Groupe_183" data-name="Groupe 183" transform="translate(-3598.58 -4507.497)">
          <path id="Tracé_329" data-name="Tracé 329" d="M-3210.682-4627.3c.624,2.854-7.1,1.542-17.1-2.992-244.8-109.758-374.541-243.768-371.956-388.939-.031-5.994,3.438-11.99,7.469-13.367s7.05,2.308,6.991,8.209c-4.215,143.306,119.9,275.577,356.015,383.888C-3219.684-4636.04-3211.3-4630.158-3210.682-4627.3Z" transform="translate(3599.779 5032.887)" fill="#ff9929"/>
        </g>
        <g id="Groupe_184" data-name="Groupe 184" transform="translate(-3532.942 -4773.797)">
          <path id="Tracé_330" data-name="Tracé 330" d="M-3368.5-4633.8c-1.038,1.938-4.474,1.755-7.644-.418-113.531-77.422-175.36-164.475-184.077-257.126-9.738-92.651,33.232-190.9,104.218-290.717,1.986-2.8,6.07-5.355,9.089-5.7s3.855,1.616,1.9,4.384c-70.311,98.8-113.143,196.044-104.483,287.742,7.665,91.694,67.218,177.843,177.328,254.454C-3369.111-4639.04-3367.463-4635.738-3368.5-4633.8Z" transform="translate(3561.595 5187.805)" fill="#ff9929"/>
        </g>
        <g id="Groupe_185" data-name="Groupe 185" transform="translate(-3270.86 -4183.298)">
          <path id="Tracé_331" data-name="Tracé 331" d="M-3048.937-4695.695c1.918,2.186-.077,2.875-4.493,1.526-132.951-40.62-254.034-88.584-350.672-142.263-3.216-1.782-5.433-4.691-4.967-6.49s3.378-1.823,6.5-.062c94.195,53.181,212.409,100.691,342.412,140.925C-3055.871-4700.726-3050.852-4697.883-3048.937-4695.695Z" transform="translate(3409.131 4844.288)" fill="#ff9929"/>
        </g>
      </g>
    </g>
  </g>
</svg>
