<svg xmlns="http://www.w3.org/2000/svg" xmlns:xlink="http://www.w3.org/1999/xlink" width="1936" height="4480" viewBox="0 0 1936 4480">
  <defs>
    <clipPath id="clip-path">
      <rect id="Rectangle_1561" data-name="Rectangle 1561" width="1936" height="4480" fill="#fff" stroke="#707070" stroke-width="1"/>
    </clipPath>
  </defs>
  <g id="Groupe_de_masques_38" data-name="Groupe de masques 38" clip-path="url(#clip-path)">
    <g id="Groupe_447" data-name="Groupe 447">
      <g id="Groupe_80" data-name="Groupe 80" transform="translate(5327.3 -932.543)">
        <g id="Groupe_67" data-name="Groupe 67" transform="translate(-4404.833 838.543)">
          <g id="Groupe_64" data-name="Groupe 64">
            <path id="Tracé_262" data-name="Tracé 262" d="M-4563.712,1367.229c143.177,44.781,266.8,148.863,335.321,282.317,30.03,58.49,50.541,123.2,93.684,172.819s119.9,79.394,175.448,44.211c54.825-34.728,61.6-110.617,62.557-175.508l11.246-762.526-561.891,23.306c-126.229,5.235-348.1-30.019-457.042,42.488-72.907,48.527-102.562,159.973-53.8,235.08C-4881.113,1348.162-4681.1,1323.209-4563.712,1367.229Z" transform="translate(4982.118 -928.543)" fill="#f0f8fe"/>
          </g>
          <g id="Groupe_66" data-name="Groupe 66">
            <g id="Groupe_65" data-name="Groupe 65" opacity="0.71" style="mix-blend-mode: luminosity;isolation: isolate">
              <path id="Tracé_263" data-name="Tracé 263" d="M-4563.712,1367.229c143.177,44.781,266.8,148.863,335.321,282.317,30.03,58.49,50.541,123.2,93.684,172.819s119.9,79.394,175.448,44.211c54.825-34.728,61.6-110.617,62.557-175.508l11.246-762.526-561.891,23.306c-126.229,5.235-348.1-30.019-457.042,42.488-72.907,48.527-102.562,159.973-53.8,235.08C-4881.113,1348.162-4681.1,1323.209-4563.712,1367.229Z" transform="translate(4982.118 -928.543)" fill="#f0f8fe"/>
            </g>
          </g>
        </g>
        <g id="Groupe_71" data-name="Groupe 71" transform="translate(-3810.786 3503.36)">
          <g id="Groupe_68" data-name="Groupe 68">
            <path id="Tracé_264" data-name="Tracé 264" d="M-4075.119,2717.253c-27.025-84.418-81.953-161.634-158.954-205.539s-176.575-50.841-254.484-8.567-127.361,136.281-108.513,222.892c22.917,105.309,129.916,171.843,170.473,271.693,24.825,61.123,22.627,129.461,18.447,195.3s-9.784,133.361,9.011,196.6,68.417,122.22,133.848,130.643c55.656,7.164,111.075-24.042,145.854-68.082s52.087-99.232,64.439-153.971a1092.016,1092.016,0,0,0,21.706-344.488C-4040.987,2873.917-4050.67,2793.623-4075.119,2717.253Z" transform="translate(4601.082 -2474.853)" fill="#f0f8fe"/>
          </g>
          <g id="Groupe_70" data-name="Groupe 70">
            <g id="Groupe_69" data-name="Groupe 69" opacity="0.71" style="mix-blend-mode: luminosity;isolation: isolate">
              <path id="Tracé_265" data-name="Tracé 265" d="M-4075.119,2717.253c-27.025-84.418-81.953-161.634-158.954-205.539s-176.575-50.841-254.484-8.567-127.361,136.281-108.513,222.892c22.917,105.309,129.916,171.843,170.473,271.693,24.825,61.123,22.627,129.461,18.447,195.3s-9.784,133.361,9.011,196.6,68.417,122.22,133.848,130.643c55.656,7.164,111.075-24.042,145.854-68.082s52.087-99.232,64.439-153.971a1092.016,1092.016,0,0,0,21.706-344.488C-4040.987,2873.917-4050.67,2793.623-4075.119,2717.253Z" transform="translate(4601.082 -2474.853)" fill="#f0f8fe"/>
            </g>
          </g>
        </g>
        <g id="Groupe_75" data-name="Groupe 75" transform="translate(-5574.719 4195.543)">
          <g id="Groupe_72" data-name="Groupe 72">
            <path id="Tracé_266" data-name="Tracé 266" d="M-5613.482,3129.376a992.059,992.059,0,0,0,28.376,426.286c14.728,50.507,36.7,103.876,83.943,131.05,40.525,23.312,91,22.306,138.356,20.58l742.957-27.078c69.509-2.534,140.755-5.417,204.931-30.877s120.813-78.681,127.857-144.324c8.055-75.081-48.975-142.943-112.969-187.789-218.8-153.333-549.245-149.231-714.954-353.869-33.792-41.729-58.187-89.861-93.257-130.632s-85.364-74.974-140.8-73.062c-59.051,2.037-109.418,45.439-134.608,96.14s-30.045,108.03-34.515,163.917C-5579.437,3059.188-5552.211,3089.9-5613.482,3129.376Z" transform="translate(5624.718 -2759.583)" fill="#f0f8fe"/>
          </g>
          <g id="Groupe_74" data-name="Groupe 74">
            <g id="Groupe_73" data-name="Groupe 73" opacity="0.71" style="mix-blend-mode: luminosity;isolation: isolate">
              <path id="Tracé_267" data-name="Tracé 267" d="M-5613.482,3129.376a992.059,992.059,0,0,0,28.376,426.286c14.728,50.507,36.7,103.876,83.943,131.05,40.525,23.312,91,22.306,138.356,20.58l742.957-27.078c69.509-2.534,140.755-5.417,204.931-30.877s120.813-78.681,127.857-144.324c8.055-75.081-48.975-142.943-112.969-187.789-218.8-153.333-549.245-149.231-714.954-353.869-33.792-41.729-58.187-89.861-93.257-130.632s-85.364-74.974-140.8-73.062c-59.051,2.037-109.418,45.439-134.608,96.14s-30.045,108.03-34.515,163.917C-5579.437,3059.188-5552.211,3089.9-5613.482,3129.376Z" transform="translate(5624.718 -2759.583)" fill="#f0f8fe"/>
            </g>
          </g>
        </g>
        <g id="Groupe_79" data-name="Groupe 79" transform="translate(-5574.683 2229.091) rotate(-1)">
          <g id="Groupe_76" data-name="Groupe 76">
            <path id="Tracé_268" data-name="Tracé 268" d="M-4934.026,1918.949c-30.555,62.451-132.087,77.786-140.078,146.849-3.641,31.462,16.38,61.834,42.425,79.857s57.434,26.205,87.973,34.6c70.067,19.267,141.274,42.336,197.432,88.456s94.618,120.446,79.126,191.443c-20.1,92.1-123.961,145.79-218.146,141.772s-180.419-51.1-262.747-97.021l-211.6-118.037c-33.1-18.467-66.367-37.038-96.131-60.511-123.044-97.033-197.072-325.711-84.708-459.013,81.664-96.878,284.032-91.759,398.363-103.758C-5063.075,1755.293-4872.227,1792.635-4934.026,1918.949Z" transform="translate(5595.861 -1762.488)" fill="#f0f8fe"/>
          </g>
          <g id="Groupe_78" data-name="Groupe 78">
            <g id="Groupe_77" data-name="Groupe 77" opacity="0.71" style="mix-blend-mode: luminosity;isolation: isolate">
              <path id="Tracé_269" data-name="Tracé 269" d="M-4934.026,1918.949c-30.555,62.451-132.087,77.786-140.078,146.849-3.641,31.462,16.38,61.834,42.425,79.857s57.434,26.205,87.973,34.6c70.067,19.267,141.274,42.336,197.432,88.456s94.618,120.446,79.126,191.443c-20.1,92.1-123.961,145.79-218.146,141.772s-180.419-51.1-262.747-97.021l-211.6-118.037c-33.1-18.467-66.367-37.038-96.131-60.511-123.044-97.033-197.072-325.711-84.708-459.013,81.664-96.878,284.032-91.759,398.363-103.758C-5063.075,1755.293-4872.227,1792.635-4934.026,1918.949Z" transform="translate(5595.861 -1762.488)" fill="#f0f8fe"/>
            </g>
          </g>
        </g>
      </g>
      <g id="Groupe_431" data-name="Groupe 431" transform="matrix(0.999, -0.035, 0.035, 0.999, -77.832, 6.792)">
        <g id="Groupe_431-2" data-name="Groupe 431" transform="translate(158.523 229.477)">
          <path id="Tracé_386" data-name="Tracé 386" d="M310.953,920.025a18.167,18.167,0,0,1-9.976-8.605C163.68,627.561-8.728,321.331,109.895,122.477c1.466-2.572,4.081-3.931,5.785-3.056s1.88,3.662.451,6.245C.128,325.082,174.557,631.411,314.7,915.444,316.452,919.09,314.768,921.139,310.953,920.025Z" transform="translate(-70.25 -119.156)" fill="#ffc900"/>
        </g>
        <g id="Groupe_432" data-name="Groupe 432" transform="translate(200.267 163.409)">
          <path id="Tracé_387" data-name="Tracé 387" d="M198.569,668.644c-2.865-1-6.938-5.471-9.063-9.974C81.565,434.029,37.255,226.584,181.6,91.685c2.863-2.717,6.327-4.278,7.645-3.515s.025,3.564-2.787,6.291C44.063,229.837,90.107,437.532,199.811,662.3,201.976,666.8,201.438,669.647,198.569,668.644Z" transform="translate(-89.95 -87.977)" fill="#0a5961"/>
        </g>
        <g id="Groupe_433" data-name="Groupe 433" transform="translate(312.575 749.457)">
          <path id="Tracé_388" data-name="Tracé 388" d="M332.842,729.267c-5.626-1.577-12.1-6.908-14.5-11.924C265.817,607.9,199.448,492.52,144.19,379.9c-2.534-5.166-1.057-8.131,3.265-6.639s9.911,6.889,12.517,12.055c56.593,112.708,124.363,228.161,178.582,337.72C341.044,728.059,338.468,730.841,332.842,729.267Z" transform="translate(-142.95 -372.878)" fill="#3992a0"/>
        </g>
        <g id="Groupe_434" data-name="Groupe 434" transform="translate(143.383 83.89)">
          <path id="Tracé_389" data-name="Tracé 389" d="M115.021,596.456c-1.983-.737-4.308-3.348-5.185-5.851C27.093,361.841,39.018,162.679,270.756,51.914c2.509-1.218,5.189-1.786,5.959-1.276s-.651,1.909-3.138,3.134c-230.188,111.189-240.7,310.6-156.593,539.482C117.878,595.754,117,597.187,115.021,596.456Z" transform="translate(-63.105 -50.451)" fill="#001c3a"/>
        </g>
        <g id="Groupe_435" data-name="Groupe 435" transform="translate(328.047 939.757)">
          <path id="Tracé_390" data-name="Tracé 390" d="M236.17,672.868c-2.831-.757-6.505-5.9-8.3-11.525-19.323-60.415-46.3-123.683-75.4-187.982-2.708-5.99-2.986-10.267-.587-9.54s6.586,6.175,9.339,12.165c29.514,64.325,56.955,127.626,76.8,188.084C239.872,669.7,239,673.624,236.17,672.868Z" transform="translate(-150.251 -463.74)" fill="#001c3a"/>
        </g>
        <g id="Groupe_436" data-name="Groupe 436" transform="translate(174.938 261.019)">
          <path id="Tracé_391" data-name="Tracé 391" d="M171.48,584.925c-4.2-1.488-9.425-6.83-11.635-11.928C89.652,412.654,52.074,261.684,98.474,141.971c1.464-3.812,4.8-5.846,7.334-4.59s3.378,5.344,1.986,9.173C63.4,266.671,102.822,417.866,174.911,578.36,177.195,583.465,175.674,586.406,171.48,584.925Z" transform="translate(-77.996 -137.01)" fill="#ff9929"/>
        </g>
        <g id="Groupe_437" data-name="Groupe 437" transform="translate(283.185 742.193)">
          <path id="Tracé_392" data-name="Tracé 392" d="M199.827,501.781c-4.785-1.524-10.792-6.969-13.407-12.163-19.33-38.261-38.363-76.535-56.2-114.5-2.416-5.156-.848-8.118,3.477-6.624s9.82,6.88,12.311,12.04c18.293,38,37.795,76.3,57.6,114.59C206.3,500.323,204.61,503.3,199.827,501.781Z" transform="translate(-129.08 -368.108)" fill="#fa214d"/>
        </g>
        <g id="Groupe_438" data-name="Groupe 438" transform="translate(533.729 1176.932)">
          <path id="Tracé_393" data-name="Tracé 393" d="M299.624,768.747c-3.579-.86-6.512-3.246-6.575-5.331-1.769-56.008-19.4-117.538-45.453-182.318-.968-2.414.655-3.727,3.645-2.924s6.232,3.416,7.226,5.829c26.636,64.831,44.93,126.429,47.487,182.53C306.049,768.624,303.211,769.612,299.624,768.747Z" transform="translate(-247.316 -577.938)" fill="#ff9929"/>
        </g>
        <g id="Groupe_439" data-name="Groupe 439" transform="translate(209.394 20.567)">
          <path id="Tracé_394" data-name="Tracé 394" d="M96.451,248c-2.454-1.237-2.948-5.221-.981-8.845C149.657,137.818,272.746,62.64,477.066,22.077c7.306-1.458,14.028-1.928,14.871-1.11S487.5,23.6,480.272,25.082c-202.457,41.143-323.65,116.83-376.051,218.542C102.327,247.265,98.909,249.244,96.451,248Z" transform="translate(-94.257 -20.567)" fill="#3992a0"/>
        </g>
        <g id="Groupe_440" data-name="Groupe 440" transform="translate(147.28 186.313)">
          <path id="Tracé_395" data-name="Tracé 395" d="M66.171,173.285c-1.678-.82-1.653-4.751.191-8.724a295.87,295.87,0,0,1,37.5-60.576c2.863-3.579,6.455-5.817,7.889-5.047s.212,4.263-2.6,7.855a293.806,293.806,0,0,0-36.795,60.722C70.568,171.5,67.853,174.107,66.171,173.285Z" transform="translate(-64.944 -98.786)" fill="#fa214d"/>
        </g>
        <g id="Groupe_441" data-name="Groupe 441" transform="translate(-8.635 1102.894)">
          <path id="Tracé_396" data-name="Tracé 396" d="M1.583,1047.117c-12.661-2.693-13.634-5.37-2.483-6.058,275.65-17.7,405.249-79.842,458.569-167.091,52.634-87.407,28.986-199.918-17.742-322-1.9-4.908,1.191-7.609,6.955-6.024s12.1,6.878,14.1,11.79C509.828,679.985,536,792.748,487.064,880.7c-49.608,87.8-174.329,150.8-442.743,169.977C33.516,1051.45,14.244,1049.808,1.583,1047.117Z" transform="translate(8.635 -545.489)" fill="#001c3a"/>
        </g>
        <g id="Groupe_442" data-name="Groupe 442" transform="translate(294.347 1157.392)">
          <path id="Tracé_397" data-name="Tracé 397" d="M140.241,926.44c-7.315-1.606-7.83-5.359-1.494-8.5C291.257,841.5,300.053,719.313,262.574,579.685c-1.564-5.761.826-9.47,5.456-8.243s9.826,6.936,11.491,12.7C319.1,723.975,312.992,846.471,164.83,923.666,158.709,926.847,147.552,928.038,140.241,926.44Z" transform="translate(-134.348 -571.207)" fill="#fa214d"/>
        </g>
        <g id="Groupe_443" data-name="Groupe 443" transform="translate(380.14 919.375)">
          <path id="Tracé_398" data-name="Tracé 398" d="M284.505,1018.05c-4.872-1.1-7.531-3.49-6.005-5.372C385.218,878.3,280.975,673.5,175.507,462.881c-1.5-2.954-.411-4.645,2.439-3.765a15.645,15.645,0,0,1,7.923,6.946C292.958,676.789,399.061,881.679,296.02,1016.633,294.558,1018.519,289.372,1019.152,284.505,1018.05Z" transform="translate(-174.835 -458.883)" fill="#0a5961"/>
        </g>
        <g id="Groupe_444" data-name="Groupe 444" transform="translate(154.128 1515.561)">
          <path id="Tracé_399" data-name="Tracé 399" d="M73.336,838.264c-5.961-1.265-6.878-2.742-2.123-3.31,143.04-17.221,235.6-49.818,294.147-93.345,1.941-1.439,7.133-1.816,11.65-.814s6.673,3,4.785,4.452C324.59,789,233.642,821.886,92.63,839.519,87.968,840.1,79.291,839.536,73.336,838.264Z" transform="translate(-68.176 -740.233)" fill="#ffc900"/>
        </g>
      </g>
      <g id="Groupe_37" data-name="Groupe 37" transform="translate(628 -169)">
        <g id="Groupe_36" data-name="Groupe 36" transform="translate(720 1629)">
          <g id="Groupe_35" data-name="Groupe 35" transform="translate(0 0)">
            <g id="Groupe_21" data-name="Groupe 21" transform="translate(77.599 241.761)">
              <path id="Tracé_233" data-name="Tracé 233" d="M-1832.1,2081.339c-3.212.673-4.53-1.4-2.9-4.615,62.5-124.845,181.863-254.053,282.528-378.21,102.548-124.157,183.539-243.256,215.79-347.875.88-2.7,3.883-3.4,6.71-1.574s4.353,5.447,3.4,8.1c-34.567,103.366-115.881,221.025-217.536,343.666-99.843,122.642-217.272,250.26-279.3,373.555C-1825.016,2077.562-1828.892,2080.679-1832.1,2081.339Z" transform="translate(1835.7 -1348.05)" fill="#ffc900"/>
            </g>
            <g id="Groupe_22" data-name="Groupe 22" transform="translate(317.576 193.212)">
              <path id="Tracé_234" data-name="Tracé 234" d="M-1663.179,1835.012c-2.443-.236-1.888-3.471,1.228-7.216,77.922-93.173,157.572-185,216.851-271.167,60.3-86.17,99.829-166.665,122.352-237.193.914-2.839,4.07-3.5,7.013-1.5s4.508,5.859,3.5,8.655c-24.394,69.684-65.068,149.212-125.546,234.331-59.5,85.115-138.432,175.819-215.408,267.839C-1656.268,1832.449-1660.738,1835.246-1663.179,1835.012Z" transform="translate(1664.703 -1316.78)" fill="#0a5961"/>
            </g>
            <g id="Groupe_23" data-name="Groupe 23" transform="translate(104.901 731.619)">
              <path id="Tracé_235" data-name="Tracé 235" d="M-1810.263,1956.245c-4.557,1.244-7.075-1.125-5.525-5.319,33.623-91.26,103.432-186.036,180.405-280,3.53-4.316,9.4-7.6,13.1-7.339s3.87,3.9.424,8.118c-75.545,92.25-143.881,185.285-177.427,274.861C-1800.834,1950.662-1805.708,1955-1810.263,1956.245Z" transform="translate(1816.246 -1663.573)" fill="#3992a0"/>
            </g>
            <g id="Groupe_24" data-name="Groupe 24" transform="translate(315.629 66.378)">
              <path id="Tracé_236" data-name="Tracé 236" d="M-1664.95,1794.653c-1.674-.36-1.482-2.529.425-4.836,87.593-105.36,164.177-207.77,206.657-301.83,44.2-94.062,53.99-179.774,50.084-251.753-.079-1.582,2.41-1.522,5.515.116s5.619,4.223,5.629,5.783c1.676,71.4-9.956,156.42-54.991,249.705-43.368,93.291-119.853,194.842-206.862,299.324C-1660.381,1793.447-1663.273,1795.007-1664.95,1794.653Z" transform="translate(1666.09 -1235.084)" fill="#001c3a"/>
            </g>
            <g id="Groupe_25" data-name="Groupe 25" transform="translate(0 929.789)">
              <path id="Tracé_237" data-name="Tracé 237" d="M-1888.082,1983.323c-2.048.749-3.378-2.909-2.76-8.166,6.515-56.473,29.668-114.581,63.6-173.417,3.153-5.478,7.487-10.193,9.538-10.506s1.078,3.836-2.053,9.267c-33.728,58.375-56.836,116.019-63.613,172.052C-1884.008,1977.767-1886.031,1982.584-1888.082,1983.323Z" transform="translate(1890.994 -1791.217)" fill="#001c3a"/>
            </g>
            <g id="Groupe_26" data-name="Groupe 26" transform="translate(301.254 286.853)">
              <path id="Tracé_238" data-name="Tracé 238" d="M-1673.739,1783.945c-3.559-.43-3.442-4.37.268-8.813,118.449-139.349,228.437-275.23,278.815-394.27,1.669-3.8,5.908-4.9,9.5-2.495a9.1,9.1,0,0,1,3.308,11.065c-53.19,116.991-162.431,250.507-278.853,387.405C-1664.346,1781.183-1670.175,1784.369-1673.739,1783.945Z" transform="translate(1676.333 -1377.095)" fill="#ff9929"/>
            </g>
            <g id="Groupe_27" data-name="Groupe 27" transform="translate(181.445 729.902)">
              <path id="Tracé_239" data-name="Tracé 239" d="M-1758.023,1776.129c-4.155.315-4.922-3.051-1.642-7.516,24.069-32.828,50.167-65.729,77.012-98.526,3.655-4.465,9.629-7.87,13.32-7.6s3.778,4.01.2,8.38c-26.372,32.223-51.972,64.543-75.606,96.786C-1747.94,1772.014-1753.866,1775.819-1758.023,1776.129Z" transform="translate(1761.705 -1662.468)" fill="#fa214d"/>
            </g>
            <g id="Groupe_28" data-name="Groupe 28" transform="translate(86.848 1089.13)">
              <path id="Tracé_240" data-name="Tracé 240" d="M-1795.117,2057.383a3.288,3.288,0,0,1-4.929-1.162c-25.86-49.869-33.941-102.541-26.318-156.995a7.275,7.275,0,0,1,4.593-5.106c2.241-.786,3.809.205,3.516,2.212-7.852,53.95-.323,106.123,24.614,155.526A4.493,4.493,0,0,1-1795.117,2057.383Z" transform="translate(1829.11 -1893.85)" fill="#ff9929"/>
            </g>
            <g id="Groupe_29" data-name="Groupe 29" transform="translate(596.151)">
              <path id="Tracé_241" data-name="Tracé 241" d="M-1461.558,1460.894c-3.708-2.485-5.572-7.509-4.188-11.2,40.457-102.808,37.619-191.325,51.46-256.168.518-2.327,7.087-1.15,14.47,2.588s12.608,8.579,11.9,10.864c-18.421,63.79-20.934,150.811-64.183,251.857C-1453.612,1462.45-1457.85,1463.381-1461.558,1460.894Z" transform="translate(1466.202 -1192.329)" fill="#3992a0"/>
            </g>
            <g id="Groupe_30" data-name="Groupe 30" transform="translate(514.697 178.317)">
              <path id="Tracé_242" data-name="Tracé 242" d="M-1521.537,1390.5c-2.48-1.49-3.4-6.261-2.154-10.607a451.423,451.423,0,0,0,14.228-67.786c.522-4.114,3.316-6.021,6.318-4.284s4.944,6.415,4.294,10.48a472.056,472.056,0,0,1-15.708,67.092C-1515.9,1389.7-1519.06,1392-1521.537,1390.5Z" transform="translate(1524.243 -1307.185)" fill="#fa214d"/>
            </g>
            <g id="Groupe_31" data-name="Groupe 31" transform="translate(30.799 1064.224)">
              <path id="Tracé_243" data-name="Tracé 243" d="M-1253.477,2418.362c4.425,4.06,1.6,5.437-6.448,3.049-200.134-59.267-376.826-137.846-482.577-228.922-107.946-91.07-144.5-194.639-118.532-303.873.994-4.394,5.555-9.068,10.068-10.428s7.248,1.035,6.227,5.342c-26.475,107.326,7.128,209.074,109.365,298.526,100.156,89.457,268.517,166.619,460.189,224.784C-1267.54,2409.177-1257.888,2414.311-1253.477,2418.362Z" transform="translate(1869.048 -1877.808)" fill="#001c3a"/>
            </g>
            <g id="Groupe_32" data-name="Groupe 32" transform="translate(2.343 1134.506)">
              <path id="Tracé_244" data-name="Tracé 244" d="M-1571.665,2289.387c.509,2.577-5.8,1.4-13.962-2.7-199.863-99.132-305.779-220.162-303.667-351.278-.024-5.414,2.811-10.827,6.1-12.072s5.757,2.079,5.707,7.415c-3.442,129.429,97.891,248.895,290.653,346.715C-1579.01,2281.5-1572.169,2286.813-1571.665,2289.387Z" transform="translate(1889.325 -1923.078)" fill="#fa214d"/>
            </g>
            <g id="Groupe_33" data-name="Groupe 33" transform="translate(55.933 893.99)">
              <path id="Tracé_245" data-name="Tracé 245" d="M-1693.5,2268.518c-.849,1.75-3.652,1.585-6.242-.377-92.679-69.924-143.165-148.547-150.277-232.226-7.953-83.683,27.132-172.415,85.082-262.568,1.62-2.528,4.961-4.841,7.421-5.152s3.148,1.458,1.548,3.959c-57.4,89.233-92.374,177.064-85.3,259.877,6.256,82.819,54.873,160.623,144.772,229.816C-1694.006,2263.788-1692.65,2266.769-1693.5,2268.518Z" transform="translate(1851.139 -1768.158)" fill="#0a5961"/>
            </g>
            <g id="Groupe_34" data-name="Groupe 34" transform="translate(269.895 1427.31)">
              <path id="Tracé_246" data-name="Tracé 246" d="M-1404.615,2245.879c1.563,1.979-.062,2.6-3.667,1.379-108.54-36.688-207.392-80-286.291-128.487-2.623-1.605-4.437-4.237-4.054-5.862s2.751-1.644,5.3-.054c76.905,48.028,173.409,90.941,279.548,127.279C-1410.268,2241.332-1406.181,2243.906-1404.615,2245.879Z" transform="translate(1698.678 -2111.676)" fill="#ffc900"/>
            </g>
          </g>
        </g>
      </g>
    </g>
  </g>
</svg>
