<svg xmlns="http://www.w3.org/2000/svg" xmlns:xlink="http://www.w3.org/1999/xlink" width="1928" height="5388" viewBox="0 0 1928 5388">
  <defs>
    <clipPath id="clip-path">
      <rect id="Rectangle_1561" data-name="Rectangle 1561" width="1928" height="5388" transform="translate(-8)" fill="#fff" stroke="#707070" stroke-width="1"/>
    </clipPath>
  </defs>
  <g id="Groupe_de_masques_38" data-name="Groupe de masques 38" transform="translate(8)" clip-path="url(#clip-path)">
    <g id="Groupe_452" data-name="Groupe 452">
      <g id="Groupe_448" data-name="Groupe 448" transform="matrix(0.454, -0.891, 0.891, 0.454, -409.086, 4271.075)">
        <g id="Groupe_202" data-name="Groupe 202" transform="translate(68.549 368.04)">
          <path id="Tracé_346" data-name="Tracé 346" d="M-1424.724,512.829c2.223-1.067,3.131-5.126,2.094-10.013-21.487-100.191-15.481-212.888,7.578-320.112,22.934-107.682,62.922-209.891,106.517-299.685,56.276-116.912,121.737-218.084,167.1-310.354,1.913-3.908,1.613-8.928-.639-11.267s-5.591-1.05-7.488,2.893c-44.712,92.508-109.829,193.7-166.27,310.565-44.035,90.5-84.773,193.556-108.442,302.549-23.791,108.52-30.511,222.975-9.343,325.361,1.171,5.737,4.669,10.35,7.718,10.327A2.688,2.688,0,0,0-1424.724,512.829Z" transform="translate(1446.336 439.767)" fill="#ff9929"/>
        </g>
        <g id="Groupe_203" data-name="Groupe 203" transform="translate(32.121 225.109)">
          <path id="Tracé_347" data-name="Tracé 347" d="M-1425.853,113.31c2.518-.645,4.868-4.646,5.848-10.431,20.374-121.039,63.133-239.319,110.013-340.907,39.532-86.341,83.694-165.253,122.3-238.279,38.656-73.364,71.755-140.842,90.359-212.094,1.431-5.432-.028-12.215-3.177-15.159s-6.783-.847-8.186,4.671c-18.049,71.426-50.565,139.058-88.794,212.428-38.178,73.042-82.071,151.822-121.7,237.96-47.375,102.276-91.037,221.382-112.469,344.093-1.34,7.574.279,15.36,3.531,17.342A2.893,2.893,0,0,0-1425.853,113.31Z" transform="translate(1432.136 704.894)" fill="#fa214d"/>
        </g>
        <g id="Groupe_204" data-name="Groupe 204" transform="translate(20.676 1058.352)">
          <path id="Tracé_348" data-name="Tracé 348" d="M-849.438,1312.85c2.924-1.889,1.976-7.82-1.98-13.468-71.09-101.676-100.234-256.414-76.343-440.978.979-7.554-.521-15.244-3.435-17.226s-6.187,2.536-7.23,10.155c-25.653,189.154,3.171,349.233,76.126,454.582,4,5.781,9.8,8.81,12.8,6.977C-849.481,1312.875-849.459,1312.868-849.438,1312.85Z" transform="translate(947.625 -840.715)" fill="#fa214d"/>
        </g>
        <g id="Groupe_205" data-name="Groupe 205" transform="translate(269.893 120.04)">
          <path id="Tracé_349" data-name="Tracé 349" d="M-1610.154-414.747c1.343.091,3-1.15,4.227-3.368,43.146-78.525,95-159.6,131.3-236.375,38.165-80.848,54.649-152.313,51.237-235.764-.137-3.46-1.8-7.5-3.669-8.984s-3.255.157-3.115,3.651c4.208,93.674-18.335,167.532-53.7,242.515-35.234,74.241-83.293,149.609-127.056,229.2-1.695,3.058-1.948,6.844-.565,8.427A1.9,1.9,0,0,0-1610.154-414.747Z" transform="translate(1612.386 899.79)" fill="#fa214d"/>
        </g>
        <g id="Groupe_206" data-name="Groupe 206" transform="translate(204.505 660.196)">
          <path id="Tracé_350" data-name="Tracé 350" d="M-1182.564,175.151c1.338-.048,2.929-1.529,4.073-4q9.351-20.123,19.052-39.625,5.013-10.1,10.1-20.028c1.655-3.236,1.873-7.117.481-8.683s-3.872-.233-5.533,3.008q-5.1,9.948-10.133,20.062-9.724,19.55-19.147,39.715c-1.588,3.408-1.7,7.43-.268,8.954A1.749,1.749,0,0,0-1182.564,175.151Z" transform="translate(1184.946 -102.163)" fill="#fa214d"/>
        </g>
        <g id="Groupe_207" data-name="Groupe 207" transform="translate(67.395 407.625)">
          <path id="Tracé_351" data-name="Tracé 351" d="M-1348.533,231.223c1.4-.334,2.757-2.46,3.392-5.578,22.316-110.347,63.009-217.41,106.952-309.965,47.383-100.63,101.711-191.245,144.412-273.113,1.478-2.849,1.438-6.461-.075-8.105s-3.925-.68-5.4,2.178c-42.372,81.975-96.573,172.613-144.07,273.257-44.193,92.891-85.336,200.348-108.2,311.493-.854,4.117-.091,8.413,1.68,9.581A1.623,1.623,0,0,0-1348.533,231.223Z" transform="translate(1351.868 366.34)" fill="#fa214d"/>
        </g>
        <g id="Groupe_208" data-name="Groupe 208" transform="translate(47.484 1076.747)">
          <path id="Tracé_352" data-name="Tracé 352" d="M-821.6,1051.76c1.51-.629,2.4-3.353,2.084-6.826-4.451-50.008-3.757-103.091,2.727-160.593.472-4.193-.64-8.357-2.514-9.309s-3.817,1.675-4.311,5.892c-6.782,58.188-7.713,111.976-3.425,162.722.355,4.194,2.368,7.88,4.455,8.224A1.847,1.847,0,0,0-821.6,1051.76Z" transform="translate(829.635 -874.837)" fill="#fa214d"/>
        </g>
        <g id="Groupe_209" data-name="Groupe 209" transform="translate(384.621 182.156)">
          <path id="Tracé_353" data-name="Tracé 353" d="M-1556.469-627.485c2.083.693,4.433-.787,5.752-3.923,20.244-48.177,32.845-92.76,38.553-139.982.54-4.458-1.2-9.933-3.835-12.205s-5.145-.43-5.672,4.09c-5.51,47.118-17.757,91.665-37.55,139.731-1.63,3.968-1.088,9.054,1.252,11.343A3.955,3.955,0,0,0-1556.469-627.485Z" transform="translate(1560.159 784.57)" fill="#ff9929"/>
        </g>
        <g id="Groupe_210" data-name="Groupe 210" transform="translate(339.513)">
          <path id="Tracé_354" data-name="Tracé 354" d="M-1516.11-745.046c2.046.578,4.447-.955,5.945-4.095,59.4-123.283,75.456-222.231,54.1-358.687-.931-5.964-3.848-12.347-6.443-14.151a.413.413,0,0,0-.065-.045c-2.553-1.706-3.825,1.783-2.913,7.746,20.723,134.949,5.33,234.021-52.817,356.684-1.9,4.048-1.648,9.242.591,11.552A3.562,3.562,0,0,0-1516.11-745.046Z" transform="translate(1519.574 1122.456)" fill="#fa214d"/>
        </g>
        <g id="Groupe_211" data-name="Groupe 211" transform="translate(0 660.095)">
          <path id="Tracé_355" data-name="Tracé 355" d="M-961.085,813.516c1.818-.881,2.417-4.416,1.361-8.544-27.607-106.946-24.991-228.927-3.442-345.544,21.4-117.135,61.738-228.91,106.2-327.418q4.2-9.344,8.462-18.562c1.867-4.051,2.075-8.826.458-10.71s-4.454-.152-6.331,3.9q-4.274,9.241-8.5,18.6c-44.841,99.148-85.814,211.692-107.808,330-22.138,117.777-25.3,241.317,2.163,350.157,1.186,4.75,4.174,8.469,6.611,8.33A2.1,2.1,0,0,0-961.085,813.516Z" transform="translate(988.198 -101.975)" fill="#ff9929"/>
        </g>
        <g id="Groupe_212" data-name="Groupe 212" transform="translate(187.814 99.235)">
          <path id="Tracé_356" data-name="Tracé 356" d="M-1416.149-474.974c1.562.158,3.5-1.387,4.918-4.143,39.465-77.052,79.9-149.058,110.611-220.492,30.8-71.822,51.887-143.073,54.738-227.533.143-4.1-1.5-8.864-3.624-10.605s-3.931.215-4.07,4.358c-2.728,84.284-23.459,155.577-53.873,227.337-30.326,71.386-70.333,143.239-109.6,220-1.923,3.742-2.18,8.347-.573,10.257A2.2,2.2,0,0,0-1416.149-474.974Z" transform="translate(1418.675 938.382)" fill="#ff9929"/>
        </g>
      </g>
      <g id="Groupe_449" data-name="Groupe 449" transform="translate(5331.3 -921.543)">
        <g id="Groupe_71" data-name="Groupe 71" transform="translate(-3916.786 3343.36)">
          <g id="Groupe_68" data-name="Groupe 68">
            <path id="Tracé_264" data-name="Tracé 264" d="M-4075.119,2717.253c-27.025-84.418-81.953-161.634-158.954-205.539s-176.575-50.841-254.484-8.567-127.361,136.281-108.513,222.892c22.917,105.309,129.916,171.843,170.473,271.693,24.825,61.123,22.627,129.461,18.447,195.3s-9.784,133.361,9.011,196.6,68.417,122.22,133.848,130.643c55.656,7.164,111.075-24.042,145.854-68.082s52.087-99.232,64.439-153.971a1092.016,1092.016,0,0,0,21.706-344.488C-4040.987,2873.917-4050.67,2793.623-4075.119,2717.253Z" transform="translate(4601.082 -2474.853)" fill="#f0f8fe"/>
          </g>
          <g id="Groupe_70" data-name="Groupe 70">
            <g id="Groupe_69" data-name="Groupe 69" opacity="0.71" style="mix-blend-mode: luminosity;isolation: isolate">
              <path id="Tracé_265" data-name="Tracé 265" d="M-4075.119,2717.253c-27.025-84.418-81.953-161.634-158.954-205.539s-176.575-50.841-254.484-8.567-127.361,136.281-108.513,222.892c22.917,105.309,129.916,171.843,170.473,271.693,24.825,61.123,22.627,129.461,18.447,195.3s-9.784,133.361,9.011,196.6,68.417,122.22,133.848,130.643c55.656,7.164,111.075-24.042,145.854-68.082s52.087-99.232,64.439-153.971a1092.016,1092.016,0,0,0,21.706-344.488C-4040.987,2873.917-4050.67,2793.623-4075.119,2717.253Z" transform="translate(4601.082 -2474.853)" fill="#f0f8fe"/>
            </g>
          </g>
        </g>
        <g id="Groupe_75" data-name="Groupe 75" transform="translate(-5521.719 5507.543)">
          <g id="Groupe_72" data-name="Groupe 72">
            <path id="Tracé_266" data-name="Tracé 266" d="M-5613.482,3129.376a992.059,992.059,0,0,0,28.376,426.286c14.728,50.507,36.7,103.876,83.943,131.05,40.525,23.312,91,22.306,138.356,20.58l742.957-27.078c69.509-2.534,140.755-5.417,204.931-30.877s120.813-78.681,127.857-144.324c8.055-75.081-48.975-142.943-112.969-187.789-218.8-153.333-549.245-149.231-714.954-353.869-33.792-41.729-58.187-89.861-93.257-130.632s-85.364-74.974-140.8-73.062c-59.051,2.037-109.418,45.439-134.608,96.14s-30.045,108.03-34.515,163.917C-5579.437,3059.188-5552.211,3089.9-5613.482,3129.376Z" transform="translate(5624.718 -2759.583)" fill="#f0f8fe"/>
          </g>
          <g id="Groupe_74" data-name="Groupe 74">
            <g id="Groupe_73" data-name="Groupe 73" opacity="0.71" style="mix-blend-mode: luminosity;isolation: isolate">
              <path id="Tracé_267" data-name="Tracé 267" d="M-5613.482,3129.376a992.059,992.059,0,0,0,28.376,426.286c14.728,50.507,36.7,103.876,83.943,131.05,40.525,23.312,91,22.306,138.356,20.58l742.957-27.078c69.509-2.534,140.755-5.417,204.931-30.877s120.813-78.681,127.857-144.324c8.055-75.081-48.975-142.943-112.969-187.789-218.8-153.333-549.245-149.231-714.954-353.869-33.792-41.729-58.187-89.861-93.257-130.632s-85.364-74.974-140.8-73.062c-59.051,2.037-109.418,45.439-134.608,96.14s-30.045,108.03-34.515,163.917C-5579.437,3059.188-5552.211,3089.9-5613.482,3129.376Z" transform="translate(5624.718 -2759.583)" fill="#f0f8fe"/>
            </g>
          </g>
        </g>
        <g id="Groupe_79" data-name="Groupe 79" transform="translate(-5381.683 1807.091) rotate(-1)">
          <g id="Groupe_76" data-name="Groupe 76">
            <path id="Tracé_268" data-name="Tracé 268" d="M-4963.24,1912.043c-29.207,59.694-126.256,74.352-133.9,140.367-3.48,30.073,15.657,59.1,40.552,76.332s54.9,25.048,84.09,33.074c66.975,18.417,135.039,40.467,188.717,84.551s90.442,115.129,75.633,182.992c-19.21,88.037-118.49,139.354-208.517,135.514s-172.456-48.841-251.149-92.738l-202.258-112.827c-31.643-17.652-63.438-35.4-91.888-57.84-117.613-92.75-188.373-311.334-80.968-438.751,78.059-92.6,271.495-87.709,380.778-99.178C-5086.593,1755.61-4904.168,1791.3-4963.24,1912.043Z" transform="translate(5595.86 -1762.488)" fill="#f0f8fe"/>
          </g>
          <g id="Groupe_78" data-name="Groupe 78">
            <g id="Groupe_77" data-name="Groupe 77" opacity="0.71" style="mix-blend-mode: luminosity;isolation: isolate">
              <path id="Tracé_269" data-name="Tracé 269" d="M-4963.24,1912.043c-29.207,59.694-126.256,74.352-133.9,140.367-3.48,30.073,15.657,59.1,40.552,76.332s54.9,25.048,84.09,33.074c66.975,18.417,135.039,40.467,188.717,84.551s90.442,115.129,75.633,182.992c-19.21,88.037-118.49,139.354-208.517,135.514s-172.456-48.841-251.149-92.738l-202.258-112.827c-31.643-17.652-63.438-35.4-91.888-57.84-117.613-92.75-188.373-311.334-80.968-438.751,78.059-92.6,271.495-87.709,380.778-99.178C-5086.593,1755.61-4904.168,1791.3-4963.24,1912.043Z" transform="translate(5595.86 -1762.488)" fill="#f0f8fe"/>
            </g>
          </g>
        </g>
        <g id="Groupe_67" data-name="Groupe 67" transform="translate(-4414.833 818.543)">
          <g id="Groupe_64" data-name="Groupe 64">
            <path id="Tracé_262" data-name="Tracé 262" d="M-4563.712,1367.229c143.177,44.781,266.8,148.863,335.321,282.317,30.03,58.49,50.541,123.2,93.684,172.819s119.9,79.394,175.448,44.211c54.825-34.728,61.6-110.617,62.557-175.508l11.246-762.526-561.891,23.306c-126.229,5.235-348.1-30.019-457.042,42.488-72.907,48.527-102.562,159.973-53.8,235.08C-4881.113,1348.162-4681.1,1323.209-4563.712,1367.229Z" transform="translate(4982.118 -928.543)" fill="#f0f8fe"/>
          </g>
          <g id="Groupe_66" data-name="Groupe 66">
            <g id="Groupe_65" data-name="Groupe 65" opacity="0.71" style="mix-blend-mode: luminosity;isolation: isolate">
              <path id="Tracé_263" data-name="Tracé 263" d="M-4563.712,1367.229c143.177,44.781,266.8,148.863,335.321,282.317,30.03,58.49,50.541,123.2,93.684,172.819s119.9,79.394,175.448,44.211c54.825-34.728,61.6-110.617,62.557-175.508l11.246-762.526-561.891,23.306c-126.229,5.235-348.1-30.019-457.042,42.488-72.907,48.527-102.562,159.973-53.8,235.08C-4881.113,1348.162-4681.1,1323.209-4563.712,1367.229Z" transform="translate(4982.118 -928.543)" fill="#f0f8fe"/>
            </g>
          </g>
        </g>
      </g>
      <g id="Groupe_450" data-name="Groupe 450" transform="translate(4948.315 7343.744)">
        <g id="Groupe_187" data-name="Groupe 187" transform="translate(-3668.558 -5472.793)">
          <path id="Tracé_332" data-name="Tracé 332" d="M-3703.99-4772.3c-3.936.742-5.558-1.546-3.56-5.116,76.629-138.364,222.982-281.573,346.408-419.178,125.729-137.6,225.037-269.606,264.578-385.557,1.072-2.989,4.757-3.764,8.227-1.746s5.341,6.035,4.175,8.982c-42.384,114.565-142.082,244.969-266.72,380.893-122.414,135.925-266.4,277.371-342.45,414.021A17.6,17.6,0,0,1-3703.99-4772.3Z" transform="translate(3708.407 5585.022)" fill="#fa214d"/>
        </g>
        <g id="Groupe_188" data-name="Groupe 188" transform="translate(-3374.325 -5526.601)">
          <path id="Tracé_333" data-name="Tracé 333" d="M-3535.541-5041.924c-2.99-.263-2.328-3.846,1.507-8,95.543-103.266,193.193-205.042,265.881-300.543,73.928-95.5,122.4-184.724,150.014-262.885,1.137-3.144,4.989-3.879,8.6-1.669s5.534,6.495,4.292,9.593c-29.9,77.229-79.774,165.377-153.933,259.714-72.959,94.337-169.728,194.863-264.112,296.851C-3527.071-5044.769-3532.546-5041.662-3535.541-5041.924Z" transform="translate(3537.411 5616.293)" fill="#ff9929"/>
        </g>
        <g id="Groupe_189" data-name="Groupe 189" transform="translate(-3633.125 -4931.292)">
          <path id="Tracé_334" data-name="Tracé 334" d="M-3680.437-4943.149c-5.56,1.454-8.7-1.143-6.845-5.812,39.977-101.644,124.27-207.731,217.361-313.026,4.266-4.835,11.426-8.562,15.96-8.328s4.807,4.255.63,8.987c-91.357,103.375-173.877,207.511-213.78,307.288C-3668.953-4949.473-3674.865-4944.6-3680.437-4943.149Z" transform="translate(3687.815 5270.325)" fill="#fa214d"/>
        </g>
        <g id="Groupe_190" data-name="Groupe 190" transform="translate(-3376.71 -5667.174)">
          <path id="Tracé_335" data-name="Tracé 335" d="M-3537.4-5077.809c-2.055-.4-1.816-2.8.52-5.357,107.4-116.774,201.3-230.273,253.387-334.524,54.181-104.248,66.2-199.251,61.4-279.026-.094-1.747,2.948-1.686,6.761.129s6.884,4.68,6.9,6.411c2.053,79.137-12.2,173.363-67.426,276.754-53.168,103.392-146.954,215.948-253.631,331.748C-3531.794-5079.14-3535.349-5077.41-3537.4-5077.809Z" transform="translate(3538.797 5697.988)" fill="#ff9929"/>
        </g>
        <g id="Groupe_191" data-name="Groupe 191" transform="translate(-3763.698 -4710.238)">
          <path id="Tracé_336" data-name="Tracé 336" d="M-3760.128-4928.941c-2.5.825-4.139-3.219-3.385-9.05,7.99-62.6,36.369-127,77.984-192.2,3.868-6.075,9.182-11.294,11.694-11.646s1.327,4.253-2.517,10.271c-41.355,64.695-69.687,128.589-78,190.689C-3755.133-4935.1-3757.615-4929.765-3760.128-4928.941Z" transform="translate(3763.698 5141.857)" fill="#fa214d"/>
        </g>
        <g id="Groupe_192" data-name="Groupe 192" transform="translate(-3394.335 -5422.817)">
          <path id="Tracé_337" data-name="Tracé 337" d="M-3545.858-5105.057c-4.367-.47-4.219-4.846.329-9.769,145.232-154.445,280.077-305.048,341.856-436.979,2.042-4.205,7.251-5.431,11.647-2.765s6.22,8.145,4.056,12.263c-65.213,129.664-199.156,277.643-341.9,429.371C-3534.335-5108.117-3541.492-5104.587-3545.858-5105.057Z" transform="translate(3549.04 5555.979)" fill="#fa214d"/>
        </g>
        <g id="Groupe_193" data-name="Groupe 193" transform="translate(-3541.23 -4931.777)">
          <path id="Tracé_338" data-name="Tracé 338" d="M-3629.9-5144.633c-5.1.348-6.024-3.381-2.011-8.33,29.508-36.382,61.51-72.846,94.425-109.2,4.478-4.945,11.8-8.717,16.33-8.426s4.629,4.446.251,9.288c-32.328,35.715-63.73,71.533-92.7,107.271C-3617.537-5149.186-3624.8-5144.979-3629.9-5144.633Z" transform="translate(3634.409 5270.605)" fill="#ff9929"/>
        </g>
        <g id="Groupe_194" data-name="Groupe 194" transform="translate(-3657.213 -4533.636)">
          <path id="Tracé_339" data-name="Tracé 339" d="M-3660.135-4857.977a4.263,4.263,0,0,1-6.045-1.287c-31.707-55.278-41.61-113.649-32.268-174,.342-2.25,2.88-4.785,5.63-5.657s4.666.227,4.312,2.451c-9.625,59.792-.4,117.617,30.179,172.372A4.7,4.7,0,0,1-3660.135-4857.977Z" transform="translate(3701.813 5039.223)" fill="#fa214d"/>
        </g>
        <g id="Groupe_195" data-name="Groupe 195" transform="translate(-3032.765 -5740.744)">
          <path id="Tracé_340" data-name="Tracé 340" d="M-3333.214-5443.088c-4.537-2.755-6.836-8.327-5.135-12.414,49.61-113.943,46.129-212.047,63.1-283.917.637-2.579,8.693-1.271,17.742,2.868s15.461,9.513,14.588,12.042c-22.58,70.7-25.676,167.149-78.695,279.139C-3323.467-5441.364-3328.668-5440.332-3333.214-5443.088Z" transform="translate(3338.91 5740.744)" fill="#fa214d"/>
        </g>
        <g id="Groupe_196" data-name="Groupe 196" transform="translate(-3132.635 -5543.11)">
          <path id="Tracé_341" data-name="Tracé 341" d="M-3393.63-5533.546c-3.035-1.653-4.172-6.934-2.643-11.757a459.612,459.612,0,0,0,17.445-75.126c.642-4.561,4.076-6.669,7.748-4.746s6.057,7.106,5.264,11.613a480.083,480.083,0,0,1-19.26,74.36C-3386.725-5534.438-3390.6-5531.89-3393.63-5533.546Z" transform="translate(3396.95 5625.887)" fill="#fa214d"/>
        </g>
        <g id="Groupe_197" data-name="Groupe 197" transform="translate(-3725.94 -4561.241)">
          <path id="Tracé_342" data-name="Tracé 342" d="M-2987-4456.156c5.41,4.485,1.96,6.021-7.908,3.378-245.379-65.687-462.025-152.781-591.692-253.722-132.349-100.937-177.184-215.722-145.33-336.787,1.215-4.871,6.812-10.051,12.342-11.556s8.892,1.149,7.634,5.919c-32.462,118.956,8.745,231.72,134.1,330.864,122.8,99.146,329.228,184.665,564.238,249.135C-3004.243-4466.34-2992.414-4460.645-2987-4456.156Z" transform="translate(3741.754 5055.265)" fill="#fa214d"/>
        </g>
        <g id="Groupe_198" data-name="Groupe 198" transform="translate(-3760.829 -4483.347)">
          <path id="Tracé_343" data-name="Tracé 343" d="M-3372.543-4604.005c.625,2.857-7.1,1.545-17.121-2.993-245.047-109.869-374.917-244.013-372.329-389.33-.029-6,3.443-12,7.478-13.379s7.057,2.312,7,8.217c-4.22,143.451,120.025,275.854,356.374,384.272C-3381.554-4612.752-3373.159-4606.864-3372.543-4604.005Z" transform="translate(3762.031 5009.997)" fill="#ff9929"/>
        </g>
        <g id="Groupe_199" data-name="Groupe 199" transform="translate(-3695.124 -4749.914)">
          <path id="Tracé_344" data-name="Tracé 344" d="M-3530.563-4610.355c-1.037,1.94-4.479,1.757-7.652-.418-113.642-77.5-175.536-164.642-184.26-257.384-9.749-92.744,33.267-191.091,104.323-291.008,1.986-2.8,6.074-5.36,9.1-5.709s3.858,1.617,1.9,4.388c-70.38,98.9-113.257,196.241-104.586,288.029,7.673,91.788,67.283,178.022,177.506,254.711C-3531.168-4615.6-3529.52-4612.294-3530.563-4610.355Z" transform="translate(3723.846 5164.916)" fill="#ff9929"/>
        </g>
        <g id="Groupe_200" data-name="Groupe 200" transform="translate(-3432.781 -4158.824)">
          <path id="Tracé_345" data-name="Tracé 345" d="M-3210.827-4672.656c1.92,2.189-.077,2.875-4.5,1.529-133.083-40.663-254.289-88.674-351.021-142.407-3.219-1.783-5.441-4.7-4.975-6.5s3.383-1.826,6.5-.062c94.292,53.235,212.624,100.794,342.755,141.066C-3217.768-4677.691-3212.744-4674.846-3210.827-4672.656Z" transform="translate(3571.383 4821.397)" fill="#ff9929"/>
        </g>
      </g>
      <g id="Groupe_451" data-name="Groupe 451" transform="matrix(0.966, 0.259, -0.259, 0.966, 1904.857, 5730.396)">
        <g id="Groupe_157" data-name="Groupe 157" transform="translate(-3080.625 -4899.776)">
          <path id="Tracé_304" data-name="Tracé 304" d="M-2576.29-4325.986a20.67,20.67,0,0,1-13.964-5.374c-255.567-250.759-557.23-511.967-506.68-769.978.578-3.314,2.855-5.768,5.011-5.486s3.409,3.194,2.878,6.5c-47.542,257.606,256.334,518.15,515.006,768C-2570.774-4329.094-2571.781-4326.261-2576.29-4325.986Z" transform="translate(3102.532 5106.846)" fill="#fa214d"/>
        </g>
        <g id="Groupe_158" data-name="Groupe 158" transform="translate(-3036.349 -5007.121)">
          <path id="Tracé_305" data-name="Tracé 305" d="M-2806.863-4538.477c-3.449.027-9.52-3.189-13.51-7.187-201.487-198.718-328.376-403.452-225.81-602.971,2.016-4,5.124-6.994,6.824-6.687s1.392,3.8-.569,7.794c-100.293,199.278,28.53,403.613,231.959,601.792C-2803.928-4541.752-2803.41-4538.5-2806.863-4538.477Z" transform="translate(3082.529 5155.343)" fill="#ff9929"/>
        </g>
        <g id="Groupe_159" data-name="Groupe 159" transform="translate(-2747.138 -4368.358)">
          <path id="Tracé_306" data-name="Tracé 306" d="M-2613.052-4557.322c-6.624.474-15.58-2.742-20.064-7.186-98.1-96.833-213.265-194.711-315.5-293.9-4.681-4.549-4.247-8.288.945-8.349s13.234,3.562,18,8.088c103.7,98.772,220.391,196.185,320.342,292.5C-2604.742-4561.754-2606.429-4557.794-2613.052-4557.322Z" transform="translate(2951.865 4866.752)" fill="#ff9929"/>
        </g>
        <g id="Groupe_160" data-name="Groupe 160" transform="translate(-3096.242 -5114.135)">
          <path id="Tracé_307" data-name="Tracé 307" d="M-2939.208-4558.3c-2.4-.023-5.892-1.933-7.784-4.264-176.14-212.79-239.739-430.227-34.521-637.452,2.208-2.267,4.863-3.9,5.879-3.647s.038,2.289-2.151,4.553c-203.415,207.081-138.191,424.242,39.447,636.637C-2936.421-4560.15-2936.809-4558.283-2939.208-4558.3Z" transform="translate(3109.589 5203.692)" fill="#ff9929"/>
        </g>
        <g id="Groupe_161" data-name="Groupe 161" transform="translate(-2657.089 -4167.729)">
          <path id="Tracé_308" data-name="Tracé 308" d="M-2739.649-4584.988c-3.32.28-9.209-3.813-13.289-9.137-43.812-57.164-96.9-114.443-152.651-172.011-5.186-5.36-7.121-9.827-4.285-9.971s9.407,4.076,14.644,9.421c56.207,57.436,109.8,114.573,154.185,171.584C-2736.908-4589.793-2736.339-4585.267-2739.649-4584.988Z" transform="translate(2911.181 4776.11)" fill="#ff9929"/>
        </g>
        <g id="Groupe_162" data-name="Groupe 162" transform="translate(-3062.939 -4858.769)">
          <path id="Tracé_309" data-name="Tracé 309" d="M-2846.6-4635.128c-5.052.022-12.687-3.685-17.007-8.287-136.5-144.47-234.537-291.419-230.835-437.159.1-4.636,2.891-8.089,6.078-7.716s5.658,4.42,5.643,9.043c-1.4,145.4,98.692,291.889,237.273,435.791C-2841.052-4638.879-2841.541-4635.151-2846.6-4635.128Z" transform="translate(3094.542 5088.318)" fill="#fa214d"/>
        </g>
        <g id="Groupe_163" data-name="Groupe 163" transform="translate(-2782.39 -4367.931)">
          <path id="Tracé_310" data-name="Tracé 310" d="M-2841.736-4749.455c-5.688.206-14.208-3.313-18.993-7.862-35.321-33.482-70.339-67.094-103.966-100.83-4.561-4.584-4.013-8.352,1.176-8.412s13.137,3.589,17.775,8.15c34.122,33.6,69.64,67.062,105.491,100.393C-2835.382-4753.492-2836.03-4749.662-2841.736-4749.455Z" transform="translate(2967.792 4866.56)" fill="#fa214d"/>
        </g>
        <g id="Groupe_164" data-name="Groupe 164" transform="translate(-2344.379 -3988.685)">
          <path id="Tracé_311" data-name="Tracé 311" d="M-2641.422-4510.044c-4.163.451-8.2-.971-9.068-3.179-23.367-59.178-65.8-118.184-118.479-177.439-1.961-2.206-.726-4.233,2.777-4.521s7.965,1.263,9.958,3.459c53.325,59.083,96.482,117.9,120.728,176.885C-2634.6-4512.641-2637.261-4510.5-2641.422-4510.044Z" transform="translate(2769.9 4695.218)" fill="#fa214d"/>
        </g>
        <g id="Groupe_165" data-name="Groupe 165" transform="translate(-3059.438 -5277.499)">
          <path id="Tracé_312" data-name="Tracé 312" d="M-3088.376-4883.167c-3.1-.386-5.156-4.452-4.443-9.075,19.062-129.086,121.81-256.629,324.635-378.306,7.251-4.359,14.254-7.437,15.469-6.889s-3.727,4.516-10.892,8.87c-200.615,121.588-301.136,248.944-318.146,377.746C-3082.38-4886.208-3085.276-4882.779-3088.376-4883.167Z" transform="translate(3092.96 5277.5)" fill="#fa214d"/>
        </g>
        <g id="Groupe_166" data-name="Groupe 166" transform="translate(-3120.587 -4942.241)">
          <path id="Tracé_313" data-name="Tracé 313" d="M-3117.365-5029.079c-2.107-.233-3.59-4.443-3.143-9.4a335.461,335.461,0,0,1,16.857-79.121c1.685-4.921,4.666-8.691,6.494-8.419s1.862,4.475.239,9.392a333.823,333.823,0,0,0-16.047,79.006C-3113.351-5032.671-3115.252-5028.847-3117.365-5029.079Z" transform="translate(3120.587 5126.03)" fill="#fa214d"/>
        </g>
        <g id="Groupe_167" data-name="Groupe 167" transform="translate(-2760.274 -4027.163)">
          <path id="Tracé_314" data-name="Tracé 314" d="M-2945.3-4006.177c-14.573,1.977-16.634-.509-4.978-5.525,287.829-124.585,402.524-240.688,426.068-354.383,22.747-113.6-45.658-224.787-142.407-337.357-3.912-4.516-1.649-8.594,5.123-9.107s15.572,2.709,19.593,7.193c99.072,111.945,170.276,222.43,151.69,335.2-19.36,112.861-128.513,228.006-408.045,351.405C-2909.513-4013.788-2930.738-4008.151-2945.3-4006.177Z" transform="translate(2957.799 4712.602)" fill="#ff9929"/>
        </g>
        <g id="Groupe_168" data-name="Groupe 168" transform="translate(-2471.782 -3961.906)">
          <path id="Tracé_315" data-name="Tracé 315" d="M-2819.473-4254.667c-8.432,1.091-10.416-2.729-4.856-8.515,133.7-140.166,96.26-274.128,2.671-409-3.886-5.559-2.751-10.441,2.674-10.9s13.149,3.644,17.151,9.173c95.916,134.271,136.334,267.55,7.577,406.854C-2799.579-4261.311-2811.048-4255.758-2819.473-4254.667Z" transform="translate(2827.459 4683.12)" fill="#fa214d"/>
        </g>
        <g id="Groupe_169" data-name="Groupe 169" transform="translate(-2605.334 -4199.108)">
          <path id="Tracé_316" data-name="Tracé 316" d="M-2556.711-4233.731c-5.619.692-9.389-.851-8.477-3.443,62.542-184.541-127.38-363.46-320.853-548.143-2.74-2.585-2.218-4.805,1.162-4.961s8.367,1.813,11.131,4.388c195.234,184.172,387.2,362.486,328.8,546.228C-2545.794-4237.085-2551.089-4234.424-2556.711-4233.731Z" transform="translate(2887.798 4790.286)" fill="#fa214d"/>
        </g>
        <g id="Groupe_170" data-name="Groupe 170" transform="translate(-2582.109 -3592.267)">
          <path id="Tracé_317" data-name="Tracé 317" d="M-2870.935-4295.353c-6.864.928-8.4-.293-3.539-2.725,146.278-73.246,232.713-143.565,278.6-212.531,1.521-2.29,6.939-4.678,12.143-5.337s8.28.649,6.82,2.924c-44.366,68.7-128.964,138.712-272.925,211.613C-2854.589-4299-2864.094-4296.28-2870.935-4295.353Z" transform="translate(2877.305 4516.118)" fill="#fa214d"/>
        </g>
      </g>
    </g>
  </g>
</svg>
