<svg xmlns="http://www.w3.org/2000/svg" xmlns:xlink="http://www.w3.org/1999/xlink" width="1920" height="2848" viewBox="0 0 1920 2848">
  <defs>
    <clipPath id="clip-path">
      <rect id="Rectangle_1562" data-name="Rectangle 1562" width="1920" height="2848" fill="#fff" stroke="#707070" stroke-width="1"/>
    </clipPath>
  </defs>
  <g id="Groupe_de_masques_39" data-name="Groupe de masques 39" clip-path="url(#clip-path)">
    <g id="Groupe_448" data-name="Groupe 448">
      <g id="Groupe_228" data-name="Groupe 228" transform="translate(-85.976 242.325) rotate(-9)">
        <g id="Groupe_36" data-name="Groupe 36">
          <g id="Groupe_35" data-name="Groupe 35">
            <g id="Groupe_21" data-name="Groupe 21" transform="translate(37.226 159.818)">
              <path id="Tracé_233" data-name="Tracé 233" d="M-1833.973,1832.8c-1.541.444-2.173-.924-1.393-3.051,29.983-82.53,87.243-167.943,135.534-250.018,49.194-82.075,88.047-160.806,103.519-229.965.422-1.783,1.863-2.247,3.219-1.041a5.875,5.875,0,0,1,1.632,5.357c-16.582,68.331-55.59,146.11-104.356,227.183-47.9,81.073-104.229,165.436-133.986,246.941C-1830.575,1830.3-1832.434,1832.36-1833.973,1832.8Z" transform="translate(1835.7 -1348.05)" fill="#ffc900"/>
            </g>
            <g id="Groupe_22" data-name="Groupe 22" transform="translate(152.347 127.724)">
              <path id="Tracé_234" data-name="Tracé 234" d="M-1663.972,1659.36c-1.172-.156-.906-2.295.589-4.77,37.38-61.593,75.59-122.3,104.027-179.257,28.925-56.963,47.89-110.175,58.694-156.8.438-1.877,1.953-2.313,3.364-.994a6.386,6.386,0,0,1,1.679,5.722c-11.7,46.065-31.214,98.637-60.227,154.906-28.544,56.266-66.409,116.226-103.336,177.056C-1660.657,1657.666-1662.8,1659.516-1663.972,1659.36Z" transform="translate(1664.703 -1316.78)" fill="#0a5961"/>
            </g>
            <g id="Groupe_23" data-name="Groupe 23" transform="translate(50.323 483.641)">
              <path id="Tracé_235" data-name="Tracé 235" d="M-1813.376,1857.046c-2.186.822-3.394-.744-2.651-3.516,16.129-60.328,49.618-122.98,86.544-185.1,1.693-2.853,4.511-5.025,6.283-4.851s1.857,2.579.2,5.366c-36.24,60.982-69.023,122.484-85.115,181.7C-1808.853,1853.356-1811.191,1856.22-1813.376,1857.046Z" transform="translate(1816.246 -1663.573)" fill="#3992a0"/>
            </g>
            <g id="Groupe_24" data-name="Groupe 24" transform="translate(151.413 43.879)">
              <path id="Tracé_236" data-name="Tracé 236" d="M-1665.543,1604.991c-.8-.238-.711-1.672.2-3.2,42.02-69.649,78.759-137.348,99.137-199.526a455.226,455.226,0,0,0,24.026-166.423c-.038-1.046,1.156-1.006,2.646.077s2.7,2.792,2.7,3.823a470.157,470.157,0,0,1-26.38,165.069c-20.8,61.67-57.5,128.8-99.235,197.87C-1663.352,1604.194-1664.739,1605.225-1665.543,1604.991Z" transform="translate(1666.091 -1235.084)" fill="#001c3a"/>
            </g>
            <g id="Groupe_25" data-name="Groupe 25" transform="translate(0 614.643)">
              <path id="Tracé_237" data-name="Tracé 237" d="M-1889.6,1918.21c-.982.495-1.62-1.923-1.324-5.4,3.125-37.332,14.232-75.745,30.512-114.638,1.513-3.621,3.592-6.738,4.575-6.945s.517,2.536-.985,6.126c-16.18,38.589-27.265,76.695-30.516,113.736C-1887.643,1914.537-1888.613,1917.722-1889.6,1918.21Z" transform="translate(1890.994 -1791.217)" fill="#001c3a"/>
            </g>
            <g id="Groupe_26" data-name="Groupe 26" transform="translate(144.517 189.626)">
              <path id="Tracé_238" data-name="Tracé 238" d="M-1675.089,1646.046c-1.707-.284-1.651-2.889.129-5.826,56.822-92.117,109.585-181.943,133.753-260.635.8-2.509,2.834-3.24,4.557-1.649a7.428,7.428,0,0,1,1.587,7.314c-25.516,77.338-77.921,165.6-133.771,256.1C-1670.583,1644.22-1673.379,1646.326-1675.089,1646.046Z" transform="translate(1676.333 -1377.095)" fill="#ff9929"/>
            </g>
            <g id="Groupe_27" data-name="Groupe 27" transform="translate(87.042 482.507)">
              <path id="Tracé_239" data-name="Tracé 239" d="M-1759.938,1737.6c-1.994.209-2.361-2.016-.788-4.968,11.547-21.7,24.066-43.451,36.944-65.132,1.753-2.952,4.619-5.2,6.39-5.027s1.812,2.651.1,5.54c-12.651,21.3-24.932,42.667-36.27,63.981C-1755.1,1734.884-1757.944,1737.4-1759.938,1737.6Z" transform="translate(1761.705 -1662.467)" fill="#fa214d"/>
            </g>
            <g id="Groupe_28" data-name="Groupe 28" transform="translate(41.663 719.977)">
              <path id="Tracé_240" data-name="Tracé 240" d="M-1812.8,2001.955c-.837.8-1.9.461-2.364-.768-12.406-32.966-16.282-67.786-12.625-103.783a4.6,4.6,0,0,1,2.2-3.375c1.075-.519,1.827.136,1.686,1.462-3.767,35.664-.155,70.154,11.808,102.811A3.7,3.7,0,0,1-1812.8,2001.955Z" transform="translate(1829.11 -1893.85)" fill="#ff9929"/>
            </g>
            <g id="Groupe_29" data-name="Groupe 29" transform="translate(285.984)">
              <path id="Tracé_241" data-name="Tracé 241" d="M-1463.974,1369.866a8.125,8.125,0,0,1-2.009-7.4c19.408-67.962,18.047-126.477,24.686-169.342.248-1.539,3.4-.76,6.942,1.711s6.048,5.671,5.708,7.182c-8.837,42.169-10.043,99.695-30.79,166.492C-1460.162,1370.894-1462.2,1371.51-1463.974,1369.866Z" transform="translate(1466.202 -1192.33)" fill="#3992a0"/>
            </g>
            <g id="Groupe_30" data-name="Groupe 30" transform="translate(246.91 117.878)">
              <path id="Tracé_242" data-name="Tracé 242" d="M-1522.945,1362.264c-1.19-.985-1.629-4.139-1.033-7.012a398.754,398.754,0,0,0,6.825-44.811c.25-2.72,1.591-3.98,3.031-2.832s2.372,4.241,2.06,6.928a414.052,414.052,0,0,1-7.535,44.352C-1520.242,1361.729-1521.757,1363.253-1522.945,1362.264Z" transform="translate(1524.243 -1307.185)" fill="#fa214d"/>
            </g>
            <g id="Groupe_31" data-name="Groupe 31" transform="translate(14.775 703.512)">
              <path id="Tracé_243" data-name="Tracé 243" d="M-1573.747,2235.145c2.123,2.684.768,3.594-3.094,2.016-96.008-39.178-180.77-91.124-231.5-151.33-51.784-60.2-69.322-128.667-56.862-200.877.477-2.9,2.665-5.994,4.83-6.894s3.477.685,2.987,3.532c-12.7,70.949,3.42,138.21,52.464,197.342,48.047,59.136,128.813,110.145,220.761,148.6A30.618,30.618,0,0,1-1573.747,2235.145Z" transform="translate(1869.048 -1877.808)" fill="#001c3a"/>
            </g>
            <g id="Groupe_32" data-name="Groupe 32" transform="translate(1.124 749.973)">
              <path id="Tracé_244" data-name="Tracé 244" d="M-1736.938,2165.229c.244,1.7-2.783.925-6.7-1.784-95.878-65.532-146.687-145.54-145.674-232.215-.011-3.579,1.349-7.157,2.925-7.98s2.761,1.375,2.738,4.9c-1.651,85.56,46.96,164.534,139.432,229.2C-1740.461,2160.014-1737.179,2163.527-1736.938,2165.229Z" transform="translate(1889.325 -1923.077)" fill="#fa214d"/>
            </g>
            <g id="Groupe_33" data-name="Groupe 33" transform="translate(26.832 590.978)">
              <path id="Tracé_245" data-name="Tracé 245" d="M-1775.517,2098.925c-.407,1.156-1.752,1.048-2.994-.25-44.46-46.224-68.679-98.2-72.091-153.515-3.815-55.319,13.016-113.976,40.816-173.572.777-1.671,2.38-3.2,3.56-3.406s1.51.964.743,2.617c-27.535,58.988-44.314,117.049-40.921,171.793,3,54.748,26.323,106.181,69.45,151.921C-1775.76,2095.8-1775.109,2097.768-1775.517,2098.925Z" transform="translate(1851.139 -1768.158)" fill="#0a5961"/>
            </g>
            <g id="Groupe_34" data-name="Groupe 34" transform="translate(129.474 943.533)">
              <path id="Tracé_246" data-name="Tracé 246" d="M-1557.611,2200.393c.75,1.308-.03,1.717-1.759.911-52.069-24.252-99.49-52.884-137.339-84.937-1.258-1.061-2.129-2.8-1.945-3.875s1.319-1.087,2.543-.036c36.893,31.748,83.188,60.116,134.1,84.138A11.444,11.444,0,0,1-1557.611,2200.393Z" transform="translate(1698.678 -2111.677)" fill="#ffc900"/>
            </g>
          </g>
        </g>
      </g>
      <g id="Groupe_85" data-name="Groupe 85" transform="translate(-6810)">
        <g id="Groupe_75" data-name="Groupe 75" transform="translate(6630.581 1802)">
          <g id="Groupe_72" data-name="Groupe 72">
            <path id="Tracé_266" data-name="Tracé 266" d="M-5613.482,3129.376a992.059,992.059,0,0,0,28.376,426.286c14.728,50.507,36.7,103.876,83.943,131.05,40.525,23.312,91,22.306,138.356,20.58l742.957-27.078c69.509-2.534,140.755-5.417,204.931-30.877s120.813-78.681,127.857-144.324c8.055-75.081-48.975-142.943-112.969-187.789-218.8-153.333-549.245-149.231-714.954-353.869-33.792-41.729-58.187-89.861-93.257-130.632s-85.364-74.974-140.8-73.062c-59.051,2.037-109.418,45.439-134.608,96.14s-30.045,108.03-34.515,163.917C-5579.437,3059.188-5552.211,3089.9-5613.482,3129.376Z" transform="translate(5624.718 -2759.583)" fill="#f0f8fe"/>
          </g>
          <g id="Groupe_74" data-name="Groupe 74">
            <g id="Groupe_73" data-name="Groupe 73" opacity="0.71" style="mix-blend-mode: luminosity;isolation: isolate">
              <path id="Tracé_267" data-name="Tracé 267" d="M-5613.482,3129.376a992.059,992.059,0,0,0,28.376,426.286c14.728,50.507,36.7,103.876,83.943,131.05,40.525,23.312,91,22.306,138.356,20.58l742.957-27.078c69.509-2.534,140.755-5.417,204.931-30.877s120.813-78.681,127.857-144.324c8.055-75.081-48.975-142.943-112.969-187.789-218.8-153.333-549.245-149.231-714.954-353.869-33.792-41.729-58.187-89.861-93.257-130.632s-85.364-74.974-140.8-73.062c-59.051,2.037-109.418,45.439-134.608,96.14s-30.045,108.03-34.515,163.917C-5579.437,3059.188-5552.211,3089.9-5613.482,3129.376Z" transform="translate(5624.718 -2759.583)" fill="#f0f8fe"/>
            </g>
          </g>
        </g>
        <g id="Groupe_67" data-name="Groupe 67" transform="translate(7726.466 -103)">
          <g id="Groupe_64" data-name="Groupe 64">
            <path id="Tracé_262" data-name="Tracé 262" d="M-4563.712,1367.229c143.177,44.781,266.8,148.863,335.321,282.317,30.03,58.49,50.541,123.2,93.684,172.819s119.9,79.394,175.448,44.211c54.825-34.728,61.6-110.617,62.557-175.508l11.246-762.526-561.891,23.306c-126.229,5.235-348.1-30.019-457.042,42.488-72.907,48.527-102.562,159.973-53.8,235.08C-4881.113,1348.162-4681.1,1323.209-4563.712,1367.229Z" transform="translate(4982.118 -928.543)" fill="#f0f8fe"/>
          </g>
          <g id="Groupe_66" data-name="Groupe 66">
            <g id="Groupe_65" data-name="Groupe 65" opacity="0.71" style="mix-blend-mode: luminosity;isolation: isolate">
              <path id="Tracé_263" data-name="Tracé 263" d="M-4563.712,1367.229c143.177,44.781,266.8,148.863,335.321,282.317,30.03,58.49,50.541,123.2,93.684,172.819s119.9,79.394,175.448,44.211c54.825-34.728,61.6-110.617,62.557-175.508l11.246-762.526-561.891,23.306c-126.229,5.235-348.1-30.019-457.042,42.488-72.907,48.527-102.562,159.973-53.8,235.08C-4881.113,1348.162-4681.1,1323.209-4563.712,1367.229Z" transform="translate(4982.118 -928.543)" fill="#f0f8fe"/>
            </g>
          </g>
        </g>
      </g>
      <g id="Groupe_37" data-name="Groupe 37" transform="translate(1438 607)">
        <g id="Groupe_36-2" data-name="Groupe 36">
          <g id="Groupe_35-2" data-name="Groupe 35">
            <g id="Groupe_21-2" data-name="Groupe 21" transform="translate(66.133 540.163)">
              <path id="Tracé_233-2" data-name="Tracé 233" d="M-1832.631,1348.158c-2.737-.573-3.861,1.191-2.474,3.933,53.265,106.4,154.989,216.511,240.779,322.322,87.394,105.81,156.417,207.31,183.9,296.469.75,2.3,3.309,2.9,5.718,1.342s3.71-4.642,2.9-6.907c-29.459-88.091-98.757-188.364-185.39-292.882-85.089-104.519-185.166-213.279-238.029-318.355A12.35,12.35,0,0,0-1832.631,1348.158Z" transform="translate(1835.7 -1348.05)" fill="#ffc900"/>
            </g>
            <g id="Groupe_22-2" data-name="Groupe 22" transform="translate(270.648 764.912)">
              <path id="Tracé_234-2" data-name="Tracé 234" d="M-1663.4,1316.791c-2.083.2-1.609,2.958,1.046,6.149,66.407,79.405,134.287,157.663,184.807,231.1,51.387,73.437,85.077,142.037,104.272,202.143.779,2.42,3.469,2.982,5.977,1.282s3.842-4.993,2.983-7.376c-20.789-59.387-55.453-127.163-106.994-199.7-50.71-72.538-117.976-149.838-183.578-228.26C-1657.515,1318.976-1661.324,1316.591-1663.4,1316.791Z" transform="translate(1664.703 -1316.78)" fill="#0a5961"/>
            </g>
            <g id="Groupe_23-2" data-name="Groupe 23" transform="translate(89.4 498.025)">
              <path id="Tracé_235-2" data-name="Tracé 235" d="M-1811.147,1663.855c-3.884-1.06-6.03.959-4.709,4.533,28.654,77.775,88.148,158.545,153.747,238.624,3.008,3.678,8.013,6.478,11.162,6.254s3.3-3.325.361-6.918c-64.382-78.618-122.62-157.905-151.208-234.245C-1803.112,1668.613-1807.265,1664.92-1811.147,1663.855Z" transform="translate(1816.246 -1663.573)" fill="#3992a0"/>
            </g>
            <g id="Groupe_24-2" data-name="Groupe 24" transform="translate(268.988 837.745)">
              <path id="Tracé_236-2" data-name="Tracé 236" d="M-1665.119,1235.127c-1.427.307-1.263,2.155.363,4.122,74.649,89.791,139.917,177.068,176.119,257.228,37.666,80.162,46.012,153.208,42.683,214.552-.067,1.348,2.054,1.3,4.7-.1s4.789-3.6,4.8-4.929c1.428-60.85-8.485-133.306-46.865-212.806-36.959-79.505-102.142-166.05-176.294-255.093C-1661.224,1236.155-1663.689,1234.825-1665.119,1235.127Z" transform="translate(1666.09 -1235.084)" fill="#001c3a"/>
            </g>
            <g id="Groupe_25-2" data-name="Groupe 25" transform="translate(0 415.042)">
              <path id="Tracé_237-2" data-name="Tracé 237" d="M-1888.512,1791.3c-1.745-.638-2.879,2.479-2.353,6.959,5.552,48.128,25.284,97.65,54.206,147.791,2.687,4.668,6.381,8.687,8.128,8.954s.918-3.269-1.75-7.9c-28.744-49.749-48.437-98.875-54.213-146.628C-1885.04,1796.035-1886.765,1791.929-1888.512,1791.3Z" transform="translate(1890.994 -1791.217)" fill="#001c3a"/>
            </g>
            <g id="Groupe_26-2" data-name="Groupe 26" transform="translate(256.738 780.011)">
              <path id="Tracé_238-2" data-name="Tracé 238" d="M-1674.122,1377.127c-3.033.366-2.934,3.724.228,7.511,100.946,118.757,194.681,234.56,237.615,336.009,1.422,3.235,5.035,4.177,8.1,2.126a7.756,7.756,0,0,0,2.819-9.43c-45.33-99.7-138.428-213.489-237.647-330.158C-1666.118,1379.481-1671.085,1376.766-1674.122,1377.127Z" transform="translate(1676.333 -1377.095)" fill="#ff9929"/>
            </g>
            <g id="Groupe_27-2" data-name="Groupe 27" transform="translate(154.632 652.311)">
              <path id="Tracé_239-2" data-name="Tracé 239" d="M-1758.567,1662.485c-3.542-.269-4.195,2.6-1.4,6.405,20.513,27.977,42.754,56.016,65.632,83.967,3.115,3.805,8.206,6.707,11.352,6.481s3.219-3.418.173-7.142c-22.475-27.461-44.292-55.006-64.434-82.484C-1749.974,1665.991-1755.024,1662.749-1758.567,1662.485Z" transform="translate(1761.705 -1662.468)" fill="#fa214d"/>
            </g>
            <g id="Groupe_28-2" data-name="Groupe 28" transform="translate(74.015 303.121)">
              <path id="Tracé_240-2" data-name="Tracé 240" d="M-1800.14,1894.411a2.8,2.8,0,0,0-4.2.99c-22.039,42.5-28.926,87.389-22.429,133.8a6.2,6.2,0,0,0,3.914,4.352c1.91.669,3.246-.175,3-1.885-6.691-45.978-.275-90.442,20.977-132.544A3.829,3.829,0,0,0-1800.14,1894.411Z" transform="translate(1829.11 -1893.85)" fill="#ff9929"/>
            </g>
            <g id="Groupe_29-2" data-name="Groupe 29" transform="translate(508.057 1141.17)">
              <path id="Tracé_241-2" data-name="Tracé 241" d="M-1462.244,1193.518c-3.16,2.118-4.748,6.4-3.569,9.545,34.479,87.616,32.06,163.053,43.855,218.314.441,1.983,6.04.98,12.332-2.206s10.745-7.311,10.14-9.259c-15.7-54.364-17.841-128.526-54.7-214.64C-1455.472,1192.192-1459.084,1191.4-1462.244,1193.518Z" transform="translate(1466.202 -1192.329)" fill="#3992a0"/>
            </g>
            <g id="Groupe_30-2" data-name="Groupe 30" transform="translate(438.64 1147.875)">
              <path id="Tracé_242-2" data-name="Tracé 242" d="M-1521.937,1307.574c-2.113,1.27-2.894,5.336-1.836,9.039a384.7,384.7,0,0,1,12.125,57.77c.445,3.506,2.826,5.131,5.385,3.651s4.213-5.467,3.66-8.931a402.291,402.291,0,0,0-13.387-57.178C-1517.135,1308.264-1519.826,1306.3-1521.937,1307.574Z" transform="translate(1524.243 -1307.185)" fill="#fa214d"/>
            </g>
            <g id="Groupe_31-2" data-name="Groupe 31" transform="translate(26.248)">
              <path id="Tracé_243-2" data-name="Tracé 243" d="M-1344.44,1881.406c3.771-3.46,1.365-4.633-5.5-2.6-170.56,50.509-321.142,117.477-411.266,195.094-92,77.612-123.151,165.877-101.017,258.97.847,3.744,4.734,7.728,8.581,8.887s6.177-.883,5.306-4.553c-22.563-91.467,6.075-178.179,93.2-254.413,85.356-76.238,228.838-142,392.187-191.568C-1356.425,1889.234-1348.2,1884.858-1344.44,1881.406Z" transform="translate(1869.048 -1877.808)" fill="#001c3a"/>
            </g>
            <g id="Groupe_32-2" data-name="Groupe 32" transform="translate(1.997 91.037)">
              <path id="Tracé_244-2" data-name="Tracé 244" d="M-1618.606,1924.239c.434-2.2-4.944-1.192-11.9,2.3-170.329,84.483-260.594,187.629-258.794,299.369-.02,4.614,2.4,9.227,5.2,10.288s4.906-1.772,4.864-6.319c-2.934-110.3,83.426-212.115,247.7-295.481C-1624.865,1930.961-1619.035,1926.432-1618.606,1924.239Z" transform="translate(1889.325 -1923.078)" fill="#fa214d"/>
            </g>
            <g id="Groupe_33-2" data-name="Groupe 33" transform="translate(47.667 181.899)">
              <path id="Tracé_245-2" data-name="Tracé 245" d="M-1716.8,1769.19c-.723-1.491-3.112-1.351-5.32.322-78.984,59.592-122.009,126.6-128.071,197.91-6.778,71.317,23.123,146.937,72.51,223.768a10.424,10.424,0,0,0,6.325,4.391c2.1.269,2.682-1.243,1.319-3.375-48.916-76.047-78.724-150.9-72.7-221.475,5.332-70.581,46.764-136.888,123.379-195.856C-1717.226,1773.222-1716.07,1770.681-1716.8,1769.19Z" transform="translate(1851.139 -1768.158)" fill="#0a5961"/>
            </g>
            <g id="Groupe_34-2" data-name="Groupe 34" transform="translate(230.013 38.762)">
              <path id="Tracé_246-2" data-name="Tracé 246" d="M-1448.069,2113.384c1.332-1.687-.053-2.214-3.125-1.175-92.5,31.266-176.746,68.177-243.986,109.5-2.235,1.368-3.782,3.611-3.455,5s2.344,1.4,4.518.046c65.541-40.93,147.784-77.5,238.239-108.471C-1452.886,2117.26-1449.4,2115.066-1448.069,2113.384Z" transform="translate(1698.678 -2111.677)" fill="#ffc900"/>
            </g>
          </g>
        </g>
      </g>
      <g id="Groupe_226" data-name="Groupe 226" transform="translate(1438 607)">
        <g id="Groupe_36-3" data-name="Groupe 36">
          <g id="Groupe_35-3" data-name="Groupe 35">
            <g id="Groupe_21-3" data-name="Groupe 21" transform="translate(66.133 540.163)">
              <path id="Tracé_233-3" data-name="Tracé 233" d="M-1832.631,1348.158c-2.737-.573-3.861,1.191-2.474,3.933,53.265,106.4,154.989,216.511,240.779,322.322,87.394,105.81,156.417,207.31,183.9,296.469.75,2.3,3.309,2.9,5.718,1.342s3.71-4.642,2.9-6.907c-29.459-88.091-98.757-188.364-185.39-292.882-85.089-104.519-185.166-213.279-238.029-318.355A12.35,12.35,0,0,0-1832.631,1348.158Z" transform="translate(1835.7 -1348.05)" fill="#ffc900"/>
            </g>
            <g id="Groupe_22-3" data-name="Groupe 22" transform="translate(270.648 764.912)">
              <path id="Tracé_234-3" data-name="Tracé 234" d="M-1663.4,1316.791c-2.083.2-1.609,2.958,1.046,6.149,66.407,79.405,134.287,157.663,184.807,231.1,51.387,73.437,85.077,142.037,104.272,202.143.779,2.42,3.469,2.982,5.977,1.282s3.842-4.993,2.983-7.376c-20.789-59.387-55.453-127.163-106.994-199.7-50.71-72.538-117.976-149.838-183.578-228.26C-1657.515,1318.976-1661.324,1316.591-1663.4,1316.791Z" transform="translate(1664.703 -1316.78)" fill="#0a5961"/>
            </g>
            <g id="Groupe_23-3" data-name="Groupe 23" transform="translate(89.4 498.025)">
              <path id="Tracé_235-3" data-name="Tracé 235" d="M-1811.147,1663.855c-3.884-1.06-6.03.959-4.709,4.533,28.654,77.775,88.148,158.545,153.747,238.624,3.008,3.678,8.013,6.478,11.162,6.254s3.3-3.325.361-6.918c-64.382-78.618-122.62-157.905-151.208-234.245C-1803.112,1668.613-1807.265,1664.92-1811.147,1663.855Z" transform="translate(1816.246 -1663.573)" fill="#3992a0"/>
            </g>
            <g id="Groupe_24-3" data-name="Groupe 24" transform="translate(268.988 837.745)">
              <path id="Tracé_236-3" data-name="Tracé 236" d="M-1665.119,1235.127c-1.427.307-1.263,2.155.363,4.122,74.649,89.791,139.917,177.068,176.119,257.228,37.666,80.162,46.012,153.208,42.683,214.552-.067,1.348,2.054,1.3,4.7-.1s4.789-3.6,4.8-4.929c1.428-60.85-8.485-133.306-46.865-212.806-36.959-79.505-102.142-166.05-176.294-255.093C-1661.224,1236.155-1663.689,1234.825-1665.119,1235.127Z" transform="translate(1666.09 -1235.084)" fill="#001c3a"/>
            </g>
            <g id="Groupe_25-3" data-name="Groupe 25" transform="translate(0 415.042)">
              <path id="Tracé_237-3" data-name="Tracé 237" d="M-1888.512,1791.3c-1.745-.638-2.879,2.479-2.353,6.959,5.552,48.128,25.284,97.65,54.206,147.791,2.687,4.668,6.381,8.687,8.128,8.954s.918-3.269-1.75-7.9c-28.744-49.749-48.437-98.875-54.213-146.628C-1885.04,1796.035-1886.765,1791.929-1888.512,1791.3Z" transform="translate(1890.994 -1791.217)" fill="#001c3a"/>
            </g>
            <g id="Groupe_26-3" data-name="Groupe 26" transform="translate(256.738 780.011)">
              <path id="Tracé_238-3" data-name="Tracé 238" d="M-1674.122,1377.127c-3.033.366-2.934,3.724.228,7.511,100.946,118.757,194.681,234.56,237.615,336.009,1.422,3.235,5.035,4.177,8.1,2.126a7.756,7.756,0,0,0,2.819-9.43c-45.33-99.7-138.428-213.489-237.647-330.158C-1666.118,1379.481-1671.085,1376.766-1674.122,1377.127Z" transform="translate(1676.333 -1377.095)" fill="#ff9929"/>
            </g>
            <g id="Groupe_27-3" data-name="Groupe 27" transform="translate(154.632 652.311)">
              <path id="Tracé_239-3" data-name="Tracé 239" d="M-1758.567,1662.485c-3.542-.269-4.195,2.6-1.4,6.405,20.513,27.977,42.754,56.016,65.632,83.967,3.115,3.805,8.206,6.707,11.352,6.481s3.219-3.418.173-7.142c-22.475-27.461-44.292-55.006-64.434-82.484C-1749.974,1665.991-1755.024,1662.749-1758.567,1662.485Z" transform="translate(1761.705 -1662.468)" fill="#fa214d"/>
            </g>
            <g id="Groupe_28-3" data-name="Groupe 28" transform="translate(74.015 303.121)">
              <path id="Tracé_240-3" data-name="Tracé 240" d="M-1800.14,1894.411a2.8,2.8,0,0,0-4.2.99c-22.039,42.5-28.926,87.389-22.429,133.8a6.2,6.2,0,0,0,3.914,4.352c1.91.669,3.246-.175,3-1.885-6.691-45.978-.275-90.442,20.977-132.544A3.829,3.829,0,0,0-1800.14,1894.411Z" transform="translate(1829.11 -1893.85)" fill="#ff9929"/>
            </g>
            <g id="Groupe_29-3" data-name="Groupe 29" transform="translate(508.057 1141.17)">
              <path id="Tracé_241-3" data-name="Tracé 241" d="M-1462.244,1193.518c-3.16,2.118-4.748,6.4-3.569,9.545,34.479,87.616,32.06,163.053,43.855,218.314.441,1.983,6.04.98,12.332-2.206s10.745-7.311,10.14-9.259c-15.7-54.364-17.841-128.526-54.7-214.64C-1455.472,1192.192-1459.084,1191.4-1462.244,1193.518Z" transform="translate(1466.202 -1192.329)" fill="#3992a0"/>
            </g>
            <g id="Groupe_30-3" data-name="Groupe 30" transform="translate(438.64 1147.875)">
              <path id="Tracé_242-3" data-name="Tracé 242" d="M-1521.937,1307.574c-2.113,1.27-2.894,5.336-1.836,9.039a384.7,384.7,0,0,1,12.125,57.77c.445,3.506,2.826,5.131,5.385,3.651s4.213-5.467,3.66-8.931a402.291,402.291,0,0,0-13.387-57.178C-1517.135,1308.264-1519.826,1306.3-1521.937,1307.574Z" transform="translate(1524.243 -1307.185)" fill="#fa214d"/>
            </g>
            <g id="Groupe_31-3" data-name="Groupe 31" transform="translate(26.248)">
              <path id="Tracé_243-3" data-name="Tracé 243" d="M-1344.44,1881.406c3.771-3.46,1.365-4.633-5.5-2.6-170.56,50.509-321.142,117.477-411.266,195.094-92,77.612-123.151,165.877-101.017,258.97.847,3.744,4.734,7.728,8.581,8.887s6.177-.883,5.306-4.553c-22.563-91.467,6.075-178.179,93.2-254.413,85.356-76.238,228.838-142,392.187-191.568C-1356.425,1889.234-1348.2,1884.858-1344.44,1881.406Z" transform="translate(1869.048 -1877.808)" fill="#001c3a"/>
            </g>
            <g id="Groupe_32-3" data-name="Groupe 32" transform="translate(1.997 91.037)">
              <path id="Tracé_244-3" data-name="Tracé 244" d="M-1618.606,1924.239c.434-2.2-4.944-1.192-11.9,2.3-170.329,84.483-260.594,187.629-258.794,299.369-.02,4.614,2.4,9.227,5.2,10.288s4.906-1.772,4.864-6.319c-2.934-110.3,83.426-212.115,247.7-295.481C-1624.865,1930.961-1619.035,1926.432-1618.606,1924.239Z" transform="translate(1889.325 -1923.078)" fill="#fa214d"/>
            </g>
            <g id="Groupe_33-3" data-name="Groupe 33" transform="translate(47.667 181.899)">
              <path id="Tracé_245-3" data-name="Tracé 245" d="M-1716.8,1769.19c-.723-1.491-3.112-1.351-5.32.322-78.984,59.592-122.009,126.6-128.071,197.91-6.778,71.317,23.123,146.937,72.51,223.768a10.424,10.424,0,0,0,6.325,4.391c2.1.269,2.682-1.243,1.319-3.375-48.916-76.047-78.724-150.9-72.7-221.475,5.332-70.581,46.764-136.888,123.379-195.856C-1717.226,1773.222-1716.07,1770.681-1716.8,1769.19Z" transform="translate(1851.139 -1768.158)" fill="#0a5961"/>
            </g>
            <g id="Groupe_34-3" data-name="Groupe 34" transform="translate(230.013 38.762)">
              <path id="Tracé_246-3" data-name="Tracé 246" d="M-1448.069,2113.384c1.332-1.687-.053-2.214-3.125-1.175-92.5,31.266-176.746,68.177-243.986,109.5-2.235,1.368-3.782,3.611-3.455,5s2.344,1.4,4.518.046c65.541-40.93,147.784-77.5,238.239-108.471C-1452.886,2117.26-1449.4,2115.066-1448.069,2113.384Z" transform="translate(1698.678 -2111.677)" fill="#ffc900"/>
            </g>
          </g>
        </g>
      </g>
    </g>
  </g>
</svg>
