<svg xmlns="http://www.w3.org/2000/svg" xmlns:xlink="http://www.w3.org/1999/xlink" width="1920" height="4116" viewBox="0 0 1920 4116">
  <defs>
    <clipPath id="clip-path">
      <rect id="Rectangle_1563" data-name="Rectangle 1563" width="1920" height="4116" fill="#fff" stroke="#707070" stroke-width="1"/>
    </clipPath>
  </defs>
  <g id="Groupe_de_masques_40" data-name="Groupe de masques 40" clip-path="url(#clip-path)">
    <g id="Groupe_449" data-name="Groupe 449">
      <g id="Groupe_75" data-name="Groupe 75" transform="matrix(0.985, -0.174, 0.174, 0.985, -376.605, 3215.412)">
        <g id="Groupe_72" data-name="Groupe 72">
          <path id="Tracé_266" data-name="Tracé 266" d="M-5613.482,3129.376a992.059,992.059,0,0,0,28.376,426.286c14.728,50.507,36.7,103.876,83.943,131.05,40.525,23.312,91,22.306,138.356,20.58l742.957-27.078c69.509-2.534,140.755-5.417,204.931-30.877s120.813-78.681,127.857-144.324c8.055-75.081-48.975-142.943-112.969-187.789-218.8-153.333-549.245-149.231-714.954-353.869-33.792-41.729-58.187-89.861-93.257-130.632s-85.364-74.974-140.8-73.062c-59.051,2.037-109.418,45.439-134.608,96.14s-30.045,108.03-34.515,163.917C-5579.437,3059.188-5552.211,3089.9-5613.482,3129.376Z" transform="translate(5624.718 -2759.583)" fill="#f0f8fe"/>
        </g>
        <g id="Groupe_74" data-name="Groupe 74">
          <g id="Groupe_73" data-name="Groupe 73" opacity="0.71" style="mix-blend-mode: luminosity;isolation: isolate">
            <path id="Tracé_267" data-name="Tracé 267" d="M-5613.482,3129.376a992.059,992.059,0,0,0,28.376,426.286c14.728,50.507,36.7,103.876,83.943,131.05,40.525,23.312,91,22.306,138.356,20.58l742.957-27.078c69.509-2.534,140.755-5.417,204.931-30.877s120.813-78.681,127.857-144.324c8.055-75.081-48.975-142.943-112.969-187.789-218.8-153.333-549.245-149.231-714.954-353.869-33.792-41.729-58.187-89.861-93.257-130.632s-85.364-74.974-140.8-73.062c-59.051,2.037-109.418,45.439-134.608,96.14s-30.045,108.03-34.515,163.917C-5579.437,3059.188-5552.211,3089.9-5613.482,3129.376Z" transform="translate(5624.718 -2759.583)" fill="#f0f8fe"/>
          </g>
        </g>
      </g>
      <g id="Groupe_67" data-name="Groupe 67" transform="translate(916.467 -103)">
        <g id="Groupe_64" data-name="Groupe 64">
          <path id="Tracé_262" data-name="Tracé 262" d="M-4563.712,1367.229c143.177,44.781,266.8,148.863,335.321,282.317,30.03,58.49,50.541,123.2,93.684,172.819s119.9,79.394,175.448,44.211c54.825-34.728,61.6-110.617,62.557-175.508l11.246-762.526-561.891,23.306c-126.229,5.235-348.1-30.019-457.042,42.488-72.907,48.527-102.562,159.973-53.8,235.08C-4881.113,1348.162-4681.1,1323.209-4563.712,1367.229Z" transform="translate(4982.118 -928.543)" fill="#f0f8fe"/>
        </g>
        <g id="Groupe_66" data-name="Groupe 66">
          <g id="Groupe_65" data-name="Groupe 65" opacity="0.71" style="mix-blend-mode: luminosity;isolation: isolate">
            <path id="Tracé_263" data-name="Tracé 263" d="M-4563.712,1367.229c143.177,44.781,266.8,148.863,335.321,282.317,30.03,58.49,50.541,123.2,93.684,172.819s119.9,79.394,175.448,44.211c54.825-34.728,61.6-110.617,62.557-175.508l11.246-762.526-561.891,23.306c-126.229,5.235-348.1-30.019-457.042,42.488-72.907,48.527-102.562,159.973-53.8,235.08C-4881.113,1348.162-4681.1,1323.209-4563.712,1367.229Z" transform="translate(4982.118 -928.543)" fill="#f0f8fe"/>
          </g>
        </g>
      </g>
      <g id="Groupe_226" data-name="Groupe 226" transform="matrix(-0.719, -0.695, 0.695, -0.719, 4.299, 909.758)">
        <g id="Groupe_36" data-name="Groupe 36" transform="translate(0)">
          <g id="Groupe_35" data-name="Groupe 35">
            <g id="Groupe_21" data-name="Groupe 21" transform="translate(65.68 467.06)">
              <path id="Tracé_233" data-name="Tracé 233" d="M-1455.978,1348.144c2.411-.5,3.4,1.03,2.179,3.4-46.92,92-136.528,187.209-212.1,278.7-76.985,91.49-137.786,179.254-162,256.346-.66,1.987-2.915,2.5-5.037,1.16s-3.268-4.014-2.555-5.972c25.95-76.17,86.994-162.872,163.308-253.245,74.954-90.374,163.111-184.414,209.677-275.27A10.844,10.844,0,0,1-1455.978,1348.144Z" transform="translate(1835.7 -1348.05)" fill="#ffc900"/>
            </g>
            <g id="Groupe_22" data-name="Groupe 22" transform="translate(3.115 661.392)">
              <path id="Tracé_234" data-name="Tracé 234" d="M-1401.012,1316.79c1.834.174,1.417,2.558-.922,5.317-58.5,68.659-118.292,136.326-162.795,199.821-45.266,63.5-74.944,122.814-91.852,174.786-.686,2.092-3.055,2.579-5.265,1.109s-3.384-4.318-2.628-6.378c18.313-51.349,48.848-109.953,94.25-172.677,44.67-62.721,103.924-129.56,161.712-197.368C-1406.2,1318.679-1402.844,1316.617-1401.012,1316.79Z" transform="translate(1664.703 -1316.78)" fill="#0a5961"/>
            </g>
            <g id="Groupe_23" data-name="Groupe 23" transform="translate(279.826 430.624)">
              <path id="Tracé_235" data-name="Tracé 235" d="M-1672.955,1663.817c3.421-.916,5.311.829,4.148,3.919-25.241,67.249-77.648,137.089-135.434,206.33-2.649,3.18-7.059,5.6-9.833,5.408s-2.906-2.875-.318-5.982c56.713-67.978,108.015-136.535,133.2-202.543C-1680.034,1667.931-1676.375,1664.738-1672.955,1663.817Z" transform="translate(1816.246 -1663.573)" fill="#3992a0"/>
            </g>
            <g id="Groupe_24" data-name="Groupe 24" transform="translate(67.014 724.368)">
              <path id="Tracé_236" data-name="Tracé 236" d="M-1464.549,1235.121c1.257.266,1.113,1.864-.319,3.564-65.758,77.639-123.251,153.1-155.141,222.416-33.179,69.313-40.531,132.474-37.6,185.515.059,1.166-1.809,1.121-4.14-.086s-4.219-3.112-4.226-4.262c-1.258-52.615,7.474-115.265,41.283-184.006,32.557-68.745,89.976-143.578,155.3-220.57C-1467.979,1236.01-1465.808,1234.86-1464.549,1235.121Z" transform="translate(1666.09 -1235.084)" fill="#001c3a"/>
            </g>
            <g id="Groupe_25" data-name="Groupe 25" transform="translate(450.523 358.873)">
              <path id="Tracé_237" data-name="Tracé 237" d="M-1837.343,1791.289c1.537-.552,2.535,2.144,2.072,6.018-4.891,41.615-22.272,84.434-47.749,127.79-2.367,4.036-5.621,7.511-7.16,7.742s-.809-2.827,1.542-6.829c25.32-43.016,42.668-85.493,47.755-126.784C-1840.4,1795.383-1838.882,1791.833-1837.343,1791.289Z" transform="translate(1890.994 -1791.217)" fill="#001c3a"/>
            </g>
            <g id="Groupe_26" data-name="Groupe 26" transform="translate(58.568 674.448)">
              <path id="Tracé_238" data-name="Tracé 238" d="M-1456.646,1377.123c2.672.317,2.584,3.22-.2,6.495-88.922,102.685-171.492,202.815-209.312,290.535-1.252,2.8-4.435,3.612-7.131,1.839a6.637,6.637,0,0,1-2.483-8.154c39.931-86.21,121.94-184.6,209.341-285.476C-1463.7,1379.158-1459.322,1376.81-1456.646,1377.123Z" transform="translate(1676.333 -1377.095)" fill="#ff9929"/>
            </g>
            <g id="Groupe_27" data-name="Groupe 27" transform="translate(298.679 564.03)">
              <path id="Tracé_239" data-name="Tracé 239" d="M-1693,1662.483c3.12-.232,3.695,2.248,1.232,5.538-18.069,24.191-37.661,48.435-57.815,72.6-2.744,3.29-7.229,5.8-10,5.6s-2.836-2.955-.152-6.175c19.8-23.745,39.016-47.561,56.759-71.321C-1700.57,1665.515-1696.122,1662.711-1693,1662.483Z" transform="translate(1761.704 -1662.468)" fill="#fa214d"/>
            </g>
            <g id="Groupe_28" data-name="Groupe 28" transform="translate(414.221 262.098)">
              <path id="Tracé_240" data-name="Tracé 240" d="M-1827.688,1894.335a2.493,2.493,0,0,1,3.7.856c19.414,36.748,25.48,75.562,19.757,115.689a5.4,5.4,0,0,1-3.448,3.763c-1.683.579-2.86-.151-2.639-1.63,5.895-39.756.242-78.2-18.478-114.606A3.274,3.274,0,0,1-1827.688,1894.335Z" transform="translate(1829.11 -1893.85)" fill="#ff9929"/>
            </g>
            <g id="Groupe_29" data-name="Groupe 29" transform="translate(0 986.73)">
              <path id="Tracé_241" data-name="Tracé 241" d="M-1410.871,1193.357c2.783,1.832,4.183,5.534,3.144,8.253-30.372,75.759-28.242,140.986-38.632,188.769-.389,1.715-5.32.848-10.863-1.907s-9.465-6.322-8.932-8.006c13.829-47.007,15.716-111.132,48.183-185.592C-1416.836,1192.211-1413.654,1191.525-1410.871,1193.357Z" transform="translate(1466.202 -1192.329)" fill="#3992a0"/>
            </g>
            <g id="Groupe_30" data-name="Groupe 30" transform="translate(100.812 992.527)">
              <path id="Tracé_242" data-name="Tracé 242" d="M-1507.118,1307.522c1.862,1.1,2.55,4.614,1.617,7.816a327.288,327.288,0,0,0-10.681,49.951c-.392,3.032-2.49,4.437-4.743,3.156s-3.712-4.727-3.224-7.722a342.476,342.476,0,0,1,11.792-49.44C-1511.348,1308.118-1508.977,1306.419-1507.118,1307.522Z" transform="translate(1524.243 -1307.185)" fill="#fa214d"/>
            </g>
            <g id="Groupe_31" data-name="Groupe 31" transform="translate(19.55)">
              <path id="Tracé_243" data-name="Tracé 243" d="M-1867.481,1880.919c-3.322-2.991-1.2-4.006,4.841-2.247,150.245,43.673,282.89,101.578,362.28,168.691,81.038,67.108,108.483,143.428,88.985,223.922-.746,3.238-4.17,6.682-7.559,7.684s-5.441-.763-4.674-3.937c19.876-79.088-5.351-154.065-82.1-219.981-75.189-65.92-201.581-122.78-345.473-165.642C-1856.923,1887.687-1864.17,1883.9-1867.481,1880.919Z" transform="translate(1869.048 -1877.808)" fill="#001c3a"/>
            </g>
            <g id="Groupe_32" data-name="Groupe 32" transform="translate(266.107 78.716)">
              <path id="Tracé_244" data-name="Tracé 244" d="M-1889.3,1924.082c-.383-1.9,4.355-1.031,10.482,1.99,150.041,73.05,229.554,162.236,227.968,258.854.018,3.989-2.11,7.978-4.578,8.9s-4.321-1.532-4.284-5.464c2.584-95.375-73.489-183.409-218.2-255.491C-1883.789,1929.895-1888.926,1925.978-1889.3,1924.082Z" transform="translate(1889.325 -1923.078)" fill="#fa214d"/>
            </g>
            <g id="Groupe_33" data-name="Groupe 33" transform="translate(345.838 157.282)">
              <path id="Tracé_245" data-name="Tracé 245" d="M-1850.948,1769.051c.637-1.289,2.741-1.168,4.686.278,69.576,51.527,107.477,109.463,112.816,171.126,5.97,61.665-20.369,127.051-63.873,193.484a9.186,9.186,0,0,1-5.572,3.8c-1.851.232-2.363-1.074-1.162-2.918,43.09-65.755,69.347-130.477,64.038-191.5-4.7-61.029-41.194-118.362-108.683-169.35C-1850.569,1772.537-1851.588,1770.34-1850.948,1769.051Z" transform="translate(1851.139 -1768.158)" fill="#0a5961"/>
            </g>
            <g id="Groupe_34" data-name="Groupe 34" transform="translate(82.539 33.516)">
              <path id="Tracé_246" data-name="Tracé 246" d="M-1698.233,2113.153c-1.174-1.459.047-1.914,2.753-1.016,81.483,27.035,155.693,58.95,214.924,94.681,1.969,1.183,3.331,3.122,3.044,4.32s-2.065,1.212-3.98.04c-57.734-35.391-130.182-67.013-209.863-93.791A17.492,17.492,0,0,1-1698.233,2113.153Z" transform="translate(1698.679 -2111.677)" fill="#ffc900"/>
            </g>
          </g>
        </g>
      </g>
    </g>
  </g>
</svg>
