<svg xmlns="http://www.w3.org/2000/svg" xmlns:xlink="http://www.w3.org/1999/xlink" width="414" height="2440" viewBox="0 0 414 2440">
  <defs>
    <clipPath id="clip-path">
      <rect id="Rectangle_1561" data-name="Rectangle 1561" width="414" height="2440" fill="#fff" stroke="#707070" stroke-width="1"/>
    </clipPath>
  </defs>
  <g id="Groupe_de_masques_13" data-name="Groupe de masques 13" clip-path="url(#clip-path)">
    <g id="Groupe_350" data-name="Groupe 350">
      <g id="Groupe_347" data-name="Groupe 347">
        <g id="Groupe_80" data-name="Groupe 80" transform="translate(5456.3 -852.543)">
          <g id="Groupe_67" data-name="Groupe 67" transform="translate(-5290.967 838.543)">
            <g id="Groupe_64" data-name="Groupe 64">
              <path id="Tracé_262" data-name="Tracé 262" d="M-4867.135,1049.1a157.819,157.819,0,0,1,92.15,77.584c8.252,16.074,13.889,33.858,25.745,47.493s32.951,21.818,48.215,12.15c15.066-9.543,16.928-30.4,17.191-48.232l3.091-209.551-154.415,6.4c-34.689,1.439-95.664-8.25-125.6,11.676-20.036,13.336-28.185,43.963-14.786,64.6C-4954.361,1043.859-4899.4,1037-4867.135,1049.1Z" transform="translate(4982.118 -928.543)" fill="#f0f8fe"/>
            </g>
            <g id="Groupe_66" data-name="Groupe 66">
              <g id="Groupe_65" data-name="Groupe 65" opacity="0.71" style="mix-blend-mode: luminosity;isolation: isolate">
                <path id="Tracé_263" data-name="Tracé 263" d="M-4867.135,1049.1a157.819,157.819,0,0,1,92.15,77.584c8.252,16.074,13.889,33.858,25.745,47.493s32.951,21.818,48.215,12.15c15.066-9.543,16.928-30.4,17.191-48.232l3.091-209.551-154.415,6.4c-34.689,1.439-95.664-8.25-125.6,11.676-20.036,13.336-28.185,43.963-14.786,64.6C-4954.361,1043.859-4899.4,1037-4867.135,1049.1Z" transform="translate(4982.118 -928.543)" fill="#f0f8fe"/>
              </g>
            </g>
          </g>
          <g id="Groupe_75" data-name="Groupe 75" transform="translate(-5487.719 1953.18)">
            <g id="Groupe_72" data-name="Groupe 72" transform="translate(-26 -12)">
              <path id="Tracé_266" data-name="Tracé 266" d="M-5621.817,2855.048a256.106,256.106,0,0,0,7.325,110.049c3.8,13.039,9.476,26.816,21.67,33.832,10.462,6.018,23.492,5.759,35.718,5.313l191.8-6.99c17.945-.654,36.337-1.4,52.9-7.971s31.189-20.312,33.007-37.258c2.08-19.383-12.643-36.9-29.164-48.479-56.484-39.584-141.792-38.525-184.571-91.354-8.724-10.773-15.021-23.2-24.075-33.724s-22.038-19.355-36.35-18.862c-15.245.526-28.247,11.73-34.75,24.819s-7.757,27.889-8.911,42.316C-5613.029,2836.929-5606,2844.858-5621.817,2855.048Z" transform="translate(5624.718 -2759.583)" fill="#f0f8fe"/>
            </g>
          </g>
          <g id="Groupe_79" data-name="Groupe 79" transform="matrix(0.998, -0.07, 0.07, 0.998, -5669.31, 1195.171)">
            <g id="Groupe_76" data-name="Groupe 76" transform="translate(100.215 183.967)">
              <path id="Tracé_268" data-name="Tracé 268" d="M224.5,53.074C214.138,74.258,179.7,79.46,176.987,102.887c-1.235,10.672,5.556,20.975,14.391,27.089s19.482,8.889,29.842,11.737c23.768,6.536,47.922,14.361,66.972,30.005s32.1,40.857,26.841,64.94c-6.817,31.243-42.049,49.454-74,48.091s-61.2-17.333-89.127-32.911L80.13,211.8c-11.229-6.264-22.513-12.564-32.609-20.526C5.782,158.358-19.329,80.787,18.787,35.569c27.7-32.862,96.347-31.126,135.13-35.2C180.728-2.441,245.466,10.226,224.5,53.074Z" transform="translate(0 0)" fill="#f0f8fe"/>
            </g>
          </g>
        </g>
        <g id="Groupe_71" data-name="Groupe 71" transform="translate(398.122 1036.226) rotate(45)">
          <g id="Groupe_68" data-name="Groupe 68" transform="translate(-206.475 -206.475)">
            <path id="Tracé_264" data-name="Tracé 264" d="M-4433.75,2537.43a99.049,99.049,0,0,0-50.57-53.062c-24.5-11.334-56.177-13.125-80.963-2.212s-40.519,35.182-34.522,57.541c7.291,27.186,41.332,44.363,54.235,70.14,7.9,15.78,7.2,33.421,5.869,50.418s-3.113,34.428,2.867,50.754,21.767,31.552,42.583,33.727c17.707,1.849,35.337-6.207,46.4-17.576s16.571-25.618,20.5-39.749a230.2,230.2,0,0,0,6.906-88.932C-4422.892,2577.875-4425.972,2557.146-4433.75,2537.43Z" transform="translate(4601.083 -2474.853)" fill="#f0f8fe"/>
          </g>
        </g>
      </g>
      <g id="Groupe_348" data-name="Groupe 348" transform="translate(3401)">
        <g id="Groupe_207" data-name="Groupe 207" transform="translate(-1822.679 1699.584)">
          <g id="Groupe_193" data-name="Groupe 193" transform="translate(-1684.333 -1698.444)">
            <path id="Tracé_346" data-name="Tracé 346" d="M-1312.488-1619.007c1.363-.258,1.627.339.579,1.338-40.526,38.82-92.731,71.653-148.391,95.353-55.625,24.041-114.706,38.949-168.164,49.8a8.861,8.861,0,0,1-5.077-.844c-1.425-.754-1.464-1.584-.085-1.853,53.437-10.284,112.457-24.587,168.094-48.01,55.67-23.084,107.957-55.29,148.681-93.548A10.362,10.362,0,0,1-1312.488-1619.007Z" transform="translate(1634.634 1619.067)" fill="#ffc900"/>
          </g>
          <g id="Groupe_194" data-name="Groupe 194" transform="translate(-1755.811 -1628.324)">
            <path id="Tracé_347" data-name="Tracé 347" d="M-1463.93-1525.527c1.332.157,1.055.941-.632,1.748-84.019,41-181.177,56.359-259.381,66.73a8.31,8.31,0,0,1-5.178-1.212c-1.288-.9-1.059-1.8.51-2.013,78.189-9.562,175.161-24.02,259.225-64.114A12.3,12.3,0,0,1-1463.93-1525.527Z" transform="translate(1729.956 1525.556)" fill="#0a5961"/>
          </g>
          <g id="Groupe_195" data-name="Groupe 195" transform="translate(-1480.373 -1714.007)">
            <path id="Tracé_348" data-name="Tracé 348" d="M-1247.43-1639.732c1.856-.367,2.281.433.92,1.8-29.62,29.79-66.616,56.561-107.611,78.051a14.662,14.662,0,0,1-6.991,1.448c-1.977-.191-2.039-1.121-.158-2.075,41.044-20.825,78.169-46.942,108.014-76.147A13.6,13.6,0,0,1-1247.43-1639.732Z" transform="translate(1362.638 1639.821)" fill="#3992a0"/>
          </g>
          <g id="Groupe_196" data-name="Groupe 196" transform="translate(-1755.427 -1607.929)">
            <path id="Tracé_349" data-name="Tracé 349" d="M-1459.326-1498.331c1.017.117,1.045.6.053,1.081-90.553,44.839-192.443,60.829-265.961,79.155a4.9,4.9,0,0,1-3.31-.852c-1.022-.686-1.2-1.412-.394-1.615,73.611-17.716,175.379-33.013,265.976-77.132A7.9,7.9,0,0,1-1459.326-1498.331Z" transform="translate(1729.443 1498.358)" fill="#001c3a"/>
          </g>
          <g id="Groupe_197" data-name="Groupe 197" transform="translate(-1363.87 -1747.612)">
            <path id="Tracé_350" data-name="Tracé 350" d="M-1151.276-1684.589c.844-.307.494.915-.817,2.726a389.7,389.7,0,0,1-49.9,56.156c-1.771,1.656-3.968,3.117-4.88,3.274s-.187-1.036,1.592-2.674a388.747,388.747,0,0,0,50.119-55.677C-1153.848-1682.577-1152.119-1684.283-1151.276-1684.589Z" transform="translate(1207.273 1684.636)" fill="#001c3a"/>
          </g>
          <g id="Groupe_198" data-name="Groupe 198" transform="translate(-1679.677 -1623.445)">
            <path id="Tracé_351" data-name="Tracé 351" d="M-1429.83-1519.01c2,.2,2.063,1.148.13,2.112-60.778,30.458-128.353,48.865-190.123,60.688a12.7,12.7,0,0,1-7.125-1.154c-1.966-1.028-1.968-2.152,0-2.5,61.7-10.915,129.179-28.348,190.012-57.832A15.724,15.724,0,0,1-1429.83-1519.01Z" transform="translate(1628.424 1519.05)" fill="#ff9929"/>
          </g>
          <g id="Groupe_199" data-name="Groupe 199" transform="translate(-1466.972 -1659.922)">
            <path id="Tracé_352" data-name="Tracé 352" d="M-1296.789-1567.69c1.959-.082,2.168.817.439,2.011-12.726,8.78-26.059,17.045-39.851,24.738a14.863,14.863,0,0,1-7.014,1.647c-1.993-.138-2.075-1.073-.2-2.084,13.814-7.466,27.178-15.506,39.946-24.065A15.354,15.354,0,0,1-1296.789-1567.69Z" transform="translate(1344.767 1567.695)" fill="#fa214d"/>
          </g>
          <g id="Groupe_200" data-name="Groupe 200" transform="translate(-1345.949 -1796.672)">
            <path id="Tracé_353" data-name="Tracé 353" d="M-1142.985-1749.9c.82-.366,1.2-.078.855.648a290.822,290.822,0,0,1-37.662,58.2,6.085,6.085,0,0,1-2.7,1.719c-.9.239-1.155-.139-.571-.841a290.171,290.171,0,0,0,37.956-57.763A4.914,4.914,0,0,1-1142.985-1749.9Z" transform="translate(1183.373 1750.062)" fill="#ff9929"/>
          </g>
          <g id="Groupe_201" data-name="Groupe 201" transform="translate(-1833.321 -1561.315)">
            <path id="Tracé_354" data-name="Tracé 354" d="M-1688.483-1434.762c1.967,1.065,2,2.212.068,2.572-53.8,10.057-102.368,16.4-136.892,31.374-1.235.542-3.884-.392-5.928-2.113s-2.7-3.558-1.452-4.069c34.819-14.267,83.4-19.848,137.159-29.108A12.88,12.88,0,0,1-1688.483-1434.762Z" transform="translate(1833.321 1436.194)" fill="#3992a0"/>
          </g>
          <g id="Groupe_202" data-name="Groupe 202" transform="translate(-1673.317 -1546.72)">
            <path id="Tracé_355" data-name="Tracé 355" d="M-1579.073-1416.31c1.333.554.715,1.46-1.367,2.022-11.13,2.99-22.07,5.8-32.743,8.507a10.271,10.271,0,0,1-6.027-.28c-1.334-.665-.8-1.6,1.2-2.083,10.676-2.6,21.616-5.306,32.745-8.191A11.8,11.8,0,0,1-1579.073-1416.31Z" transform="translate(1619.944 1416.731)" fill="#fa214d"/>
          </g>
          <g id="Groupe_203" data-name="Groupe 203" transform="translate(-1337.178 -1936.403)">
            <path id="Tracé_356" data-name="Tracé 356" d="M-1117.877-1935.619c1.083-1.006,2.411-1.053,2.955-.083,27.705,47.391,12.383,130.442-49.418,204.74a12.847,12.847,0,0,1-5.567,3.613c-1.843.5-2.319-.274-1.086-1.728,62.429-72.993,78.865-155.281,52.111-202.975A3.253,3.253,0,0,1-1117.877-1935.619Z" transform="translate(1171.677 1936.403)" fill="#001c3a"/>
          </g>
          <g id="Groupe_204" data-name="Groupe 204" transform="translate(-1307.878 -1890.907)">
            <path id="Tracé_357" data-name="Tracé 357" d="M-1085-1875.381c1-.8,1.884-.177,1.95,1.431,1.68,38.909-12.913,86.74-43.726,132.87a12.719,12.719,0,0,1-4.776,4.354c-1.36.5-1.392-.622-.115-2.5,31.151-45.59,46.194-93.035,44.968-131.822A5.953,5.953,0,0,1-1085-1875.381Z" transform="translate(1132.603 1875.731)" fill="#fa214d"/>
          </g>
          <g id="Groupe_205" data-name="Groupe 205" transform="translate(-1400.391 -1851.705)">
            <path id="Tracé_358" data-name="Tracé 358" d="M-1134.31-1823.161c.832-.528,1.4-.319,1.259.476-9.431,56.758-51.937,123.874-118.3,175.515a8.209,8.209,0,0,1-3.687,1.5c-1.109.1-1.255-.4-.329-1.119,66.53-50.959,109.411-117.483,119.293-173.99A4.269,4.269,0,0,1-1134.31-1823.161Z" transform="translate(1255.976 1823.452)" fill="#0a5961"/>
          </g>
          <g id="Groupe_206" data-name="Groupe 206" transform="translate(-1287.043 -1922.01)">
            <path id="Tracé_359" data-name="Tracé 359" d="M-1104.1-1916.854c.573-.487,1.213-.471,1.426.047,6.462,15.575,9.213,33.73,7.861,53.713a3.215,3.215,0,0,1-1.349,2.06c-.7.472-1.222.316-1.171-.345,1.5-19.922-1.1-38.06-7.418-53.659A1.8,1.8,0,0,1-1104.1-1916.854Z" transform="translate(1104.818 1917.208)" fill="#ffc900"/>
          </g>
        </g>
      </g>
      <g id="Groupe_349" data-name="Groupe 349" transform="translate(307.171 491.085)">
        <g id="Groupe_36" data-name="Groupe 36">
          <g id="Groupe_35" data-name="Groupe 35">
            <g id="Groupe_21" data-name="Groupe 21" transform="translate(16.296 255.717)">
              <path id="Tracé_233" data-name="Tracé 233" d="M-1834.944,1348.1c-.674-.271-.951.564-.61,1.862,13.125,50.369,38.192,102.5,59.332,152.589,21.536,50.091,38.544,98.142,45.317,140.35.185,1.088.815,1.371,1.409.635a4.563,4.563,0,0,0,.715-3.27c-7.259-41.7-24.335-89.173-45.683-138.652-20.968-49.48-45.628-100.967-58.654-150.711A4.535,4.535,0,0,0-1834.944,1348.1Z" transform="translate(1835.7 -1348.05)" fill="#ffc900"/>
            </g>
            <g id="Groupe_22" data-name="Groupe 22" transform="translate(66.692 362.114)">
              <path id="Tracé_234" data-name="Tracé 234" d="M-1664.383,1316.785c-.513.1-.4,1.4.258,2.911,16.364,37.591,33.091,74.639,45.54,109.4,12.662,34.765,20.964,67.241,25.694,95.7.192,1.146.855,1.412,1.473.607a4.987,4.987,0,0,0,.735-3.492,569.62,569.62,0,0,0-26.365-94.541c-12.5-34.34-29.071-70.934-45.237-108.06C-1662.932,1317.819-1663.87,1316.69-1664.383,1316.785Z" transform="translate(1664.703 -1316.78)" fill="#0a5961"/>
            </g>
            <g id="Groupe_23" data-name="Groupe 23" transform="translate(22.03 235.768)">
              <path id="Tracé_235" data-name="Tracé 235" d="M-1814.99,1663.707c-.957-.5-1.486.454-1.16,2.146,7.061,36.819,21.721,75.056,37.886,112.966.741,1.741,1.975,3.067,2.75,2.961s.813-1.574.089-3.275c-15.865-37.218-30.216-74.753-37.26-110.893A6.219,6.219,0,0,0-1814.99,1663.707Z" transform="translate(1816.246 -1663.573)" fill="#3992a0"/>
            </g>
            <g id="Groupe_24" data-name="Groupe 24" transform="translate(66.283 396.594)">
              <path id="Tracé_236" data-name="Tracé 236" d="M-1665.851,1235.1c-.352.146-.311,1.021.089,1.951,18.395,42.508,34.478,83.825,43.4,121.774a380.4,380.4,0,0,1,10.518,101.57c-.017.638.506.614,1.158-.047a4.1,4.1,0,0,0,1.182-2.333,391.718,391.718,0,0,0-11.548-100.744c-9.107-37.638-25.17-78.609-43.442-120.762C-1664.891,1235.591-1665.5,1234.961-1665.851,1235.1Z" transform="translate(1666.09 -1235.084)" fill="#001c3a"/>
            </g>
            <g id="Groupe_25" data-name="Groupe 25" transform="translate(0 196.484)">
              <path id="Tracé_237" data-name="Tracé 237" d="M-1890.383,1791.256c-.43-.3-.709,1.174-.58,3.295,1.368,22.784,6.23,46.228,13.357,69.965.662,2.21,1.572,4.112,2,4.239s.226-1.548-.431-3.739c-7.083-23.551-11.936-46.808-13.359-69.415C-1889.527,1793.5-1889.952,1791.554-1890.383,1791.256Z" transform="translate(1890.994 -1791.217)" fill="#001c3a"/>
            </g>
            <g id="Groupe_26" data-name="Groupe 26" transform="translate(63.265 369.262)">
              <path id="Tracé_238" data-name="Tracé 238" d="M-1675.788,1377.11c-.747.173-.723,1.763.056,3.556,24.875,56.22,47.973,111.042,58.552,159.069.35,1.531,1.241,1.977,1.995,1.006a5.909,5.909,0,0,0,.695-4.464c-11.17-47.2-34.111-101.067-58.56-156.3C-1673.815,1378.224-1675.039,1376.939-1675.788,1377.11Z" transform="translate(1676.333 -1377.095)" fill="#ff9929"/>
            </g>
            <g id="Groupe_27" data-name="Groupe 27" transform="translate(38.104 308.808)">
              <path id="Tracé_239" data-name="Tracé 239" d="M-1760.931,1662.476c-.873-.127-1.033,1.231-.345,3.032,5.055,13.245,10.535,26.519,16.173,39.75.768,1.8,2.022,3.175,2.8,3.068s.793-1.618.042-3.381c-5.538-13-10.914-26.04-15.877-39.048C-1758.814,1664.136-1760.058,1662.6-1760.931,1662.476Z" transform="translate(1761.704 -1662.468)" fill="#fa214d"/>
            </g>
            <g id="Groupe_28" data-name="Groupe 28" transform="translate(18.238 143.499)">
              <path id="Tracé_240" data-name="Tracé 240" d="M-1821.971,1894.116c-.367-.491-.833-.281-1.035.469-5.431,20.12-7.128,41.37-5.527,63.34a3.027,3.027,0,0,0,.965,2.06c.471.317.8-.083.738-.893-1.649-21.766-.068-42.816,5.169-62.747A2.964,2.964,0,0,0-1821.971,1894.116Z" transform="translate(1829.11 -1893.85)" fill="#ff9929"/>
            </g>
            <g id="Groupe_29" data-name="Groupe 29" transform="translate(125.194 540.237)">
              <path id="Tracé_241" data-name="Tracé 241" d="M-1465.227,1192.892a6.384,6.384,0,0,0-.879,4.519c8.5,41.478,7.9,77.19,10.807,103.351.109.939,1.488.464,3.039-1.044s2.648-3.461,2.5-4.383c-3.869-25.736-4.4-60.845-13.479-101.612C-1463.558,1192.265-1464.448,1191.889-1465.227,1192.892Z" transform="translate(1466.203 -1192.329)" fill="#3992a0"/>
            </g>
            <g id="Groupe_30" data-name="Groupe 30" transform="translate(108.088 543.411)">
              <path id="Tracé_242" data-name="Tracé 242" d="M-1523.674,1307.369c-.521.6-.713,2.526-.453,4.279q2.119,14.049,2.988,27.349c.11,1.66.7,2.429,1.327,1.728a6.664,6.664,0,0,0,.9-4.228q-1.071-13.147-3.3-27.068C-1522.491,1307.7-1523.154,1306.766-1523.674,1307.369Z" transform="translate(1524.242 -1307.185)" fill="#fa214d"/>
            </g>
            <g id="Groupe_31" data-name="Groupe 31" transform="translate(6.468)">
              <path id="Tracé_243" data-name="Tracé 243" d="M-1739.776,1879.511c.929-1.638.336-2.193-1.354-1.23-42.029,23.911-79.135,55.614-101.343,92.359-22.669,36.742-30.346,78.527-24.892,122.6.209,1.773,1.167,3.658,2.115,4.207s1.522-.418,1.307-2.156c-5.56-43.3,1.5-84.351,22.967-120.44,21.033-36.092,56.39-67.223,96.641-90.689A14.76,14.76,0,0,0-1739.776,1879.511Z" transform="translate(1869.048 -1877.808)" fill="#001c3a"/>
            </g>
            <g id="Groupe_32" data-name="Groupe 32" transform="translate(0.492 43.097)">
              <path id="Tracé_244" data-name="Tracé 244" d="M-1822.615,1923.627c.107-1.04-1.218-.564-2.932,1.089-41.972,39.995-64.215,88.824-63.771,141.723,0,2.184.59,4.368,1.281,4.871s1.209-.839,1.2-2.992c-.723-52.219,20.558-100.417,61.038-139.882C-1824.158,1926.81-1822.721,1924.666-1822.615,1923.627Z" transform="translate(1889.325 -1923.078)" fill="#fa214d"/>
            </g>
            <g id="Groupe_33" data-name="Groupe 33" transform="translate(11.746 86.112)">
              <path id="Tracé_245" data-name="Tracé 245" d="M-1818.034,1768.647c-.178-.706-.767-.64-1.311.152a176.817,176.817,0,0,0-31.559,93.692c-1.67,33.762,5.7,69.561,17.868,105.933.34,1.02,1.042,1.953,1.558,2.079s.661-.588.325-1.6c-12.054-36-19.4-71.437-17.914-104.847a175.9,175.9,0,0,1,30.4-92.719A3.933,3.933,0,0,0-1818.034,1768.647Z" transform="translate(1851.139 -1768.158)" fill="#0a5961"/>
            </g>
            <g id="Groupe_34" data-name="Groupe 34" transform="translate(56.679 18.35)">
              <path id="Tracé_246" data-name="Tracé 246" d="M-1636.924,2112.485c.328-.8-.013-1.048-.77-.556-22.794,14.8-43.553,32.275-60.122,51.838a3.63,3.63,0,0,0-.851,2.365c.081.655.578.663,1.114.022,16.15-19.376,36.416-36.69,58.706-51.351A5.981,5.981,0,0,0-1636.924,2112.485Z" transform="translate(1698.678 -2111.677)" fill="#ffc900"/>
            </g>
          </g>
        </g>
      </g>
    </g>
  </g>
</svg>
