<svg xmlns="http://www.w3.org/2000/svg" xmlns:xlink="http://www.w3.org/1999/xlink" width="1920" height="2440" viewBox="0 0 1920 2440">
  <defs>
    <clipPath id="clip-path">
      <rect id="Rectangle_1562" data-name="Rectangle 1562" width="1920" height="2440" fill="#fff" stroke="#707070" stroke-width="1"/>
    </clipPath>
  </defs>
  <g id="Groupe_de_masques_39" data-name="Groupe de masques 39" clip-path="url(#clip-path)">
    <g id="Groupe_450" data-name="Groupe 450">
      <g id="Groupe_448" data-name="Groupe 448" transform="translate(-1 60)">
        <g id="Groupe_75" data-name="Groupe 75" transform="translate(-240.419 1292)">
          <g id="Groupe_72" data-name="Groupe 72">
            <path id="Tracé_266" data-name="Tracé 266" d="M-5613.482,3129.376a992.059,992.059,0,0,0,28.376,426.286c14.728,50.507,36.7,103.876,83.943,131.05,40.525,23.312,91,22.306,138.356,20.58l742.957-27.078c69.509-2.534,140.755-5.417,204.931-30.877s120.813-78.681,127.857-144.324c8.055-75.081-48.975-142.943-112.969-187.789-218.8-153.333-549.245-149.231-714.954-353.869-33.792-41.729-58.187-89.861-93.257-130.632s-85.364-74.974-140.8-73.062c-59.051,2.037-109.418,45.439-134.608,96.14s-30.045,108.03-34.515,163.917C-5579.437,3059.188-5552.211,3089.9-5613.482,3129.376Z" transform="translate(5624.718 -2759.583)" fill="#f0f8fe"/>
          </g>
          <g id="Groupe_74" data-name="Groupe 74">
            <g id="Groupe_73" data-name="Groupe 73" opacity="0.71" style="mix-blend-mode: luminosity;isolation: isolate">
              <path id="Tracé_267" data-name="Tracé 267" d="M-5613.482,3129.376a992.059,992.059,0,0,0,28.376,426.286c14.728,50.507,36.7,103.876,83.943,131.05,40.525,23.312,91,22.306,138.356,20.58l742.957-27.078c69.509-2.534,140.755-5.417,204.931-30.877s120.813-78.681,127.857-144.324c8.055-75.081-48.975-142.943-112.969-187.789-218.8-153.333-549.245-149.231-714.954-353.869-33.792-41.729-58.187-89.861-93.257-130.632s-85.364-74.974-140.8-73.062c-59.051,2.037-109.418,45.439-134.608,96.14s-30.045,108.03-34.515,163.917C-5579.437,3059.188-5552.211,3089.9-5613.482,3129.376Z" transform="translate(5624.718 -2759.583)" fill="#f0f8fe"/>
            </g>
          </g>
        </g>
        <g id="Groupe_67" data-name="Groupe 67" transform="translate(916.467 -103)">
          <g id="Groupe_64" data-name="Groupe 64">
            <path id="Tracé_262" data-name="Tracé 262" d="M-4563.712,1367.229c143.177,44.781,266.8,148.863,335.321,282.317,30.03,58.49,50.541,123.2,93.684,172.819s119.9,79.394,175.448,44.211c54.825-34.728,61.6-110.617,62.557-175.508l11.246-762.526-561.891,23.306c-126.229,5.235-348.1-30.019-457.042,42.488-72.907,48.527-102.562,159.973-53.8,235.08C-4881.113,1348.162-4681.1,1323.209-4563.712,1367.229Z" transform="translate(4982.118 -928.543)" fill="#f0f8fe"/>
          </g>
          <g id="Groupe_66" data-name="Groupe 66">
            <g id="Groupe_65" data-name="Groupe 65" opacity="0.71" style="mix-blend-mode: luminosity;isolation: isolate">
              <path id="Tracé_263" data-name="Tracé 263" d="M-4563.712,1367.229c143.177,44.781,266.8,148.863,335.321,282.317,30.03,58.49,50.541,123.2,93.684,172.819s119.9,79.394,175.448,44.211c54.825-34.728,61.6-110.617,62.557-175.508l11.246-762.526-561.891,23.306c-126.229,5.235-348.1-30.019-457.042,42.488-72.907,48.527-102.562,159.973-53.8,235.08C-4881.113,1348.162-4681.1,1323.209-4563.712,1367.229Z" transform="translate(4982.118 -928.543)" fill="#f0f8fe"/>
            </g>
          </g>
        </g>
      </g>
      <g id="Groupe_449" data-name="Groupe 449" transform="translate(-142.829 196)">
        <g id="Groupe_36" data-name="Groupe 36" transform="translate(0)">
          <g id="Groupe_35" data-name="Groupe 35">
            <g id="Groupe_21" data-name="Groupe 21" transform="translate(54.585 540.163)">
              <path id="Tracé_233" data-name="Tracé 233" d="M-1520.119,1348.158c2-.573,2.826,1.191,1.811,3.933-38.995,106.4-113.467,216.511-176.273,322.322-63.981,105.81-114.512,207.31-134.634,296.469-.549,2.3-2.423,2.9-4.186,1.342a7.532,7.532,0,0,1-2.123-6.907c21.567-88.091,72.3-188.364,135.723-292.882,62.293-104.519,135.559-213.279,174.26-318.355C-1524.538,1351.377-1522.12,1348.721-1520.119,1348.158Z" transform="translate(1835.7 -1348.05)" fill="#ffc900"/>
            </g>
            <g id="Groupe_22" data-name="Groupe 22" transform="translate(2.589 764.912)">
              <path id="Tracé_234" data-name="Tracé 234" d="M-1445.553,1316.791c1.525.2,1.178,2.958-.766,6.149-48.617,79.405-98.311,157.663-135.3,231.1-37.62,73.437-62.285,142.037-76.337,202.143-.57,2.42-2.539,2.982-4.375,1.282a8.184,8.184,0,0,1-2.184-7.376c15.22-59.387,40.6-127.163,78.33-199.7,37.124-72.538,86.37-149.838,134.4-228.26C-1449.865,1318.976-1447.076,1316.591-1445.553,1316.791Z" transform="translate(1664.703 -1316.78)" fill="#0a5961"/>
            </g>
            <g id="Groupe_23" data-name="Groupe 23" transform="translate(232.559 498.025)">
              <path id="Tracé_235" data-name="Tracé 235" d="M-1697.159,1663.855c2.843-1.06,4.414.959,3.447,4.533-20.978,77.775-64.532,158.545-112.557,238.624-2.2,3.678-5.866,6.478-8.172,6.254s-2.415-3.325-.264-6.918c47.133-78.618,89.77-157.905,110.7-234.245C-1703.042,1668.613-1700,1664.92-1697.159,1663.855Z" transform="translate(1816.246 -1663.573)" fill="#3992a0"/>
            </g>
            <g id="Groupe_24" data-name="Groupe 24" transform="translate(55.694 837.745)">
              <path id="Tracé_236" data-name="Tracé 236" d="M-1498.592,1235.127c1.045.307.925,2.155-.265,4.122-54.65,89.791-102.432,177.068-128.936,257.228a582.119,582.119,0,0,0-31.248,214.552c.049,1.348-1.5,1.3-3.441-.1s-3.506-3.6-3.512-4.929a601.272,601.272,0,0,1,34.309-212.806c27.058-79.505,74.777-166.05,129.064-255.093C-1501.443,1236.155-1499.638,1234.825-1498.592,1235.127Z" transform="translate(1666.09 -1235.084)" fill="#001c3a"/>
            </g>
            <g id="Groupe_25" data-name="Groupe 25" transform="translate(374.423 415.042)">
              <path id="Tracé_237" data-name="Tracé 237" d="M-1846.405,1791.3c1.277-.638,2.107,2.479,1.722,6.959-4.065,48.128-18.51,97.65-39.684,147.791-1.967,4.668-4.671,8.687-5.951,8.954s-.672-3.269,1.281-7.9c21.043-49.749,35.461-98.875,39.689-146.628C-1848.947,1796.035-1847.685,1791.929-1846.405,1791.3Z" transform="translate(1890.994 -1791.217)" fill="#001c3a"/>
            </g>
            <g id="Groupe_26" data-name="Groupe 26" transform="translate(48.675 780.011)">
              <path id="Tracé_238" data-name="Tracé 238" d="M-1493.754,1377.127c2.221.366,2.148,3.724-.167,7.511-73.9,118.757-142.525,234.56-173.956,336.009-1.041,3.235-3.686,4.177-5.927,2.126s-3.167-6.265-2.064-9.43c33.186-99.7,101.343-213.489,173.98-330.158C-1499.614,1379.481-1495.978,1376.766-1493.754,1377.127Z" transform="translate(1676.333 -1377.095)" fill="#ff9929"/>
            </g>
            <g id="Groupe_27" data-name="Groupe 27" transform="translate(248.228 652.311)">
              <path id="Tracé_239" data-name="Tracé 239" d="M-1704.606,1662.485c2.593-.269,3.071,2.6,1.024,6.405-15.017,27.977-31.3,56.016-48.049,83.967-2.28,3.805-6.007,6.707-8.31,6.481s-2.357-3.418-.127-7.142c16.454-27.461,32.426-55.006,47.172-82.484C-1710.9,1665.991-1707.2,1662.749-1704.606,1662.485Z" transform="translate(1761.705 -1662.468)" fill="#fa214d"/>
            </g>
            <g id="Groupe_28" data-name="Groupe 28" transform="translate(344.253 303.121)">
              <path id="Tracé_240" data-name="Tracé 240" d="M-1827.928,1894.411c1.089-1.036,2.475-.594,3.075.99,16.135,42.5,21.176,87.389,16.42,133.8a5.927,5.927,0,0,1-2.866,4.352c-1.4.669-2.376-.175-2.193-1.885,4.9-45.978.2-90.442-15.357-132.544A4.741,4.741,0,0,1-1827.928,1894.411Z" transform="translate(1829.11 -1893.85)" fill="#ff9929"/>
            </g>
            <g id="Groupe_29" data-name="Groupe 29" transform="translate(0 1141.17)">
              <path id="Tracé_241" data-name="Tracé 241" d="M-1420.217,1193.518a10.412,10.412,0,0,1,2.613,9.545c-25.242,87.616-23.471,163.053-32.106,218.314-.323,1.983-4.422.98-9.028-2.206s-7.866-7.311-7.423-9.259c11.493-54.364,13.061-128.526,40.045-214.64C-1425.175,1192.192-1422.53,1191.4-1420.217,1193.518Z" transform="translate(1466.202 -1192.329)" fill="#3992a0"/>
            </g>
            <g id="Groupe_30" data-name="Groupe 30" transform="translate(83.783 1147.875)">
              <path id="Tracé_242" data-name="Tracé 242" d="M-1510.011,1307.574c1.547,1.27,2.119,5.336,1.344,9.039a509.84,509.84,0,0,0-8.877,57.77c-.326,3.506-2.069,5.131-3.942,3.651s-3.085-5.467-2.679-8.931a529.517,529.517,0,0,1,9.8-57.178C-1513.526,1308.264-1511.556,1306.3-1510.011,1307.574Z" transform="translate(1524.243 -1307.185)" fill="#fa214d"/>
            </g>
            <g id="Groupe_31" data-name="Groupe 31" transform="translate(16.248)">
              <path id="Tracé_243" data-name="Tracé 243" d="M-1867.746,1881.406c-2.761-3.46-1-4.633,4.023-2.6,124.866,50.509,235.106,117.477,301.086,195.094,67.349,77.612,90.158,165.877,73.954,258.97-.62,3.744-3.466,7.728-6.282,8.887s-4.522-.883-3.885-4.553c16.518-91.467-4.447-178.179-68.234-254.413-62.489-76.238-167.531-142-287.118-191.568C-1858.971,1889.234-1864.994,1884.858-1867.746,1881.406Z" transform="translate(1869.048 -1877.808)" fill="#001c3a"/>
            </g>
            <g id="Groupe_32" data-name="Groupe 32" transform="translate(221.157 91.037)">
              <path id="Tracé_244" data-name="Tracé 244" d="M-1889.307,1924.239c-.318-2.2,3.62-1.192,8.711,2.3,124.7,84.483,190.779,187.629,189.461,299.369.015,4.614-1.754,9.227-3.8,10.288s-3.591-1.772-3.561-6.319c2.147-110.3-61.076-212.115-181.342-295.481C-1884.724,1930.961-1888.993,1926.432-1889.307,1924.239Z" transform="translate(1889.325 -1923.078)" fill="#fa214d"/>
            </g>
            <g id="Groupe_33" data-name="Groupe 33" transform="translate(287.421 181.899)">
              <path id="Tracé_245" data-name="Tracé 245" d="M-1850.98,1769.19c.53-1.491,2.278-1.351,3.895.322,57.823,59.592,89.322,126.6,93.76,197.91,4.962,71.317-16.928,146.937-53.084,223.768-1.01,2.154-3.1,4.126-4.63,4.391s-1.964-1.243-.966-3.375c35.811-76.047,57.634-150.9,53.221-221.475-3.9-70.581-34.236-136.888-90.325-195.856C-1850.665,1773.222-1851.512,1770.681-1850.98,1769.19Z" transform="translate(1851.139 -1768.158)" fill="#0a5961"/>
            </g>
            <g id="Groupe_34" data-name="Groupe 34" transform="translate(68.597 38.762)">
              <path id="Tracé_246" data-name="Tracé 246" d="M-1698.308,2113.384c-.975-1.687.039-2.214,2.288-1.175,67.719,31.266,129.395,68.177,178.621,109.5,1.636,1.368,2.769,3.611,2.53,5s-1.716,1.4-3.308.046c-47.982-40.93-108.192-77.5-174.414-108.471A14.844,14.844,0,0,1-1698.308,2113.384Z" transform="translate(1698.678 -2111.677)" fill="#ffc900"/>
            </g>
          </g>
        </g>
      </g>
    </g>
  </g>
</svg>
