<svg xmlns="http://www.w3.org/2000/svg" xmlns:xlink="http://www.w3.org/1999/xlink" width="1920" height="424" viewBox="0 0 1920 424">
  <defs>
    <clipPath id="clip-path">
      <rect id="Rectangle_1561" data-name="Rectangle 1561" width="1920" height="424" transform="translate(0 4729)" fill="#fff" stroke="#707070" stroke-width="1"/>
    </clipPath>
  </defs>
  <g id="Groupe_de_masques_38" data-name="Groupe de masques 38" transform="translate(0 -4729)" clip-path="url(#clip-path)">
    <g id="Groupe_317" data-name="Groupe 317" transform="translate(-2 4477.786)">
      <g id="Groupe_38" data-name="Groupe 38" transform="matrix(0.998, 0.07, -0.07, 0.998, 284.861, -3627.05)">
        <g id="Groupe_39" data-name="Groupe 39" transform="translate(0 45.348)">
          <path id="Tracé_247" data-name="Tracé 247" d="M-581.08,4174.943V3975.555s206.3-168.058,615.453-216.535,581.07-71.1,735.793-84.029,477.921-103.42,570.755-210.072V4172.7Z" transform="translate(579.08 259.428)" fill="#001c3a"/>
        </g>
        <g id="Groupe_430" data-name="Groupe 430" transform="translate(566.466 302.856)">
          <g id="Groupe_416" data-name="Groupe 416" transform="translate(186.258 3588.95)">
            <path id="Tracé_369" data-name="Tracé 369" d="M34.071,3689.758c-2.808-2.321-2.035-4.577,1.736-5.033,292.68-35.575,606.2-49.922,847.278-126.065,3.1-.984,7.62.359,10.1,3.014s1.987,5.6-1.119,6.577c-240.878,75.565-553.849,89.658-846.1,124.885A17.972,17.972,0,0,1,34.071,3689.758Z" transform="translate(-32.383 -3558.337)" fill="#ffc900"/>
          </g>
          <g id="Groupe_417" data-name="Groupe 417" transform="translate(564.232 3602.376)">
            <path id="Tracé_370" data-name="Tracé 370" d="M336.406,3699.027c-2.528-2.282-.806-4.507,3.836-4.971,231.158-23.133,454.52-51.174,625.992-124.183,3.442-1.468,8.095-.592,10.417,1.984s1.431,5.862-2.006,7.318c-171.4,72.51-394.454,100.272-625.273,123.156C344.742,3702.789,338.929,3701.31,336.406,3699.027Z" transform="translate(-335.24 -3569.161)" fill="#0a5961"/>
          </g>
          <g id="Groupe_418" data-name="Groupe 418" transform="translate(149.725 3728.39)">
            <path id="Tracé_371" data-name="Tracé 371" d="M12.067,3715.771c-3.97-3.213-3.021-6.386,2.149-7.069,112.657-14.929,229.716-25.644,345.552-37,5.312-.521,12.668,1.794,16.42,5.166s2.515,6.528-2.785,7.04c-115.584,11.179-232.387,21.723-344.822,36.453C23.427,3721.032,16.035,3718.98,12.067,3715.771Z" transform="translate(-9.616 -3671.626)" fill="#3992a0"/>
          </g>
          <g id="Groupe_419" data-name="Groupe 419" transform="translate(584.7 3484.532)">
            <path id="Tracé_372" data-name="Tracé 372" d="M353.195,3645.269c-1.842-1.709-1.2-3.354,1.445-3.658,241.415-28.2,467.832-67.521,627.134-165.764,1.741-1.075,4.542-.36,6.266,1.61s1.713,4.446-.03,5.513c-159.321,97.775-385.533,136.853-626.692,164.848A11.573,11.573,0,0,1,353.195,3645.269Z" transform="translate(-352.145 -3475.348)" fill="#001c3a"/>
          </g>
          <g id="Groupe_420" data-name="Groupe 420" transform="translate(-17.077 3686.141)">
            <path id="Tracé_373" data-name="Tracé 373" d="M-123.436,3669.486c-1.88-1.483,1.4-3.505,7.358-4.485,63.958-10.549,129.894-19.272,196.7-27.114,6.218-.73,12.749-.072,14.575,1.464s-1.742,3.359-7.954,4.084c-66.74,7.79-132.614,16.459-196.515,26.953C-115.222,3671.364-121.558,3670.969-123.436,3669.486Z" transform="translate(123.966 -3637.59)" fill="#001c3a"/>
          </g>
          <g id="Groupe_421" data-name="Groupe 421" transform="translate(543.864 3619.88)">
            <path id="Tracé_374" data-name="Tracé 374" d="M327.784,3668.158c-3.732-3.393-2.454-6.591,2.848-7.147,166.694-17.445,328.681-38.1,469.271-77.032,4.47-1.24,10.9.72,14.379,4.4s2.705,7.676-1.762,8.9c-140.4,38.5-302.06,58.859-468.389,76.041C338.843,3673.864,331.518,3671.549,327.784,3668.158Z" transform="translate(-325.645 -3583.607)" fill="#ff9929"/>
          </g>
          <g id="Groupe_422" data-name="Groupe 422" transform="translate(353.512 3704.832)">
            <path id="Tracé_375" data-name="Tracé 375" d="M178.458,3671.665c-3.837-3.313-2.628-6.448,2.712-6.988,39.325-3.986,78.729-7.86,117.993-11.808,5.335-.533,12.7,1.764,16.459,5.138s2.494,6.541-2.824,7.068c-39.179,3.889-78.5,7.7-117.738,11.628C189.735,3677.232,182.3,3674.982,178.458,3671.665Z" transform="translate(-176.217 -3652.791)" fill="#fa214d"/>
          </g>
          <g id="Groupe_423" data-name="Groupe 423" transform="translate(-140.899 3783.227)">
            <path id="Tracé_376" data-name="Tracé 376" d="M-222.542,3759.99c-2.052-1.525-1.861-3.25.432-3.854,61.575-16.2,126.756-29.177,194.218-40.041a12,12,0,0,1,8.189,2.144c2.006,1.585,1.593,3.194-.915,3.6-67.4,10.8-132.527,23.705-194.063,39.82A10.51,10.51,0,0,1-222.542,3759.99Z" transform="translate(223.964 -3716.003)" fill="#ff9929"/>
          </g>
          <g id="Groupe_424" data-name="Groupe 424" transform="translate(1062.315 3431.785)">
            <path id="Tracé_377" data-name="Tracé 377" d="M748.787,3613.587c-3.476-3.7-2.747-7.772,1.595-9.128,121.168-37.792,224.244-91.126,297.544-171.052,2.628-2.869,7.535-1.837,11.016,2.338s4.218,9.9,1.581,12.734c-73.489,79.208-176.552,132.013-297.575,169.4C758.618,3619.219,752.26,3617.283,748.787,3613.587Z" transform="translate(-746.588 -3431.785)" fill="#3992a0"/>
          </g>
          <g id="Groupe_425" data-name="Groupe 425" transform="translate(949.848 3528.543)">
            <path id="Tracé_378" data-name="Tracé 378" d="M660.166,3541.621c-2.255-2.369-.182-5.373,4.584-6.747q38.176-10.992,74.124-23.9c4.484-1.617,9.9-.994,12.129,1.428s.44,5.714-4.039,7.321q-35.874,12.87-74.068,23.742C668.132,3544.822,662.417,3543.986,660.166,3541.621Z" transform="translate(-659.254 -3510.072)" fill="#fa214d"/>
          </g>
          <g id="Groupe_426" data-name="Groupe 426" transform="translate(-574.081 3738.373)">
            <path id="Tracé_379" data-name="Tracé 379" d="M-570,3938.18c-4.1-2.546-5.324-7.065-2.712-10.046,130.378-148.369,358.04-213.412,613.678-251.972,5.132-.78,12.543,1.2,16.528,4.4s3.053,6.4-2.068,7.168c-255.152,38.089-482.542,102.493-613.3,249.691C-560.5,3940.364-565.908,3940.729-570,3938.18Z" transform="translate(574.081 -3675.992)" fill="#001c3a"/>
          </g>
          <g id="Groupe_427" data-name="Groupe 427" transform="translate(-455.952 3725.159)">
            <path id="Tracé_380" data-name="Tracé 380" d="M-474.72,3803.167c-3.145-2.128-2.079-5.958,2.439-8.5,109.554-61.52,246.176-99.542,395.114-126.246,6.143-1.1,13.617-.03,16.664,2.366s.527,5.2-5.6,6.295c-148.738,26.477-285.233,64.216-394.8,125.336C-465.417,3804.945-471.58,3805.3-474.72,3803.167Z" transform="translate(476.523 -3667.992)" fill="#fa214d"/>
          </g>
          <g id="Groupe_428" data-name="Groupe 428" transform="translate(-328.251 3728.284)">
            <path id="Tracé_381" data-name="Tracé 381" d="M-369.257,3798.844c-2.365-1.662-2.411-3.809-.092-4.784,165.593-69.543,375.484-100.152,592.035-123.409a14.393,14.393,0,0,1,9.51,2.815c2.21,1.88,1.554,3.665-1.48,3.988-216.292,23.061-425.95,53.457-591.493,122.637C-363.1,3801.062-366.89,3800.506-369.257,3798.844Z" transform="translate(371.06 -3670.6)" fill="#0a5961"/>
          </g>
          <g id="Groupe_429" data-name="Groupe 429" transform="translate(-525.521 3882.586)">
            <path id="Tracé_382" data-name="Tracé 382" d="M-532,3905.974c-2.056-1.305-2.6-3.5-1.188-4.886,42.391-41.923,93.286-76.576,150.788-105.472,1.9-.956,5.143-.568,7.214.861s2.2,3.357.3,4.311c-57.5,28.765-108.411,63.274-150.85,105.03C-527.153,3907.2-529.947,3907.278-532,3905.974Z" transform="translate(533.977 -3795.092)" fill="#ffc900"/>
          </g>
        </g>
      </g>
      <path id="Tracé_403" data-name="Tracé 403" d="M2,902.214H1925.143V341.649L1614.68,550.56H306.09L2,689.833Z" transform="translate(-3)" fill="#001c3a"/>
    </g>
  </g>
</svg>
