<svg id="Composant_6_22" data-name="Composant 6 – 22" xmlns="http://www.w3.org/2000/svg" xmlns:xlink="http://www.w3.org/1999/xlink" width="414" height="631" viewBox="0 0 414 631">
  <defs>
    <clipPath id="clip-path">
      <rect id="Rectangle_1561" data-name="Rectangle 1561" width="414" height="140" transform="translate(0 4729.074)" fill="#fff" stroke="#707070" stroke-width="1"/>
    </clipPath>
  </defs>
  <g id="Groupe_de_masques_38" data-name="Groupe de masques 38" transform="translate(0 -4729.074)" clip-path="url(#clip-path)">
    <g id="Groupe_317" data-name="Groupe 317" transform="translate(-8.994 4692.223)">
      <g id="Groupe_38" data-name="Groupe 38" transform="translate(13.988 0) rotate(4.992)">
        <g id="Groupe_39" data-name="Groupe 39" transform="translate(1.213 7.563)">
          <path id="Tracé_247" data-name="Tracé 247" d="M0,153.22V110.193S44.519,73.927,132.812,63.466,258.2,48.123,291.593,45.333,394.726,23.015,414.759,0V152.737Z" transform="translate(0 0)" fill="#001c3a"/>
        </g>
        <g id="Groupe_430" data-name="Groupe 430" transform="translate(0 0)">
          <g id="Groupe_416" data-name="Groupe 416" transform="translate(164.079 33.915)">
            <path id="Tracé_369" data-name="Tracé 369" d="M.364,28.36c-.606-.5-.439-.988.375-1.086C63.9,19.6,131.554,16.5,183.578.07a2.327,2.327,0,0,1,2.18.65c.535.573.429,1.208-.241,1.419C133.535,18.446,66,21.487,2.931,29.089A3.878,3.878,0,0,1,.364,28.36Z" transform="translate(0 0)" fill="#ffc900"/>
          </g>
          <g id="Groupe_417" data-name="Groupe 417" transform="translate(245.644 36.813)">
            <path id="Tracé_370" data-name="Tracé 370" d="M.252,28.024c-.546-.492-.174-.973.828-1.073C50.962,21.96,99.163,15.908,136.166.153a2.1,2.1,0,0,1,2.248.428.944.944,0,0,1-.433,1.579C100.993,17.808,52.859,23.8,3.05,28.737A4.167,4.167,0,0,1,.252,28.024Z" transform="translate(0 0)" fill="#0a5961"/>
          </g>
          <g id="Groupe_418" data-name="Groupe 418" transform="translate(156.195 64.006)">
            <path id="Tracé_371" data-name="Tracé 371" d="M.529,9.526C-.328,8.832-.123,8.148.993,8,25.3,4.779,50.564,2.466,75.561.016A5.265,5.265,0,0,1,79.1,1.131c.81.728.543,1.409-.6,1.519C53.561,5.062,28.356,7.338,4.093,10.516A5.374,5.374,0,0,1,.529,9.526Z" transform="translate(0 0)" fill="#3992a0"/>
          </g>
          <g id="Groupe_419" data-name="Groupe 419" transform="translate(250.061 11.382)">
            <path id="Tracé_372" data-name="Tracé 372" d="M.227,36.668c-.4-.369-.259-.724.312-.789C52.635,29.794,101.495,21.308,135.871.108a1.133,1.133,0,0,1,1.352.347c.372.425.37.959-.007,1.19-34.381,21.1-83.2,29.532-135.237,35.573a2.5,2.5,0,0,1-1.753-.55Z" transform="translate(0 0)" fill="#001c3a"/>
          </g>
          <g id="Groupe_420" data-name="Groupe 420" transform="translate(120.2 54.889)">
            <path id="Tracé_373" data-name="Tracé 373" d="M.114,6.883c-.406-.32.3-.756,1.588-.968C15.5,3.639,29.733,1.757,44.149.064A5.591,5.591,0,0,1,47.294.38c.394.331-.376.725-1.716.881C31.176,2.943,16.96,4.813,3.171,7.078A5.253,5.253,0,0,1,.114,6.883Z" transform="translate(0 0)" fill="#001c3a"/>
          </g>
          <g id="Groupe_421" data-name="Groupe 421" transform="translate(241.249 40.59)">
            <path id="Tracé_374" data-name="Tracé 374" d="M.462,18.246c-.805-.732-.53-1.422.615-1.542C37.048,12.939,72,8.482,102.343.08a3.457,3.457,0,0,1,3.1.95c.751.794.584,1.656-.38,1.921-30.3,8.308-65.183,12.7-101.076,16.409A5.186,5.186,0,0,1,.462,18.246Z" transform="translate(0 0)" fill="#ff9929"/>
          </g>
          <g id="Groupe_422" data-name="Groupe 422" transform="translate(200.172 58.923)">
            <path id="Tracé_375" data-name="Tracé 375" d="M.484,4.073c-.828-.715-.567-1.391.585-1.508C9.555,1.7,18.058.868,26.531.017a5.262,5.262,0,0,1,3.552,1.109c.811.728.538,1.412-.609,1.525C21.019,3.49,12.534,4.312,4.066,5.16A5.449,5.449,0,0,1,.484,4.073Z" transform="translate(0 0)" fill="#fa214d"/>
          </g>
          <g id="Groupe_423" data-name="Groupe 423" transform="translate(93.48 75.845)">
            <path id="Tracé_376" data-name="Tracé 376" d="M.307,9.486c-.443-.329-.4-.7.093-.832,13.288-3.5,27.353-6.3,41.911-8.641a2.589,2.589,0,0,1,1.767.463c.433.342.344.689-.2.777C29.336,3.584,15.282,6.369,2,9.847a2.268,2.268,0,0,1-1.7-.36Z" transform="translate(0 0)" fill="#ff9929"/>
          </g>
          <g id="Groupe_424" data-name="Groupe 424" transform="translate(353.128 0)">
            <path id="Tracé_377" data-name="Tracé 377" d="M.474,39.232c-.75-.8-.593-1.677.344-1.97C26.966,29.107,49.21,17.6,65.027.35c.567-.619,1.626-.4,2.377.5A2.221,2.221,0,0,1,67.746,3.6C51.887,20.7,29.647,32.09,3.53,40.158A3.314,3.314,0,0,1,.474,39.232Z" transform="translate(0)" fill="#3992a0"/>
          </g>
          <g id="Groupe_425" data-name="Groupe 425" transform="translate(328.858 20.88)">
            <path id="Tracé_378" data-name="Tracé 378" d="M.2,6.807C-.29,6.3.158,5.648,1.186,5.351q8.238-2.372,16-5.158A2.657,2.657,0,0,1,19.8.5c.481.523.095,1.233-.872,1.58Q11.186,4.859,2.944,7.205A3.07,3.07,0,0,1,.2,6.807Z" transform="translate(0 0)" fill="#fa214d"/>
          </g>
          <g id="Groupe_426" data-name="Groupe 426" transform="translate(0 66.16)">
            <path id="Tracé_379" data-name="Tracé 379" d="M.882,56.579A1.441,1.441,0,0,1,.3,54.411C28.432,22.394,77.56,8.358,132.726.037a5.249,5.249,0,0,1,3.567.949c.86.691.659,1.381-.446,1.547C80.785,10.752,31.716,24.651,3.5,56.415A2.124,2.124,0,0,1,.882,56.579Z" transform="translate(0 0)" fill="#001c3a"/>
          </g>
          <g id="Groupe_427" data-name="Groupe 427" transform="translate(25.493 63.308)">
            <path id="Tracé_380" data-name="Tracé 380" d="M.389,29.171c-.679-.459-.449-1.286.526-1.834C24.557,14.061,54.039,5.856,86.179.093a5.323,5.323,0,0,1,3.6.511c.658.517.114,1.122-1.208,1.358C56.47,7.676,27.015,15.82,3.371,29.009A3.173,3.173,0,0,1,.389,29.171Z" transform="translate(0 0)" fill="#fa214d"/>
          </g>
          <g id="Groupe_428" data-name="Groupe 428" transform="translate(53.05 63.986)">
            <path id="Tracé_381" data-name="Tracé 381" d="M.389,27.67c-.51-.359-.52-.822-.02-1.032C36.1,11.63,81.4,5.025,128.128.006a3.107,3.107,0,0,1,2.052.608c.477.406.335.791-.319.861C83.186,6.451,37.942,13.01,2.219,27.939A2.129,2.129,0,0,1,.389,27.67Z" transform="translate(0 0)" fill="#0a5961"/>
          </g>
          <g id="Groupe_429" data-name="Groupe 429" transform="translate(10.481 97.279)">
            <path id="Tracé_382" data-name="Tracé 382" d="M.426,23.928c-.444-.282-.561-.755-.256-1.054A126.7,126.7,0,0,1,32.709.113,1.709,1.709,0,0,1,34.266.3c.447.308.475.724.065.93A126.867,126.867,0,0,0,1.778,23.894,1.148,1.148,0,0,1,.426,23.928Z" transform="translate(0 0)" fill="#ffc900"/>
          </g>
        </g>
      </g>
      <path id="Tracé_403" data-name="Tracé 403" d="M2,462.616H417.005V341.649l-67,45.082H67.621L2,416.786Z" transform="translate(6.346 -285.352)" fill="#001c3a"/>
    </g>
  </g>
  <rect id="Rectangle_1519" data-name="Rectangle 1519" width="414" height="545" transform="translate(0 86)" fill="#001c3a"/>
</svg>
