<svg xmlns="http://www.w3.org/2000/svg" width="609.891" height="1609.349" viewBox="0 0 609.891 1609.349">
  <g id="Groupe_431" data-name="Groupe 431" transform="matrix(0.999, -0.035, 0.035, 0.999, -29.861, 0.635)">
    <g id="Groupe_431-2" data-name="Groupe 431" transform="translate(158.523 229.477)">
      <path id="Tracé_386" data-name="Tracé 386" d="M310.953,920.025a18.167,18.167,0,0,1-9.976-8.605C163.68,627.561-8.728,321.331,109.895,122.477c1.466-2.572,4.081-3.931,5.785-3.056s1.88,3.662.451,6.245C.128,325.082,174.557,631.411,314.7,915.444,316.452,919.09,314.768,921.139,310.953,920.025Z" transform="translate(-70.25 -119.156)" fill="#ffc900"/>
    </g>
    <g id="Groupe_432" data-name="Groupe 432" transform="translate(200.267 163.409)">
      <path id="Tracé_387" data-name="Tracé 387" d="M198.569,668.644c-2.865-1-6.938-5.471-9.063-9.974C81.565,434.029,37.255,226.584,181.6,91.685c2.863-2.717,6.327-4.278,7.645-3.515s.025,3.564-2.787,6.291C44.063,229.837,90.107,437.532,199.811,662.3,201.976,666.8,201.438,669.647,198.569,668.644Z" transform="translate(-89.95 -87.977)" fill="#0a5961"/>
    </g>
    <g id="Groupe_433" data-name="Groupe 433" transform="translate(312.575 749.457)">
      <path id="Tracé_388" data-name="Tracé 388" d="M332.842,729.267c-5.626-1.577-12.1-6.908-14.5-11.924C265.817,607.9,199.448,492.52,144.19,379.9c-2.534-5.166-1.057-8.131,3.265-6.639s9.911,6.889,12.517,12.055c56.593,112.708,124.363,228.161,178.582,337.72C341.044,728.059,338.468,730.841,332.842,729.267Z" transform="translate(-142.95 -372.878)" fill="#3992a0"/>
    </g>
    <g id="Groupe_434" data-name="Groupe 434" transform="translate(143.383 83.89)">
      <path id="Tracé_389" data-name="Tracé 389" d="M115.021,596.456c-1.983-.737-4.308-3.348-5.185-5.851C27.093,361.841,39.018,162.679,270.756,51.914c2.509-1.218,5.189-1.786,5.959-1.276s-.651,1.909-3.138,3.134c-230.188,111.189-240.7,310.6-156.593,539.482C117.878,595.754,117,597.187,115.021,596.456Z" transform="translate(-63.105 -50.451)" fill="#001c3a"/>
    </g>
    <g id="Groupe_435" data-name="Groupe 435" transform="translate(328.047 939.757)">
      <path id="Tracé_390" data-name="Tracé 390" d="M236.17,672.868c-2.831-.757-6.505-5.9-8.3-11.525-19.323-60.415-46.3-123.683-75.4-187.982-2.708-5.99-2.986-10.267-.587-9.54s6.586,6.175,9.339,12.165c29.514,64.325,56.955,127.626,76.8,188.084C239.872,669.7,239,673.624,236.17,672.868Z" transform="translate(-150.251 -463.74)" fill="#001c3a"/>
    </g>
    <g id="Groupe_436" data-name="Groupe 436" transform="translate(174.938 261.019)">
      <path id="Tracé_391" data-name="Tracé 391" d="M171.48,584.925c-4.2-1.488-9.425-6.83-11.635-11.928C89.652,412.654,52.074,261.684,98.474,141.971c1.464-3.812,4.8-5.846,7.334-4.59s3.378,5.344,1.986,9.173C63.4,266.671,102.822,417.866,174.911,578.36,177.195,583.465,175.674,586.406,171.48,584.925Z" transform="translate(-77.996 -137.01)" fill="#ff9929"/>
    </g>
    <g id="Groupe_437" data-name="Groupe 437" transform="translate(283.185 742.193)">
      <path id="Tracé_392" data-name="Tracé 392" d="M199.827,501.781c-4.785-1.524-10.792-6.969-13.407-12.163-19.33-38.261-38.363-76.535-56.2-114.5-2.416-5.156-.848-8.118,3.477-6.624s9.82,6.88,12.311,12.04c18.293,38,37.795,76.3,57.6,114.59C206.3,500.323,204.61,503.3,199.827,501.781Z" transform="translate(-129.08 -368.108)" fill="#fa214d"/>
    </g>
    <g id="Groupe_438" data-name="Groupe 438" transform="translate(533.729 1176.932)">
      <path id="Tracé_393" data-name="Tracé 393" d="M299.624,768.747c-3.579-.86-6.512-3.246-6.575-5.331-1.769-56.008-19.4-117.538-45.453-182.318-.968-2.414.655-3.727,3.645-2.924s6.232,3.416,7.226,5.829c26.636,64.831,44.93,126.429,47.487,182.53C306.049,768.624,303.211,769.612,299.624,768.747Z" transform="translate(-247.316 -577.938)" fill="#ff9929"/>
    </g>
    <g id="Groupe_439" data-name="Groupe 439" transform="translate(209.394 20.567)">
      <path id="Tracé_394" data-name="Tracé 394" d="M96.451,248c-2.454-1.237-2.948-5.221-.981-8.845C149.657,137.818,272.746,62.64,477.066,22.077c7.306-1.458,14.028-1.928,14.871-1.11S487.5,23.6,480.272,25.082c-202.457,41.143-323.65,116.83-376.051,218.542C102.327,247.265,98.909,249.244,96.451,248Z" transform="translate(-94.257 -20.567)" fill="#3992a0"/>
    </g>
    <g id="Groupe_440" data-name="Groupe 440" transform="translate(147.28 186.313)">
      <path id="Tracé_395" data-name="Tracé 395" d="M66.171,173.285c-1.678-.82-1.653-4.751.191-8.724a295.87,295.87,0,0,1,37.5-60.576c2.863-3.579,6.455-5.817,7.889-5.047s.212,4.263-2.6,7.855a293.806,293.806,0,0,0-36.795,60.722C70.568,171.5,67.853,174.107,66.171,173.285Z" transform="translate(-64.944 -98.786)" fill="#fa214d"/>
    </g>
    <g id="Groupe_441" data-name="Groupe 441" transform="translate(-8.635 1102.894)">
      <path id="Tracé_396" data-name="Tracé 396" d="M1.583,1047.117c-12.661-2.693-13.634-5.37-2.483-6.058,275.65-17.7,405.249-79.842,458.569-167.091,52.634-87.407,28.986-199.918-17.742-322-1.9-4.908,1.191-7.609,6.955-6.024s12.1,6.878,14.1,11.79C509.828,679.985,536,792.748,487.064,880.7c-49.608,87.8-174.329,150.8-442.743,169.977C33.516,1051.45,14.244,1049.808,1.583,1047.117Z" transform="translate(8.635 -545.489)" fill="#001c3a"/>
    </g>
    <g id="Groupe_442" data-name="Groupe 442" transform="translate(294.347 1157.392)">
      <path id="Tracé_397" data-name="Tracé 397" d="M140.241,926.44c-7.315-1.606-7.83-5.359-1.494-8.5C291.257,841.5,300.053,719.313,262.574,579.685c-1.564-5.761.826-9.47,5.456-8.243s9.826,6.936,11.491,12.7C319.1,723.975,312.992,846.471,164.83,923.666,158.709,926.847,147.552,928.038,140.241,926.44Z" transform="translate(-134.348 -571.207)" fill="#fa214d"/>
    </g>
    <g id="Groupe_443" data-name="Groupe 443" transform="translate(380.14 919.375)">
      <path id="Tracé_398" data-name="Tracé 398" d="M284.505,1018.05c-4.872-1.1-7.531-3.49-6.005-5.372C385.218,878.3,280.975,673.5,175.507,462.881c-1.5-2.954-.411-4.645,2.439-3.765a15.645,15.645,0,0,1,7.923,6.946C292.958,676.789,399.061,881.679,296.02,1016.633,294.558,1018.519,289.372,1019.152,284.505,1018.05Z" transform="translate(-174.835 -458.883)" fill="#0a5961"/>
    </g>
    <g id="Groupe_444" data-name="Groupe 444" transform="translate(154.128 1515.561)">
      <path id="Tracé_399" data-name="Tracé 399" d="M73.336,838.264c-5.961-1.265-6.878-2.742-2.123-3.31,143.04-17.221,235.6-49.818,294.147-93.345,1.941-1.439,7.133-1.816,11.65-.814s6.673,3,4.785,4.452C324.59,789,233.642,821.886,92.63,839.519,87.968,840.1,79.291,839.536,73.336,838.264Z" transform="translate(-68.176 -740.233)" fill="#ffc900"/>
    </g>
  </g>
</svg>
