<svg xmlns="http://www.w3.org/2000/svg" width="674.5" height="1609" viewBox="0 0 674.5 1609">
  <g id="Groupe_37" data-name="Groupe 37" transform="translate(-720 -1629)">
    <g id="Groupe_36" data-name="Groupe 36" transform="translate(720 1629)">
      <g id="Groupe_35" data-name="Groupe 35" transform="translate(0 0)">
        <g id="Groupe_21" data-name="Groupe 21" transform="translate(77.599 241.761)">
          <path id="Tracé_233" data-name="Tracé 233" d="M-1832.1,2081.339c-3.212.673-4.53-1.4-2.9-4.615,62.5-124.845,181.863-254.053,282.528-378.21,102.548-124.157,183.539-243.256,215.79-347.875.88-2.7,3.883-3.4,6.71-1.574s4.353,5.447,3.4,8.1c-34.567,103.366-115.881,221.025-217.536,343.666-99.843,122.642-217.272,250.26-279.3,373.555C-1825.016,2077.562-1828.892,2080.679-1832.1,2081.339Z" transform="translate(1835.7 -1348.05)" fill="#ffc900"/>
        </g>
        <g id="Groupe_22" data-name="Groupe 22" transform="translate(317.576 193.212)">
          <path id="Tracé_234" data-name="Tracé 234" d="M-1663.179,1835.012c-2.443-.236-1.888-3.471,1.228-7.216,77.922-93.173,157.572-185,216.851-271.167,60.3-86.17,99.829-166.665,122.352-237.193.914-2.839,4.07-3.5,7.013-1.5s4.508,5.859,3.5,8.655c-24.394,69.684-65.068,149.212-125.546,234.331-59.5,85.115-138.432,175.819-215.408,267.839C-1656.268,1832.449-1660.738,1835.246-1663.179,1835.012Z" transform="translate(1664.703 -1316.78)" fill="#0a5961"/>
        </g>
        <g id="Groupe_23" data-name="Groupe 23" transform="translate(104.901 731.619)">
          <path id="Tracé_235" data-name="Tracé 235" d="M-1810.263,1956.245c-4.557,1.244-7.075-1.125-5.525-5.319,33.623-91.26,103.432-186.036,180.405-280,3.53-4.316,9.4-7.6,13.1-7.339s3.87,3.9.424,8.118c-75.545,92.25-143.881,185.285-177.427,274.861C-1800.834,1950.662-1805.708,1955-1810.263,1956.245Z" transform="translate(1816.246 -1663.573)" fill="#3992a0"/>
        </g>
        <g id="Groupe_24" data-name="Groupe 24" transform="translate(315.629 66.378)">
          <path id="Tracé_236" data-name="Tracé 236" d="M-1664.95,1794.653c-1.674-.36-1.482-2.529.425-4.836,87.593-105.36,164.177-207.77,206.657-301.83,44.2-94.062,53.99-179.774,50.084-251.753-.079-1.582,2.41-1.522,5.515.116s5.619,4.223,5.629,5.783c1.676,71.4-9.956,156.42-54.991,249.705-43.368,93.291-119.853,194.842-206.862,299.324C-1660.381,1793.447-1663.273,1795.007-1664.95,1794.653Z" transform="translate(1666.09 -1235.084)" fill="#001c3a"/>
        </g>
        <g id="Groupe_25" data-name="Groupe 25" transform="translate(0 929.789)">
          <path id="Tracé_237" data-name="Tracé 237" d="M-1888.082,1983.323c-2.048.749-3.378-2.909-2.76-8.166,6.515-56.473,29.668-114.581,63.6-173.417,3.153-5.478,7.487-10.193,9.538-10.506s1.078,3.836-2.053,9.267c-33.728,58.375-56.836,116.019-63.613,172.052C-1884.008,1977.767-1886.031,1982.584-1888.082,1983.323Z" transform="translate(1890.994 -1791.217)" fill="#001c3a"/>
        </g>
        <g id="Groupe_26" data-name="Groupe 26" transform="translate(301.254 286.853)">
          <path id="Tracé_238" data-name="Tracé 238" d="M-1673.739,1783.945c-3.559-.43-3.442-4.37.268-8.813,118.449-139.349,228.437-275.23,278.815-394.27,1.669-3.8,5.908-4.9,9.5-2.495a9.1,9.1,0,0,1,3.308,11.065c-53.19,116.991-162.431,250.507-278.853,387.405C-1664.346,1781.183-1670.175,1784.369-1673.739,1783.945Z" transform="translate(1676.333 -1377.095)" fill="#ff9929"/>
        </g>
        <g id="Groupe_27" data-name="Groupe 27" transform="translate(181.445 729.902)">
          <path id="Tracé_239" data-name="Tracé 239" d="M-1758.023,1776.129c-4.155.315-4.922-3.051-1.642-7.516,24.069-32.828,50.167-65.729,77.012-98.526,3.655-4.465,9.629-7.87,13.32-7.6s3.778,4.01.2,8.38c-26.372,32.223-51.972,64.543-75.606,96.786C-1747.94,1772.014-1753.866,1775.819-1758.023,1776.129Z" transform="translate(1761.705 -1662.468)" fill="#fa214d"/>
        </g>
        <g id="Groupe_28" data-name="Groupe 28" transform="translate(86.848 1089.13)">
          <path id="Tracé_240" data-name="Tracé 240" d="M-1795.117,2057.383a3.288,3.288,0,0,1-4.929-1.162c-25.86-49.869-33.941-102.541-26.318-156.995a7.275,7.275,0,0,1,4.593-5.106c2.241-.786,3.809.205,3.516,2.212-7.852,53.95-.323,106.123,24.614,155.526A4.493,4.493,0,0,1-1795.117,2057.383Z" transform="translate(1829.11 -1893.85)" fill="#ff9929"/>
        </g>
        <g id="Groupe_29" data-name="Groupe 29" transform="translate(596.151)">
          <path id="Tracé_241" data-name="Tracé 241" d="M-1461.558,1460.894c-3.708-2.485-5.572-7.509-4.188-11.2,40.457-102.808,37.619-191.325,51.46-256.168.518-2.327,7.087-1.15,14.47,2.588s12.608,8.579,11.9,10.864c-18.421,63.79-20.934,150.811-64.183,251.857C-1453.612,1462.45-1457.85,1463.381-1461.558,1460.894Z" transform="translate(1466.202 -1192.329)" fill="#3992a0"/>
        </g>
        <g id="Groupe_30" data-name="Groupe 30" transform="translate(514.697 178.317)">
          <path id="Tracé_242" data-name="Tracé 242" d="M-1521.537,1390.5c-2.48-1.49-3.4-6.261-2.154-10.607a451.423,451.423,0,0,0,14.228-67.786c.522-4.114,3.316-6.021,6.318-4.284s4.944,6.415,4.294,10.48a472.056,472.056,0,0,1-15.708,67.092C-1515.9,1389.7-1519.06,1392-1521.537,1390.5Z" transform="translate(1524.243 -1307.185)" fill="#fa214d"/>
        </g>
        <g id="Groupe_31" data-name="Groupe 31" transform="translate(30.799 1064.224)">
          <path id="Tracé_243" data-name="Tracé 243" d="M-1253.477,2418.362c4.425,4.06,1.6,5.437-6.448,3.049-200.134-59.267-376.826-137.846-482.577-228.922-107.946-91.07-144.5-194.639-118.532-303.873.994-4.394,5.555-9.068,10.068-10.428s7.248,1.035,6.227,5.342c-26.475,107.326,7.128,209.074,109.365,298.526,100.156,89.457,268.517,166.619,460.189,224.784C-1267.54,2409.177-1257.888,2414.311-1253.477,2418.362Z" transform="translate(1869.048 -1877.808)" fill="#001c3a"/>
        </g>
        <g id="Groupe_32" data-name="Groupe 32" transform="translate(2.343 1134.506)">
          <path id="Tracé_244" data-name="Tracé 244" d="M-1571.665,2289.387c.509,2.577-5.8,1.4-13.962-2.7-199.863-99.132-305.779-220.162-303.667-351.278-.024-5.414,2.811-10.827,6.1-12.072s5.757,2.079,5.707,7.415c-3.442,129.429,97.891,248.895,290.653,346.715C-1579.01,2281.5-1572.169,2286.813-1571.665,2289.387Z" transform="translate(1889.325 -1923.078)" fill="#fa214d"/>
        </g>
        <g id="Groupe_33" data-name="Groupe 33" transform="translate(55.933 893.99)">
          <path id="Tracé_245" data-name="Tracé 245" d="M-1693.5,2268.518c-.849,1.75-3.652,1.585-6.242-.377-92.679-69.924-143.165-148.547-150.277-232.226-7.953-83.683,27.132-172.415,85.082-262.568,1.62-2.528,4.961-4.841,7.421-5.152s3.148,1.458,1.548,3.959c-57.4,89.233-92.374,177.064-85.3,259.877,6.256,82.819,54.873,160.623,144.772,229.816C-1694.006,2263.788-1692.65,2266.769-1693.5,2268.518Z" transform="translate(1851.139 -1768.158)" fill="#0a5961"/>
        </g>
        <g id="Groupe_34" data-name="Groupe 34" transform="translate(269.895 1427.31)">
          <path id="Tracé_246" data-name="Tracé 246" d="M-1404.615,2245.879c1.563,1.979-.062,2.6-3.667,1.379-108.54-36.688-207.392-80-286.291-128.487-2.623-1.605-4.437-4.237-4.054-5.862s2.751-1.644,5.3-.054c76.905,48.028,173.409,90.941,279.548,127.279C-1410.268,2241.332-1406.181,2243.906-1404.615,2245.879Z" transform="translate(1698.678 -2111.676)" fill="#ffc900"/>
        </g>
      </g>
    </g>
  </g>
</svg>
