<svg xmlns="http://www.w3.org/2000/svg" width="946.677" height="855.791" viewBox="0 0 946.677 855.791">
  <g id="Groupe_79" data-name="Groupe 79" transform="translate(0 16.269) rotate(-1)">
    <g id="Groupe_76" data-name="Groupe 76">
      <path id="Tracé_268" data-name="Tracé 268" d="M-4934.026,1918.949c-30.555,62.451-132.087,77.786-140.078,146.849-3.641,31.462,16.38,61.834,42.425,79.857s57.434,26.205,87.973,34.6c70.067,19.267,141.274,42.336,197.432,88.456s94.618,120.446,79.126,191.443c-20.1,92.1-123.961,145.79-218.146,141.772s-180.419-51.1-262.747-97.021l-211.6-118.037c-33.1-18.467-66.367-37.038-96.131-60.511-123.044-97.033-197.072-325.711-84.708-459.013,81.664-96.878,284.032-91.759,398.363-103.758C-5063.075,1755.293-4872.227,1792.635-4934.026,1918.949Z" transform="translate(5595.861 -1762.488)" fill="#f0f8fe"/>
    </g>
    <g id="Groupe_78" data-name="Groupe 78">
      <g id="Groupe_77" data-name="Groupe 77" opacity="0.71" style="mix-blend-mode: luminosity;isolation: isolate">
        <path id="Tracé_269" data-name="Tracé 269" d="M-4934.026,1918.949c-30.555,62.451-132.087,77.786-140.078,146.849-3.641,31.462,16.38,61.834,42.425,79.857s57.434,26.205,87.973,34.6c70.067,19.267,141.274,42.336,197.432,88.456s94.618,120.446,79.126,191.443c-20.1,92.1-123.961,145.79-218.146,141.772s-180.419-51.1-262.747-97.021l-211.6-118.037c-33.1-18.467-66.367-37.038-96.131-60.511-123.044-97.033-197.072-325.711-84.708-459.013,81.664-96.878,284.032-91.759,398.363-103.758C-5063.075,1755.293-4872.227,1792.635-4934.026,1918.949Z" transform="translate(5595.861 -1762.488)" fill="#f0f8fe"/>
      </g>
    </g>
  </g>
</svg>
