<svg id="Groupe_71" data-name="Groupe 71" xmlns="http://www.w3.org/2000/svg" width="572.8" height="1046.447" viewBox="0 0 572.8 1046.447">
  <g id="Groupe_68" data-name="Groupe 68">
    <path id="Tracé_264" data-name="Tracé 264" d="M-4075.119,2717.253c-27.025-84.418-81.953-161.634-158.954-205.539s-176.575-50.841-254.484-8.567-127.361,136.281-108.513,222.892c22.917,105.309,129.916,171.843,170.473,271.693,24.825,61.123,22.627,129.461,18.447,195.3s-9.784,133.361,9.011,196.6,68.417,122.22,133.848,130.643c55.656,7.164,111.075-24.042,145.854-68.082s52.087-99.232,64.439-153.971a1092.016,1092.016,0,0,0,21.706-344.488C-4040.987,2873.917-4050.67,2793.623-4075.119,2717.253Z" transform="translate(4601.082 -2474.853)" fill="#f0f8fe"/>
  </g>
  <g id="Groupe_70" data-name="Groupe 70">
    <g id="Groupe_69" data-name="Groupe 69" opacity="0.71" style="mix-blend-mode: luminosity;isolation: isolate">
      <path id="Tracé_265" data-name="Tracé 265" d="M-4075.119,2717.253c-27.025-84.418-81.953-161.634-158.954-205.539s-176.575-50.841-254.484-8.567-127.361,136.281-108.513,222.892c22.917,105.309,129.916,171.843,170.473,271.693,24.825,61.123,22.627,129.461,18.447,195.3s-9.784,133.361,9.011,196.6,68.417,122.22,133.848,130.643c55.656,7.164,111.075-24.042,145.854-68.082s52.087-99.232,64.439-153.971a1092.016,1092.016,0,0,0,21.706-344.488C-4040.987,2873.917-4050.67,2793.623-4075.119,2717.253Z" transform="translate(4601.082 -2474.853)" fill="#f0f8fe"/>
    </g>
  </g>
</svg>
